<?xml version="1.0" encoding="UTF-8"?>
<svg id="Layer_1" data-name="Layer 1" xmlns="http://www.w3.org/2000/svg" viewBox="0 0 300 225">
  <defs>
    <style>
      .cls-1 {
        fill: #fff;
      }

      .cls-2 {
        fill: #d0dae3;
      }

      .cls-3 {
        fill: #232323;
      }

      .cls-4 {
        fill: #ff7e1c;
      }

      .cls-5 {
        fill: #444;
      }

      .cls-6 {
        fill: #ea651b;
      }

      .cls-7 {
        fill: #7f7f7f;
      }
    </style>
  </defs>
  <g>
    <g>
      <g>
        <path class="cls-3" d="m149.34,183.62c-.13,1.06-3.58,30.98-8.67,35.19-5.09,4.2-7.77,2.8-8.81,1.68-1.09-1.16-2.46-3.26.07-5.63,2.04-1.91,3.46-10.34,1.4-23.49l16.01-7.75Z"/>
        <g>
          <path class="cls-3" d="m128.27,217.24c-.64.18-1.34.08-1.58-.35-.24-.43.14-1.18.91-1.54,2.08-.99,4.46-1.32,6.8-.87.87.17,1.23,1.08.83,1.89-.4.82-1.13,1.24-1.7,1.04-1.62-.6-3.47-.69-5.26-.16Z"/>
          <path class="cls-3" d="m129.27,220.96c-.56.35-1.27.45-1.62.1-.35-.35-.19-1.17.44-1.73,1.72-1.53,3.92-2.5,6.29-2.72.88-.08,1.48.7,1.32,1.59-.15.89-.74,1.51-1.34,1.46-1.72-.13-3.51.3-5.09,1.3Z"/>
          <path class="cls-3" d="m132.03,223.77c-.34.57-.92.98-1.4.82-.47-.15-.7-.95-.4-1.75.83-2.14,2.35-4.01,4.37-5.28.75-.48,1.63-.05,1.9.81.27.87.03,1.68-.53,1.92-1.59.67-2.99,1.87-3.94,3.48Z"/>
        </g>
      </g>
      <g>
        <path class="cls-3" d="m152.46,183.35c.13,1.06,3.7,30.97,8.8,35.15,5.1,4.18,7.78,2.77,8.81,1.65,1.08-1.17,2.45-3.27-.1-5.63-2.04-1.9-3.49-10.33-1.48-23.48l-16.03-7.69Z"/>
        <g>
          <path class="cls-3" d="m172.77,217.23c.64.18,1.34.07,1.58-.36.24-.43-.14-1.18-.91-1.54-2.08-.99-4.46-1.3-6.8-.84-.87.17-1.22,1.09-.82,1.89.4.82,1.14,1.24,1.7,1.03,1.62-.6,3.46-.7,5.26-.18Z"/>
          <path class="cls-3" d="m171.78,220.95c.57.35,1.27.44,1.62.1.35-.35.19-1.17-.45-1.73-1.72-1.52-3.93-2.49-6.3-2.7-.88-.07-1.48.7-1.32,1.59.16.89.75,1.5,1.35,1.46,1.72-.13,3.52.29,5.1,1.28Z"/>
          <path class="cls-3" d="m169.04,223.77c.34.57.93.97,1.4.82.47-.15.7-.96.39-1.75-.84-2.14-2.36-4-4.38-5.27-.75-.47-1.63-.05-1.89.82-.27.87-.02,1.68.54,1.91,1.59.67,3,1.86,3.96,3.47Z"/>
        </g>
      </g>
    </g>
    <path class="cls-5" d="m123.7,167.79c1.1-10.32,5.39-22.91,13.54-27.46,3.49-1.95,7.56-3.36,13.17-4.3,1.33.22,2.57.47,3.74.74.2.05.4.1.6.15.35.09.69.17,1.02.27.21.06.42.12.63.18.34.1.66.2.99.3.17.05.34.1.51.16.47.15.92.32,1.37.48.13.05.26.1.38.15.34.13.66.26.99.4.15.07.3.13.45.2.31.14.61.28.91.42.12.06.25.12.38.18.41.21.82.41,1.22.63,8.75,4.84,13.09,18.91,13.83,29.56.07,1.55.1,3.03.09,4.43,0,3.6-.23,6.59-.66,8.4-.02.08-.06.17-.08.25-2.18,9.9-13.12,17.45-26.31,17.48-14.77.03-26.76-9.39-26.79-21.02,0-.11,0-.21,0-.32-.23-3-.24-6.97,0-11.26Z"/>
    <path class="cls-1" d="m130.7,138.91c3.38-3.86,7.76-5.76,16.41-6.13.14,0,.28-.01.41-.02.43-.02.88-.03,1.33-.04.45,0,.91-.01,1.39-.02.06,0,.1,0,.16,0h.1s.06,0,.09,0c.5,0,.99,0,1.46.01.54,0,1.07.02,1.58.04.05,0,.1,0,.15,0,8.65.35,13.05,2.23,16.44,6.07,4.49,5.09,6.77,19.66,7.25,30.99-.74-10.65-5.09-24.72-13.84-29.56-3.5-1.94-7.57-3.33-13.18-4.26-5.61.95-9.67,2.36-13.17,4.31-8.73,4.87-13.02,18.96-13.72,29.6.43-11.34,2.66-25.92,7.13-31.02Z"/>
    <path class="cls-3" d="m168,143.41c-1.31-1.94-3.8-2.71-5.95-1.32-2.15,1.39-2.86,5.18-1.05,7.9,5.15,7.75,13.38,12.09,22.68,11.96,3.27-.04,6-2.78,5.93-5.33-.06-2.57-2.1-4.18-4.45-4.17-7.04.09-13.26-3.18-17.16-9.05Z"/>
    <path class="cls-3" d="m186.29,152.92c-.77-.15-1.59.05-1.82.59-.24.53.29,1.37,1.23,1.72,2.54.94,5.38,1.07,8.08.28,1.01-.29,1.33-1.4.77-2.31-.56-.91-1.46-1.34-2.11-1.03-1.83.88-3.99,1.18-6.15.76Z"/>
    <path class="cls-3" d="m187.26,154.65c-.73-.28-1.57-.23-1.9.26-.32.48.05,1.4.91,1.91,2.34,1.38,5.11,2,7.9,1.71,1.04-.11,1.55-1.15,1.17-2.14-.39-1-1.2-1.57-1.89-1.39-1.96.54-4.14.46-6.19-.34Z"/>
    <path class="cls-3" d="m186.91,157.31c-.73-.28-1.57-.23-1.9.26-.33.48.04,1.4.91,1.9,2.34,1.38,5.1,2,7.9,1.71,1.04-.11,1.55-1.15,1.17-2.14-.39-.99-1.2-1.57-1.89-1.39-1.96.54-4.13.46-6.19-.34Z"/>
    <path class="cls-3" d="m133.8,143.07c1.49-1.81,4.03-2.35,6.05-.76,2.01,1.58,2.37,5.42.31,7.97-5.85,7.23-14.44,10.79-23.7,9.79-3.25-.35-5.71-3.32-5.41-5.85.3-2.55,2.49-3.97,4.82-3.74,7,.75,13.5-1.94,17.93-7.41Z"/>
    <path class="cls-3" d="m108.09,156.46c-.67-.12-1.37.07-1.56.54-.19.46.27,1.18,1.09,1.46,2.21.77,4.65.84,6.96.12.86-.27,1.12-1.23.63-2-.49-.78-1.28-1.13-1.83-.85-1.57.78-3.42,1.07-5.29.74Z"/>
    <path class="cls-3" d="m108.69,152.6c-.61-.3-1.33-.31-1.64.08-.32.39-.06,1.2.64,1.7,1.91,1.35,4.24,2.09,6.66,2.05.9-.02,1.42-.87,1.16-1.75-.26-.88-.92-1.44-1.52-1.33-1.72.32-3.59.09-5.29-.75Z"/>
    <path class="cls-3" d="m188.26,148.77c-.06-.79.3-1.57.97-1.74.66-.16,1.58.46,1.84,1.44.74,2.64.46,5.47-.88,8.05-.5.96-1.86,1.14-2.85.47-1-.67-1.36-1.62-.9-2.22,1.31-1.71,2-3.81,1.82-6.01Z"/>
    <path class="cls-1" d="m150.57,98.64c4.77,0,10.35-1.89,13.5-2.7,3.7-.94,5.46-.97,8.18-.98,8.26-.01,10.81,4.31,11.5,6.08-5.45-16.73-22.69-19.05-32.87-19.03h-.84c-10.18.02-27.41,2.4-32.8,19.16.69-1.77,3.22-6.1,11.48-6.12,2.73,0,4.49.02,8.19.95,3.16.79,8.74,2.66,13.51,2.65h.14Z"/>
    <path class="cls-5" d="m117.28,101.18h-.03c.69-1.78,3.22-6.12,11.48-6.14,2.73,0,4.49.02,8.19.95,3.16.79,8.74,2.66,13.51,2.65h.14c4.77,0,10.35-1.89,13.5-2.7,3.7-.94,5.46-.97,8.18-.98,8.26-.02,10.81,4.31,11.5,6.08h-.03c1.75,1.69,2.92,6.08,2.77,11.23-.18,6.52-2.4,11.75-4.96,11.68-.05,0-.1-.02-.14-.02-5.92,11.96-22.19,17.53-30.74,17.55-8.54.01-24.96-5.5-30.96-17.44-.05,0-.1.02-.16.02-2.55.08-4.79-5.14-5-11.66-.16-5.14.99-9.54,2.73-11.22Z"/>
    <path class="cls-7" d="m150.6,132.83c4.32,0,13.48-4.02,13.46-12.81-.02-8.78-10.13-9.46-13.53-9.45-3.4,0-13.52.72-13.51,9.5.02,8.78,9.26,12.77,13.58,12.76Z"/>
    <path class="cls-3" d="m150.32,112.88c-1.88,0-4.65,1.97-4.97,4.25-.32,2.29,5.11,2.19,5.11,2.19h.15s5.43.07,5.1-2.21c-.33-2.28-3.11-4.24-4.99-4.23h-.4Z"/>
    <g>
      <circle class="cls-3" cx="164.36" cy="106.2" r="1.66"/>
      <path class="cls-3" d="m135.01,106.25c0,.92.74,1.66,1.66,1.66.91,0,1.65-.74,1.65-1.66,0-.92-.74-1.66-1.66-1.66-.92,0-1.66.75-1.65,1.66Z"/>
    </g>
    <path class="cls-3" d="m120.8,104.9c-2.1.08-3.81,4.05-4.45,9.66-.08-.7-.13-1.44-.15-2.2-.14-5.12,1.1-9.33,2.77-9.39.71-.03,1.38.7,1.93,1.94-.03,0-.07-.01-.1-.01Z"/>
    <path class="cls-3" d="m180.22,104.79c2.1.07,3.82,4.04,4.49,9.65.07-.71.12-1.44.14-2.2.12-5.12-1.14-9.32-2.8-9.38-.71-.02-1.38.71-1.92,1.95.03,0,.06-.01.1-.01Z"/>
    <path class="cls-7" d="m161.16,102.21c-.16,0-.32-.06-.44-.17-.27-.24-.28-.66-.04-.92.47-.51,1.03-.91,1.66-1.2.64-.29,1.31-.44,1.99-.46.67-.02,1.32.09,1.94.33.62.23,1.19.58,1.68,1.04.26.24.28.66.03.92-.25.26-.66.28-.92.03-.36-.34-.79-.6-1.25-.77-.47-.18-.96-.26-1.45-.25-.51.01-1.01.13-1.49.34-.47.21-.89.51-1.23.89-.13.14-.3.21-.48.21Z"/>
    <path class="cls-7" d="m133.4,102.21c-.16,0-.32-.06-.44-.17-.26-.24-.28-.66-.04-.92.47-.51,1.03-.91,1.66-1.2.64-.29,1.31-.44,1.99-.46.66-.02,1.32.09,1.95.33.63.24,1.19.58,1.68,1.04.26.24.28.66.04.92-.25.26-.66.28-.92.04-.36-.34-.79-.6-1.25-.77-.47-.18-.96-.26-1.45-.25-.51.01-1.01.13-1.49.34-.47.21-.89.51-1.24.89-.13.14-.3.21-.48.21Z"/>
    <path class="cls-3" d="m150.54,129.01h-.03c-1.05,0-2.07-.21-3.03-.61-.94-.4-1.77-.96-2.47-1.67-.72-.72-1.28-1.55-1.66-2.48-.13-.3.02-.65.32-.77.3-.13.65.02.77.32.33.78.8,1.49,1.41,2.1.6.6,1.3,1.08,2.1,1.42.82.35,1.68.53,2.59.52.88,0,1.74-.17,2.55-.52.79-.33,1.5-.8,2.1-1.41.61-.61,1.08-1.31,1.42-2.1.13-.3.48-.44.78-.31.3.13.44.48.31.78-.39.92-.96,1.76-1.67,2.47-.72.71-1.55,1.27-2.48,1.66-.95.4-1.96.61-3.01.61Z"/>
    <path class="cls-1" d="m83.28,121.86l18.17-3.41c1.09-.2,2.07,0,2.97.62.9.62,1.45,1.46,1.65,2.55l6.34,33.75c.2,1.08,0,2.07-.62,2.97-.62.9-1.46,1.45-2.54,1.65l-18.17,3.41c-1.08.2-2.08,0-2.97-.62-.9-.61-1.46-1.46-1.66-2.54l-6.34-33.75c-.2-1.08,0-2.07.62-2.97.61-.9,1.46-1.45,2.54-1.66Z"/>
    <path class="cls-3" d="m88.95,152.04c.05.27.19.49.41.64.23.15.47.2.75.15l16.23-3.05c.27-.05.48-.19.64-.41.15-.22.21-.47.15-.74l-4.75-25.31c-.05-.27-.19-.48-.41-.63-.23-.15-.48-.21-.74-.15l-16.23,3.05c-.27.05-.48.19-.64.42-.15.23-.2.47-.15.74l4.75,25.31Z"/>
    <path class="cls-2" d="m99.68,159.1c.7-.13,1.26-.5,1.68-1.11.41-.61.56-1.27.43-1.97-.13-.7-.51-1.26-1.12-1.68-.61-.42-1.27-.56-1.97-.43-.7.13-1.26.51-1.68,1.12-.41.61-.56,1.27-.43,1.97.13.7.51,1.27,1.11,1.68.61.42,1.27.56,1.97.43Z"/>
    <g>
      <g>
        <path class="cls-6" d="m91.68,142.32c.48.46,1.05.86,1.68,1.16,3.23,1.55,7.1.2,8.65-3.03.83-1.72.83-3.63.16-5.27-.02,1.08-.27,2.18-.77,3.21-1.76,3.66-6,5.31-9.72,3.92Z"/>
        <path class="cls-4" d="m90.33,134.84c-1.25,2.59-.62,5.6,1.35,7.49,3.73,1.39,7.96-.26,9.72-3.92.5-1.04.75-2.13.77-3.21-.59-1.43-1.68-2.66-3.19-3.39-3.23-1.55-7.1-.19-8.65,3.03Z"/>
      </g>
      <path class="cls-1" d="m98.14,137.47c.17.16.26.4.27.72,0,.39-.12.68-.37.89-.22.18-.57.3-1.04.4l.09.73-.53.07-.09-.73-.41.05.09.72-.53.07-.09-.73-1.05.13.03-.64h.11c.17-.03.28-.05.33-.07.07-.03.1-.09.11-.18l-.29-2.34c-.04-.11-.11-.18-.21-.19-.07-.01-.21,0-.41.03h-.09s-.07-.55-.07-.55l.33-.03c.38-.05.62-.08.72-.1l-.11-.85.53-.07.11.84.41-.06-.1-.83.53-.07.11.85c.37-.01.66.03.87.13.26.12.41.31.47.6.1.41-.01.73-.33.94h0c.28.03.49.11.63.26h0Zm-2.36-.18h.09c.3-.04.54-.09.7-.15.28-.11.4-.28.37-.52-.03-.24-.19-.38-.48-.42-.16-.02-.4-.01-.71.03-.05.01-.08.02-.1.02l.13,1.04Zm.31,1.66c.37-.04.64-.09.82-.16.33-.13.48-.32.44-.58-.03-.26-.22-.41-.56-.46-.19-.03-.46-.01-.83.05h-.12s.14,1.16.14,1.16h.1Z"/>
    </g>
    <path class="cls-3" d="m109.03,150.58c-.66-.11-1.26-.52-1.29-1.02-.03-.5.65-1.02,1.51-1.01,2.34,0,4.66.76,6.61,2.2.72.54.65,1.53-.07,2.1-.72.57-1.58.64-2.01.2-1.22-1.26-2.87-2.15-4.75-2.46Z"/>
  </g>
  <path class="cls-3" d="m90.88,116.91c-.31,0-.58-.22-.65-.53l-.52-2.59c-.07-.36.16-.71.52-.78.35-.07.71.16.78.52l.52,2.59c.07.36-.16.71-.52.78-.04,0-.09.01-.13.01Zm-1.44-7.13c-.31,0-.58-.22-.65-.53l-.52-2.59c-.07-.36.16-.71.52-.78.36-.07.71.16.78.52l.52,2.59c.07.36-.16.71-.52.78-.04,0-.09.01-.13.01Zm-1.44-7.13c-.31,0-.58-.22-.65-.53l-.52-2.59c-.07-.36.16-.71.52-.78.36-.07.71.16.78.52l.52,2.59c.07.36-.16.71-.52.78-.04,0-.09.01-.13.01Zm-1.44-7.13c-.31,0-.58-.22-.65-.53l-.52-2.59c-.07-.36.16-.71.52-.78.36-.07.71.16.78.52l.52,2.59c.07.36-.16.71-.52.78-.04,0-.09.01-.13.01Zm-1.44-7.13c-.31,0-.58-.22-.65-.53l-.52-2.59c-.07-.36.16-.71.52-.78.36-.07.71.16.78.52l.52,2.59c.07.36-.16.71-.52.78-.04,0-.09.01-.13.01Zm-1.44-7.13c-.31,0-.58-.22-.65-.53l-.52-2.59c-.07-.36.16-.71.52-.78.35-.07.71.16.78.52l.52,2.59c.07.36-.16.71-.52.78-.04,0-.09.01-.13.01Zm-1.44-7.13c-.31,0-.58-.22-.65-.53l-.52-2.59c-.07-.36.16-.71.52-.78.36-.07.71.16.78.52l.52,2.59c.07.36-.16.71-.52.78-.04,0-.09.01-.13.01Zm-1.44-7.13c-.31,0-.58-.22-.65-.53l-.52-2.59c-.07-.36.16-.71.52-.78.35-.07.71.16.78.52l.52,2.59c.07.36-.16.71-.52.78-.04,0-.09.01-.13.01Zm-1.44-7.13c-.31,0-.58-.22-.65-.53l-.52-2.59c-.07-.36.16-.71.52-.78.36-.07.71.16.78.52l.52,2.59c.07.36-.16.71-.52.78-.04,0-.09.01-.13.01Zm-1.44-7.13c-.31,0-.58-.22-.65-.53l-.52-2.59c-.07-.36.16-.71.52-.78.36-.07.71.16.78.52l.52,2.59c.07.36-.16.71-.52.78-.04,0-.09.01-.13.01Z"/>
  <path class="cls-6" d="m66.1,43.68c.76.73,1.65,1.36,2.65,1.84,5.09,2.45,11.2.31,13.65-4.78,1.31-2.72,1.31-5.72.25-8.31-.03,1.71-.43,3.43-1.21,5.07-2.78,5.76-9.46,8.38-15.34,6.18Z"/>
  <path class="cls-4" d="m63.97,31.87c-1.97,4.09-.97,8.83,2.13,11.81,5.88,2.19,12.57-.42,15.34-6.18.79-1.64,1.18-3.36,1.21-5.07-.92-2.26-2.66-4.2-5.03-5.34-5.09-2.45-11.2-.31-13.65,4.78Z"/>
  <path class="cls-6" d="m109.22,73.66c.76.73,1.65,1.36,2.65,1.84,5.09,2.45,11.2.31,13.65-4.78,1.31-2.71,1.31-5.72.25-8.31-.03,1.71-.43,3.43-1.21,5.07-2.77,5.76-9.46,8.38-15.34,6.18Z"/>
  <path class="cls-4" d="m107.09,61.84c-1.97,4.09-.97,8.83,2.13,11.81,5.88,2.19,12.57-.42,15.34-6.18.79-1.64,1.18-3.36,1.21-5.07-.92-2.26-2.66-4.2-5.03-5.34-5.09-2.45-11.2-.31-13.65,4.78Z"/>
  <path class="cls-6" d="m130.3,17.24c.76.73,1.65,1.36,2.65,1.84,5.09,2.45,11.2.31,13.65-4.78,1.31-2.72,1.31-5.72.25-8.31-.03,1.71-.43,3.43-1.21,5.07-2.77,5.77-9.46,8.38-15.34,6.19Z"/>
  <path class="cls-4" d="m128.17,5.42c-1.97,4.09-.97,8.83,2.13,11.81,5.88,2.19,12.57-.42,15.34-6.18.79-1.64,1.18-3.36,1.21-5.07-.92-2.26-2.66-4.2-5.03-5.34-5.09-2.45-11.2-.31-13.65,4.78Z"/>
  <path class="cls-6" d="m157.99,60.43c.76.73,1.65,1.36,2.65,1.84,5.09,2.45,11.2.31,13.65-4.78,1.31-2.71,1.3-5.72.25-8.31-.04,1.71-.43,3.43-1.21,5.07-2.77,5.77-9.46,8.38-15.34,6.18Z"/>
  <path class="cls-4" d="m155.86,48.62c-1.97,4.09-.97,8.83,2.13,11.81,5.88,2.19,12.57-.42,15.34-6.18.79-1.64,1.18-3.36,1.21-5.07-.93-2.26-2.66-4.2-5.03-5.34-5.09-2.45-11.2-.31-13.65,4.78Z"/>
  <path class="cls-6" d="m220.05,82.69c.76.73,1.65,1.36,2.65,1.84,5.09,2.45,11.2.31,13.65-4.78,1.31-2.72,1.3-5.72.25-8.31-.03,1.71-.43,3.43-1.21,5.07-2.77,5.77-9.46,8.38-15.34,6.18Z"/>
  <path class="cls-4" d="m217.92,70.55c-1.97,4.09-.97,8.83,2.13,11.81,5.88,2.19,12.57-.42,15.34-6.18.79-1.64,1.18-3.36,1.21-5.07-.92-2.26-2.66-4.2-5.03-5.34-5.09-2.45-11.2-.31-13.65,4.79Z"/>
  <path class="cls-6" d="m190.97,33.54c.76.73,1.65,1.36,2.65,1.84,5.09,2.45,11.2.31,13.65-4.78,1.31-2.72,1.31-5.72.25-8.31-.03,1.71-.42,3.43-1.21,5.07-2.77,5.77-9.46,8.38-15.34,6.18Z"/>
  <path class="cls-4" d="m188.84,21.73c-1.97,4.09-.97,8.83,2.13,11.81,5.88,2.19,12.57-.42,15.34-6.18.79-1.64,1.18-3.36,1.21-5.07-.92-2.26-2.66-4.2-5.03-5.34-5.09-2.45-11.2-.31-13.65,4.78Z"/>
  <path class="cls-3" d="m86.7,31.29c-.25,0-.49-.14-.6-.39-.15-.33,0-.72.32-.88l2.4-1.1c.33-.15.72,0,.88.32.15.33,0,.72-.32.88l-2.4,1.1c-.09.04-.18.06-.28.06Zm6.61-3.04c-.25,0-.49-.14-.6-.39-.15-.33,0-.72.32-.88l2.4-1.1c.33-.15.72,0,.88.32.15.33,0,.72-.32.88l-2.4,1.1c-.09.04-.18.06-.28.06Zm6.61-3.04c-.25,0-.49-.14-.6-.39-.15-.33,0-.72.32-.88l2.4-1.1c.33-.15.72,0,.88.32.15.33,0,.72-.32.88l-2.4,1.1c-.09.04-.18.06-.28.06Zm6.61-3.04c-.25,0-.49-.14-.6-.39-.15-.33,0-.72.32-.88l2.4-1.1c.33-.15.72,0,.88.32.15.33,0,.72-.32.88l-2.4,1.1c-.09.04-.18.06-.28.06Zm6.61-3.04c-.25,0-.49-.14-.6-.39-.15-.33,0-.72.32-.88l2.4-1.1c.33-.15.72,0,.88.32.15.33,0,.72-.32.88l-2.4,1.1c-.09.04-.18.06-.28.06Zm6.61-3.04c-.25,0-.49-.14-.6-.39-.15-.33,0-.72.32-.88l2.4-1.1c.33-.15.72,0,.88.32.15.33,0,.72-.32.88l-2.4,1.1c-.09.04-.18.06-.28.06Z"/>
  <path class="cls-3" d="m130.11,63.47c-.28,0-.54-.18-.63-.47-.11-.35.09-.72.44-.83l2.53-.77c.35-.11.72.09.83.44.11.35-.09.72-.44.83l-2.53.77c-.06.02-.13.03-.19.03Zm6.95-2.13c-.28,0-.54-.18-.63-.47-.11-.35.09-.72.44-.83l2.53-.77c.35-.11.72.09.83.44.11.35-.09.72-.44.83l-2.53.77c-.06.02-.13.03-.19.03Zm6.95-2.13c-.28,0-.54-.18-.63-.47-.11-.35.09-.72.44-.83l2.53-.77c.35-.11.72.09.83.44.11.35-.09.72-.44.83l-2.53.77c-.06.02-.13.03-.19.03Zm6.95-2.13c-.28,0-.54-.18-.63-.47-.11-.35.09-.72.44-.83l.74-.23c.35-.11.72.09.83.44.11.35-.09.72-.44.83l-.74.23c-.06.02-.13.03-.19.03Z"/>
  <path class="cls-3" d="m121.27,52.32c-.06,0-.13,0-.2-.03-.35-.11-.54-.48-.44-.83l.79-2.53c.11-.35.48-.54.83-.44.35.11.54.48.44.83l-.79,2.53c-.09.28-.35.47-.63.47Zm2.16-6.95c-.06,0-.13,0-.2-.03-.35-.11-.54-.48-.44-.83l.78-2.53c.11-.35.48-.54.83-.44.35.11.54.48.44.83l-.78,2.53c-.09.28-.35.47-.63.47Zm2.16-6.94c-.06,0-.13,0-.2-.03-.35-.11-.54-.48-.44-.83l.79-2.53c.11-.35.48-.54.83-.44.35.11.54.48.44.83l-.79,2.53c-.09.28-.35.47-.63.47Zm2.16-6.95c-.06,0-.13,0-.2-.03-.35-.11-.54-.48-.44-.83l.78-2.53c.11-.35.48-.54.83-.44.35.11.54.48.44.83l-.78,2.53c-.09.28-.35.47-.63.47Zm2.16-6.95c-.06,0-.13,0-.2-.03-.35-.11-.54-.48-.44-.83l.78-2.53c.11-.35.48-.54.83-.44.35.11.54.48.44.83l-.78,2.53c-.09.28-.35.47-.63.47Z"/>
  <path class="cls-3" d="m102.38,57.92c-.11,0-.22-.03-.32-.08l-2.31-1.29c-.32-.18-.43-.58-.26-.9.18-.32.58-.43.9-.26l2.31,1.29c.32.18.43.58.26.9-.12.22-.35.34-.58.34Zm-6.35-3.54c-.11,0-.22-.03-.32-.08l-2.31-1.29c-.32-.18-.43-.58-.26-.9.18-.32.58-.43.9-.26l2.31,1.29c.32.18.43.58.26.9-.12.22-.35.34-.58.34Zm-6.35-3.54c-.11,0-.22-.03-.32-.08l-2.31-1.29c-.32-.18-.43-.58-.26-.9.18-.32.58-.43.9-.26l2.31,1.29c.32.18.43.58.26.9-.12.22-.35.34-.58.34Zm-6.35-3.54c-.11,0-.22-.03-.32-.08l-2.31-1.29c-.32-.18-.43-.58-.26-.9.18-.32.58-.43.9-.26l2.31,1.29c.32.18.43.58.26.9-.12.22-.35.34-.58.34Z"/>
  <path class="cls-3" d="m157.16,41.91c-.22,0-.44-.11-.56-.31l-1.4-2.24c-.19-.31-.1-.72.21-.91.31-.19.72-.1.91.21l1.4,2.24c.19.31.1.72-.21.91-.11.07-.23.1-.35.1Zm-3.85-6.17c-.22,0-.44-.11-.56-.31l-1.4-2.24c-.19-.31-.1-.72.21-.91.31-.19.72-.1.91.21l1.4,2.24c.19.31.1.72-.21.91-.11.07-.23.1-.35.1Zm-3.85-6.17c-.22,0-.44-.11-.56-.31l-1.4-2.24c-.19-.31-.1-.72.21-.91.31-.19.72-.1.91.21l1.4,2.24c.19.31.1.72-.21.91-.11.07-.23.1-.35.1Zm-3.85-6.17c-.22,0-.44-.11-.56-.31l-1.4-2.24c-.19-.31-.1-.72.21-.91.31-.19.72-.1.91.21l1.4,2.24c.19.31.1.72-.21.91-.11.07-.23.1-.35.1Z"/>
  <path class="cls-3" d="m214.67,70c-.07,0-.15-.01-.22-.04l-2.49-.9c-.34-.12-.52-.5-.4-.85.12-.34.5-.52.85-.4l2.49.9c.34.12.52.5.4.85-.1.27-.35.44-.62.44Zm-6.84-2.47c-.07,0-.15-.01-.22-.04l-2.49-.9c-.34-.12-.52-.5-.4-.85.12-.34.5-.52.85-.4l2.49.9c.34.12.52.5.4.85-.1.27-.35.44-.62.44Zm-6.84-2.47c-.07,0-.15-.01-.22-.04l-2.49-.9c-.34-.12-.52-.5-.4-.85.12-.34.5-.52.85-.4l2.49.9c.34.12.52.5.4.85-.1.27-.35.44-.62.44Zm-6.84-2.47c-.07,0-.15-.01-.22-.04l-2.49-.9c-.34-.12-.52-.5-.4-.85.12-.34.5-.52.85-.4l2.49.9c.34.12.52.5.4.85-.1.27-.35.44-.62.44Zm-6.84-2.47c-.07,0-.15-.01-.22-.04l-2.49-.9c-.34-.12-.52-.5-.4-.85.12-.34.5-.52.85-.4l2.49.9c.34.12.52.5.4.85-.1.27-.35.44-.62.44Zm-6.84-2.47c-.07,0-.15-.01-.22-.04l-2.49-.9c-.34-.12-.52-.5-.4-.85.12-.34.5-.52.85-.4l2.49.9c.34.12.52.5.4.85-.1.27-.35.44-.62.44Z"/>
  <path class="cls-3" d="m222.71,63.18c-.23,0-.45-.12-.57-.32l-1.35-2.27c-.19-.31-.08-.72.23-.91.31-.19.72-.08.91.23l1.35,2.27c.19.31.08.72-.23.91-.11.06-.22.09-.34.09Zm-3.71-6.25c-.23,0-.45-.12-.57-.32l-1.35-2.27c-.19-.31-.08-.72.23-.91.31-.19.72-.08.91.23l1.35,2.27c.19.31.08.72-.23.91-.11.06-.22.09-.34.09Zm-3.71-6.25c-.23,0-.45-.12-.57-.32l-1.35-2.27c-.19-.31-.08-.72.23-.91.31-.19.72-.08.91.23l1.35,2.27c.19.31.08.72-.23.91-.11.06-.22.09-.34.09Zm-3.71-6.25c-.23,0-.45-.12-.57-.32l-1.35-2.27c-.19-.31-.08-.72.23-.91.31-.19.72-.08.91.23l1.35,2.27c.19.31.08.72-.23.91-.11.06-.22.09-.34.09Zm-3.71-6.26c-.23,0-.45-.12-.57-.32l-1.35-2.27c-.19-.31-.08-.72.23-.91.31-.19.72-.08.91.23l1.35,2.27c.19.31.08.72-.23.91-.11.06-.22.09-.34.09Z"/>
  <path class="cls-3" d="m182.3,21.98c-.06,0-.12,0-.18-.02l-2.55-.7c-.35-.1-.56-.46-.46-.81.1-.35.46-.56.81-.46l2.55.7c.35.1.56.46.46.81-.08.29-.35.49-.64.49Zm-7.01-1.93c-.06,0-.12,0-.18-.02l-2.55-.7c-.35-.1-.56-.46-.46-.81.1-.35.46-.56.81-.46l2.55.7c.35.1.56.46.46.81-.08.29-.35.49-.64.49Zm-7.01-1.93c-.06,0-.12,0-.18-.02l-2.55-.7c-.35-.1-.56-.46-.46-.81.1-.35.46-.56.81-.46l2.55.7c.35.1.56.46.46.81-.08.29-.35.49-.64.49Zm-7.01-1.93c-.06,0-.12,0-.18-.02l-2.55-.7c-.35-.1-.56-.46-.46-.81.1-.35.46-.56.81-.46l2.55.7c.35.1.56.46.46.81-.08.29-.35.49-.64.49Zm-7.01-1.93c-.06,0-.12,0-.18-.02l-2.55-.7c-.35-.1-.56-.46-.46-.81.1-.35.46-.56.81-.46l2.55.7c.35.1.56.46.46.81-.08.29-.35.49-.64.49Z"/>
  <path class="cls-3" d="m175.6,46.13c-.19,0-.38-.08-.51-.23-.24-.28-.2-.7.08-.93l2.02-1.71c.28-.24.7-.2.93.08.24.28.2.7-.08.93l-2.02,1.71c-.12.1-.28.16-.43.16Zm5.56-4.69c-.19,0-.38-.08-.51-.23-.24-.28-.2-.7.08-.93l2.02-1.71c.28-.24.7-.2.93.08.24.28.2.7-.08.93l-2.02,1.71c-.12.1-.28.16-.43.16Zm5.56-4.69c-.19,0-.38-.08-.51-.23-.24-.28-.2-.7.08-.93l2.02-1.71c.28-.24.7-.2.93.08.24.28.2.7-.08.93l-2.02,1.71c-.12.1-.28.16-.43.16Z"/>
</svg>