<?xml version="1.0" encoding="UTF-8"?>
<svg id="Layer_1" data-name="Layer 1" xmlns="http://www.w3.org/2000/svg" viewBox="0 0 300 225">
  <defs>
    <style>
      .cls-1 {
        fill: #fff;
      }

      .cls-2 {
        fill: #232323;
      }

      .cls-3 {
        fill: #3ed033;
      }

      .cls-4 {
        fill: #ffcf15;
      }
    </style>
  </defs>
  <path class="cls-2" d="m100.26,131.74c-.39,0-.73-.29-.79-.69-.06-.44.24-.84.68-.9l3.96-.55c.43-.06.84.24.9.68.06.44-.24.84-.68.9l-3.96.55s-.07,0-.11,0Zm10.3-1.44c-.39,0-.74-.29-.79-.69-.06-.44.24-.84.68-.9l3.96-.55c.43-.06.84.24.9.68.06.44-.24.84-.68.9l-3.96.55s-.07,0-.11,0Zm10.3-1.44c-.39,0-.74-.29-.79-.69-.06-.44.24-.84.68-.9l3.96-.55c.43-.07.84.24.9.68.06.44-.24.84-.68.9l-3.96.55s-.07,0-.11,0Zm51.43-7.25c-.39,0-.74-.29-.79-.69-.06-.44.24-.84.68-.9l3.96-.55c.43-.07.84.24.9.68s-.24.84-.68.9l-3.96.55s-.07,0-.11,0Zm10.3-1.44c-.39,0-.73-.29-.79-.69-.06-.44.24-.84.68-.9l3.96-.55c.43-.07.84.24.9.68.06.44-.24.84-.68.9l-3.96.55s-.07,0-.11,0Zm10.19-1.33c-.39,0-.73-.29-.79-.69-.06-.44.25-.84.68-.9l3.96-.55c.43-.07.84.24.9.68.06.44-.24.84-.68.9l-3.96.55s-.08,0-.11,0Z"/>
  <path class="cls-2" d="m243.75,104.75c-1.37-1.04-2.23-2.65-1.71-3.82.52-1.16,2.65-1.52,4.58-.5,5.25,2.75,9.58,7.18,12.27,12.7.99,2.06-.35,4.2-2.63,4.63-2.3.43-4.31-.43-4.75-1.91-1.25-4.26-3.92-8.2-7.77-11.1Z"/>
  <path class="cls-2" d="m239.48,113.93c-1.68-.29-3.19-1.34-3.25-2.62-.07-1.27,1.66-2.56,3.85-2.54,5.93.06,11.8,2.02,16.71,5.72,1.82,1.38,1.61,3.88-.24,5.31-1.85,1.44-4.02,1.59-5.1.47-3.06-3.22-7.22-5.52-11.97-6.35Z"/>
  <path class="cls-2" d="m64.41,119.4c-2.44-.47-5.03.17-5.77,1.86-.75,1.69.92,4.34,3.9,5.44,8.06,2.99,17.05,3.38,25.61.9,3.19-.93,4.2-4.44,2.44-7.32-1.76-2.89-4.63-4.24-6.67-3.27-5.81,2.78-12.65,3.74-19.51,2.39Z"/>
  <path class="cls-2" d="m67.5,124.89c-2.32-.89-4.98-.72-6.01.81-1.03,1.53.14,4.43,2.88,6.04,7.41,4.37,16.19,6.33,25.05,5.41,3.3-.35,4.92-3.63,3.7-6.78-1.22-3.16-3.81-4.99-5.99-4.4-6.21,1.71-13.11,1.44-19.63-1.09Z"/>
  <path class="cls-2" d="m66.37,133.33c-2.32-.9-4.98-.72-6,.81-1.03,1.53.14,4.43,2.88,6.04,7.41,4.37,16.19,6.33,25.05,5.41,3.3-.35,4.92-3.63,3.7-6.78-1.23-3.15-3.81-4.98-5.99-4.4-6.21,1.71-13.11,1.45-19.63-1.09Z"/>
  <path class="cls-2" d="m70.65,106.25c-.18-2.49.96-4.97,3.08-5.5,2.1-.52,5,1.47,5.84,4.57,2.33,8.38,1.45,17.33-2.78,25.52-1.58,3.05-5.89,3.61-9.05,1.5-3.17-2.12-4.32-5.13-2.87-7.03,4.16-5.42,6.33-12.08,5.78-19.05Z"/>
  <g>
    <g>
      <path class="cls-4" d="m206.96,94.02l14.52,2.27c.4.06.85.09,1.33.09,1.7,0,3.62-.38,4.88-.96l23.2-10.68c1.47-.68,1.68-1.47,1.6-2.02-.08-.55-.51-1.26-2.11-1.48l-9.11-1.3c-1.79-.26-4.59.04-6.23.63l-28.4,10.12c-1.24.44-1.83,1.06-1.76,1.85.07.78.77,1.28,2.07,1.49Z"/>
      <path class="cls-4" d="m219.94,98.6l-20.12-3.15c-2.1-.33-4.32,1.03-5.01,2.98l-3.05,8.58c-.35,1-.29,2.07.18,3,.47.94,1.29,1.62,2.3,1.93l26.88,8.21c.36.11.72.17,1.07.17.81,0,1.54-.3,2.05-.86.56-.6.83-1.46.75-2.41l-1.07-14.14c-.16-2.1-1.91-4-3.99-4.32Z"/>
      <path class="cls-4" d="m263.27,91.07l-1.57-4.07c-.77-1.99-3.14-2.97-5.09-2.07l-26.93,12.4c-1.86.86-3.2,3.13-3.05,5.18l1.03,13.6c.13,1.8,1.29,2.6,2.37,2.6.59,0,1.22-.23,1.81-.65l29.74-21.32c1.7-1.22,2.45-3.71,1.69-5.66Z"/>
    </g>
    <path class="cls-1" d="m251.98,79.4l2.68,1.07,1.12,2.56c.09.17.31.24.48.15.07-.03.13-.09.16-.15l1.12-2.56,2.68-1.07c.17-.09.25-.29.16-.46-.03-.07-.09-.12-.16-.15l-2.68-1.07-1.12-2.56c-.09-.17-.3-.24-.48-.15-.07.03-.12.09-.16.15l-1.12,2.56-2.68,1.07c-.18.09-.25.29-.16.46.03.07.09.12.16.15h0Z"/>
  </g>
  <path class="cls-2" d="m251.82,98.95c-1.02-1.37-1.41-3.16-.58-4.14.82-.96,2.97-.73,4.54.79,4.28,4.1,7.22,9.56,8.27,15.61.38,2.26-1.49,3.94-3.81,3.71-2.33-.22-4.02-1.59-4.03-3.15-.03-4.44-1.49-8.96-4.38-12.82Z"/>
  <circle class="cls-3" cx="150.32" cy="123.26" r="19.68"/>
  <path class="cls-1" d="m160.9,114.31c.18,0,.33.07.44.22l.65.6c.11.15.16.31.16.49s-.05.33-.16.44l-16.38,16.38c-.15.15-.3.22-.46.22s-.32-.07-.47-.22l-6.5-6.5c-.11-.11-.16-.25-.16-.44s.05-.34.16-.49l.65-.6c.11-.15.26-.22.44-.22s.33.07.44.22l5.41,5.41,15.35-15.29c.11-.15.26-.22.44-.22Z"/>
  <path class="cls-2" d="m60.85,117.93c-22.31.3-42.04-10.1-54.4-28.68-1.66-2.45-3.92-4.31-6.45-5.38v44.16c15.35,13.21,34.86,20.31,56.17,20.02,10.37-.13,19.02-8.81,18.8-16.89-.2-8.15-6.68-13.26-14.11-13.22Z"/>
  <path class="cls-2" d="m300,126.15c-12.31-1.84-23.4-8.11-31.71-18.2-3.81-4.56-10.28-5.88-15.36-1.79-5.05,4.04-5.88,13.81-.6,20.21,12.27,14.9,29.12,23.51,47.67,24.66v-24.89Z"/>
</svg>