<?xml version="1.0" encoding="UTF-8"?>
<svg id="Layer_1" data-name="Layer 1" xmlns="http://www.w3.org/2000/svg" viewBox="0 0 300 225">
  <defs>
    <style>
      .cls-1 {
        fill: #fff;
      }

      .cls-2 {
        fill: #3654ff;
      }

      .cls-3, .cls-4 {
        isolation: isolate;
      }

      .cls-5 {
        fill: #d0dae3;
      }

      .cls-4 {
        opacity: .35;
      }

      .cls-6 {
        fill: #232323;
      }

      .cls-7 {
        fill: #444;
      }

      .cls-8 {
        fill: none;
      }

      .cls-9 {
        fill: #3ed033;
      }

      .cls-10 {
        fill: #ff2402;
      }

      .cls-11 {
        fill: #7f7f7f;
      }

      .cls-12 {
        fill: #3050c4;
      }

      .cls-13 {
        fill: #e7ecf0;
      }
    </style>
  </defs>
  <path class="cls-7" d="m123.35,89.13c1.07-9.97,5.2-22.13,13.08-26.52,3.38-1.88,7.3-3.25,12.72-4.16,1.29.21,2.48.45,3.62.72.2.05.38.09.58.14.34.08.67.17.99.26.21.05.41.11.61.17.32.09.65.19.96.29.16.05.33.1.49.15.45.15.89.3,1.32.46.13.05.25.1.37.15.32.12.64.25.95.38.15.06.29.12.43.19.29.13.59.27.87.4.12.06.25.12.37.18.4.2.79.4,1.18.61,8.45,4.67,12.65,18.26,13.36,28.55.06,1.49.09,2.93.09,4.28,0,3.48-.22,6.37-.63,8.12-.02.08-.06.16-.08.24-2.1,9.57-12.67,16.86-25.41,16.88-14.27.03-25.85-9.06-25.87-20.31,0-.1,0-.21,0-.31-.22-2.9-.23-6.73,0-10.87Z"/>
  <path class="cls-1" d="m130.1,61.25c3.26-3.73,7.5-5.56,15.85-5.92.13,0,.27-.01.4-.02.42-.02.85-.03,1.29-.04.44,0,.88-.01,1.34-.02.05,0,.1,0,.15,0h.09s.06,0,.09,0c.48,0,.95,0,1.41.01.53,0,1.03.02,1.53.04.05,0,.1,0,.15,0,8.36.33,12.6,2.15,15.88,5.87,4.33,4.91,6.54,18.98,7,29.94-.72-10.28-4.92-23.88-13.36-28.55-3.38-1.87-7.32-3.22-12.73-4.11-5.41.91-9.34,2.28-12.72,4.16-8.43,4.7-12.58,18.31-13.26,28.59.41-10.95,2.57-25.03,6.88-29.96Z"/>
  <path class="cls-1" d="m149.3,22.35c4.61-.01,9.99-1.83,13.04-2.61,3.57-.91,5.27-.94,7.9-.94,7.98-.02,10.44,4.16,11.11,5.87-5.26-16.16-21.91-18.4-31.75-18.38h-.81c-9.83.02-26.47,2.32-31.68,18.5.67-1.71,3.11-5.9,11.09-5.91,2.63,0,4.33.02,7.91.92,3.05.77,8.44,2.57,13.05,2.56h.14Z"/>
  <path class="cls-7" d="m117.14,24.8h-.03c.67-1.72,3.11-5.91,11.09-5.93,2.63,0,4.33.02,7.91.92,3.05.77,8.44,2.57,13.05,2.56h.13c4.61,0,9.99-1.83,13.04-2.6,3.57-.91,5.27-.94,7.9-.94,7.98-.02,10.44,4.16,11.11,5.87h-.03c1.69,1.63,2.82,5.88,2.68,10.84-.18,6.29-2.32,11.35-4.79,11.28-.05,0-.09-.02-.14-.02-5.72,11.55-21.44,16.93-29.69,16.95-8.25.01-24.1-5.31-29.9-16.84-.05,0-.1.02-.15.03-2.46.07-4.63-4.97-4.83-11.26-.16-4.96.95-9.22,2.64-10.84Z"/>
  <path class="cls-11" d="m149.32,55.38c4.17,0,13.01-3.89,13-12.37-.02-8.48-9.78-9.14-13.07-9.13-3.29,0-13.06.7-13.04,9.18.02,8.48,8.94,12.33,13.12,12.32Z"/>
  <path class="cls-6" d="m149.06,36.1c-1.81,0-4.49,1.9-4.8,4.11-.31,2.21,4.93,2.12,4.93,2.12h.15s5.24.07,4.92-2.14c-.32-2.21-3-4.09-4.82-4.09h-.39Z"/>
  <g>
    <circle class="cls-6" cx="162.61" cy="29.65" r="1.6"/>
    <path class="cls-6" d="m134.27,29.7c0,.89.72,1.6,1.6,1.6.88,0,1.6-.72,1.6-1.6,0-.89-.72-1.6-1.6-1.6-.89,0-1.6.72-1.6,1.6Z"/>
  </g>
  <path class="cls-6" d="m120.55,28.4c-2.03.08-3.68,3.92-4.3,9.33-.07-.68-.12-1.39-.15-2.12-.13-4.95,1.07-9.01,2.68-9.07.69-.03,1.33.68,1.86,1.88-.03,0-.06-.01-.09-.01Z"/>
  <path class="cls-6" d="m177.93,28.29c2.03.07,3.69,3.9,4.33,9.32.07-.68.12-1.39.13-2.12.11-4.95-1.1-9-2.71-9.06-.68-.02-1.33.69-1.85,1.88.03,0,.06-.01.1-.01Z"/>
  <path class="cls-11" d="m159.52,25.79c-.15,0-.3-.05-.43-.17-.26-.24-.27-.63-.04-.89.45-.49.99-.88,1.6-1.16.61-.28,1.26-.43,1.92-.44.64-.02,1.27.09,1.88.32.6.23,1.15.56,1.62,1,.26.24.27.64.03.89-.24.26-.64.27-.89.03-.35-.33-.76-.58-1.21-.75-.45-.17-.92-.25-1.4-.24-.5.01-.98.12-1.44.33-.46.21-.86.5-1.19.86-.12.14-.29.2-.47.2Z"/>
  <path class="cls-11" d="m132.71,25.79c-.15,0-.31-.05-.43-.17-.26-.24-.27-.63-.04-.89.45-.49.99-.88,1.6-1.16.61-.28,1.26-.43,1.93-.44.64-.02,1.27.09,1.88.32.6.23,1.15.56,1.62,1,.26.24.27.64.03.89-.24.26-.64.27-.89.03-.35-.33-.76-.58-1.21-.75-.45-.17-.92-.25-1.4-.24-.5.01-.98.12-1.44.33-.46.21-.86.5-1.2.86-.12.14-.29.2-.46.2Z"/>
  <path class="cls-6" d="m155.65,51.68c-.22,0-.44-.13-.53-.35-.32-.76-.78-1.45-1.36-2.03-.58-.58-1.26-1.04-2.03-1.37-.78-.33-1.61-.47-2.48-.5-.87,0-1.7.17-2.48.5-.76.32-1.44.78-2.03,1.36-.59.58-1.05,1.27-1.37,2.03-.12.29-.46.43-.75.3-.29-.12-.43-.46-.3-.75.38-.9.93-1.7,1.62-2.39.69-.69,1.5-1.23,2.39-1.6.92-.39,1.87-.61,2.93-.59,1.02,0,2,.2,2.92.6.9.38,1.7.93,2.39,1.61.69.69,1.23,1.49,1.6,2.39.12.29-.01.63-.31.75-.07.03-.15.04-.22.04Z"/>
  <g class="cls-4">
    <ellipse class="cls-6" cx="149.5" cy="208.86" rx="54.89" ry="8.86"/>
  </g>
  <g>
    <circle class="cls-12" cx="148.94" cy="135.52" r="72"/>
    <path class="cls-8" d="m218.69,123.52c1.1.45,1.93-.42,3.14-1.48,1.2-1.07-2.55-2.38-4.44-3.07-1.57-.57-1.75,0-2.21.18.27,1.1.52,2.21.73,3.33,1.01.11,1.93.68,2.79,1.03Z"/>
    <path class="cls-8" d="m217.38,128.59c-.11-.22-.3-.37-.63-.45.14,1.28.24,2.57.31,3.86.71-1.3.52-3.03.32-3.41Z"/>
    <g>
      <path class="cls-12" d="m124.58,185.72c-1.98-1.78-7.83-8.02-8.22-13.01-.3-3.64,2.05-5.87,3.47-7.3.47-.4.93-.81.95-1.02.04-.45-2.77-2.54-4.79-3.88-.38-.49-1-.78-1.6-1.29-2.02-1.34-2.72-2.98-3.26-4.17-.17-.47-.34-.94-.55-.96-.42-.04-1.02-.56-1.83-1.09-1.62-1.07-4.23-2.91-6.59-2.93-3.82-.4-7.19-5.7-7.34-6.39-.15-.69-1.52-6.69-2.09-7.43-.77-.98-5.98-9.4-6.88-11.3-1.09-2.14-.65-11.33,2.42-16.65,1.22-2.12,1.55-4.64,1.53-6.8-5.78,10.02-9.08,21.64-9.08,34.03,0,28.69,17.71,53.24,42.8,63.32.11-.39.23-.75.34-1.02,1.02-1.7,2.57-11.45.7-12.09Z"/>
      <path class="cls-12" d="m197.85,176.43c1.24-1.65,0-7.85-2.2-10.33-2.2-2.48,0-4.96-.28-6.2s-2.07,0-3.03-1.35c-.97-1.35,4.96-3.88-4.82-1.13-9.78,2.75-9.78,0-13.23-3.17-3.44-3.17-2.07-3.72-2.34-9.64-.27-5.92,4.68-7.02,6.75-10.24,2.07-3.21,4.27-4.78,12.26-6.02,7.99-1.24,5.1,2.06,5.1,3.28s7.71,3.19,7.71,2.64-.96-2.89.82-2.62c.97.28,10.33,1.79,10.33,1.79,1.08-.16,1.74-.74,2.12-1.45-.07-1.3-.17-2.58-.31-3.86-.56-.13-1.53-.03-3.23.45-2.69.76-4.27-1.86-4.41-3.58-.14-1.72,4.58-2.2,5.92-2.48.3-.06.58-.06.86-.03-.22-1.12-.46-2.23-.73-3.33-.1.04-.2.06-.34.06-.79-.03-1.34-1-1.86-1.79-.51-.79-1.45,1.1-1.72,1.69-.28.59-.58,1.86-.48,2.9.1,1.03-.62,1.38-1.17,1.72-.55.34-.62-.14-1.1-.41-.48-.28-1.65.17-2.17,1.24-.52,1.07.17,3.51.07,3.55-.1.04-1.24-.34-2.07-1.38-.83-1.03-1.79-3.58-1.89-4.34-.1-.76-2.17-2.72-3.58-3.2-1.41-.48-.17,1.58.07,1.96.24.38,2.1,1.72,2.21,2.65.1.93-1.82,4.2-1.34,3.03.48-1.17-.97-1.72-1.38-2.62-.41-.9-2-1.86-3.37-3.38-1.38-1.52-1.93-.07-2.82-.48-.89-.41-1.65.55-2.48.35-.82-.21-.55.96-.62,2.07-.07,1.1-.48.55-1.79,1.86-1.31,1.31-1.1,2.27-1.86,2.75-.76.48-2.27.9-4.55.97-2.27.07-2.14-1.03-2.07-2.21.07-1.17.41-2.75,1.1-4.2.69-1.45,4.34-.76,5.1-.97.76-.21.28-1.38.28-2.79s-1.72-2.14-2.44-2.62c-.72-.48.72-.55,2.38-.96,1.65-.41,2.69-1.24,3.1-2.1.41-.86,2.41-2.58,3.34-3.24.93-.65,1.79-.9,2.48-1.38.69-.48,1.98.83,1.98.83l6.1-.98s1.19-.67,1.39-1.81c.21-1.14.21-1.29.98-3.15.47-1.12,1.85-1.81,2.88-2.24-.16-.27-.32-.53-.48-.79-.54.03-1.19.1-1.93.24-2.17.41-1.75-1.19-2.17-2.12-.37-.84-.07-1.26.85-2.91-.36-.48-.72-.96-1.09-1.44-.14.02-.29.05-.43.06-1.6.1-1.4,2.22-1.86,2.79-.46.57-.62,1.08-.26,3.05.36,1.96-1.71,6.35-2.79,6.56-1.08.21-2.63-2.99-2.89-3.41-.26-.41-2.12,1.24-3.41,1.24s-1.29-3.98-.46-5.27c.83-1.29,3.7-3.26,4.74-5.46.82-1.75,1.39-3.25,2.59-5.03-12.4-12.78-29.75-20.73-48.96-20.73-11.61,0-22.55,2.91-32.12,8.02,1.51.34,3.24.57,4.52.55,2.36.02,5.33.32,8.67,1.35,1.04.33,1.89.42,2.53.49,1.49.15,2.55.26,3.23,2.14.81.53,3.06,1.67,3.15,3.03-.04.45-.32,1.09-1,1.48-.7.6-4.99,2.86-6.75,3.36-1.1.34-6.54,3.38-7.02,4.01-.02.22-.21,2.23-.38,4.02,1.23.58,4.29,2.25,4.83,3.43.19.24.4.27,1.04.33.43.04.87-.13,1.25.35.19.25.38.49.34.94l-.04.45c-.27,2.9.07,3.84.26,4.08.26-.42.34-1.32.61-1.96.38-1.76.74-3.3,2.01-3.17.43.04,1.12-.56,1.65-1.63.49-.63.32-1.09.32-1.09-.79-.76-.43-2.3,1.04-4.18.02-.22.23-.2.26-.42.76-1.27,1.74-2.52,2.82-2.64.42.04.85.09,1.23.58.79.76,1.75,1.98,2.51,2.96.57.74.96,1.23,1.15,1.47.4.27.55.96.49,1.63-.02.22.15.69.13.91.89-.36,2.44-.88,3.25-.34.4.27.6.51.77.98.17.47.11,1.14.26,1.83.13.91.39,2.74.77,3.23.57.74,1.55,1.74,2.07,3.14-.02.22.17.47.36.71.36.71.72,1.43.45,2.07-.25.42-.72.83-1.61,1.18-1.34.54-2.61.41-3.7.52-1.08.11-2.15,0-2.82.38-1.36.76-1.87,1.61-1.38,3.24-.02.22.17.47.15.69.13.91.49,1.63,0,2.25-.27.65-.93.8-2.02.92-.21-.02-.66.16-1.08.11-1.72.05-4.52.21-4.61,1.1-.15,1.56-1.48,2.1-2.38,2.46-.23.2-.68.38-.91.58-.23.2-.47.4-.91.58-.91.58-3.63,2.1-3.69,2.77.28,1.6-1.91,4.31-3.48,5.05-1.12.56-2.86,3.08-3.14,3.73-.02.22-.04.45-.08.89-.1,1.12-.25,2.68-1.33,2.79-.64-.07-1.19-1.02-1.94-2.22-.36-.72-1.11-1.92-1.53-1.96-.64-.07-1.7-.18-2.57-.04-1.08.11-2.17.23-3.02.14-2.76-.29-4.95.16-4.99.61-.25.42-.53,1.07-.83,1.94-.8,1.72-2.43,5.38-1.43,6.16,1.81,1.31,3.23,2.14,4.08,2.22.21.02,1.13-.56,1.8-.94,1.38-.98,2.74-1.75,3.57-1.43.21.02.4.27.6.51.36.72-.17,1.79-.95,3.28-.23.2-.51.85-.53,1.07.19.25.83.31,1.23.58,1.87.64,2.89,1.2,3.06,1.67.19.24.34.94.24,2.05-.06.67-.02,2.48.18,2.72,1.02.56,4.97,1.87,5.63,1.71.21.02.66-.16,1.1-.34,2.21-.67,4.2-1.37,5.42-.57,1.43.82,3.32,1.24,4.59,1.38,1.49.15,6.27,1.77,7.38,3.69.92,1.67,3,2.34,3.42,2.38.85.09,3.94,3.79,3.81,5.12.15.69,3.36,3.05,4.21,3.14.66-.16,4.65.71,5.19,1.89l.19.24c.55.96,1.81,3.57-.01,4.73-.91.58-2.93,3.75-4.24,6.32-.53,1.07-8.61,7.22-9.74,7.78-.89.36-3.23,2.37-3.97,3.42-.51.85-1.63,1.41-2.74,1.75-.45.18-.89.36-1.12.56-.25.42-.98,1.25-1.91,2.06l-6.75.17c6.59,2.12,13.6,3.27,20.89,3.27,19.62,0,37.3-8.29,49.75-21.55-.58-2.44-1.71-4.59-.83-5.76Zm-15.08-73.6c.62-.1,1.79,1.19,1.79,1.19,0,0-.03.93.33,1.91.36.98,1.4,2.43,2.27,4.18.88,1.76-1.5,2.69-3.62,2.89-2.12.21,0-2.84.36-3.46.36-.62-.21-2.07-.36-2.58-.15-.52-1.55-1.24-1.75-2.17-.21-.93.98-1.96.98-1.96Zm-1.96,4.34c2.12-.57,1.14,2.38.52,3.05-.62.67-2.74.52-2.74,0s2.22-3.05,2.22-3.05Z"/>
    </g>
    <g>
      <path class="cls-9" d="m136.71,198.24c.23-.2.68-.38,1.12-.56,1.1-.34,2.23-.9,2.74-1.75.74-1.05,3.07-3.06,3.97-3.42,1.12-.56,9.21-6.71,9.74-7.78,1.31-2.57,3.33-5.74,4.24-6.32,1.82-1.16.57-3.77.01-4.73l-.19-.25c-.53-1.18-4.53-2.05-5.19-1.89-.85-.09-4.06-2.45-4.21-3.14.12-1.34-2.96-5.04-3.81-5.12-.43-.04-2.51-.71-3.42-2.38-1.11-1.92-5.89-3.54-7.38-3.69-1.27-.13-3.17-.55-4.59-1.38-1.21-.8-3.21-.1-5.42.57-.45.18-.89.36-1.1.34-.66.15-4.61-1.15-5.63-1.71-.19-.24-.24-2.05-.17-2.72.1-1.12-.05-1.81-.24-2.05-.17-.47-1.19-1.02-3.06-1.67-.4-.27-1.04-.33-1.23-.58.02-.22.29-.87.53-1.07.79-1.49,1.31-2.57.95-3.28-.19-.24-.38-.49-.6-.51-.83-.31-2.19.45-3.57,1.43-.68.38-1.59.96-1.8.94-.85-.09-2.27-.91-4.08-2.23-1-.78.63-4.44,1.43-6.16.3-.87.57-1.52.82-1.94.04-.45,2.23-.9,4.99-.61.85.09,1.93-.02,3.02-.14.87-.14,1.93-.02,2.57.04.42.04,1.17,1.25,1.53,1.96.75,1.2,1.3,2.16,1.94,2.23,1.08-.11,1.23-1.68,1.33-2.79.04-.45.06-.67.08-.89.27-.65,2.01-3.17,3.14-3.73,1.57-.74,3.75-3.44,3.48-5.05.06-.67,2.78-2.19,3.69-2.77.45-.18.68-.38.91-.58.23-.2.68-.38.91-.58.89-.36,2.23-.9,2.38-2.46.08-.89,2.89-1.05,4.61-1.1.43.04.87-.13,1.08-.11,1.08-.11,1.74-.27,2.02-.92.49-.63.12-1.34,0-2.25.02-.22-.17-.47-.15-.69-.49-1.63.02-2.48,1.38-3.24.68-.38,1.74-.27,2.82-.38,1.08-.11,2.36.02,3.7-.52.89-.36,1.36-.76,1.61-1.18.27-.65-.08-1.36-.45-2.07-.19-.24-.38-.49-.36-.71-.51-1.4-1.49-2.41-2.07-3.14-.38-.49-.64-2.32-.77-3.23-.15-.69-.09-1.36-.26-1.83-.17-.47-.36-.71-.77-.98-.81-.53-2.36-.02-3.25.34.02-.22-.15-.69-.13-.91.06-.67-.09-1.36-.49-1.63-.19-.25-.58-.74-1.15-1.47-.77-.98-1.72-2.21-2.51-2.96-.38-.49-.81-.53-1.23-.58-1.08.11-2.06,1.36-2.82,2.64-.02.22-.23.2-.25.42-1.46,1.88-1.82,3.42-1.04,4.18,0,0,.17.47-.32,1.09-.53,1.07-1.23,1.68-1.65,1.63-1.27-.13-1.63,1.41-2.01,3.17-.27.65-.36,1.54-.61,1.96-.19-.24-.53-1.18-.26-4.08l.04-.45c.04-.45-.15-.69-.34-.94-.38-.49-.83-.31-1.25-.35-.64-.07-.85-.09-1.04-.33-.53-1.18-3.59-2.85-4.83-3.43.17-1.78.35-3.79.38-4.02.49-.62,5.92-3.67,7.02-4.01,1.76-.49,6.05-2.75,6.75-3.36.68-.38.96-1.03,1-1.48-.09-1.36-2.34-2.49-3.15-3.03-.68-1.87-1.74-1.98-3.23-2.14-.64-.07-1.49-.15-2.53-.49-3.34-1.02-6.31-1.33-8.67-1.35-1.29.02-3.02-.21-4.52-.55-11.26,6.02-20.64,15.11-27.01,26.16.02,2.16-.31,4.68-1.53,6.8-3.07,5.32-3.5,14.51-2.42,16.65.9,1.89,6.11,10.32,6.88,11.3.57.73,1.94,6.74,2.09,7.43.15.69,3.51,6,7.34,6.39,2.36.02,4.98,1.87,6.59,2.93.81.53,1.4,1.05,1.83,1.09.21.02.38.49.55.96.53,1.18,1.24,2.83,3.26,4.16.6.51,1.21.8,1.6,1.29,2.02,1.34,4.83,3.43,4.79,3.88-.02.22-.49.62-.95,1.03-1.42,1.43-3.78,3.66-3.47,7.3.39,4.99,6.24,11.23,8.22,13.01,1.87.65.31,10.4-.7,12.1-.11.27-.23.63-.35,1.02,1.48.6,2.99,1.14,4.52,1.63l6.75-.17c.94-.8,1.66-1.63,1.91-2.05Z"/>
      <path class="cls-9" d="m183.55,106.96c.15.52.72,1.96.36,2.58-.36.62-2.48,3.67-.36,3.46,2.12-.21,4.5-1.14,3.62-2.89-.88-1.76-1.91-3.2-2.27-4.18-.36-.98-.33-1.91-.33-1.91,0,0-1.17-1.29-1.79-1.19,0,0-1.19,1.03-.98,1.96.21.93,1.6,1.65,1.75,2.17Z"/>
      <path class="cls-9" d="m181.33,110.21c.62-.67,1.6-3.62-.52-3.05,0,0-2.22,2.53-2.22,3.05s2.12.67,2.74,0Z"/>
      <path class="cls-9" d="m202.92,97.86c.41.93,0,2.53,2.17,2.12.74-.14,1.38-.21,1.93-.24-1.02-1.64-2.1-3.24-3.24-4.79-.92,1.65-1.22,2.07-.85,2.91Z"/>
      <path class="cls-9" d="m204.63,102.77c-.78,1.86-.78,2.02-.98,3.15-.21,1.14-1.39,1.81-1.39,1.81l-6.1.98s-1.29-1.31-1.98-.83c-.69.48-1.55.72-2.48,1.38-.93.65-2.93,2.38-3.34,3.24-.41.86-1.45,1.69-3.1,2.1-1.65.41-3.1.48-2.38.96.72.48,2.44,1.21,2.44,2.62s.48,2.58-.27,2.79-4.41-.48-5.1.96c-.69,1.45-1.03,3.03-1.1,4.2-.07,1.17-.21,2.27,2.07,2.2,2.27-.07,3.79-.49,4.55-.97s.55-1.44,1.86-2.75c1.31-1.31,1.72-.76,1.79-1.86.07-1.1-.21-2.27.62-2.07s1.58-.76,2.48-.35,1.45-1.03,2.83.48c1.38,1.52,2.96,2.48,3.37,3.38.42.9,1.86,1.45,1.38,2.62-.48,1.17,1.45-2.1,1.34-3.03-.1-.93-1.96-2.27-2.21-2.65-.24-.38-1.48-2.44-.07-1.96,1.41.48,3.48,2.45,3.58,3.21.1.76,1.07,3.31,1.89,4.34s1.96,1.41,2.07,1.38c.1-.03-.59-2.48-.07-3.55s1.69-1.52,2.17-1.24c.48.28.55.76,1.1.41.55-.34,1.27-.69,1.17-1.72-.1-1.03.2-2.31.48-2.89.28-.59,1.21-2.48,1.72-1.69.52.79,1.07,1.76,1.86,1.79.14,0,.24-.02.34-.06-1.64-6.65-4.25-12.91-7.67-18.62-1.03.43-2.41,1.11-2.87,2.23Z"/>
      <path class="cls-9" d="m190.58,98.54c-.83,1.29-.83,5.27.46,5.27s3.15-1.65,3.41-1.24c.26.41,1.81,3.62,2.89,3.41,1.09-.21,3.15-4.6,2.79-6.56-.36-1.96-.21-2.48.26-3.05.47-.57.26-2.69,1.86-2.79.15,0,.29-.03.43-.06-1.49-1.91-3.09-3.74-4.78-5.48-1.2,1.78-1.77,3.28-2.59,5.04-1.03,2.2-3.91,4.17-4.74,5.46Z"/>
      <path class="cls-9" d="m215.04,122.53c-1.34.28-6.06.76-5.92,2.48.14,1.72,1.72,4.34,4.41,3.58,1.7-.48,2.67-.58,3.23-.45-.21-1.91-.49-3.79-.85-5.64-.28-.03-.57-.03-.86.03Z"/>
      <path class="cls-9" d="m217.13,136.9c0-.46.02-.92.02-1.38,0-1.18-.03-2.35-.09-3.52-.39.71-1.05,1.29-2.12,1.45,0,0-9.37-1.51-10.33-1.79-1.79-.27-.83,2.07-.83,2.62s-7.71-1.42-7.71-2.64,2.89-4.52-5.1-3.28c-7.99,1.24-10.19,2.81-12.26,6.02-2.07,3.21-7.02,4.32-6.75,10.24.28,5.92-1.1,6.48,2.34,9.64,3.44,3.17,3.44,5.92,13.23,3.17,9.78-2.75,3.86-.22,4.82,1.13.96,1.35,2.75.11,3.03,1.35.28,1.24-1.93,3.72.28,6.2,2.2,2.48,3.44,8.68,2.2,10.33-.88,1.18.25,3.32.84,5.76,10.84-11.55,17.7-26.88,18.4-43.8l.05-1.48Z"/>
    </g>
  </g>
  <g>
    <path class="cls-5" d="m108.12,108.88c.43.53.95,1.01,1.56,1.4,3.08,1.99,7.18,1.1,9.17-1.98,1.06-1.64,1.3-3.58.83-5.33-.16,1.09-.55,2.18-1.19,3.16-2.25,3.49-6.76,4.63-10.37,2.74Z"/>
    <path class="cls-13" d="m107.7,101.11c-1.6,2.47-1.34,5.61.42,7.77,3.6,1.89,8.12.75,10.37-2.74.64-.99,1.03-2.07,1.19-3.16-.41-1.53-1.37-2.92-2.81-3.85-3.07-1.99-7.18-1.1-9.17,1.98Z"/>
  </g>
  <g>
    <path class="cls-5" d="m111.4,160.93c.43.53.95,1.01,1.56,1.4,3.08,1.99,7.18,1.1,9.17-1.98,1.06-1.64,1.3-3.58.83-5.33-.16,1.09-.55,2.18-1.19,3.16-2.25,3.49-6.76,4.63-10.37,2.74Z"/>
    <path class="cls-13" d="m110.98,153.15c-1.6,2.47-1.34,5.61.42,7.77,3.6,1.89,8.12.75,10.37-2.74.64-.99,1.03-2.07,1.19-3.16-.41-1.53-1.37-2.92-2.81-3.85-3.08-1.99-7.19-1.1-9.17,1.98Z"/>
  </g>
  <g>
    <path class="cls-5" d="m94.23,125.49c.51.45,1.11.83,1.77,1.11,3.37,1.44,7.27-.13,8.71-3.5.77-1.8.68-3.75-.08-5.39.03,1.11-.17,2.24-.64,3.32-1.63,3.82-5.88,5.71-9.76,4.46Z"/>
    <path class="cls-13" d="m92.5,117.9c-1.15,2.71-.37,5.75,1.73,7.59,3.87,1.25,8.13-.64,9.76-4.46.46-1.08.66-2.21.64-3.32-.66-1.44-1.85-2.65-3.42-3.32-3.37-1.44-7.27.13-8.71,3.5Z"/>
  </g>
  <g>
    <path class="cls-5" d="m182.29,111.06c.43.53.95,1.01,1.56,1.4,3.08,1.99,7.18,1.1,9.17-1.98,1.06-1.64,1.3-3.58.83-5.33-.16,1.09-.55,2.18-1.19,3.16-2.25,3.49-6.76,4.63-10.37,2.74Z"/>
    <path class="cls-13" d="m181.87,103.29c-1.6,2.47-1.34,5.61.42,7.77,3.6,1.89,8.12.75,10.37-2.74.64-.99,1.03-2.07,1.19-3.16-.41-1.53-1.37-2.92-2.81-3.85-3.07-1.99-7.18-1.1-9.17,1.98Z"/>
  </g>
  <g>
    <path class="cls-5" d="m181.34,129.07c.43.53.95,1.01,1.56,1.4,3.08,1.99,7.18,1.1,9.17-1.98,1.06-1.64,1.3-3.58.83-5.33-.16,1.1-.55,2.18-1.19,3.16-2.25,3.49-6.77,4.63-10.37,2.74Z"/>
    <path class="cls-13" d="m180.92,121.3c-1.6,2.47-1.34,5.61.42,7.77,3.61,1.89,8.12.75,10.37-2.74.64-.99,1.03-2.07,1.19-3.16-.41-1.53-1.37-2.92-2.81-3.85-3.07-1.99-7.18-1.1-9.17,1.98Z"/>
  </g>
  <path class="cls-1" d="m126.21,153.08c-.3,0-.6-.18-.73-.47-.18-.4,0-.88.4-1.06l2.92-1.32c.4-.18.88,0,1.06.4.18.4,0,.88-.4,1.06l-2.92,1.32c-.11.05-.22.07-.33.07Zm8.02-3.63c-.3,0-.6-.18-.73-.47-.18-.4,0-.88.4-1.06l2.92-1.32c.4-.18.88,0,1.06.4.18.4,0,.88-.4,1.06l-2.92,1.32c-.11.05-.22.07-.33.07Zm8.02-3.63c-.3,0-.6-.18-.73-.47-.18-.4,0-.88.4-1.06l2.92-1.32c.4-.18.88,0,1.06.4.18.4,0,.88-.4,1.06l-2.92,1.32c-.11.05-.22.07-.33.07Zm8.02-3.63c-.3,0-.6-.18-.73-.47-.18-.4,0-.88.4-1.06l2.92-1.32c.4-.18.88,0,1.06.4.18.4,0,.88-.4,1.06l-2.92,1.32c-.11.05-.22.07-.33.07Zm8.02-3.63c-.3,0-.6-.18-.73-.47-.18-.4,0-.88.4-1.06l2.92-1.32c.4-.18.88,0,1.06.4.18.4,0,.88-.4,1.06l-2.92,1.32c-.11.05-.22.07-.33.07Zm8.02-3.63c-.3,0-.6-.18-.73-.47-.18-.4,0-.88.4-1.06l2.92-1.32c.4-.18.88,0,1.06.4.18.4,0,.88-.4,1.06l-2.92,1.32c-.11.05-.22.07-.33.07Zm8.02-3.63c-.3,0-.6-.18-.73-.47-.18-.4,0-.88.4-1.06l2.92-1.32c.4-.18.88,0,1.06.4.18.4,0,.88-.4,1.06l-2.92,1.32c-.11.05-.22.07-.33.07Z"/>
  <path class="cls-1" d="m178.57,106.53s-.01,0-.02,0l-3.2-.08c-.44-.01-.79-.38-.78-.82.01-.44.39-.79.82-.78l3.2.08c.44.01.79.38.78.82-.01.44-.37.78-.8.78Zm-8.8-.21s-.01,0-.02,0l-3.2-.08c-.44-.01-.79-.38-.78-.82.01-.44.39-.78.82-.78l3.2.08c.44.01.79.38.78.82-.01.44-.37.78-.8.78Zm-8.8-.21s-.01,0-.02,0l-3.2-.08c-.44-.01-.79-.38-.78-.82s.38-.78.82-.78l3.2.08c.44.01.79.38.78.82-.01.44-.37.78-.8.78Zm-8.8-.21s-.01,0-.02,0l-3.2-.08c-.44-.01-.79-.38-.78-.82.01-.44.39-.77.82-.78l3.2.08c.44.01.79.38.78.82-.01.44-.37.78-.8.78Zm-8.8-.21s-.01,0-.02,0l-3.2-.08c-.44-.01-.79-.38-.78-.82s.38-.8.82-.78l3.2.08c.44.01.79.38.78.82-.01.44-.37.78-.8.78Zm-8.8-.21s-.01,0-.02,0l-3.2-.08c-.44-.01-.79-.38-.78-.82.01-.44.37-.79.82-.78l3.2.08c.44.01.79.38.78.82-.01.44-.37.78-.8.78Zm-8.8-.21s-.01,0-.02,0l-2.95-.07c-.44-.01-.79-.38-.78-.82.01-.44.4-.78.82-.78l2.95.07c.44.01.79.38.78.82-.01.44-.37.78-.8.78Z"/>
  <path class="cls-1" d="m111.1,149.2c-.29,0-.58-.16-.72-.44l-1.43-2.86c-.2-.4-.04-.88.36-1.07.4-.2.88-.04,1.07.36l1.43,2.86c.2.4.04.88-.36,1.07-.11.06-.24.08-.36.08Zm-3.94-7.87c-.29,0-.58-.16-.72-.44l-1.43-2.86c-.2-.4-.04-.88.36-1.07.4-.2.88-.04,1.07.36l1.43,2.86c.2.4.04.88-.36,1.07-.11.06-.24.08-.36.08Zm-3.94-7.87c-.29,0-.58-.16-.72-.44l-1.43-2.86c-.2-.4-.04-.88.36-1.07s.88-.04,1.07.36l1.43,2.86c.2.4.04.88-.36,1.07-.11.06-.24.08-.36.08Z"/>
  <rect class="cls-8" x="183.72" y="102.65" width="6.88" height="8.29"/>
  <g class="cls-3">
    <path class="cls-2" d="m185.13,109.96v-.72c.25-.25.44-.51.58-.77.13-.26.2-.61.2-1.03,0-.11,0-.22-.03-.34h-1.09v-.85h.83c-.06-.17-.11-.34-.15-.52-.04-.18-.06-.37-.06-.57,0-.42.09-.79.27-1.09.18-.31.44-.54.77-.71.33-.16.71-.24,1.14-.24.49,0,.89.09,1.21.28.32.19.56.44.73.75s.26.66.28,1.05h-1.13c-.01-.3-.11-.55-.29-.75-.18-.2-.44-.3-.78-.3-.28,0-.52.09-.73.26-.21.17-.31.44-.31.81,0,.17.03.34.08.51s.11.35.17.53h1.79v.85h-1.56c.02.12.03.23.03.34,0,.26-.05.53-.15.8-.1.27-.27.52-.51.75h3.42v.98h-4.69Z"/>
  </g>
  <rect class="cls-8" x="109.72" y="100.45" width="6.88" height="8.29"/>
  <g class="cls-3">
    <path class="cls-2" d="m113.1,108.6v-.74c-.62-.07-1.13-.29-1.52-.65-.39-.37-.59-.85-.6-1.47h1.3c.01.26.09.48.23.67s.34.32.59.39v-2.03c-.06-.02-.12-.04-.18-.06-.06-.02-.12-.04-.19-.06-.52-.18-.91-.41-1.19-.69s-.41-.66-.41-1.12c0-.55.17-.99.54-1.33s.84-.53,1.42-.58v-.78h.64v.79c.58.06,1.04.26,1.4.6.36.34.54.78.56,1.32h-1.32c0-.19-.07-.36-.18-.51-.11-.16-.27-.27-.47-.33v1.79c.05.02.1.04.15.05s.1.03.15.05c.33.12.64.25.91.4.27.15.5.36.66.61s.25.58.25.97c0,.33-.08.64-.24.93-.16.29-.4.53-.72.72-.32.19-.71.3-1.17.32v.73h-.64Zm-.67-5.84c0,.21.06.37.18.5.12.12.28.23.49.32v-1.59c-.2.04-.36.12-.48.26-.12.13-.19.31-.19.52Zm2.14,3.23c0-.26-.08-.46-.23-.6-.15-.15-.35-.27-.6-.37v1.82c.26-.04.46-.13.6-.28.15-.15.22-.34.22-.57Z"/>
  </g>
  <rect class="cls-8" x="95.25" y="116.65" width="6.88" height="8.3"/>
  <g class="cls-3">
    <path class="cls-2" d="m98.63,124.8v-.74c-.62-.07-1.13-.29-1.52-.65-.39-.37-.59-.85-.6-1.47h1.3c.01.26.09.48.23.67s.34.32.59.39v-2.03c-.06-.02-.12-.04-.18-.06-.06-.02-.12-.04-.19-.06-.52-.18-.91-.41-1.19-.69s-.41-.66-.41-1.12c0-.55.17-.99.54-1.33s.84-.53,1.42-.58v-.78h.64v.79c.58.06,1.04.26,1.4.6.36.34.54.78.56,1.32h-1.32c0-.19-.07-.36-.18-.51-.11-.16-.27-.27-.47-.33v1.79c.05.02.1.04.15.05s.1.03.15.05c.33.12.64.25.91.4.27.15.5.36.66.61s.25.58.25.97c0,.33-.08.64-.24.93-.16.29-.4.53-.72.72-.32.19-.71.3-1.17.32v.73h-.64Zm-.67-5.84c0,.21.06.37.18.5.12.12.28.23.49.32v-1.59c-.2.04-.36.12-.48.26-.12.13-.19.31-.19.52Zm2.14,3.23c0-.26-.08-.46-.23-.6-.15-.15-.35-.27-.6-.37v1.82c.26-.04.46-.13.6-.28.15-.15.22-.34.22-.57Z"/>
  </g>
  <rect class="cls-8" x="182.45" y="121.05" width="6.88" height="8.29"/>
  <g class="cls-3">
    <path class="cls-2" d="m183.6,126.09v-.73h.75c-.01-.12-.02-.23-.02-.35,0-.12,0-.24.02-.36h-.75v-.74h.86c.18-.72.54-1.3,1.08-1.74.54-.43,1.22-.65,2.05-.65s1.47.2,1.98.6c.52.4.84.96.96,1.68h-1.35c-.08-.36-.26-.65-.53-.86s-.63-.31-1.07-.31-.84.11-1.15.34c-.31.22-.54.54-.69.94h2v.74h-2.15c0,.12,0,.23,0,.36s0,.24,0,.35h2.15v.73h-2c.14.41.37.73.68.95.31.22.7.34,1.15.34s.8-.1,1.07-.29.45-.47.53-.81h1.35c-.13.69-.45,1.23-.96,1.62-.52.39-1.18.59-1.98.59s-1.51-.22-2.05-.65c-.54-.43-.91-1.01-1.08-1.74h-.85Z"/>
  </g>
  <g>
    <path class="cls-6" d="m93.06,58.01c-.23-.6-.69-1.08-1.28-1.34l-2.64-1.16c1.62-1.12,1.37-3.62-.49-4.37l-29.57-13c-1.51-.61-2.74.44-3.1,1.08l-7.46,13.04c-.69,1.2-.27,2.73.93,3.41.12.07.25.13.39.18l12.82,5.31-3.26,8.69h-7.46v-3.13c0-.69-.56-1.25-1.25-1.25h-1.25c-.69,0-1.25.56-1.25,1.25v10.01c0,.69.56,1.25,1.25,1.25h1.25c.69,0,1.25-.56,1.25-1.25v-3.13h8.76c.78,0,1.48-.48,1.76-1.22l3.67-9.79,5.94,2.46c1,.36,1.95-.09,2.18-.23l1.62-1.02,10.7,4.71h0c1.23.53,2.65-.03,3.19-1.25l3.26-7.41c.26-.59.28-1.26.04-1.86h0Z"/>
    <polygon class="cls-7" points="72.81 61.31 52.49 52.9 58.68 42.07 85.05 53.66 72.81 61.31"/>
  </g>
  <g>
    <path class="cls-6" d="m205.94,58.01c-.24.6-.22,1.27.04,1.85l3.26,7.42c.54,1.22,1.96,1.78,3.19,1.25h0s10.7-4.71,10.7-4.71l1.63,1.02c.23.14,1.18.59,2.18.23l5.94-2.46,3.67,9.79c.27.73.98,1.22,1.76,1.22h8.76v3.13c0,.69.56,1.25,1.25,1.25h1.25c.69,0,1.25-.56,1.25-1.25v-10.01c0-.69-.56-1.25-1.25-1.25h-1.25c-.69,0-1.25.56-1.25,1.25v3.13h-7.46l-3.26-8.69,12.82-5.31c.13-.05.26-.11.38-.18,1.2-.69,1.62-2.21.93-3.42l-7.45-13.04c-.36-.64-1.59-1.69-3.1-1.08l-29.57,13c-1.86.75-2.11,3.25-.49,4.37l-2.64,1.16c-.59.26-1.05.74-1.28,1.34h0Z"/>
    <polygon class="cls-7" points="213.95 53.66 240.32 42.07 246.51 52.9 226.19 61.31 213.95 53.66"/>
  </g>
  <g>
    <rect class="cls-8" x="113.12" y="152.78" width="6.88" height="8.3"/>
    <g class="cls-3">
      <path class="cls-2" d="m114.11,160.1v-6.72h2.49c.54,0,.98.09,1.33.27.35.18.61.43.79.74s.26.67.26,1.06-.08.71-.25,1.02c-.17.31-.43.56-.78.75s-.8.28-1.35.28h-1.26v2.6h-1.23Zm1.23-3.6h1.18c.43,0,.74-.09.93-.28.19-.19.28-.45.28-.77s-.09-.59-.28-.78-.5-.28-.93-.28h-1.18v2.12Z"/>
    </g>
    <rect class="cls-2" x="113.47" y="155.05" width="6.64" height=".8"/>
  </g>
  <g>
    <path class="cls-10" d="m146.28,110.51c-.2,0-.41-.08-.57-.23-.31-.31-.31-.82,0-1.13l8.8-8.8c.31-.31.82-.31,1.13,0s.31.82,0,1.13l-8.8,8.8c-.16.16-.36.23-.57.23Z"/>
    <path class="cls-10" d="m155.08,110.51c-.2,0-.41-.08-.57-.23l-8.8-8.8c-.31-.31-.31-.82,0-1.13s.82-.31,1.13,0l8.8,8.8c.31.31.31.82,0,1.13-.16.16-.36.23-.57.23Z"/>
  </g>
  <g>
    <path class="cls-10" d="m102.02,144.38c-.2,0-.41-.08-.57-.23-.31-.31-.31-.82,0-1.13l8.8-8.8c.31-.31.82-.31,1.13,0,.31.31.31.82,0,1.13l-8.8,8.8c-.16.16-.36.23-.57.23Z"/>
    <path class="cls-10" d="m110.81,144.37c-.2,0-.41-.08-.57-.23l-8.8-8.8c-.31-.31-.31-.82,0-1.13s.82-.31,1.13,0l8.8,8.8c.31.31.31.82,0,1.13-.16.16-.36.23-.57.23Z"/>
  </g>
  <g>
    <path class="cls-10" d="m147.62,145.71c-.2,0-.41-.08-.57-.23-.31-.31-.31-.82,0-1.13l8.8-8.8c.31-.31.82-.31,1.13,0,.31.31.31.82,0,1.13l-8.8,8.8c-.16.16-.36.23-.57.23Z"/>
    <path class="cls-10" d="m156.42,145.71c-.2,0-.41-.08-.57-.23l-8.8-8.8c-.31-.31-.31-.82,0-1.13s.82-.31,1.13,0l8.8,8.8c.31.31.31.82,0,1.13-.16.16-.36.23-.57.23Z"/>
  </g>
</svg>