<?xml version="1.0" encoding="UTF-8"?>
<svg id="Layer_1" data-name="Layer 1" xmlns="http://www.w3.org/2000/svg" viewBox="0 0 300 225">
  <defs>
    <style>
      .cls-1 {
        fill: #fff;
      }

      .cls-2 {
        isolation: isolate;
        opacity: .35;
      }

      .cls-3 {
        fill: #232323;
      }

      .cls-4 {
        fill: #ff7e1c;
      }

      .cls-5 {
        fill: none;
      }

      .cls-6 {
        fill: #ea651b;
      }
    </style>
  </defs>
  <g>
    <path class="cls-4" d="m164.39,42.37c.42.1.85.19,1.27.29-.42-.1-.84-.2-1.27-.29Z"/>
    <path class="cls-4" d="m186.79,51.69c-6.62-4.27-13.7-7.23-20.94-8.98v6.61c0,1.35-.5,2.56-1.45,3.52-.95.95-2.17,1.45-3.52,1.45h-21.45c-1.35,0-2.57-.5-3.53-1.46-.94-.95-1.44-2.17-1.44-3.51v-6.7c-16.57,3.87-31.71,13.9-41.67,29.32-16.36,25.33-13.73,57.46,4.28,79.68,36.95,19.34,83.23,7.65,106.29-28.08,6.55-10.15,10.56-21.21,12.2-32.43-4.23-15.68-14.05-29.91-28.77-39.41Z"/>
  </g>
  <g class="cls-2">
    <ellipse class="cls-3" cx="149.91" cy="175.68" rx="54.89" ry="8.86"/>
  </g>
  <path class="cls-6" d="m97.06,151.61c4.42,5.45,9.75,10.31,15.97,14.32,31.55,20.37,73.64,11.31,94-20.24,10.86-16.83,13.35-36.66,8.52-54.59-1.64,11.22-5.65,22.28-12.2,32.43-23.07,35.73-69.34,47.42-106.29,28.09Z"/>
  <path class="cls-1" d="m170.57,109.54c1.52,1.9,2.13,4.52,1.82,7.86-.46,4.03-2.13,6.96-5.02,8.78-2.51,1.52-6.28,2.43-11.3,2.74v7.75h-5.58v-7.65h-4.33v7.65h-5.59v-7.75h-11.06l1.14-6.62h1.14c1.83.08,3,.03,3.53-.12.76-.23,1.22-.79,1.37-1.7v-24.75c-.23-1.21-.87-1.98-1.93-2.28-.68-.23-2.13-.3-4.33-.23h-.91v-5.93l3.42.12c4.03,0,6.57-.04,7.63-.12v-9h5.59v8.9l4.33-.12v-8.78h5.58v9c3.88.38,6.84,1.22,8.9,2.51,2.51,1.52,3.88,3.8,4.1,6.84.46,4.41-1.09,7.52-4.67,9.35h0c2.81.61,4.87,1.79,6.16,3.54h0Zm-24.29-4.91h.91c3.19.08,5.67-.11,7.42-.56,3.04-.76,4.56-2.4,4.56-4.91s-1.49-4.18-4.45-5.02c-1.67-.46-4.14-.64-7.41-.56-.53.07-.88.11-1.03.11v10.94h0Zm1.03,17.68c3.88.07,6.8-.12,8.77-.58,3.57-.91,5.36-2.74,5.36-5.47s-1.75-4.56-5.24-5.47c-1.9-.53-4.79-.72-8.67-.56h-1.26v12.09h1.03s0,0,0,0Z"/>
  <path class="cls-5" d="m163.8,39.79v-4.12c0-.81-.29-1.5-.85-2.07-.57-.57-1.26-.85-2.07-.85h-1.95v-2.86c0-1.58-.4-3.06-1.19-4.42-.79-1.36-1.86-2.44-3.2-3.23-1.34-.79-2.8-1.19-4.38-1.19s-3.05.4-4.39,1.19c-1.34.79-2.41,1.86-3.2,3.2-.79,1.34-1.19,2.8-1.19,4.39v2.92h-1.95c-.81,0-1.5.29-2.07.85-.56.57-.85,1.26-.85,2.07v4.03c4.34-.84,8.82-1.29,13.41-1.29,4.75,0,9.4.48,13.89,1.38Zm-19.5-9.97c0-1.62.57-3,1.71-4.14,1.14-1.13,2.52-1.71,4.15-1.71s3,.57,4.14,1.71c1.13,1.14,1.71,2.52,1.71,4.14v2.92h-11.7v-2.92h0Z"/>
  <path class="cls-5" d="m150.15,26.01c-1.09,0-1.94.35-2.7,1.11-.76.76-1.11,1.62-1.11,2.7v.88h7.61v-.88c0-1.08-.35-1.94-1.1-2.69-.76-.76-1.62-1.11-2.7-1.11Z"/>
  <path class="cls-5" d="m164.39,52.84c-.95.95-2.17,1.45-3.52,1.45h-21.45c-1.35,0-2.57-.5-3.53-1.46-.94-.95-1.44-2.17-1.44-3.51v-6.72c-30.11,7-52.55,33.98-52.55,66.21,0,37.56,30.45,68,68,68s68-30.45,68-68c0-32.07-22.2-58.93-52.06-66.1v6.61c0,1.35-.5,2.56-1.45,3.52Z"/>
  <g>
    <path class="cls-4" d="m270.6,96.11c-1.76,0-3.28.96-4.11,2.38h-46.95c.23,1.57.42,3.16.54,4.77h46.41c.82,1.42,2.35,2.38,4.11,2.38,2.63,0,4.77-2.13,4.77-4.77,0-2.63-2.14-4.77-4.77-4.77Z"/>
    <path class="cls-4" d="m229.11,119.31l6.57,17.52c.35.93,1.24,1.55,2.23,1.55h12.58c.82,1.42,2.35,2.38,4.11,2.38,2.63,0,4.77-2.13,4.77-4.77s-2.13-4.77-4.77-4.77c-1.76,0-3.28.97-4.11,2.38h-10.93l-5.36-14.3h6.75c.83,1.42,2.35,2.38,4.11,2.38,2.63,0,4.77-2.13,4.77-4.77s-2.13-4.77-4.77-4.77c-1.76,0-3.28.96-4.11,2.38h-20.88c-.13,1.6-.31,3.2-.55,4.77h9.59Z"/>
    <path class="cls-4" d="m58.71,132.51c-.83-1.42-2.35-2.38-4.11-2.38-2.63,0-4.77,2.13-4.77,4.77s2.13,4.77,4.77,4.77c1.76,0,3.28-.97,4.11-2.38h26.82c-.69-1.56-1.33-3.15-1.91-4.77h-24.91Z"/>
    <path class="cls-4" d="m95.13,137.28v-4.77h-8.97c.6,1.62,1.28,3.21,2,4.77h6.97Z"/>
    <path class="cls-4" d="m91.1,95.01v-4.77h-6.61c-.44,1.57-.83,3.16-1.17,4.77h7.77Z"/>
    <path class="cls-4" d="m71.29,90.24l-6.57-17.52c-.35-.93-1.24-1.55-2.23-1.55h-20.58c-.83-1.42-2.35-2.38-4.11-2.38-2.63,0-4.77,2.13-4.77,4.77s2.13,4.77,4.77,4.77c1.76,0,3.28-.97,4.11-2.38h18.93l5.36,14.3h-6.75c-.83-1.42-2.35-2.38-4.11-2.38-2.64,0-4.77,2.13-4.77,4.77s2.13,4.77,4.77,4.77c1.76,0,3.28-.97,4.11-2.38h21.43c.32-1.61.69-3.2,1.12-4.77h-10.71Z"/>
    <path class="cls-4" d="m81.98,111.62h4.35v-4.77h-4.38c-.02.65-.04,1.3-.04,1.96,0,.94.03,1.88.07,2.81Z"/>
    <path class="cls-4" d="m79.55,106.85h-12.29c-.63,0-1.24.25-1.68.7l-8.84,8.84h-22.82c-.83-1.42-2.35-2.38-4.11-2.38-2.63,0-4.77,2.13-4.77,4.77s2.13,4.77,4.77,4.77c1.76,0,3.28-.96,4.11-2.38h23.81c.63,0,1.24-.25,1.68-.7l8.84-8.84h11.32c-.04-.93-.06-1.87-.06-2.81,0-.66.02-1.31.04-1.96Z"/>
    <path class="cls-4" d="m237.15,89.73c.64,0,1.24-.25,1.69-.7l8.84-8.84h6.83c.82,1.42,2.35,2.38,4.11,2.38,2.64,0,4.77-2.13,4.77-4.77s-2.13-4.77-4.77-4.77c-1.76,0-3.28.96-4.11,2.38h-7.81c-.63,0-1.24.25-1.68.7l-8.84,8.84h-20.01c.57,1.56,1.06,3.16,1.52,4.77h19.48Z"/>
    <path class="cls-4" d="m211.04,84.96c.75,1.5,1.33,3.09,1.71,4.77h2.42c-.47-1.62-1-3.21-1.59-4.77h-2.55Z"/>
  </g>
  <path class="cls-3" d="m162.95,33.6c-.57-.57-1.26-.85-2.07-.85h-1.95v-2.86c0-1.58-.4-3.06-1.19-4.42-.79-1.36-1.86-2.44-3.2-3.23-1.34-.79-2.8-1.19-4.38-1.19s-3.05.4-4.39,1.19c-1.34.79-2.41,1.86-3.2,3.2-.79,1.34-1.19,2.8-1.19,4.39v2.92h-1.95c-.81,0-1.5.29-2.07.85-.56.57-.85,1.26-.85,2.07v13.65c0,.81.29,1.5.85,2.07.57.57,1.26.85,2.07.85h21.45c.81,0,1.51-.28,2.07-.85.57-.57.85-1.26.85-2.07v-13.65c0-.81-.29-1.5-.85-2.07Zm-11.09,10.85c0,.49-.17.9-.49,1.22-.32.33-.73.49-1.21.49s-.9-.16-1.22-.49c-.33-.32-.49-.73-.49-1.22v-3.9c0-.49.16-.89.49-1.22.32-.32.73-.49,1.22-.49s.89.17,1.21.49c.33.33.49.73.49,1.22v3.9Zm4.14-11.7h-11.7v-2.92c0-1.62.57-3,1.71-4.14,1.14-1.13,2.52-1.71,4.15-1.71s3,.57,4.14,1.71c1.13,1.14,1.71,2.52,1.71,4.14v2.92h0Z"/>
</svg>