<?xml version="1.0" encoding="UTF-8"?>
<svg id="Layer_1" data-name="Layer 1" xmlns="http://www.w3.org/2000/svg" viewBox="0 0 300 225">
  <defs>
    <style>
      .cls-1 {
        fill: #fff;
      }

      .cls-2 {
        opacity: .5;
      }

      .cls-3 {
        isolation: isolate;
        opacity: .35;
      }

      .cls-4 {
        fill: #232323;
      }

      .cls-5 {
        fill: #ff7e1c;
      }

      .cls-6 {
        fill: #444;
      }

      .cls-7 {
        fill: #ea651b;
      }

      .cls-8 {
        fill: #7f7f7f;
      }

      .cls-9 {
        fill: #231f20;
      }
    </style>
  </defs>
  <g class="cls-3">
    <ellipse class="cls-4" cx="177.8" cy="175.57" rx="55.33" ry="8.93"/>
  </g>
  <g>
    <path class="cls-7" d="m124.94,151.5c4.42,5.46,9.77,10.33,16,14.35,31.6,20.4,73.76,11.32,94.17-20.28,10.89-16.86,13.38-36.72,8.54-54.69-1.64,11.24-5.66,22.32-12.22,32.49-23.11,35.79-69.46,47.5-106.48,28.13Z"/>
    <path class="cls-5" d="m120.65,71.68c-16.38,25.38-13.75,57.56,4.28,79.82,37.02,19.37,83.37,7.66,106.48-28.13,6.56-10.17,10.58-21.25,12.22-32.49-4.23-15.71-14.07-29.96-28.82-39.48-31.61-20.4-73.76-11.32-94.17,20.28Z"/>
  </g>
  <path class="cls-1" d="m198.57,109.35c1.52,1.9,2.13,4.53,1.83,7.88-.46,4.04-2.13,6.98-5.03,8.8-2.51,1.52-6.29,2.44-11.31,2.74v7.77h-5.59v-7.66h-4.34v7.66h-5.6v-7.77h-11.08l1.14-6.63h1.14c1.83.08,3,.03,3.54-.12.76-.23,1.22-.79,1.37-1.71v-24.79c-.23-1.22-.87-1.98-1.94-2.29-.69-.23-2.13-.3-4.34-.23h-.91v-5.94l3.43.12c4.03,0,6.58-.04,7.65-.12v-9.02h5.6v8.91l4.34-.12v-8.79h5.59v9.02c3.89.38,6.85,1.22,8.91,2.51,2.51,1.52,3.88,3.81,4.11,6.85.46,4.42-1.1,7.54-4.68,9.37h0c2.82.61,4.88,1.79,6.17,3.55h0Zm-24.34-4.92h.91c3.2.08,5.68-.11,7.43-.57,3.04-.76,4.57-2.4,4.57-4.92s-1.49-4.19-4.46-5.03c-1.68-.46-4.15-.64-7.42-.57-.53.08-.88.11-1.03.11v10.97h0Zm1.03,17.71c3.88.08,6.81-.12,8.79-.58,3.58-.91,5.38-2.74,5.38-5.48s-1.75-4.57-5.25-5.48c-1.9-.54-4.8-.72-8.68-.57h-1.26v12.11h1.04Z"/>
  <g class="cls-3">
    <ellipse class="cls-4" cx="85.85" cy="177.76" rx="21.53" ry="3.48"/>
  </g>
  <path class="cls-4" d="m70.25,153.13c.09.7,2.42,20.58,5.8,23.37,3.39,2.79,5.17,1.85,5.85,1.11.72-.78,1.63-2.17-.06-3.74-1.36-1.26-2.31-6.87-.96-15.61l-10.64-5.13Z"/>
  <path class="cls-4" d="m83.18,151.89c.09.7,2.42,20.58,5.8,23.37,3.39,2.79,5.17,1.85,5.85,1.11.72-.78,1.63-2.17-.06-3.74-1.36-1.26-2.31-6.87-.96-15.61l-10.64-5.13Z"/>
  <path class="cls-4" d="m91.5,125.22c-1.55-.17-3.01.76-3.22,2.45-.22,1.68,1.4,3.68,3.56,3.93,6.14.71,11.87-1.6,15.8-6.38,1.38-1.68,1.17-4.24-.16-5.3-1.33-1.07-3.03-.73-4.03.47-2.98,3.61-7.31,5.36-11.96,4.82Z"/>
  <path class="cls-1" d="m72.96,123.1c3.92-2.17,8.87-3.34,18.03-3.69-2.18-.92-5.07-1.35-9.3-1.35h0c-7.24,0-10.58,1.23-13.1,4.1-2.97,3.39-4.48,13.07-4.78,20.61.48-7.08,3.35-16.43,9.16-19.66Z"/>
  <path class="cls-6" d="m63.81,142.76c-.07,1.04-.09,2.03-.06,2.94,0-.93.02-1.91.06-2.94Z"/>
  <path class="cls-6" d="m57.48,154.9c-1.03.73-2.37.99-3.07.36-.7-.62-.49-2.21.66-3.35,3.11-3.1,7.19-5.19,11.69-5.85,1.68-.24,2.89,1.17,2.68,2.88-.2,1.72-1.25,2.95-2.4,2.93-3.29-.05-6.66.95-9.56,3.03Z"/>
  <path class="cls-1" d="m70.4,109.03c-1.16-6.43,3.36-10.2,14.57-10.87,3.56-.21,6.84-4.39,9.41-5.15,7.39-2.2,9.14,2.62,9.14,2.62h.02c-3.64-8.32-14.02-13.19-25.04-11.16-12.5,2.31-21.07,12.65-19.13,23.08,1.93,10.44,13.63,17.02,26.13,14.71,1.09-.2,2.15-.47,3.17-.79h0c-10.87,2.79-16.72-3.91-18.26-12.45Z"/>
  <path class="cls-6" d="m104.63,99.18c-.23-1.24-.6-2.43-1.09-3.55h-.01s-1.75-4.82-9.14-2.62c-2.57.76-5.85,4.94-9.41,5.15-11.2.67-15.73,4.43-14.57,10.87,1.54,8.54,7.4,15.24,18.26,12.43h0c10.74-3.32,17.73-12.76,15.97-22.29Z"/>
  <path class="cls-8" d="m92.99,117.24c-2.38.54-7.44-.66-7.46-5.81-.02-5.14,5.55-6.81,7.43-7.23,1.88-.42,7.46-1.27,7.48,3.86.02,5.14-5.07,8.63-7.45,9.17Z"/>
  <path class="cls-4" d="m93.08,105.53c1.03-.23,2.57.57,2.75,1.86.18,1.3-2.81,1.92-2.81,1.92l-.09.02s-2.99.72-2.82-.65c.18-1.38,1.7-2.87,2.73-3.1l.22-.05Z"/>
  <path class="cls-4" d="m92.17,114.98c-.27,0-.53-.03-.79-.08-.53-.12-1.01-.35-1.41-.69-.4-.33-.72-.76-.95-1.27-.08-.17,0-.37.17-.44.17-.08.37,0,.44.17.18.41.44.76.76,1.02.32.27.7.45,1.13.55.44.1.91.09,1.39-.02.5-.11.98-.32,1.43-.63.44-.3.84-.67,1.18-1.11.34-.44.61-.93.79-1.44.06-.17.25-.27.43-.2.17.06.27.26.2.43-.21.58-.51,1.13-.9,1.62-.38.5-.83.92-1.33,1.26-.52.35-1.08.6-1.66.73-.31.07-.61.1-.9.1Z"/>
  <circle class="cls-4" cx="82.95" cy="104.66" r=".94"/>
  <circle class="cls-4" cx="97.51" cy="99.51" r=".94"/>
  <path class="cls-6" d="m73.83,110.14c.72,3.64.15,6.82-1.28,7.1-1.43.28-3.17-2.44-3.89-6.07-.72-3.64-.15-6.82,1.27-7.1,1.43-.29,3.17,2.43,3.89,6.07Z"/>
  <path class="cls-4" d="m71.48,106.38c-1.17.24-1.76,2.62-1.6,5.83-.11-.39-.21-.79-.29-1.22-.55-2.86-.25-5.33.68-5.52.39-.08.84.27,1.26.91-.02,0-.04,0-.06,0Z"/>
  <path class="cls-8" d="m80.05,105.62c-.19,0-.35-.15-.37-.34-.03-.38,0-.75.12-1.12.11-.36.29-.69.53-.99.25-.3.55-.55.9-.74.35-.19.73-.3,1.11-.33.2-.02.38.13.4.34s-.13.38-.34.4c-.29.03-.57.11-.83.25-.26.14-.49.32-.67.55-.18.22-.31.47-.4.74-.08.27-.11.55-.09.83.02.2-.13.38-.34.4-.01,0-.02,0-.03,0Z"/>
  <path class="cls-8" d="m99.93,98.59c-.13,0-.26-.07-.32-.19-.14-.26-.33-.48-.57-.66-.24-.18-.5-.31-.77-.39-.27-.07-.56-.09-.84-.06-.28.04-.55.13-.8.26-.18.1-.4.03-.5-.14-.1-.18-.04-.41.14-.5.33-.18.69-.3,1.06-.35.38-.05.76-.02,1.12.08.37.1.72.27,1.04.52.31.24.57.54.76.88.1.18.04.41-.14.5-.06.03-.12.05-.18.05Z"/>
  <path class="cls-6" d="m94.8,122.15c-.92-1.05-1.95-1.88-3.24-2.51-.18-.09-.37-.16-.56-.24-1.47.06-2.83.14-4.1.24-3.12.11-5.56.46-7.54,1.08-2.56.59-4.58,1.38-6.39,2.38-5.8,3.22-8.68,12.58-9.16,19.66-.04,1.03-.06,2.02-.06,2.94,0,2.39.16,4.38.45,5.58.31,1.3,1.55,2.41,3.51,3.29,3.11,1.4,8.05,2.19,13.98,2.19h0c.56,0,1.1,0,1.64-.02.17,0,.33-.01.49-.02.37-.02.74-.03,1.11-.05.18,0,.36-.02.54-.03.35-.02.7-.05,1.04-.07.16-.02.32-.02.48-.04.42-.04.82-.08,1.22-.13.07-.01.14-.02.21-.02.47-.06.93-.12,1.38-.19.11-.02.21-.04.32-.05.33-.06.66-.12.98-.18.13-.03.27-.05.4-.08.29-.06.57-.12.84-.19.12-.03.25-.06.37-.09.3-.08.58-.16.86-.24.07-.02.14-.04.2-.06h0c1.91-.59,3.4-1.35,4.33-2.24.01,0,.02-.02.03-.03.18-.17.33-.35.47-.52.05-.07.09-.15.13-.22.08-.12.17-.24.23-.37.1-.2.17-.41.22-.62,1.21-5.08.04-24.09-4.39-29.13Z"/>
  <ellipse class="cls-6" cx="81.75" cy="149.03" rx="17.78" ry="14.01"/>
  <g>
    <path class="cls-4" d="m75.04,127.03c-1-1.2-2.69-1.54-4.02-.48-1.33,1.06-1.55,3.61-.17,5.3,3.92,4.78,9.65,7.1,15.79,6.4,2.16-.25,3.78-2.24,3.57-3.92-.21-1.69-1.67-2.63-3.22-2.46-4.65.53-8.98-1.22-11.95-4.84Z"/>
    <path class="cls-4" d="m91.76,133.15c.42-.08.78-.34.79-.65.01-.31-.42-.63-.95-.61-1.46.03-2.9.52-4.09,1.44-.44.35-.39.96.07,1.31.46.35.99.38,1.25.1.75-.8,1.76-1.37,2.93-1.59Z"/>
    <path class="cls-4" d="m92.25,135.54c.42.04.85-.11.94-.4.1-.3-.22-.72-.74-.85-1.41-.38-2.93-.3-4.33.25-.52.21-.64.81-.29,1.27.34.46.85.64,1.18.45.94-.56,2.07-.83,3.25-.71Z"/>
    <path class="cls-4" d="m91.49,137.91c.35.23.8.29,1.02.07.22-.22.12-.74-.28-1.1-1.08-.98-2.47-1.6-3.97-1.75-.56-.05-.94.43-.84,1,.1.56.46.96.84.93,1.09-.07,2.23.21,3.22.85Z"/>
  </g>
  <path class="cls-4" d="m83.71,175.67c.42.12.89.05,1.05-.24.16-.29-.1-.78-.6-1.02-1.38-.66-2.96-.87-4.52-.57-.58.12-.81.72-.55,1.26.27.54.75.82,1.13.69,1.08-.4,2.3-.46,3.49-.12Z"/>
  <path class="cls-4" d="m83.05,178.14c.38.23.84.29,1.07.06s.12-.78-.3-1.15c-1.14-1.01-2.61-1.66-4.18-1.8-.59-.05-.98.47-.88,1.06.11.59.49,1,.89.97,1.14-.09,2.34.19,3.39.86Z"/>
  <path class="cls-4" d="m81.23,180.01c.23.38.62.65.93.55.31-.1.47-.64.26-1.16-.56-1.42-1.57-2.66-2.91-3.51-.5-.32-1.09-.04-1.26.54-.18.58-.02,1.12.35,1.27,1.06.44,1.99,1.24,2.63,2.31Z"/>
  <path class="cls-4" d="m97.23,174.2c.42.12.89.05,1.05-.24.16-.29-.1-.78-.61-1.02-1.38-.66-2.96-.87-4.52-.57-.58.11-.81.72-.55,1.26.27.54.75.82,1.13.69,1.08-.4,2.3-.46,3.5-.12Z"/>
  <path class="cls-4" d="m96.57,176.67c.37.23.84.29,1.07.06.23-.23.13-.78-.29-1.15-1.14-1.02-2.61-1.66-4.19-1.8-.59-.05-.98.47-.88,1.05.1.59.49,1,.89.97,1.14-.09,2.34.2,3.39.86Z"/>
  <path class="cls-4" d="m94.74,178.54c.23.38.62.65.93.54.31-.1.47-.63.26-1.16-.56-1.42-1.57-2.66-2.91-3.51-.5-.32-1.08-.03-1.26.54-.18.58-.02,1.12.35,1.27,1.06.45,1.99,1.24,2.63,2.31Z"/>
  <path class="cls-4" d="m107.78,118.04c.27-.36.37-.83.15-1.08-.21-.25-.78-.19-1.19.21-1.12,1.07-1.89,2.5-2.17,4.09-.1.59.39,1.03,1,.97.61-.06,1.05-.42,1.06-.82,0-1.16.39-2.35,1.15-3.36Z"/>
  <path class="cls-4" d="m109.89,119.56c.36-.27.58-.69.45-1-.14-.31-.69-.4-1.2-.13-1.38.72-2.51,1.88-3.22,3.33-.26.54.09,1.1.69,1.21.6.11,1.13-.11,1.25-.5.33-1.12,1.03-2.15,2.04-2.91Z"/>
  <path class="cls-4" d="m111.01,121.97c.44-.08.84-.35.85-.69.02-.33-.43-.67-1.01-.66-1.55.02-3.09.53-4.38,1.5-.48.36-.42,1.02.06,1.39.48.38,1.05.42,1.33.12.8-.84,1.89-1.45,3.14-1.66Z"/>
  <path class="cls-9" d="m108.86,122.59c-.1,0-.21,0-.31-.03-.88-.17-1.46-1.02-1.29-1.9l1.99-10.27c.17-.88,1.03-1.46,1.9-1.28.88.17,1.46,1.02,1.29,1.9l-1.99,10.27c-.15.78-.83,1.31-1.59,1.31Z"/>
  <circle class="cls-5" cx="112.91" cy="104.61" r="9.16"/>
  <path class="cls-9" d="m112.91,114.84c-5.65,0-10.24-4.59-10.24-10.24s4.59-10.24,10.24-10.24,10.24,4.59,10.24,10.24-4.59,10.24-10.24,10.24Zm0-18.32c-4.45,0-8.08,3.62-8.08,8.08s3.62,8.08,8.08,8.08,8.08-3.62,8.08-8.08-3.62-8.08-8.08-8.08Z"/>
  <g class="cls-2">
    <path class="cls-1" d="m114.98,105.57c0,.6-.49,1.08-1.08,1.08h-2.28c-.6,0-1.08-.49-1.08-1.08v-2.28c0-.6.49-1.08,1.08-1.08h2.28c.6,0,1.08.49,1.08,1.08v2.28Z"/>
  </g>
</svg>