<?xml version="1.0" encoding="UTF-8"?>
<svg id="Layer_1" data-name="Layer 1" xmlns="http://www.w3.org/2000/svg" viewBox="0 0 300 225">
  <defs>
    <style>
      .cls-1 {
        fill: #fff;
      }

      .cls-2 {
        isolation: isolate;
        opacity: .35;
      }

      .cls-3 {
        fill: #232323;
      }

      .cls-4 {
        fill: #ff7e1c;
      }

      .cls-5 {
        fill: #444;
      }

      .cls-6 {
        fill: none;
      }

      .cls-7 {
        fill: #ea651b;
      }

      .cls-8 {
        fill: #3ed033;
      }

      .cls-9 {
        fill: #7f7f7f;
      }

      .cls-10 {
        fill: #3050c4;
      }
    </style>
  </defs>
  <g class="cls-2">
    <ellipse class="cls-3" cx="149.75" cy="142.03" rx="35.56" ry="5.74"/>
  </g>
  <g>
    <g>
      <path class="cls-3" d="m148.61,105.43c-.13,1.02-3.46,29.92-8.37,33.98-4.92,4.06-7.5,2.7-8.51,1.62-1.05-1.12-2.38-3.15.07-5.44,1.97-1.84,3.34-9.98,1.35-22.68l15.46-7.48Z"/>
      <g>
        <path class="cls-3" d="m128.26,137.9c-.62.18-1.3.07-1.53-.34-.23-.42.14-1.14.88-1.49,2.01-.96,4.31-1.27,6.57-.84.84.16,1.18,1.04.8,1.83-.39.79-1.09,1.2-1.64,1-1.56-.57-3.34-.66-5.08-.15Z"/>
        <path class="cls-3" d="m129.23,141.49c-.54.34-1.23.43-1.56.1-.34-.34-.18-1.13.43-1.68,1.66-1.48,3.78-2.41,6.08-2.63.85-.07,1.43.68,1.27,1.54-.15.86-.71,1.45-1.3,1.41-1.66-.12-3.39.29-4.92,1.26Z"/>
        <path class="cls-3" d="m131.89,144.2c-.33.55-.89.94-1.35.8-.45-.15-.68-.92-.38-1.69.8-2.07,2.27-3.87,4.21-5.1.72-.46,1.58-.05,1.83.78.26.84.03,1.62-.51,1.85-1.53.65-2.89,1.81-3.81,3.36Z"/>
      </g>
    </g>
    <g>
      <path class="cls-3" d="m151.62,105.16c.13,1.02,3.57,29.91,8.5,33.95,4.93,4.04,7.51,2.67,8.51,1.59,1.04-1.13,2.36-3.16-.09-5.44-1.97-1.84-3.37-9.97-1.43-22.68l-15.48-7.43Z"/>
      <g>
        <path class="cls-3" d="m171.25,137.89c.62.18,1.3.07,1.52-.35.23-.42-.14-1.14-.88-1.49-2.01-.95-4.31-1.26-6.57-.82-.84.17-1.18,1.05-.79,1.83.39.79,1.1,1.19,1.64.99,1.56-.58,3.34-.68,5.08-.17Z"/>
        <path class="cls-3" d="m170.29,141.48c.54.34,1.23.43,1.56.09.34-.34.18-1.13-.43-1.67-1.67-1.47-3.79-2.4-6.09-2.6-.85-.07-1.43.68-1.27,1.54.16.86.72,1.45,1.3,1.41,1.66-.12,3.4.28,4.92,1.24Z"/>
        <path class="cls-3" d="m167.64,144.21c.33.55.9.94,1.35.79.45-.15.68-.93.38-1.69-.81-2.07-2.28-3.87-4.23-5.09-.73-.46-1.58-.05-1.83.79-.26.84-.02,1.62.52,1.85,1.53.65,2.89,1.79,3.82,3.35Z"/>
      </g>
    </g>
  </g>
  <path class="cls-5" d="m123.85,90.13c1.07-9.97,5.2-22.13,13.08-26.52,3.38-1.88,7.3-3.24,12.72-4.16,1.29.21,2.48.45,3.61.72.2.05.39.1.58.14.34.08.67.17.99.26.21.06.41.11.61.17.32.09.64.19.96.29.16.05.33.1.49.15.45.15.89.31,1.32.47.13.05.25.1.37.15.32.12.64.25.95.38.15.06.29.12.43.19.3.13.59.27.87.4.12.06.25.12.37.18.4.2.79.4,1.18.61,8.45,4.67,12.65,18.26,13.36,28.55.06,1.5.09,2.93.09,4.28,0,3.48-.22,6.37-.63,8.12-.02.08-.06.16-.08.24-2.1,9.57-12.66,16.86-25.41,16.88-14.27.03-25.85-9.06-25.87-20.31,0-.1,0-.21,0-.31-.22-2.9-.23-6.73,0-10.87Z"/>
  <path class="cls-1" d="m130.6,62.25c3.26-3.73,7.5-5.56,15.85-5.92.13,0,.27,0,.4-.01.42-.02.85-.03,1.29-.04.44,0,.88-.01,1.34-.02.05,0,.1,0,.15,0h.09s.06,0,.09,0c.48,0,.95,0,1.41.01.52,0,1.03.02,1.53.04.05,0,.1,0,.15,0,8.36.33,12.6,2.15,15.88,5.87,4.33,4.91,6.54,18.98,7,29.94-.72-10.28-4.92-23.88-13.36-28.55-3.38-1.87-7.32-3.22-12.73-4.11-5.41.92-9.34,2.28-12.72,4.16-8.43,4.7-12.58,18.31-13.25,28.6.41-10.96,2.57-25.03,6.88-29.96Z"/>
  <g>
    <path class="cls-3" d="m135.15,64.51c2.19-.59,4.49.42,5.18,2.8.69,2.37-1.18,5.59-4.23,6.44-8.66,2.4-17.41.37-24.12-5.61-2.36-2.1-2.62-5.82-.96-7.64,1.67-1.84,4.18-1.72,5.89-.23,5.08,4.52,11.7,6.06,18.25,4.24Z"/>
    <path class="cls-3" d="m107.43,60.6c-.46-.47-1.11-.71-1.53-.46-.41.25-.44,1.08.04,1.75,1.3,1.85,3.18,3.27,5.4,4,.83.27,1.57-.33,1.62-1.22.05-.89-.37-1.6-.96-1.7-1.67-.26-3.29-1.07-4.57-2.38Z"/>
    <path class="cls-3" d="m110.07,57.9c-.31-.57-.87-.99-1.34-.86-.47.13-.73.91-.45,1.7.74,2.13,2.15,4.02,4.08,5.35.72.49,1.6.11,1.89-.73.29-.84.09-1.64-.45-1.9-1.53-.72-2.87-1.94-3.74-3.56Z"/>
    <path class="cls-3" d="m111.47,56.51c-.46-.46-.7-1.12-.44-1.53.26-.41,1.08-.44,1.75.05,1.84,1.32,3.24,3.21,3.96,5.44.27.83-.35,1.56-1.23,1.6-.89.04-1.6-.38-1.69-.97-.25-1.67-1.05-3.3-2.35-4.6Z"/>
  </g>
  <g>
    <path class="cls-3" d="m164.85,64.51c-2.19-.59-4.49.42-5.18,2.8-.69,2.37,1.18,5.59,4.23,6.44,8.66,2.4,17.41.37,24.12-5.61,2.36-2.1,2.62-5.82.96-7.64-1.67-1.84-4.18-1.72-5.89-.23-5.08,4.52-11.7,6.06-18.25,4.24Z"/>
    <path class="cls-3" d="m192.57,60.6c.46-.47,1.11-.71,1.53-.46.41.25.44,1.08-.04,1.75-1.3,1.85-3.18,3.27-5.4,4-.83.27-1.57-.33-1.62-1.22-.05-.89.37-1.6.96-1.7,1.67-.26,3.29-1.07,4.57-2.38Z"/>
    <path class="cls-3" d="m189.93,57.9c.31-.57.87-.99,1.34-.86.47.13.73.91.45,1.7-.74,2.13-2.15,4.02-4.08,5.35-.72.49-1.6.11-1.89-.73-.29-.84-.09-1.64.45-1.9,1.53-.72,2.87-1.94,3.74-3.56Z"/>
    <path class="cls-3" d="m188.53,56.51c.46-.46.7-1.12.44-1.53-.26-.41-1.08-.44-1.76.05-1.84,1.32-3.24,3.21-3.96,5.44-.27.83.35,1.56,1.23,1.6.89.04,1.6-.38,1.69-.97.25-1.67,1.05-3.3,2.35-4.6Z"/>
  </g>
  <path class="cls-1" d="m149.79,23.35c4.61,0,9.99-1.83,13.04-2.6,3.57-.91,5.27-.94,7.9-.94,7.98-.01,10.44,4.17,11.11,5.87-5.26-16.16-21.91-18.4-31.74-18.38h-.81c-9.83.02-26.47,2.32-31.68,18.5.67-1.71,3.11-5.9,11.09-5.91,2.63,0,4.33.02,7.91.92,3.05.77,8.44,2.57,13.05,2.56h.13Z"/>
  <path class="cls-5" d="m117.64,25.8h-.03c.67-1.72,3.11-5.91,11.09-5.93,2.63,0,4.33.02,7.91.92,3.05.77,8.44,2.57,13.05,2.56h.13c4.61,0,9.99-1.83,13.04-2.6,3.57-.91,5.27-.94,7.9-.94,7.98-.01,10.44,4.17,11.11,5.87h-.03c1.69,1.63,2.82,5.88,2.68,10.84-.18,6.3-2.32,11.35-4.79,11.28-.05,0-.09-.02-.14-.02-5.72,11.55-21.43,16.93-29.69,16.95-8.25.01-24.1-5.31-29.9-16.84-.05,0-.1.02-.15.03-2.47.08-4.63-4.97-4.83-11.26-.16-4.97.95-9.22,2.64-10.84Z"/>
  <path class="cls-9" d="m149.82,56.38c4.17,0,13.01-3.89,13-12.37-.02-8.48-9.78-9.13-13.07-9.13-3.29,0-13.06.7-13.04,9.18.02,8.48,8.94,12.33,13.12,12.32Z"/>
  <path class="cls-3" d="m149.56,37.1c-1.81,0-4.49,1.9-4.8,4.11-.31,2.21,4.93,2.12,4.93,2.12h.15s5.24.07,4.92-2.14c-.32-2.2-3-4.09-4.82-4.09h-.39Z"/>
  <g>
    <circle class="cls-3" cx="163.11" cy="30.65" r="1.6"/>
    <path class="cls-3" d="m134.77,30.7c0,.89.72,1.6,1.6,1.6.88,0,1.6-.72,1.6-1.6,0-.89-.72-1.6-1.6-1.6-.89,0-1.6.72-1.6,1.61Z"/>
  </g>
  <path class="cls-3" d="m121.05,29.4c-2.03.08-3.68,3.92-4.3,9.33-.07-.68-.12-1.39-.14-2.12-.13-4.95,1.07-9.01,2.68-9.07.69-.03,1.33.68,1.86,1.88-.03,0-.06-.01-.1-.01Z"/>
  <path class="cls-3" d="m178.43,29.29c2.03.07,3.69,3.9,4.33,9.31.07-.68.12-1.39.13-2.12.11-4.95-1.1-9-2.71-9.06-.68-.02-1.33.69-1.85,1.88.03,0,.06-.01.09-.01Z"/>
  <path class="cls-9" d="m160.02,26.8c-.15,0-.31-.05-.43-.17-.26-.24-.27-.63-.04-.89.45-.49.99-.88,1.6-1.16.61-.28,1.26-.43,1.93-.44.64-.02,1.27.09,1.88.32.6.23,1.15.57,1.62,1,.26.24.27.63.04.89-.24.26-.64.27-.89.04-.35-.33-.76-.58-1.21-.75-.45-.17-.92-.25-1.4-.24-.5.01-.98.12-1.44.33-.46.21-.86.5-1.19.86-.12.14-.29.2-.46.2Z"/>
  <path class="cls-9" d="m133.22,26.8c-.15,0-.31-.06-.43-.17-.26-.24-.27-.63-.04-.89.45-.49.99-.88,1.6-1.16.61-.28,1.26-.43,1.93-.44.64-.02,1.28.09,1.88.32.6.23,1.15.57,1.62,1,.26.24.27.63.04.89-.24.26-.64.27-.89.04-.35-.33-.76-.58-1.21-.75-.45-.17-.93-.25-1.4-.24-.5.01-.98.12-1.44.33-.46.21-.86.5-1.2.86-.12.13-.29.2-.46.2Z"/>
  <path class="cls-3" d="m149.75,52.68h0c-1.02,0-2-.2-2.92-.6-.9-.39-1.71-.93-2.39-1.62-.69-.69-1.23-1.5-1.6-2.39-.12-.29.01-.63.31-.75.29-.12.62.01.75.31.32.76.78,1.44,1.36,2.03.58.58,1.26,1.04,2.03,1.37.78.33,1.62.5,2.48.5h0c.86,0,1.7-.17,2.48-.5.76-.32,1.44-.78,2.03-1.36.59-.58,1.05-1.26,1.37-2.02.12-.29.46-.43.75-.3.29.12.43.46.3.75-.38.9-.92,1.7-1.61,2.39-.69.69-1.49,1.23-2.39,1.6-.92.39-1.91.59-2.92.59Z"/>
  <g class="cls-2">
    <ellipse class="cls-3" cx="150" cy="209.85" rx="54.89" ry="8.86"/>
  </g>
  <g>
    <circle class="cls-10" cx="149.44" cy="136.52" r="72"/>
    <path class="cls-6" d="m219.19,124.52c1.1.45,1.93-.42,3.13-1.48,1.21-1.07-2.55-2.38-4.44-3.07-1.57-.57-1.75,0-2.21.18.27,1.1.52,2.21.73,3.33,1,.11,1.93.68,2.79,1.03Z"/>
    <path class="cls-6" d="m217.88,129.59c-.11-.22-.3-.37-.63-.45.14,1.28.24,2.57.31,3.86.72-1.3.52-3.03.32-3.41Z"/>
    <g>
      <path class="cls-10" d="m125.08,186.72c-1.98-1.78-7.83-8.02-8.22-13.01-.3-3.64,2.05-5.87,3.47-7.3.47-.4.93-.81.95-1.03.04-.45-2.77-2.54-4.79-3.88-.38-.49-1-.78-1.6-1.29-2.02-1.33-2.72-2.98-3.26-4.16-.17-.47-.34-.94-.55-.96-.42-.04-1.02-.56-1.83-1.09-1.62-1.07-4.23-2.91-6.59-2.93-3.82-.4-7.19-5.7-7.34-6.39-.15-.69-1.52-6.69-2.1-7.43-.76-.98-5.98-9.41-6.88-11.3-1.09-2.14-.65-11.33,2.42-16.65,1.22-2.12,1.55-4.64,1.53-6.8-5.78,10.02-9.08,21.64-9.08,34.03,0,28.69,17.71,53.24,42.8,63.32.11-.39.23-.75.35-1.02,1.02-1.7,2.57-11.45.7-12.09Z"/>
      <path class="cls-10" d="m198.35,177.43c1.24-1.65,0-7.85-2.2-10.33-2.21-2.48,0-4.96-.28-6.2-.27-1.24-2.07,0-3.03-1.35-.97-1.35,4.96-3.88-4.82-1.13-9.78,2.75-9.78,0-13.23-3.17-3.44-3.17-2.07-3.72-2.34-9.64-.27-5.92,4.68-7.02,6.75-10.24,2.07-3.21,4.27-4.78,12.26-6.02,7.99-1.24,5.1,2.06,5.1,3.28s7.71,3.19,7.71,2.64-.96-2.89.83-2.62c.97.28,10.33,1.79,10.33,1.79,1.08-.16,1.74-.74,2.12-1.45-.07-1.3-.17-2.58-.31-3.86-.56-.13-1.53-.03-3.23.45-2.69.76-4.27-1.86-4.41-3.58-.14-1.72,4.58-2.2,5.92-2.48.29-.06.58-.06.87-.03-.22-1.12-.46-2.23-.73-3.33-.1.04-.2.06-.34.06-.79-.03-1.34-1-1.86-1.79-.51-.79-1.45,1.1-1.72,1.69-.28.58-.59,1.86-.48,2.89.1,1.03-.62,1.38-1.17,1.72-.55.34-.62-.14-1.1-.41s-1.65.17-2.17,1.24c-.52,1.07.17,3.51.07,3.55-.1.04-1.24-.34-2.07-1.38-.83-1.03-1.79-3.58-1.89-4.34-.1-.76-2.17-2.72-3.58-3.2-1.41-.48-.17,1.58.07,1.96.24.38,2.1,1.72,2.21,2.65.1.93-1.83,4.2-1.35,3.03.48-1.17-.97-1.72-1.38-2.62-.41-.9-2-1.86-3.37-3.38-1.38-1.52-1.93-.07-2.83-.48-.89-.41-1.65.55-2.48.35-.82-.21-.55.96-.62,2.07-.07,1.1-.48.55-1.79,1.86-1.31,1.31-1.1,2.27-1.86,2.75-.76.48-2.27.9-4.55.97-2.27.07-2.14-1.03-2.07-2.21.07-1.17.41-2.75,1.1-4.2.69-1.45,4.34-.76,5.1-.97.76-.21.27-1.38.27-2.79s-1.72-2.14-2.44-2.62c-.72-.48.72-.55,2.38-.96,1.65-.41,2.69-1.24,3.1-2.1.41-.86,2.41-2.58,3.34-3.24.93-.66,1.79-.89,2.48-1.38.69-.48,1.98.83,1.98.83l6.1-.98s1.19-.67,1.4-1.81c.21-1.14.21-1.29.98-3.15.47-1.12,1.85-1.81,2.87-2.24-.16-.27-.32-.53-.48-.79-.54.03-1.19.1-1.93.24-2.17.41-1.76-1.19-2.17-2.12-.37-.84-.07-1.26.85-2.91-.36-.48-.72-.96-1.09-1.44-.14.03-.29.05-.43.06-1.6.1-1.4,2.22-1.86,2.79-.46.57-.62,1.08-.26,3.05.36,1.96-1.7,6.35-2.79,6.56-1.09.21-2.63-3-2.89-3.41-.26-.41-2.12,1.24-3.41,1.24s-1.29-3.98-.47-5.27c.83-1.29,3.7-3.26,4.74-5.46.82-1.75,1.39-3.25,2.59-5.03-12.4-12.78-29.75-20.73-48.97-20.73-11.61,0-22.54,2.9-32.12,8.02,1.51.34,3.24.57,4.53.55,2.36.02,5.33.33,8.67,1.35,1.04.33,1.89.42,2.53.49,1.49.15,2.55.26,3.23,2.14.81.54,3.06,1.67,3.15,3.03-.04.45-.32,1.09-1,1.48-.7.6-4.99,2.86-6.75,3.36-1.1.34-6.54,3.38-7.03,4.01-.02.22-.21,2.23-.38,4.02,1.23.58,4.29,2.25,4.83,3.43.19.24.4.27,1.04.33.43.04.87-.14,1.25.35.19.25.38.49.34.94l-.04.45c-.27,2.9.07,3.84.26,4.08.25-.42.34-1.32.61-1.96.38-1.76.74-3.3,2.01-3.17.42.04,1.12-.56,1.65-1.63.49-.63.32-1.09.32-1.09-.79-.76-.43-2.3,1.04-4.17.02-.22.23-.2.25-.42.76-1.27,1.74-2.53,2.82-2.64.42.04.85.09,1.23.58.79.76,1.75,1.98,2.51,2.96.57.74.96,1.23,1.15,1.47.4.27.55.96.49,1.63-.02.22.15.69.13.92.89-.36,2.44-.88,3.25-.34.4.27.6.51.77.98.17.47.11,1.14.26,1.83.13.92.39,2.74.77,3.23.57.74,1.55,1.74,2.07,3.14-.02.22.17.47.36.71.36.71.72,1.43.45,2.07-.25.42-.72.83-1.61,1.18-1.34.54-2.61.4-3.7.52-1.08.11-2.15,0-2.82.38-1.36.76-1.87,1.61-1.38,3.24-.02.22.17.47.15.69.13.91.49,1.63,0,2.25-.27.65-.93.81-2.02.92-.21-.02-.66.16-1.08.11-1.72.05-4.52.21-4.61,1.1-.15,1.56-1.48,2.1-2.38,2.46-.23.2-.68.38-.91.58-.24.2-.47.4-.91.58-.91.58-3.63,2.1-3.69,2.77.28,1.6-1.9,4.31-3.47,5.05-1.12.56-2.86,3.08-3.14,3.73-.02.22-.04.45-.08.89-.1,1.12-.25,2.68-1.33,2.79-.64-.07-1.19-1.02-1.94-2.23-.36-.71-1.11-1.92-1.53-1.96-.64-.07-1.7-.18-2.57-.04-1.08.11-2.17.23-3.02.14-2.76-.29-4.95.16-4.99.61-.25.42-.53,1.07-.82,1.94-.81,1.72-2.43,5.38-1.44,6.16,1.81,1.31,3.23,2.14,4.08,2.23.21.02,1.12-.56,1.8-.94,1.38-.98,2.74-1.75,3.57-1.43.21.02.4.27.6.51.36.71-.17,1.79-.95,3.28-.23.2-.51.85-.53,1.07.19.25.83.31,1.23.58,1.87.64,2.89,1.2,3.06,1.67.19.24.34.93.24,2.05-.06.67-.02,2.48.17,2.72,1.02.56,4.97,1.86,5.63,1.71.21.02.66-.16,1.1-.34,2.21-.67,4.2-1.37,5.42-.57,1.43.82,3.32,1.24,4.59,1.38,1.49.15,6.27,1.77,7.38,3.69.92,1.67,3,2.34,3.42,2.38.85.09,3.94,3.79,3.81,5.12.15.69,3.36,3.05,4.21,3.14.66-.16,4.65.71,5.19,1.89l.19.24c.55.96,1.81,3.57-.01,4.73-.91.58-2.93,3.75-4.24,6.32-.53,1.07-8.61,7.22-9.74,7.78-.89.36-3.23,2.37-3.97,3.42-.51.85-1.63,1.41-2.74,1.75-.45.18-.89.36-1.12.56-.25.42-.98,1.25-1.91,2.05l-6.75.17c6.59,2.12,13.6,3.26,20.89,3.26,19.62,0,37.31-8.29,49.75-21.55-.59-2.43-1.72-4.58-.84-5.76Zm-15.08-73.6c.62-.1,1.79,1.19,1.79,1.19,0,0-.03.93.33,1.91.36.98,1.4,2.43,2.27,4.18.88,1.76-1.5,2.69-3.62,2.89-2.12.21,0-2.84.36-3.46.36-.62-.21-2.07-.36-2.58-.15-.52-1.55-1.24-1.76-2.17-.21-.93.98-1.97.98-1.97Zm-1.96,4.34c2.12-.57,1.14,2.38.52,3.05-.62.67-2.74.52-2.74,0s2.22-3.05,2.22-3.05Z"/>
    </g>
    <g>
      <path class="cls-8" d="m137.21,199.24c.23-.2.68-.38,1.12-.56,1.1-.34,2.23-.9,2.74-1.74.74-1.05,3.07-3.06,3.97-3.42,1.12-.56,9.21-6.71,9.74-7.78,1.31-2.57,3.33-5.74,4.24-6.32,1.82-1.16.57-3.77.01-4.73l-.19-.25c-.53-1.18-4.53-2.05-5.19-1.89-.85-.09-4.06-2.45-4.21-3.14.12-1.34-2.96-5.04-3.81-5.12-.43-.04-2.51-.71-3.42-2.38-1.11-1.92-5.89-3.54-7.38-3.69-1.27-.13-3.17-.55-4.59-1.38-1.21-.8-3.21-.1-5.42.57-.44.18-.89.36-1.1.34-.66.15-4.61-1.15-5.63-1.71-.19-.24-.24-2.05-.17-2.72.11-1.12-.04-1.81-.24-2.05-.17-.47-1.19-1.02-3.06-1.67-.4-.27-1.04-.33-1.23-.58.02-.22.29-.87.53-1.07.79-1.49,1.31-2.57.95-3.28-.19-.24-.38-.49-.6-.51-.83-.31-2.19.45-3.57,1.43-.68.38-1.59.96-1.8.94-.85-.09-2.27-.91-4.08-2.22-1-.78.63-4.44,1.44-6.16.3-.87.57-1.52.82-1.94.04-.45,2.23-.9,4.99-.61.85.09,1.93-.02,3.02-.14.87-.14,1.93-.02,2.57.04.43.04,1.17,1.25,1.53,1.96.75,1.2,1.3,2.16,1.94,2.23,1.08-.11,1.23-1.67,1.33-2.79.04-.45.06-.67.08-.89.28-.65,2.01-3.17,3.14-3.73,1.57-.74,3.75-3.44,3.48-5.05.06-.67,2.78-2.19,3.69-2.77.45-.18.68-.38.91-.58.23-.2.68-.38.91-.58.89-.36,2.23-.9,2.38-2.46.08-.89,2.89-1.06,4.61-1.1.43.04.87-.14,1.08-.11,1.08-.11,1.74-.27,2.02-.92.49-.63.12-1.34,0-2.25.02-.22-.17-.47-.15-.69-.49-1.63.02-2.48,1.38-3.24.68-.38,1.74-.27,2.82-.38,1.08-.11,2.36.02,3.7-.52.89-.36,1.36-.76,1.61-1.18.27-.65-.09-1.36-.45-2.07-.19-.25-.38-.49-.36-.71-.51-1.4-1.49-2.41-2.07-3.14-.38-.49-.64-2.32-.77-3.23-.15-.69-.09-1.36-.26-1.83-.17-.47-.36-.71-.77-.98-.81-.54-2.36-.02-3.25.34.02-.22-.15-.69-.13-.91.06-.67-.09-1.36-.49-1.63-.19-.25-.58-.74-1.15-1.47-.77-.98-1.72-2.21-2.51-2.96-.38-.49-.81-.53-1.23-.58-1.08.11-2.06,1.36-2.82,2.64-.02.22-.23.2-.25.42-1.46,1.88-1.82,3.42-1.04,4.18,0,0,.17.47-.32,1.09-.53,1.07-1.23,1.68-1.65,1.63-1.27-.13-1.63,1.41-2.01,3.17-.27.65-.36,1.54-.61,1.96-.19-.25-.53-1.18-.26-4.08l.04-.45c.04-.45-.15-.69-.34-.94-.38-.49-.83-.31-1.25-.35-.64-.07-.85-.09-1.04-.33-.53-1.18-3.59-2.85-4.83-3.43.17-1.78.36-3.79.38-4.02.49-.62,5.92-3.67,7.03-4,1.76-.49,6.05-2.75,6.75-3.36.68-.38.96-1.03,1-1.48-.09-1.36-2.34-2.5-3.15-3.03-.68-1.87-1.74-1.98-3.23-2.14-.64-.07-1.49-.15-2.53-.49-3.34-1.02-6.31-1.33-8.67-1.35-1.29.02-3.02-.21-4.53-.55-11.26,6.02-20.64,15.11-27.01,26.16.02,2.17-.31,4.68-1.53,6.81-3.07,5.32-3.5,14.51-2.42,16.65.89,1.89,6.11,10.32,6.88,11.3.58.73,1.94,6.74,2.1,7.43.15.69,3.51,6,7.34,6.39,2.36.02,4.98,1.87,6.59,2.93.81.53,1.4,1.05,1.83,1.09.21.02.38.49.55.96.53,1.18,1.24,2.83,3.26,4.17.6.51,1.21.8,1.6,1.29,2.02,1.34,4.83,3.43,4.79,3.88-.02.22-.49.62-.95,1.03-1.42,1.43-3.78,3.66-3.47,7.3.39,4.99,6.24,11.23,8.22,13.01,1.87.65.31,10.4-.7,12.1-.11.27-.23.63-.35,1.02,1.48.6,2.99,1.14,4.52,1.63l6.75-.17c.93-.8,1.65-1.63,1.91-2.06Z"/>
      <path class="cls-8" d="m184.05,107.96c.15.52.73,1.96.36,2.58-.36.62-2.48,3.67-.36,3.46,2.12-.21,4.5-1.14,3.62-2.89-.88-1.75-1.91-3.2-2.27-4.18-.36-.98-.33-1.91-.33-1.91,0,0-1.17-1.29-1.79-1.19,0,0-1.19,1.03-.98,1.96.21.93,1.6,1.65,1.75,2.17Z"/>
      <path class="cls-8" d="m181.83,111.21c.62-.67,1.6-3.62-.52-3.05,0,0-2.22,2.53-2.22,3.05s2.12.67,2.74,0Z"/>
      <path class="cls-8" d="m203.42,98.86c.41.93,0,2.53,2.17,2.12.74-.14,1.38-.21,1.93-.24-1.01-1.64-2.1-3.24-3.24-4.79-.92,1.65-1.22,2.07-.85,2.91Z"/>
      <path class="cls-8" d="m205.13,103.77c-.78,1.86-.78,2.01-.98,3.15-.21,1.14-1.4,1.81-1.4,1.81l-6.1.98s-1.29-1.31-1.98-.83c-.69.48-1.55.72-2.48,1.38-.93.65-2.93,2.38-3.34,3.24-.41.86-1.45,1.69-3.1,2.1-1.65.41-3.1.48-2.38.96.72.48,2.44,1.21,2.44,2.62s.48,2.58-.28,2.79c-.76.21-4.41-.48-5.1.97-.69,1.45-1.03,3.03-1.1,4.2-.07,1.17-.21,2.27,2.07,2.2,2.27-.07,3.79-.49,4.55-.97.76-.48.55-1.44,1.86-2.75,1.31-1.31,1.72-.76,1.79-1.86.07-1.1-.21-2.27.62-2.07.83.21,1.59-.76,2.48-.35.9.41,1.45-1.03,2.83.48,1.38,1.52,2.96,2.48,3.37,3.38.41.89,1.86,1.45,1.38,2.62-.48,1.17,1.45-2.1,1.34-3.03-.11-.93-1.97-2.27-2.21-2.65-.24-.38-1.48-2.44-.07-1.96,1.41.48,3.48,2.44,3.58,3.2.1.76,1.07,3.31,1.89,4.34.83,1.03,1.97,1.41,2.07,1.38.1-.03-.59-2.48-.07-3.55.52-1.07,1.69-1.52,2.17-1.24.48.28.55.76,1.1.41.55-.35,1.27-.69,1.17-1.72-.1-1.03.2-2.31.48-2.89.27-.59,1.21-2.48,1.72-1.69.52.79,1.07,1.75,1.86,1.79.13,0,.24-.02.34-.06-1.64-6.65-4.24-12.91-7.67-18.62-1.03.43-2.41,1.11-2.87,2.23Z"/>
      <path class="cls-8" d="m191.08,99.54c-.83,1.29-.83,5.27.46,5.27s3.15-1.65,3.41-1.24c.26.41,1.81,3.62,2.9,3.41,1.08-.21,3.15-4.6,2.79-6.56-.36-1.96-.21-2.48.26-3.05.46-.57.26-2.69,1.86-2.79.15,0,.29-.03.43-.06-1.49-1.91-3.09-3.74-4.78-5.47-1.2,1.79-1.77,3.28-2.59,5.04-1.04,2.2-3.91,4.17-4.74,5.46Z"/>
      <path class="cls-8" d="m215.54,123.53c-1.34.28-6.06.76-5.92,2.48.14,1.72,1.72,4.34,4.41,3.58,1.7-.48,2.67-.58,3.23-.45-.21-1.91-.49-3.79-.85-5.64-.28-.03-.57-.03-.86.03Z"/>
      <path class="cls-8" d="m217.63,137.9c0-.46.02-.92.02-1.38,0-1.18-.03-2.35-.09-3.52-.39.71-1.04,1.29-2.12,1.45,0,0-9.37-1.51-10.33-1.79-1.79-.27-.82,2.07-.82,2.62s-7.71-1.42-7.71-2.64,2.89-4.52-5.1-3.28c-7.99,1.24-10.19,2.81-12.26,6.02-2.07,3.21-7.03,4.31-6.75,10.24.28,5.92-1.1,6.48,2.34,9.64,3.44,3.17,3.44,5.92,13.23,3.17,9.78-2.75,3.86-.22,4.82,1.13.96,1.35,2.75.11,3.03,1.35.28,1.24-1.93,3.72.28,6.2,2.2,2.48,3.44,8.68,2.2,10.33-.88,1.18.25,3.32.84,5.76,10.84-11.55,17.7-26.88,18.4-43.8l.05-1.48Z"/>
    </g>
  </g>
  <g>
    <g>
      <path class="cls-7" d="m95.82,100.82c.43.53.95,1.01,1.56,1.4,3.08,1.99,7.18,1.11,9.17-1.97,1.06-1.64,1.3-3.58.83-5.33-.16,1.09-.55,2.18-1.19,3.16-2.25,3.49-6.76,4.63-10.37,2.74Z"/>
      <path class="cls-4" d="m95.4,93.04c-1.6,2.47-1.34,5.61.42,7.78,3.61,1.89,8.12.75,10.37-2.74.64-.99,1.03-2.07,1.19-3.16-.41-1.53-1.37-2.92-2.81-3.85-3.08-1.99-7.19-1.1-9.17,1.98Z"/>
    </g>
    <path class="cls-1" d="m102.99,96.71c.15.18.21.44.18.77-.04.39-.21.68-.49.86-.25.15-.61.24-1.1.27v.76h-.55v-.75h-.42v.75h-.55v-.76h-1.08l.11-.65h.11c.18,0,.29,0,.34-.01.07-.02.12-.08.13-.17v-2.42c-.02-.12-.08-.19-.19-.22-.07-.02-.21-.03-.43-.02h-.08v-.58h.33c.4.01.64,0,.75,0v-.88h.55v.87h.42v-.87h.55v.88c.38.04.67.12.87.24.24.15.38.37.4.67.04.43-.11.73-.46.91h0c.27.06.47.18.6.35h0Zm-2.37-.48h.09c.31,0,.55-.01.72-.05.3-.07.45-.23.45-.48s-.15-.41-.44-.49c-.16-.04-.4-.06-.72-.05-.05,0-.08.01-.1.01v1.06h0Zm.1,1.73c.38,0,.66-.01.86-.06.35-.09.52-.27.52-.53s-.17-.44-.51-.53c-.18-.05-.47-.07-.85-.06h-.12v1.18h.1Z"/>
  </g>
  <g>
    <g>
      <path class="cls-7" d="m130.29,167.26c.43.53.95,1.01,1.56,1.4,3.08,1.99,7.18,1.1,9.17-1.98,1.06-1.64,1.3-3.58.83-5.33-.16,1.09-.55,2.18-1.19,3.16-2.25,3.49-6.77,4.63-10.37,2.74Z"/>
      <path class="cls-4" d="m129.88,159.49c-1.6,2.47-1.34,5.61.42,7.77,3.6,1.89,8.12.75,10.37-2.74.64-.99,1.03-2.07,1.19-3.16-.41-1.53-1.37-2.92-2.81-3.85-3.08-1.99-7.19-1.1-9.17,1.98Z"/>
    </g>
    <path class="cls-1" d="m137.47,163.16c.15.18.21.44.18.77-.04.39-.21.68-.49.86-.24.15-.61.24-1.1.27v.76h-.55v-.75h-.42v.75h-.55v-.76h-1.08l.11-.65h.11c.18,0,.29,0,.34-.01.07-.02.12-.08.13-.17v-2.42c-.02-.12-.08-.19-.19-.22-.07-.02-.21-.03-.42-.02h-.09v-.58h.33c.4.01.64,0,.75,0v-.88h.55v.87h.42v-.87h.55v.88c.38.04.67.12.87.25.24.15.38.37.4.67.04.43-.11.73-.46.91h0c.27.06.47.17.6.35h0Zm-2.37-.48h.09c.31,0,.55-.01.73-.05.29-.07.45-.23.45-.48s-.15-.41-.44-.49c-.16-.04-.4-.06-.72-.05-.05,0-.09.01-.1.01v1.07h0Zm.1,1.73c.38,0,.66-.01.86-.06.35-.09.52-.27.52-.53s-.17-.45-.51-.53c-.18-.05-.47-.07-.85-.05h-.12v1.18h.1s0,0,0,0Z"/>
  </g>
  <g>
    <g>
      <path class="cls-7" d="m125.32,126.22c.43.53.95,1,1.56,1.4,3.08,1.99,7.18,1.1,9.17-1.98,1.06-1.64,1.3-3.58.83-5.33-.16,1.09-.55,2.18-1.19,3.16-2.25,3.49-6.76,4.63-10.37,2.74Z"/>
      <path class="cls-4" d="m124.9,118.44c-1.6,2.47-1.34,5.61.42,7.78,3.6,1.89,8.12.75,10.37-2.74.64-.99,1.03-2.07,1.19-3.16-.41-1.53-1.37-2.92-2.81-3.85-3.07-1.99-7.18-1.1-9.17,1.98Z"/>
    </g>
    <path class="cls-1" d="m132.49,122.11c.15.18.21.44.18.77-.04.39-.21.68-.49.86-.24.15-.61.24-1.1.27v.76h-.55v-.75h-.42v.75h-.55v-.76h-1.08l.11-.64h.11c.18,0,.29,0,.34-.01.07-.02.12-.08.13-.17v-2.42c-.02-.12-.08-.19-.19-.22-.07-.02-.21-.03-.43-.02h-.09v-.58h.33c.4.01.64.01.75,0v-.88h.55v.87h.42v-.87h.55v.88c.38.04.67.12.87.24.24.15.38.37.4.67.04.43-.11.73-.46.91h0c.27.06.47.18.6.35h0Zm-2.37-.48h.09c.31,0,.55-.01.72-.05.3-.07.45-.24.45-.48s-.15-.41-.44-.49c-.16-.05-.4-.06-.72-.06-.05,0-.09.01-.1.01v1.07h0Zm.1,1.72c.38,0,.66-.01.86-.06.35-.09.52-.27.52-.53s-.17-.44-.51-.53c-.18-.05-.47-.07-.85-.06h-.12v1.18h.1Z"/>
  </g>
  <g>
    <g>
      <path class="cls-7" d="m84.68,128.03c.43.53.95,1.01,1.56,1.4,3.08,1.99,7.18,1.1,9.17-1.97,1.06-1.64,1.3-3.58.83-5.33-.16,1.09-.55,2.18-1.19,3.16-2.25,3.49-6.76,4.63-10.37,2.74Z"/>
      <path class="cls-4" d="m84.26,120.25c-1.6,2.47-1.34,5.61.42,7.78,3.61,1.89,8.12.74,10.37-2.74.64-.99,1.03-2.07,1.19-3.16-.41-1.53-1.37-2.92-2.81-3.85-3.07-1.99-7.18-1.11-9.17,1.97Z"/>
    </g>
    <path class="cls-1" d="m91.85,123.92c.15.18.21.44.18.77-.04.39-.21.68-.49.86-.25.15-.61.24-1.1.27v.76h-.55v-.75h-.42v.75h-.55v-.76h-1.08l.11-.64h.11c.18,0,.29,0,.34-.01.07-.02.12-.08.13-.17v-2.42c-.02-.12-.08-.19-.19-.22-.07-.02-.21-.03-.43-.02h-.08v-.58h.33c.4.01.64,0,.75,0v-.88h.55v.87h.42v-.87h.55v.88c.38.04.67.12.87.25.24.15.38.37.4.67.04.43-.11.73-.46.91h0c.27.06.47.18.6.35h0Zm-2.37-.48h.09c.31,0,.55-.01.72-.05.3-.07.45-.24.45-.48s-.15-.41-.44-.49c-.16-.04-.4-.06-.72-.05-.05,0-.09.01-.1.01,0,0,0,1.07,0,1.07Zm.1,1.73c.38,0,.66-.01.86-.06.34-.09.52-.27.52-.53s-.17-.44-.51-.53c-.18-.05-.47-.07-.85-.06h-.12v1.18h.1Z"/>
  </g>
  <g>
    <g>
      <path class="cls-7" d="m187.85,104.86c.43.53.95,1.01,1.56,1.4,3.08,1.99,7.18,1.1,9.17-1.98,1.06-1.64,1.3-3.58.83-5.33-.16,1.09-.55,2.18-1.19,3.16-2.25,3.49-6.77,4.63-10.37,2.74Z"/>
      <path class="cls-4" d="m187.44,97.09c-1.6,2.47-1.34,5.61.42,7.78,3.6,1.89,8.12.75,10.37-2.74.64-.99,1.03-2.07,1.19-3.16-.41-1.53-1.37-2.92-2.81-3.85-3.08-1.99-7.19-1.1-9.17,1.97Z"/>
    </g>
    <path class="cls-1" d="m195.02,100.76c.15.18.21.44.18.77-.04.39-.21.68-.49.86-.25.15-.61.24-1.1.27v.76h-.55v-.75h-.42v.75h-.55v-.76h-1.08l.11-.65h.11c.18,0,.29,0,.35-.01.07-.02.12-.08.13-.17v-2.42c-.02-.12-.08-.19-.19-.22-.07-.02-.21-.03-.42-.02h-.09v-.58h.33c.4.01.64,0,.75,0v-.88h.55v.87h.42v-.87h.55v.88c.38.04.67.12.87.24.24.15.38.37.4.67.04.43-.1.73-.46.91h0c.27.06.47.18.6.35h0Zm-2.37-.48h.09c.31,0,.55-.01.73-.05.3-.07.45-.24.45-.48s-.15-.41-.44-.49c-.16-.04-.4-.06-.72-.05-.05,0-.09.01-.1.01v1.07h0Zm.1,1.73c.38,0,.67-.01.86-.06.35-.09.52-.27.52-.53s-.17-.44-.51-.53c-.18-.05-.47-.07-.85-.06h-.12v1.18h.1Z"/>
  </g>
  <g>
    <g>
      <path class="cls-7" d="m187.43,159.88c.43.53.95,1.01,1.56,1.4,3.08,1.99,7.18,1.1,9.17-1.98,1.06-1.64,1.3-3.58.83-5.33-.16,1.1-.55,2.18-1.19,3.16-2.25,3.49-6.76,4.63-10.37,2.74Z"/>
      <path class="cls-4" d="m187.01,152.1c-1.6,2.47-1.34,5.61.42,7.77,3.6,1.89,8.12.75,10.37-2.74.64-.99,1.03-2.07,1.19-3.16-.41-1.53-1.37-2.92-2.81-3.85-3.08-1.99-7.19-1.1-9.17,1.98Z"/>
    </g>
    <path class="cls-1" d="m194.6,155.77c.15.18.21.44.18.77-.04.39-.21.68-.49.86-.24.15-.61.24-1.1.27v.76h-.55v-.75h-.42v.75h-.55v-.76h-1.08l.11-.65h.11c.18,0,.29,0,.35-.01.07-.02.12-.08.13-.17v-2.42c-.02-.12-.08-.19-.19-.22-.07-.02-.21-.03-.43-.02h-.09v-.58h.33c.4.01.64,0,.75,0v-.88h.55v.87h.42v-.87h.55v.88c.38.04.67.12.87.24.24.15.38.37.4.67.04.43-.11.73-.46.91h0c.27.06.47.18.6.35h0Zm-2.37-.48h.09c.31,0,.55,0,.73-.05.29-.07.45-.23.45-.48s-.15-.41-.44-.49c-.16-.04-.4-.06-.72-.05-.05,0-.09.01-.1.01v1.07h0Zm.1,1.73c.38,0,.66-.01.86-.06.35-.09.52-.27.52-.53s-.17-.45-.51-.53c-.18-.05-.47-.07-.85-.05h-.12v1.18h.1Z"/>
  </g>
  <g>
    <g>
      <path class="cls-7" d="m184.51,127.67c.43.53.95,1.01,1.56,1.4,3.08,1.99,7.18,1.1,9.17-1.98,1.06-1.64,1.3-3.58.83-5.33-.16,1.1-.55,2.18-1.19,3.16-2.25,3.49-6.76,4.63-10.37,2.74Z"/>
      <path class="cls-4" d="m184.09,119.9c-1.6,2.47-1.34,5.61.42,7.77,3.61,1.89,8.12.75,10.37-2.74.64-.99,1.03-2.07,1.19-3.16-.41-1.53-1.37-2.92-2.81-3.85-3.07-1.99-7.18-1.1-9.17,1.98Z"/>
    </g>
    <path class="cls-1" d="m191.68,123.57c.15.18.21.44.18.77-.04.39-.21.68-.49.86-.25.15-.61.24-1.1.27v.76h-.55v-.75h-.42v.75h-.55v-.76h-1.08l.11-.65h.11c.18,0,.29,0,.34-.01.07-.02.12-.08.13-.17v-2.42c-.02-.12-.09-.19-.19-.22-.07-.02-.21-.03-.42-.02h-.09v-.58h.33c.4.01.64,0,.74,0v-.88h.55v.87h.42v-.87h.55v.88c.38.04.67.12.87.24.24.15.38.37.4.67.05.43-.11.73-.46.91h0c.27.06.47.18.6.35h0Zm-2.37-.48h.09c.31,0,.55,0,.72-.05.3-.07.45-.23.45-.48s-.15-.41-.44-.49c-.16-.04-.4-.06-.72-.06-.05,0-.09.01-.1.01v1.07h0Zm.1,1.73c.38,0,.66-.01.86-.06.35-.09.52-.27.52-.53s-.17-.44-.51-.53c-.18-.05-.47-.07-.85-.06h-.12v1.18h.1Z"/>
  </g>
  <path class="cls-1" d="m143.7,156.92c-.26,0-.51-.12-.66-.35-.25-.37-.15-.86.22-1.11l2.65-1.79c.36-.25.86-.15,1.11.22.25.37.15.86-.22,1.11l-2.65,1.79c-.14.09-.29.14-.45.14Zm7.3-4.92c-.26,0-.51-.12-.66-.35-.25-.37-.15-.86.22-1.11l2.65-1.79c.37-.25.86-.15,1.11.22.25.37.15.86-.22,1.11l-2.65,1.79c-.14.09-.29.14-.45.14Zm7.3-4.92c-.26,0-.51-.12-.66-.35-.25-.37-.15-.86.22-1.11l2.65-1.79c.36-.25.86-.15,1.11.22.25.37.15.86-.22,1.11l-2.65,1.79c-.14.09-.29.14-.45.14Zm7.3-4.92c-.26,0-.51-.12-.66-.35-.25-.37-.15-.86.22-1.11l2.65-1.79c.37-.25.86-.15,1.11.22.25.37.15.86-.22,1.11l-2.65,1.79c-.14.09-.29.14-.45.14Zm7.3-4.92c-.26,0-.51-.12-.66-.35-.25-.37-.15-.86.22-1.11l2.65-1.79c.36-.25.86-.15,1.11.22.25.37.15.86-.22,1.11l-2.65,1.79c-.14.09-.29.14-.45.14Zm7.3-4.92c-.26,0-.51-.12-.66-.35-.25-.37-.15-.86.22-1.11l2.65-1.79c.37-.25.86-.15,1.11.22.25.37.15.86-.22,1.11l-2.65,1.79c-.14.09-.29.14-.45.14Z"/>
  <path class="cls-1" d="m183.87,101.29s-.03,0-.05,0l-3.19-.2c-.44-.03-.78-.41-.75-.85.03-.44.41-.78.85-.75l3.19.2c.44.03.78.41.75.85-.03.42-.38.75-.8.75Zm-8.78-.54s-.03,0-.05,0l-3.19-.2c-.44-.03-.78-.41-.75-.85.03-.44.41-.78.85-.75l3.19.2c.44.03.78.41.75.85-.03.42-.38.75-.8.75Zm-8.78-.54s-.03,0-.05,0l-3.19-.2c-.44-.03-.78-.41-.75-.85.03-.44.41-.78.85-.75l3.19.2c.44.03.78.41.75.85-.03.42-.38.75-.8.75Zm-8.78-.54s-.03,0-.05,0l-3.19-.2c-.44-.03-.78-.41-.75-.85.03-.44.4-.77.85-.75l3.19.2c.44.03.78.41.75.85-.03.42-.38.75-.8.75Zm-8.78-.54s-.03,0-.05,0l-3.19-.2c-.44-.03-.78-.41-.75-.85.03-.44.4-.78.85-.75l3.19.2c.44.03.78.41.75.85-.03.42-.38.75-.8.75Zm-8.78-.54s-.03,0-.05,0l-3.19-.2c-.44-.03-.78-.41-.75-.85.03-.44.41-.78.85-.75l3.19.2c.44.03.78.41.75.85-.03.42-.38.75-.8.75Zm-8.78-.54s-.03,0-.05,0l-3.19-.2c-.44-.03-.78-.41-.75-.85.03-.44.41-.78.85-.75l3.19.2c.44.03.78.41.75.85-.03.42-.38.75-.8.75Zm-8.78-.54s-.03,0-.05,0l-3.19-.2c-.44-.03-.78-.41-.75-.85.03-.44.41-.77.85-.75l3.19.2c.44.03.78.41.75.85-.03.42-.38.75-.8.75Zm-8.78-.54s-.03,0-.05,0l-3.19-.2c-.44-.03-.78-.41-.75-.85.03-.44.41-.78.85-.75l3.19.2c.44.03.78.41.75.85-.03.42-.38.75-.8.75Z"/>
  <path class="cls-1" d="m139.41,120.08c-.33,0-.64-.2-.75-.53-.15-.42.07-.87.48-1.02l3.01-1.08c.42-.15.87.07,1.02.48.15.42-.07.87-.48,1.02l-3.01,1.08c-.09.03-.18.05-.27.05Zm8.29-2.96c-.33,0-.64-.2-.75-.53-.15-.42.07-.87.48-1.02l3.01-1.08c.41-.15.87.07,1.02.48s-.07.87-.48,1.02l-3.01,1.08c-.09.03-.18.05-.27.05Zm8.29-2.96c-.33,0-.64-.2-.75-.53-.15-.42.07-.87.48-1.02l3.01-1.08c.41-.15.87.07,1.02.48s-.07.87-.48,1.02l-3.01,1.08c-.09.03-.18.05-.27.05Zm8.29-2.96c-.33,0-.64-.2-.75-.53-.15-.42.07-.87.48-1.02l3.01-1.07c.41-.15.87.07,1.02.48.15.42-.07.87-.48,1.02l-3.01,1.07c-.09.03-.18.05-.27.05Zm8.29-2.96c-.33,0-.64-.2-.75-.53-.15-.42.07-.87.48-1.02l3.01-1.08c.42-.15.87.07,1.02.48.15.42-.07.87-.48,1.02l-3.01,1.08c-.09.03-.18.05-.27.05Zm8.29-2.96c-.33,0-.64-.2-.75-.53-.15-.42.07-.87.48-1.02l3.01-1.08c.41-.15.87.07,1.02.48.15.42-.07.87-.48,1.02l-3.01,1.08c-.09.03-.18.05-.27.05Z"/>
  <path class="cls-1" d="m146,164.5c-.38,0-.72-.28-.79-.67-.07-.44.22-.85.65-.92l3.16-.53c.44-.07.85.22.92.66.07.44-.22.85-.65.92l-3.16.53s-.09.01-.13.01Zm8.68-1.47c-.38,0-.72-.28-.79-.67-.07-.44.22-.85.65-.92l3.15-.53c.44-.07.85.22.92.66.07.44-.22.85-.65.92l-3.15.53s-.09.01-.13.01Zm8.68-1.47c-.38,0-.72-.28-.79-.67-.07-.44.22-.85.65-.92l3.16-.53c.44-.07.85.22.92.66.07.44-.22.85-.65.92l-3.16.53s-.09.01-.13.01Zm8.68-1.47c-.38,0-.72-.28-.79-.67-.07-.44.22-.85.65-.92l3.16-.53c.44-.07.85.22.92.66.07.44-.22.85-.65.92l-3.16.53s-.09.01-.13.01Zm8.68-1.47c-.38,0-.72-.28-.79-.67-.07-.44.22-.85.65-.92l3.16-.53c.44-.07.85.22.92.66.07.44-.22.85-.65.92l-3.16.53s-.09.01-.13.01Z"/>
  <path class="cls-1" d="m128.05,158.75c-.17,0-.33-.05-.47-.16l-2.58-1.9c-.36-.26-.43-.76-.17-1.12.26-.36.76-.43,1.12-.17l2.58,1.9c.36.26.43.76.17,1.12-.16.21-.4.33-.64.33Zm-7.08-5.22c-.17,0-.33-.05-.47-.16l-2.58-1.9c-.36-.26-.43-.76-.17-1.12.26-.36.76-.43,1.12-.17l2.58,1.9c.36.26.43.76.17,1.12-.16.21-.4.33-.64.33Zm-7.08-5.22c-.17,0-.33-.05-.47-.16l-2.58-1.9c-.36-.26-.43-.76-.17-1.12.26-.36.76-.43,1.12-.17l2.58,1.9c.36.26.43.76.17,1.12-.16.21-.4.33-.64.33Zm-7.08-5.22c-.17,0-.33-.05-.47-.16l-2.58-1.9c-.36-.26-.43-.76-.17-1.12.26-.36.76-.43,1.12-.17l2.58,1.9c.36.26.43.76.17,1.12-.16.21-.4.33-.64.33Zm-7.08-5.22c-.17,0-.33-.05-.47-.16l-2.58-1.9c-.36-.26-.43-.76-.17-1.12.26-.36.76-.43,1.12-.17l2.58,1.9c.36.26.43.76.17,1.12-.16.21-.4.33-.64.33Zm-7.12-5.23c-.15,0-.3-.05-.44-.15l-.07-.05c-.35-.26-.43-.76-.17-1.12.26-.36.76-.43,1.12-.17.35.26.47.79.2,1.15-.16.22-.4.34-.64.34Z"/>
  <path class="cls-1" d="m94.8,117.02c-.08,0-.16-.01-.24-.04-.42-.13-.66-.58-.53-1l.95-3.06c.13-.42.58-.66,1-.53.42.13.66.58.53,1l-.95,3.06c-.11.34-.42.56-.76.56Zm2.6-8.41c-.08,0-.16-.01-.24-.04-.42-.13-.66-.58-.53-1l.87-2.79c.13-.42.58-.66,1-.53.42.13.66.58.53,1l-.87,2.79c-.11.34-.42.56-.76.56Z"/>
  <path class="cls-1" d="m123.07,117.56c-.2,0-.39-.07-.55-.21l-2.34-2.18c-.32-.3-.34-.81-.04-1.13.3-.32.81-.34,1.13-.04l2.34,2.18c.32.3.34.81.04,1.13-.16.17-.37.25-.59.25Zm-6.44-6c-.2,0-.39-.07-.55-.21l-2.34-2.18c-.32-.3-.34-.81-.04-1.13.3-.32.81-.34,1.13-.04l2.34,2.18c.32.3.34.81.04,1.13-.16.17-.37.25-.59.25Zm-6.44-6c-.2,0-.39-.07-.54-.21l-2.34-2.18c-.32-.3-.34-.81-.04-1.13.3-.32.81-.34,1.13-.04l2.34,2.18c.32.3.34.81.04,1.13-.16.17-.37.25-.59.25Z"/>
  <path class="cls-1" d="m134.27,154.36c-.4,0-.75-.3-.79-.71l-.36-3.18c-.05-.44.27-.83.71-.88.44-.05.84.27.88.71l.36,3.18c.05.44-.27.83-.71.88-.03,0-.06,0-.09,0Zm-.98-8.74c-.4,0-.75-.3-.79-.71l-.36-3.18c-.05-.44.27-.83.71-.88.44-.05.83.27.88.71l.36,3.18c.05.44-.27.83-.71.88-.03,0-.06,0-.09,0Zm-.98-8.75c-.4,0-.75-.3-.79-.71l-.36-3.18c-.05-.44.27-.83.71-.88.44-.05.83.27.88.71l.36,3.18c.05.44-.27.83-.71.88-.03,0-.06,0-.09,0Z"/>
</svg>