<?xml version="1.0" encoding="UTF-8"?>
<svg id="Layer_1" data-name="Layer 1" xmlns="http://www.w3.org/2000/svg" viewBox="0 0 300 225">
  <defs>
    <style>
      .cls-1 {
        fill: #fff;
      }

      .cls-2 {
        isolation: isolate;
        opacity: .35;
      }

      .cls-3 {
        fill: #232323;
      }

      .cls-4 {
        fill: #ff7e1c;
      }

      .cls-5 {
        fill: #444;
      }

      .cls-6 {
        fill: #ea651b;
      }

      .cls-7 {
        fill: #7f7f7f;
      }
    </style>
  </defs>
  <g>
    <g>
      <path class="cls-6" d="m53.4,93.79c.39.48.87.92,1.42,1.27,2.8,1.81,6.53,1,8.34-1.8.96-1.49,1.18-3.25.76-4.84-.15,1-.5,1.98-1.08,2.88-2.05,3.17-6.15,4.21-9.43,2.49Z"/>
      <path class="cls-4" d="m53.02,86.73c-1.45,2.25-1.22,5.1.38,7.07,3.28,1.72,7.38.68,9.43-2.49.58-.9.94-1.88,1.08-2.88-.38-1.39-1.25-2.65-2.55-3.5-2.8-1.81-6.53-1-8.34,1.79Z"/>
    </g>
    <path class="cls-1" d="m59.92,90.06c.13.17.19.4.16.7-.04.36-.19.62-.44.78-.22.13-.56.21-1,.24v.69h-.49v-.68h-.39v.68h-.5v-.69h-.98l.1-.59h.1c.16,0,.27,0,.31-.01.06-.02.1-.07.12-.15v-2.2c-.02-.11-.08-.18-.17-.2-.06-.02-.19-.03-.38-.02h-.08v-.53h.3c.36.01.58,0,.68,0v-.8h.5v.79h.38v-.79h.49v.8c.34.03.61.11.79.22.22.14.34.34.36.61.04.39-.1.67-.41.83h0c.25.05.44.16.55.31h0Zm-2.15-.43h.08c.28,0,.5-.01.66-.05.27-.07.4-.21.4-.44s-.13-.37-.4-.44c-.15-.04-.37-.06-.65-.05-.05,0-.08,0-.09,0v.97h0Zm.09,1.57c.34,0,.6-.01.78-.05.32-.08.48-.24.48-.48s-.15-.4-.47-.49c-.17-.05-.42-.06-.77-.05h-.11v1.07h.09Z"/>
  </g>
  <g>
    <g>
      <path class="cls-6" d="m254.67,55.54c.39.48.87.92,1.42,1.27,2.8,1.81,6.53,1,8.34-1.79.96-1.49,1.18-3.25.75-4.84-.15.99-.5,1.98-1.08,2.88-2.04,3.17-6.15,4.2-9.43,2.49Z"/>
      <path class="cls-4" d="m254.29,48.47c-1.45,2.25-1.22,5.1.38,7.07,3.28,1.72,7.38.68,9.43-2.49.58-.9.94-1.88,1.08-2.88-.37-1.39-1.24-2.65-2.55-3.5-2.8-1.81-6.53-1-8.34,1.8Z"/>
    </g>
    <path class="cls-1" d="m261.19,51.8c.14.17.19.4.16.7-.04.36-.19.62-.45.78-.22.13-.56.22-1,.24v.69h-.5v-.68h-.38v.68h-.5v-.69h-.98l.1-.59h.1c.16,0,.27,0,.31-.01.07-.02.11-.07.12-.15v-2.2c-.02-.11-.08-.18-.17-.2-.06-.02-.19-.03-.39-.02h-.08v-.53h.3c.36.01.58,0,.68,0v-.8h.5v.79h.38v-.79h.5v.8c.34.03.61.11.79.22.22.13.35.34.36.61.04.39-.1.67-.42.83h0c.25.05.43.16.55.31h0Zm-2.15-.44h.08c.28,0,.51,0,.66-.05.27-.07.41-.21.41-.44s-.13-.37-.4-.44c-.15-.04-.36-.06-.66-.05-.05,0-.08,0-.09,0v.97h0Zm.09,1.57c.35,0,.6-.01.78-.05.31-.08.47-.24.47-.49s-.15-.4-.46-.49c-.17-.05-.42-.06-.77-.05h-.11v1.07h.09Z"/>
  </g>
  <g>
    <g>
      <path class="cls-6" d="m37.57,64.92c.86,1.07,1.91,2.02,3.12,2.8,6.17,3.98,14.41,2.21,18.39-3.96,2.13-3.29,2.62-7.17,1.67-10.68-.32,2.19-1.1,4.36-2.39,6.35-4.52,6.99-13.57,9.28-20.8,5.5Z"/>
      <path class="cls-4" d="m36.73,49.33c-3.2,4.96-2.69,11.24.84,15.59,7.23,3.78,16.28,1.5,20.79-5.5,1.28-1.99,2.06-4.15,2.39-6.35-.83-3.07-2.75-5.85-5.63-7.71-6.17-3.98-14.4-2.21-18.39,3.96Z"/>
    </g>
    <path class="cls-1" d="m51.96,56.69c.29.37.42.88.35,1.54-.09.79-.42,1.36-.98,1.72-.49.3-1.23.48-2.21.53v1.52h-1.09v-1.5h-.85v1.5h-1.1v-1.52h-2.16l.22-1.29h.22c.36.02.59,0,.69-.02.15-.04.24-.15.26-.33v-4.84c-.04-.24-.17-.38-.38-.44-.14-.04-.42-.06-.85-.04h-.18v-1.16l.67.02c.79,0,1.29,0,1.49-.02v-1.76h1.09v1.74l.85-.02v-1.72h1.09v1.76c.76.08,1.34.24,1.74.49.49.3.76.74.8,1.34.09.86-.21,1.47-.91,1.83h0c.55.12.95.35,1.21.69h0Zm-4.76-.96h.18c.62.02,1.11-.02,1.45-.11.59-.15.89-.47.89-.96s-.29-.82-.87-.98c-.33-.09-.81-.12-1.45-.11-.1.01-.17.02-.2.02v2.14h0Zm.2,3.46c.76.02,1.33-.02,1.72-.11.7-.18,1.05-.53,1.05-1.07s-.34-.89-1.03-1.07c-.37-.1-.94-.14-1.7-.11h-.25v2.37h.2Z"/>
  </g>
  <g>
    <g>
      <path class="cls-6" d="m191.36,61.19c.97,1.19,2.14,2.26,3.5,3.14,6.93,4.47,16.16,2.48,20.63-4.44,2.38-3.69,2.93-8.04,1.87-11.98-.35,2.46-1.24,4.89-2.67,7.12-5.06,7.84-15.21,10.41-23.32,6.16Z"/>
      <path class="cls-4" d="m190.42,43.71c-3.59,5.56-3.01,12.61.94,17.48,8.11,4.24,18.26,1.68,23.32-6.16,1.44-2.23,2.32-4.65,2.68-7.12-.93-3.44-3.08-6.56-6.31-8.65-6.92-4.47-16.16-2.48-20.63,4.44Z"/>
    </g>
    <path class="cls-1" d="m207.49,51.96c.33.42.47.99.4,1.72-.1.88-.47,1.53-1.1,1.93-.55.33-1.38.53-2.48.6v1.7h-1.23v-1.68h-.95v1.68h-1.23v-1.7h-2.43l.25-1.45h.25c.4.02.66,0,.77-.03.17-.05.27-.17.3-.37v-5.43c-.05-.27-.19-.43-.42-.5-.15-.05-.47-.07-.95-.05h-.2v-1.3l.75.03c.88,0,1.44,0,1.67-.03v-1.98h1.23v1.95l.95-.03v-1.93h1.23v1.98c.85.08,1.5.27,1.95.55.55.33.85.83.9,1.5.1.97-.24,1.65-1.03,2.05h0c.62.14,1.07.4,1.35.78h0Zm-5.33-1.08h.2c.7.02,1.24-.02,1.63-.12.67-.17,1-.53,1-1.08s-.33-.92-.98-1.1c-.37-.1-.91-.14-1.63-.12-.12.02-.19.02-.22.02v2.4h0Zm.22,3.88c.85.02,1.49-.03,1.93-.13.79-.2,1.18-.6,1.18-1.2s-.38-1-1.15-1.2c-.42-.12-1.05-.16-1.9-.12h-.27v2.65h.22Z"/>
  </g>
  <g>
    <g>
      <path class="cls-6" d="m149.95,81.51c.67.83,1.49,1.58,2.44,2.19,4.82,3.11,11.26,1.73,14.37-3.1,1.66-2.57,2.04-5.6,1.3-8.35-.25,1.72-.86,3.41-1.87,4.96-3.53,5.46-10.6,7.25-16.25,4.29Z"/>
      <path class="cls-4" d="m149.29,69.33c-2.5,3.87-2.1,8.78.66,12.18,5.65,2.96,12.72,1.17,16.25-4.29,1-1.55,1.62-3.24,1.87-4.96-.65-2.4-2.15-4.57-4.4-6.03-4.82-3.12-11.26-1.73-14.38,3.09Z"/>
    </g>
    <path class="cls-1" d="m161.19,75.08c.23.29.32.69.28,1.2-.07.62-.33,1.07-.77,1.34-.38.23-.96.37-1.73.42v1.19h-.85v-1.17h-.66v1.17h-.86v-1.19h-1.69l.18-1.01h.18c.28.01.46,0,.54-.02.12-.04.19-.12.21-.26v-3.78c-.03-.19-.13-.3-.29-.35-.1-.04-.33-.05-.66-.04h-.14v-.91l.52.02c.62,0,1,0,1.17-.02v-1.38h.86v1.36l.66-.02v-1.34h.85v1.38c.59.06,1.04.19,1.36.38.38.23.59.58.62,1.05.07.67-.17,1.15-.71,1.43h0c.43.09.75.28.94.54h0Zm-3.72-.75h.14c.49.01.87-.02,1.13-.09.46-.12.7-.37.7-.75s-.23-.64-.68-.77c-.25-.07-.63-.1-1.13-.09-.08.01-.13.02-.16.02v1.67h0Zm.16,2.7c.59.01,1.04-.02,1.34-.09.55-.14.82-.42.82-.84s-.27-.7-.8-.84c-.29-.08-.73-.11-1.33-.09h-.19v1.85h.16Z"/>
  </g>
  <g>
    <g>
      <path class="cls-6" d="m110.3,47.17c.56.7,1.25,1.32,2.04,1.83,4.04,2.61,9.42,1.45,12.03-2.59,1.39-2.15,1.71-4.69,1.09-6.98-.21,1.44-.72,2.85-1.56,4.15-2.95,4.57-8.87,6.06-13.6,3.59Z"/>
      <path class="cls-4" d="m109.75,36.98c-2.09,3.24-1.75,7.35.55,10.19,4.73,2.47,10.65.98,13.6-3.59.84-1.3,1.35-2.71,1.56-4.15-.54-2.01-1.8-3.83-3.68-5.04-4.04-2.6-9.42-1.44-12.02,2.59Z"/>
    </g>
    <path class="cls-1" d="m119.7,41.79c.19.24.27.58.23,1.01-.06.52-.27.89-.64,1.12-.32.19-.8.31-1.44.35v.99h-.71v-.98h-.55v.98h-.72v-.99h-1.42l.15-.85h.14c.23,0,.38,0,.45-.02.1-.03.15-.1.18-.22v-3.17c-.03-.15-.11-.25-.25-.29-.08-.03-.27-.04-.55-.03h-.12v-.76l.44.02c.51,0,.84,0,.98-.02v-1.15h.72v1.14l.55-.02v-1.12h.71v1.15c.5.05.88.15,1.14.32.32.19.5.49.52.88.06.56-.14.96-.6,1.2h0c.36.08.62.23.79.45h0Zm-3.11-.63h.11c.41,0,.73-.01.95-.07.39-.1.58-.31.58-.63s-.19-.53-.57-.64c-.21-.06-.53-.08-.95-.07-.07,0-.11.01-.13.01v1.4h0Zm.13,2.26c.49,0,.87-.02,1.12-.07.46-.12.69-.35.69-.7s-.22-.58-.67-.7c-.24-.07-.61-.09-1.11-.07h-.16v1.55h.13Z"/>
  </g>
  <g>
    <g>
      <path class="cls-6" d="m81.97,93.75c1.07,1.32,2.36,2.5,3.86,3.47,7.64,4.93,17.82,2.73,22.75-4.9,2.63-4.07,3.24-8.87,2.06-13.21-.4,2.72-1.37,5.39-2.95,7.85-5.58,8.65-16.78,11.48-25.72,6.8Z"/>
      <path class="cls-4" d="m80.93,74.47c-3.96,6.13-3.32,13.9,1.04,19.28,8.94,4.68,20.14,1.85,25.72-6.79,1.58-2.46,2.56-5.13,2.95-7.85-1.02-3.79-3.4-7.24-6.96-9.54-7.64-4.93-17.82-2.74-22.75,4.9Z"/>
    </g>
    <path class="cls-1" d="m99.76,83.57c.37.46.51,1.1.44,1.9-.11.97-.52,1.68-1.21,2.12-.61.37-1.52.59-2.74.66v1.88h-1.35v-1.85h-1.05v1.85h-1.35v-1.88h-2.68l.28-1.6h.28c.44.02.73,0,.86-.03.18-.06.29-.19.33-.41v-5.99c-.05-.29-.21-.48-.46-.55-.17-.06-.52-.07-1.05-.06h-.22v-1.43l.83.03c.98,0,1.59-.01,1.85-.03v-2.18h1.35v2.15l1.05-.03v-2.12h1.35v2.18c.94.09,1.66.29,2.15.61.61.37.94.92,1,1.66.11,1.07-.26,1.82-1.13,2.26h0c.68.15,1.18.43,1.49.86h0Zm-5.88-1.19h.22c.77.02,1.37-.03,1.79-.14.74-.18,1.11-.58,1.11-1.19s-.36-1.01-1.08-1.21c-.4-.11-1-.15-1.79-.14-.13.02-.21.03-.25.03v2.65h0Zm.25,4.28c.94.02,1.64-.03,2.12-.14.87-.22,1.3-.66,1.3-1.32s-.42-1.1-1.27-1.32c-.46-.13-1.16-.17-2.1-.14h-.31v2.93h.25Z"/>
  </g>
  <g>
    <g>
      <path class="cls-6" d="m243.04,96.16c.82,1.01,1.8,1.91,2.95,2.65,5.84,3.77,13.62,2.09,17.39-3.75,2.01-3.11,2.47-6.78,1.58-10.1-.3,2.08-1.04,4.12-2.25,6-4.27,6.61-12.83,8.77-19.66,5.19Z"/>
      <path class="cls-4" d="m242.25,81.43c-3.02,4.69-2.54,10.63.79,14.74,6.84,3.58,15.39,1.41,19.66-5.19,1.21-1.88,1.95-3.92,2.26-6-.78-2.9-2.6-5.53-5.32-7.29-5.83-3.77-13.62-2.09-17.39,3.75Z"/>
    </g>
    <path class="cls-1" d="m256.64,88.38c.28.35.39.84.34,1.45-.08.75-.4,1.29-.93,1.63-.47.28-1.16.45-2.09.51v1.43h-1.03v-1.41h-.8v1.41h-1.03v-1.43h-2.05l.21-1.22h.21c.34.02.55,0,.65-.02.14-.04.22-.15.26-.31v-4.58c-.04-.22-.16-.37-.36-.42-.12-.04-.39-.06-.8-.04h-.16v-1.1l.63.02c.75,0,1.21,0,1.41-.02v-1.66h1.03v1.65l.8-.02v-1.62h1.03v1.67c.72.07,1.26.22,1.64.46.47.28.72.7.76,1.27.09.82-.2,1.39-.86,1.73h0c.52.11.89.33,1.14.65h0Zm-4.5-.91h.17c.59.01,1.05-.02,1.37-.1.56-.14.84-.44.84-.91s-.27-.77-.82-.93c-.31-.08-.77-.12-1.37-.1-.1.01-.16.02-.19.02v2.02h0Zm.19,3.27c.72.02,1.26-.02,1.62-.11.66-.17.99-.5.99-1.01s-.32-.84-.97-1.01c-.35-.1-.88-.13-1.6-.11h-.23v2.24s.19,0,.19,0Z"/>
  </g>
  <g class="cls-2">
    <ellipse class="cls-3" cx="152.92" cy="189.84" rx="19.57" ry="3.16"/>
  </g>
  <path class="cls-3" d="m138.74,167.45c.08.64,2.2,18.71,5.28,21.25,3.08,2.53,4.7,1.68,5.32,1.01.65-.71,1.48-1.97-.05-3.4-1.23-1.15-2.1-6.24-.87-14.19l-9.68-4.66Z"/>
  <path class="cls-3" d="m150.5,166.32c.08.64,2.2,18.71,5.27,21.25,3.08,2.53,4.7,1.68,5.32,1.01.65-.71,1.48-1.97-.05-3.4-1.23-1.15-2.1-6.24-.87-14.19l-9.67-4.66Z"/>
  <path class="cls-3" d="m159.61,143.75c-.78-1.18-2.28-1.66-3.59-.82-1.3.83-1.76,3.12-.67,4.77,3.08,4.7,8.02,7.36,13.65,7.33,1.98-.01,3.63-1.65,3.6-3.19-.02-1.55-1.25-2.54-2.67-2.54-4.25.02-8-1.98-10.33-5.55Z"/>
  <path class="cls-1" d="m141.2,140.15c3.56-1.98,8.07-3.03,16.39-3.36-1.98-.84-4.61-1.23-8.45-1.23h0c-6.58,0-9.62,1.12-11.91,3.73-2.7,3.08-4.07,11.88-4.34,18.73.44-6.43,3.05-14.94,8.32-17.87Z"/>
  <path class="cls-5" d="m132.88,158.02c-.07.95-.08,1.85-.05,2.68,0-.84.01-1.74.05-2.68Z"/>
  <path class="cls-5" d="m127.12,169.06c-.94.67-2.15.9-2.79.33-.64-.57-.44-2.01.6-3.04,2.83-2.82,6.54-4.71,10.62-5.32,1.52-.22,2.63,1.06,2.44,2.62-.18,1.56-1.13,2.68-2.18,2.67-2.99-.05-6.06.87-8.69,2.76Z"/>
  <g>
    <path class="cls-1" d="m138.04,132.53c-3.95-4.45-2.21-9.5,6.16-15.33,2.66-1.85,3.23-6.64,4.87-8.45,4.69-5.2,8.34-2.3,8.34-2.3h.01c-6.77-4.75-17.13-3.61-24.71,3.18-8.61,7.71-10.37,19.79-3.93,26.97,6.44,7.19,18.63,6.77,27.24-.95.75-.67,1.44-1.38,2.09-2.11h0c-7.11,7.3-14.82,4.88-20.06-1.02Z"/>
    <path class="cls-5" d="m159.94,108.69c-.76-.86-1.61-1.6-2.53-2.24h-.01s-3.64-2.9-8.34,2.3c-1.63,1.81-2.21,6.61-4.87,8.45-8.38,5.82-10.11,10.88-6.16,15.33,5.24,5.9,12.95,8.32,20.06,1.01h0c6.76-7.66,7.72-18.29,1.84-24.86Z"/>
    <path class="cls-7" d="m159.46,128.21c-1.59,1.54-6.09,3.01-8.54-.97-2.45-3.98,1.09-7.91,2.35-9.13,1.26-1.22,5.19-4.52,7.63-.54,2.45,3.98.15,9.09-1.44,10.64Z"/>
    <path class="cls-3" d="m153.98,119.08c.69-.67,2.27-.77,3.02.14.75.92-1.27,2.82-1.27,2.82l-.06.06s-1.98,1.98-2.5.82c-.52-1.15-.04-3.03.65-3.7l.15-.14Z"/>
    <path class="cls-3" d="m156.12,127.32c-.15,0-.29-.01-.44-.03-.47-.07-.92-.25-1.33-.54-.14-.1-.17-.29-.08-.43.1-.14.29-.17.43-.08.34.23.7.38,1.08.44.38.06.76.02,1.13-.11.39-.13.75-.36,1.08-.67.33-.32.61-.72.81-1.16.2-.44.33-.92.39-1.42.05-.49.03-1.01-.07-1.49-.03-.17.07-.33.24-.36.16-.03.33.07.36.24.11.54.14,1.12.08,1.68-.06.57-.21,1.11-.44,1.61-.24.52-.55.97-.94,1.35-.4.38-.83.65-1.31.81-.32.11-.65.17-.98.17Z"/>
    <circle class="cls-3" cx="145.71" cy="123.2" r=".86"/>
    <circle class="cls-3" cx="154.58" cy="112.31" r=".86"/>
    <path class="cls-5" d="m141.23,131.77c2.28,2.48,3.34,5.22,2.37,6.12-.98.89-3.61-.4-5.9-2.88-2.28-2.48-3.34-5.22-2.37-6.11.97-.89,3.61.39,5.9,2.88Z"/>
    <path class="cls-3" d="m137.62,129.96c-.8.74-.12,2.87,1.51,5.28-.26-.25-.53-.52-.8-.81-1.78-1.96-2.72-4.02-2.09-4.61.27-.25.78-.19,1.41.11-.01.01-.03.02-.04.03Z"/>
    <path class="cls-7" d="m143.74,125.37c-.1,0-.21-.05-.27-.14-.2-.27-.35-.59-.44-.92-.09-.34-.11-.68-.06-1.02.05-.35.16-.68.35-1,.18-.3.42-.57.71-.78.15-.11.36-.08.47.07.11.15.08.36-.07.47-.22.16-.4.36-.53.58-.14.24-.23.49-.26.74-.03.25-.02.51.05.76.06.25.18.48.33.69.11.15.08.36-.07.47-.06.04-.13.07-.2.07Z"/>
    <path class="cls-7" d="m152.68,111.39c-.06,0-.11-.01-.17-.04-.16-.09-.22-.3-.13-.46.17-.29.4-.56.66-.77.27-.22.58-.38.9-.47.35-.1.7-.13,1.06-.09.35.04.69.15,1,.32.16.09.22.3.13.46-.09.16-.3.22-.46.13-.23-.13-.49-.21-.75-.24-.26-.03-.53,0-.79.07-.24.07-.47.19-.67.35-.2.16-.37.36-.49.58-.06.11-.18.17-.29.17Z"/>
  </g>
  <path class="cls-5" d="m161.05,139.29c-.84-.95-1.78-1.7-2.95-2.28-.16-.08-.34-.15-.51-.22-1.34.05-2.57.13-3.73.22-2.83.1-5.05.42-6.85.98-2.32.54-4.17,1.25-5.81,2.16-5.28,2.93-7.89,11.44-8.32,17.87-.04.94-.05,1.83-.05,2.68,0,2.18.15,3.98.41,5.07.28,1.18,1.41,2.19,3.19,2.99,2.83,1.27,7.32,1.99,12.71,1.99h0c.51,0,1,0,1.49-.02.15,0,.3-.01.45-.01.34-.01.67-.03,1-.04.16,0,.33-.02.49-.03.32-.02.63-.04.95-.07.15-.01.29-.02.44-.04.38-.03.75-.07,1.11-.12.06,0,.13-.01.19-.02.43-.05.85-.11,1.25-.18.1-.02.19-.03.29-.05.3-.05.6-.1.89-.16.12-.02.24-.05.36-.07.26-.06.51-.12.76-.17.11-.03.23-.06.34-.09.27-.07.53-.14.78-.22.06-.02.12-.03.18-.05h0c1.74-.54,3.09-1.23,3.94-2.04,0,0,.02-.02.03-.03.16-.15.3-.31.43-.48.05-.06.08-.13.12-.2.07-.11.15-.22.21-.34.09-.18.16-.37.21-.56,1.11-4.62.04-21.9-3.99-26.48Z"/>
  <ellipse class="cls-5" cx="149.2" cy="163.72" rx="16.16" ry="12.73"/>
  <path class="cls-3" d="m144.26,148.25c.23-1.4-.54-2.77-2.06-3.05-1.51-.28-3.41,1.08-3.75,3.03-.96,5.54.84,10.86,4.98,14.67,1.45,1.34,3.78,1.27,4.81.12,1.04-1.15.82-2.71-.22-3.68-3.13-2.88-4.49-6.91-3.77-11.1Z"/>
  <g>
    <path class="cls-3" d="m149.99,163.39c.3.24.7.34.92.16.22-.18.18-.65-.14-1.02-.88-.99-2.08-1.68-3.42-1.96-.5-.1-.89.3-.86.82.03.52.33.91.67.92.99.04,1.99.4,2.83,1.07Z"/>
    <path class="cls-3" d="m148.63,165.15c.22.31.57.52.84.41.26-.11.36-.58.15-1.02-.57-1.19-1.53-2.19-2.74-2.83-.45-.24-.94.04-1.05.55-.12.51.06.96.39,1.07.94.31,1.8.94,2.42,1.82Z"/>
    <path class="cls-3" d="m146.55,166.04c.05.38.28.72.56.74s.58-.35.59-.84c.03-1.32-.37-2.65-1.15-3.77-.3-.42-.86-.39-1.19.01-.33.4-.38.89-.14,1.13.69.71,1.18,1.65,1.33,2.72Z"/>
  </g>
  <g>
    <path class="cls-3" d="m150.98,187.94c.38.11.81.04.96-.22.14-.26-.09-.71-.55-.93-1.25-.6-2.69-.79-4.1-.52-.53.1-.74.65-.5,1.14.24.49.68.75,1.02.62.97-.36,2.09-.42,3.18-.1Z"/>
    <path class="cls-3" d="m150.38,190.19c.34.21.76.27.98.06.21-.21.11-.71-.27-1.05-1.04-.92-2.37-1.51-3.8-1.64-.54-.05-.89.42-.8.96.1.54.45.91.81.88,1.04-.08,2.12.18,3.08.78Z"/>
    <path class="cls-3" d="m148.72,191.89c.2.35.56.59.84.5.28-.09.42-.58.24-1.05-.5-1.3-1.43-2.42-2.64-3.19-.46-.29-.99-.03-1.15.49-.16.52-.02,1.01.32,1.15.96.4,1.81,1.13,2.39,2.1Z"/>
  </g>
  <g>
    <path class="cls-3" d="m163.26,186.6c.38.11.81.04.96-.22.14-.26-.09-.71-.55-.93-1.26-.6-2.69-.79-4.11-.52-.52.1-.74.65-.5,1.15.24.49.68.75,1.02.62.98-.36,2.09-.42,3.18-.1Z"/>
    <path class="cls-3" d="m162.66,188.85c.34.21.77.27.98.06.21-.21.11-.71-.27-1.04-1.04-.92-2.37-1.51-3.81-1.64-.53-.05-.89.42-.79.96.09.54.45.91.81.88,1.04-.08,2.12.18,3.08.78Z"/>
    <path class="cls-3" d="m161,190.55c.21.35.56.59.85.5.28-.09.42-.58.24-1.05-.51-1.29-1.43-2.42-2.65-3.19-.45-.29-.99-.03-1.15.49-.16.52-.01,1.01.32,1.15.96.4,1.81,1.13,2.39,2.1Z"/>
  </g>
  <g>
    <path class="cls-3" d="m174.88,150.94c.41-.02.79-.23.85-.53.05-.29-.32-.65-.84-.71-1.4-.16-2.85.14-4.12.87-.47.27-.49.87-.1,1.26.4.39.9.49,1.19.26.82-.67,1.87-1.1,3.01-1.15Z"/>
    <path class="cls-3" d="m175.05,153.3c.4.09.82,0,.96-.27.13-.27-.12-.72-.6-.92-1.3-.54-2.78-.66-4.2-.31-.53.13-.72.71-.45,1.19.27.49.73.72,1.07.58.97-.42,2.1-.53,3.22-.27Z"/>
    <path class="cls-3" d="m174.02,155.48c.31.26.73.38.98.2.24-.18.21-.7-.12-1.09-.92-1.07-2.17-1.85-3.6-2.19-.53-.12-.96.3-.94.85.02.55.32.98.69,1,1.06.07,2.11.49,2.99,1.22Z"/>
  </g>
</svg>