<?xml version="1.0" encoding="UTF-8"?>
<svg id="Layer_1" data-name="Layer 1" xmlns="http://www.w3.org/2000/svg" viewBox="0 0 300 225">
  <defs>
    <style>
      .cls-1 {
        fill: #fff;
      }

      .cls-2 {
        isolation: isolate;
        opacity: .35;
      }

      .cls-3 {
        fill: #232323;
      }

      .cls-4 {
        fill: #413d45;
      }

      .cls-5 {
        fill: #ff7e1c;
      }

      .cls-6 {
        fill: #ea651b;
      }

      .cls-7 {
        fill: #ff2402;
      }
    </style>
  </defs>
  <g>
    <path class="cls-6" d="m45.58,125.97c1.58,1.01,3.34,1.8,5.26,2.3,9.72,2.53,19.66-3.31,22.18-13.03,1.35-5.19.32-10.43-2.42-14.58.53,2.99.43,6.14-.38,9.26-2.86,11.01-13.64,17.86-24.65,16.05Z"/>
    <path class="cls-5" d="m37.81,106.08c-2.03,7.81,1.33,15.75,7.77,19.89,11.01,1.81,21.79-5.04,24.65-16.06.81-3.13.9-6.28.38-9.26-2.39-3.63-6.08-6.42-10.62-7.6-9.72-2.53-19.65,3.31-22.18,13.03Z"/>
  </g>
  <path class="cls-1" d="m60.72,109.11c.55.36.92.97,1.12,1.85.22,1.06.04,1.95-.54,2.65-.51.6-1.39,1.14-2.64,1.64l.65,1.97-1.42.47-.64-1.94-1.1.36.64,1.94-1.42.47-.65-1.97-2.81.93-.27-1.78.29-.1c.47-.13.76-.24.89-.33.17-.12.24-.3.21-.55l-2.08-6.29c-.16-.29-.39-.43-.68-.42-.19,0-.57.1-1.12.31l-.23.08-.5-1.51.88-.26c1.02-.34,1.67-.56,1.93-.67l-.75-2.29,1.42-.47.75,2.26,1.09-.39-.74-2.23,1.42-.47.76,2.29c1.02-.23,1.84-.26,2.47-.11.76.18,1.3.64,1.62,1.39.49,1.08.35,2-.4,2.77h0c.77-.08,1.39.04,1.86.38h0Zm-6.58.79l.23-.08c.82-.25,1.43-.5,1.84-.77.71-.45.96-.99.75-1.63s-.73-.94-1.55-.9c-.46.02-1.11.18-1.93.48-.13.06-.21.1-.25.11l.92,2.78Zm1.75,4.41c.99-.31,1.72-.6,2.18-.88.83-.53,1.13-1.15.9-1.84-.23-.7-.83-1.01-1.79-.95-.53.02-1.28.22-2.25.58l-.32.11,1.01,3.07.26-.09Z"/>
  <g class="cls-2">
    <path class="cls-3" d="m195.57,130.34c0,1.77-1.43,3.2-3.2,3.2h-75.11c-1.77,0-3.2-1.43-3.2-3.2v-28.91c0-1.77,1.43-3.2,3.2-3.2h75.11c1.77,0,3.2,1.43,3.2,3.2v28.91Z"/>
  </g>
  <g>
    <path class="cls-7" d="m247.59,120.35c-.31,0-.61-.12-.85-.35-.47-.47-.47-1.23,0-1.7l15.37-15.37c.47-.47,1.23-.47,1.7,0,.47.47.47,1.23,0,1.7l-15.37,15.37c-.23.23-.54.35-.85.35Z"/>
    <path class="cls-7" d="m262.96,120.35c-.31,0-.61-.12-.85-.35l-15.37-15.37c-.47-.47-.47-1.23,0-1.7.47-.47,1.23-.47,1.7,0l15.37,15.37c.47.47.47,1.23,0,1.7-.23.23-.54.35-.85.35Z"/>
  </g>
  <g>
    <path class="cls-1" d="m107.09,111.46h-2.84c-.44,0-.8-.36-.8-.8s.36-.8.8-.8h2.84c.44,0,.8.36.8.8s-.36.8-.8.8Zm-8.44,0h-3.2c-.44,0-.8-.36-.8-.8s.36-.8.8-.8h3.2c.44,0,.8.36.8.8s-.36.8-.8.8Zm-8.8,0h-3.2c-.44,0-.8-.36-.8-.8s.36-.8.8-.8h3.2c.44,0,.8.36.8.8s-.36.8-.8.8Zm-8.8,0h-3.2c-.44,0-.8-.36-.8-.8s.36-.8.8-.8h3.2c.44,0,.8.36.8.8s-.36.8-.8.8Z"/>
    <polygon class="cls-1" points="101.79 117.21 100.7 116.03 106.48 110.66 100.7 105.29 101.79 104.12 108.83 110.66 101.79 117.21"/>
  </g>
  <g>
    <path class="cls-1" d="m231.36,111.46h-2.83c-.44,0-.8-.36-.8-.8s.36-.8.8-.8h2.83c.44,0,.8.36.8.8s-.36.8-.8.8Zm-8.43,0h-3.2c-.44,0-.8-.36-.8-.8s.36-.8.8-.8h3.2c.44,0,.8.36.8.8s-.36.8-.8.8Zm-8.8,0h-3.2c-.44,0-.8-.36-.8-.8s.36-.8.8-.8h3.2c.44,0,.8.36.8.8s-.36.8-.8.8Zm-8.8,0h-3.2c-.44,0-.8-.36-.8-.8s.36-.8.8-.8h3.2c.44,0,.8.36.8.8s-.36.8-.8.8Z"/>
    <polygon class="cls-1" points="226.06 117.21 224.97 116.03 230.74 110.66 224.97 105.29 226.06 104.12 233.09 110.66 226.06 117.21"/>
  </g>
  <path class="cls-1" d="m195.57,125.12c0,1.77-1.43,3.2-3.2,3.2h-75.11c-1.77,0-3.2-1.43-3.2-3.2v-28.91c0-1.77,1.43-3.2,3.2-3.2h75.11c1.77,0,3.2,1.43,3.2,3.2v28.91Z"/>
  <g>
    <path class="cls-4" d="m132.83,108.48h-1.27l-.18-1.14c-.17-.17-.38-.3-.63-.4-.26-.1-.56-.15-.9-.15-.74,0-1.31.27-1.71.81s-.6,1.24-.6,2.11v.3c0,.87.2,1.57.6,2.11.4.54.96.81,1.69.81.34,0,.64-.05.92-.15s.5-.23.65-.4l.18-1.14h1.27v1.69c-.34.4-.78.72-1.32.95-.53.24-1.13.35-1.79.35-1.15,0-2.08-.4-2.81-1.19-.73-.79-1.1-1.81-1.1-3.05v-.29c0-1.24.36-2.26,1.09-3.05.73-.8,1.67-1.19,2.82-1.19.66,0,1.26.12,1.79.36.53.24.97.56,1.32.95v1.69h0Z"/>
    <path class="cls-4" d="m142.04,105.6v2.27h-1.31l-.07-.96h-1.57v6.01l.91.18v1.03h-3.54v-1.03l.91-.18v-6.01h-1.56l-.07.96h-1.31v-2.27h7.6Z"/>
    <path class="cls-4" d="m147.51,105.6c.97,0,1.73.22,2.28.67.55.44.83,1.06.83,1.84,0,.43-.12.8-.35,1.12-.23.32-.57.57-1.01.77.5.15.87.4,1.09.74.22.35.33.77.33,1.29v.43c0,.19.04.33.11.44s.2.17.37.18l.21.03v1.03h-.88c-.56,0-.95-.15-1.18-.45-.23-.3-.34-.69-.34-1.17v-.49c0-.42-.11-.74-.33-.98s-.53-.36-.93-.37h-1.4v2.25l.91.18v1.03h-3.53v-1.03l.91-.18v-6.12l-.91-.18v-1.03h3.83Zm-1.21,3.76h1.18c.48,0,.83-.1,1.07-.31.24-.2.36-.5.36-.88s-.12-.69-.35-.92c-.24-.23-.58-.34-1.04-.34h-1.21v2.44h0Z"/>
    <path class="cls-4" d="m153.01,114.13v-1.03l.91-.18v-6.12l-.91-.18v-1.03h3.53v1.03l-.91.18v6.01h2.41l.08-1.07h1.31v2.38h-6.42Z"/>
    <path class="cls-4" d="m168.84,109.37h2.1v1.48h-2.1v2.43h-1.62v-2.43h-2.12v-1.48h2.12v-2.31h1.62v2.31Z"/>
    <path class="cls-4" d="m183.66,108.48h-1.27l-.18-1.14c-.17-.17-.38-.3-.64-.4-.26-.1-.56-.15-.91-.15-.74,0-1.31.27-1.71.81-.4.54-.6,1.24-.6,2.11v.3c0,.87.2,1.57.6,2.11.4.54.96.81,1.69.81.34,0,.64-.05.92-.15.28-.1.49-.23.65-.4l.18-1.14h1.27v1.69c-.35.4-.78.72-1.32.95-.53.24-1.13.35-1.79.35-1.15,0-2.08-.4-2.81-1.19-.73-.79-1.1-1.81-1.1-3.05v-.29c0-1.24.36-2.26,1.09-3.05s1.67-1.19,2.82-1.19c.66,0,1.26.12,1.79.36.53.24.97.56,1.32.95v1.69h0Z"/>
  </g>
</svg>