<?xml version="1.0" encoding="UTF-8"?>
<svg id="Layer_1" data-name="Layer 1" xmlns="http://www.w3.org/2000/svg" viewBox="0 0 300 225">
  <defs>
    <style>
      .cls-1 {
        fill: #fff;
      }

      .cls-2 {
        isolation: isolate;
        opacity: .35;
      }

      .cls-3 {
        fill: #232323;
      }

      .cls-4 {
        fill: #ff7e1c;
      }

      .cls-5 {
        fill: #444;
      }

      .cls-6 {
        fill: #ea651b;
      }

      .cls-7 {
        fill: #7f7f7f;
      }
    </style>
  </defs>
  <g>
    <path class="cls-3" d="m142.88,44.69c-.26-.68-.21-1.47.24-1.76.45-.3,1.3.05,1.77.85,1.27,2.19,1.84,4.76,1.57,7.36-.11.97-1.07,1.44-1.99,1.08-.93-.36-1.46-1.12-1.29-1.76.51-1.82.44-3.85-.3-5.77Z"/>
    <path class="cls-3" d="m138.9,46.13c-.44-.59-.6-1.35-.25-1.76.35-.42,1.26-.31,1.94.33,1.83,1.74,3.09,4.06,3.54,6.64.17.96-.63,1.68-1.62,1.59-.99-.09-1.71-.68-1.73-1.34-.02-1.9-.65-3.82-1.89-5.46Z"/>
    <path class="cls-3" d="m136.07,49.39c-.65-.32-1.15-.93-1.03-1.46.12-.52.98-.85,1.88-.59,2.42.72,4.6,2.21,6.18,4.3.58.78.21,1.78-.72,2.15-.92.37-1.84.18-2.15-.4-.88-1.68-2.32-3.11-4.17-4Z"/>
  </g>
  <g>
    <path class="cls-3" d="m87.1,86.21c-.63-.37-1.41-.44-1.78-.04-.37.4-.16,1.29.56,1.88,1.95,1.61,4.4,2.58,7.02,2.72.97.05,1.59-.83,1.38-1.8-.21-.97-.88-1.62-1.53-1.55-1.88.21-3.87-.19-5.65-1.22Z"/>
    <path class="cls-3" d="m89.15,82.51c-.51-.52-1.23-.81-1.7-.53-.47.28-.51,1.2.01,1.96,1.43,2.09,3.51,3.71,5.99,4.56.92.32,1.76-.35,1.83-1.34.07-.99-.39-1.8-1.04-1.92-1.87-.32-3.67-1.25-5.09-2.74Z"/>
    <path class="cls-3" d="m92.83,80.24c-.21-.7-.73-1.28-1.27-1.25-.54.04-1,.83-.88,1.76.32,2.5,1.44,4.9,3.25,6.78.68.7,1.73.49,2.24-.36.51-.85.47-1.78-.06-2.18-1.51-1.14-2.69-2.78-3.28-4.75Z"/>
  </g>
  <g>
    <g>
      <ellipse class="cls-5" cx="125.12" cy="43.54" rx="3.26" ry="8.33" transform="translate(-3.9 73.6) rotate(-32.3)"/>
      <g>
        <path class="cls-1" d="m121.87,36.35c-9.77-7.64-20.76-2.22-26.71,1.8l-.49.33c-5.95,4.02-15.09,12.19-11.65,24.1l26.27-3.1,12.58-23.13"/>
        <path class="cls-5" d="m111.24,38.12c-1.41.96-2.31,1.59-3.86,3.43-1.32,1.57-3.47,4.61-5.94,6.28l-.08.06c-2.47,1.67-6.1,2.52-8.05,3.16-2.29.75-3.21,1.35-4.62,2.3-5.37,3.62-3.38,8.1-3.38,8.1h0c3.99,11.71,8.55,8.48,8.55,8.48l30.82-20.81s4.5-3.31-4.95-11.35c-.04-.03-.08-.07-.13-.1-1.06-.79-4.08-2.44-8.36.45Z"/>
        <path class="cls-5" d="m118.31,73.08c-6.18,4.17-22.63,8.06-29.98-2.81-7.34-10.88,6.53-21.5,11.4-24.79,4.87-3.29,19.93-12.2,27.27-1.32,7.35,10.88-2.52,24.75-8.69,28.93Z"/>
        <path class="cls-7" d="m114.94,68.02c-2.52,1.7-9.45,2.98-12.92-2.15-3.46-5.13,2.17-9.52,4.16-10.87,1.99-1.34,8.18-4.93,11.64.2,3.46,5.13-.36,11.11-2.88,12.81Z"/>
        <path class="cls-3" d="m107.2,56.27c1.1-.74,3.49-.69,4.58.51,1.09,1.21-2.11,3.3-2.11,3.3l-.09.06s-3.14,2.19-3.85.72c-.71-1.46.14-3.7,1.23-4.44l.23-.16Z"/>
        <path class="cls-7" d="m93.42,59.18c-.21,0-.41-.15-.45-.37-.09-.46-.09-.93,0-1.39.09-.46.26-.89.52-1.29.26-.4.6-.75,1.01-1.03.41-.28.86-.46,1.33-.55.25-.05.49.11.54.36.05.25-.11.49-.36.54-.36.07-.69.21-.99.41-.3.21-.56.47-.75.77-.19.3-.32.62-.39.96-.07.34-.07.69,0,1.04.05.25-.11.49-.36.54-.03,0-.06,0-.09,0Z"/>
        <path class="cls-7" d="m110.09,46.06c-.09,0-.17-.02-.25-.07-.21-.14-.27-.42-.14-.64.26-.41.61-.75,1.01-1.03.41-.28.86-.46,1.33-.55.46-.09.92-.09,1.39,0,.46.09.89.26,1.29.52.21.14.27.42.13.64-.14.21-.42.27-.64.13-.29-.19-.62-.32-.96-.39-.34-.07-.7-.07-1.04,0-.35.07-.69.21-.99.42-.3.2-.56.46-.75.76-.09.14-.24.21-.39.21Z"/>
        <g>
          <circle class="cls-3" cx="96.38" cy="57.92" r="1.17"/>
          <circle class="cls-3" cx="112.55" cy="47" r="1.17"/>
        </g>
        <ellipse class="cls-5" cx="88.48" cy="68.31" rx="3.26" ry="8.33" transform="translate(-23.24 64.56) rotate(-35.75)"/>
        <path class="cls-3" d="m86.57,63.37c-1.2.87-.63,3.87,1.2,7.4-.32-.38-.64-.79-.95-1.23-2.1-2.94-3.02-5.89-2.07-6.58.4-.29,1.08-.13,1.89.38-.02.01-.04.02-.06.03Z"/>
        <path class="cls-1" d="m101.43,48.05c-2.79,1.88-6.78,2.99-8.94,3.77-2.53.91-3.57,1.59-5.16,2.67-4.83,3.26-4.6,6.79-4.31,8.1-3.44-11.92,5.7-20.08,11.65-24.1l.49-.33c5.95-4.02,16.94-9.44,26.71-1.8-1.1-.76-4.29-2.29-9.12.97-1.59,1.08-2.61,1.79-4.4,3.79-1.53,1.71-4.05,5-6.84,6.89l-.08.05Z"/>
        <path class="cls-3" d="m110.31,66.61c-.35,0-.7-.03-1.05-.1-.7-.14-1.36-.4-1.95-.79-.19-.13-.25-.38-.12-.58.13-.19.38-.25.58-.12.5.33,1.06.55,1.65.67.59.12,1.19.12,1.78,0,.61-.12,1.19-.36,1.7-.71.52-.35.96-.8,1.3-1.32.33-.5.55-1.06.67-1.65.12-.59.11-1.19,0-1.78-.04-.23.1-.44.33-.49.23-.04.44.1.49.33.14.7.14,1.41,0,2.1-.14.7-.4,1.35-.79,1.95-.4.61-.91,1.14-1.53,1.55-.61.41-1.28.69-2.01.84-.35.07-.71.1-1.06.1Z"/>
      </g>
    </g>
    <path class="cls-3" d="m121.27,39.94c1.26-.78,3.82.86,6.42,3.88-.23-.44-.49-.89-.78-1.34-1.95-3.04-4.33-5-5.33-4.38-.43.27-.53.96-.36,1.89.02-.01.03-.03.05-.05Z"/>
  </g>
  <g class="cls-2">
    <ellipse class="cls-3" cx="150" cy="183.64" rx="54.89" ry="8.86"/>
  </g>
  <g>
    <g>
      <path class="cls-6" d="m97.36,159.4c4.4,5.43,9.72,10.27,15.91,14.26,31.43,20.29,73.35,11.26,93.63-20.17,10.82-16.77,13.3-36.52,8.48-54.38-1.63,11.18-5.62,22.19-12.15,32.31-22.97,35.59-69.07,47.23-105.88,27.97Z"/>
      <path class="cls-4" d="m93.1,80.03c-16.29,25.23-13.68,57.23,4.26,79.37,36.81,19.26,82.9,7.61,105.88-27.98,6.52-10.11,10.52-21.13,12.15-32.31-4.21-15.62-13.99-29.79-28.65-39.26-31.43-20.29-73.35-11.26-93.63,20.17Z"/>
    </g>
    <path class="cls-1" d="m170.58,117.49c1.52,1.89,2.12,4.5,1.82,7.83-.46,4.02-2.12,6.94-5,8.75-2.5,1.52-6.25,2.42-11.25,2.73v7.72h-5.56v-7.61h-4.32v7.61h-5.57v-7.72h-11.01l1.14-6.59h1.13c1.82.08,2.98.03,3.52-.12.76-.23,1.21-.79,1.36-1.7v-24.65c-.23-1.21-.87-1.97-1.93-2.27-.68-.23-2.12-.3-4.31-.23h-.91v-5.91l3.41.12c4.01,0,6.54-.04,7.6-.12v-8.97h5.57v8.86l4.32-.12v-8.74h5.56v8.97c3.86.38,6.81,1.21,8.86,2.5,2.5,1.52,3.86,3.79,4.09,6.82.45,4.39-1.09,7.5-4.65,9.31h0c2.8.6,4.85,1.78,6.14,3.53h0Zm-24.2-4.89h.91c3.18.08,5.65-.11,7.39-.56,3.03-.76,4.54-2.39,4.54-4.89s-1.48-4.17-4.44-5c-1.67-.45-4.12-.64-7.38-.56-.53.08-.88.11-1.03.11v10.9h0Zm1.03,17.61c3.86.07,6.77-.12,8.74-.57,3.56-.91,5.35-2.73,5.35-5.45s-1.74-4.54-5.23-5.45c-1.89-.53-4.77-.71-8.63-.56h-1.26v12.04h1.03Z"/>
  </g>
</svg>