<?xml version="1.0" encoding="UTF-8"?>
<svg id="Layer_1" data-name="Layer 1" xmlns="http://www.w3.org/2000/svg" viewBox="0 0 300 225">
  <defs>
    <style>
      .cls-1 {
        fill: #84cd29;
      }

      .cls-2 {
        fill: #fff;
      }

      .cls-3, .cls-4 {
        isolation: isolate;
      }

      .cls-5 {
        fill: #d0dae3;
      }

      .cls-4 {
        opacity: .35;
      }

      .cls-6 {
        fill: #232323;
      }

      .cls-7 {
        fill: #444;
      }

      .cls-8 {
        fill: none;
      }

      .cls-9 {
        fill: #7f7f7f;
      }
    </style>
  </defs>
  <g class="cls-4">
    <ellipse class="cls-6" cx="157.35" cy="194.04" rx="43.12" ry="6.96"/>
  </g>
  <path class="cls-6" d="m198.49,101.53c2.7-.83,5.61.33,6.57,3.26.96,2.91-1.23,7.01-4.98,8.19-10.67,3.37-21.64,1.22-30.26-5.92-3.03-2.51-3.52-7.12-1.53-9.46,2-2.36,5.13-2.32,7.31-.54,6.52,5.4,14.82,7.02,22.89,4.48Z"/>
  <path class="cls-6" d="m203.11,109c-.56.48-1.58.3-2.38-.47-.8-.76-.78-1.96.15-2.52,2.49-1.5,5.36-2.14,8.16-1.88,1.03.1,1.78.79,1.69,1.38-.09.6-.85,1.02-1.66,1.08-2.28.16-4.35,1.04-5.95,2.4Z"/>
  <path class="cls-6" d="m201.99,110.78c-.72.17-1.54-.46-1.91-1.5-.36-1.04.2-2.1,1.28-2.18,2.91-.21,5.75.54,8.12,2.04.88.56,1.23,1.52.88,2-.35.49-1.22.52-1.97.2-2.1-.9-4.35-1.06-6.4-.57Z"/>
  <path class="cls-6" d="m149.93,159.34c-2.45,15.81-.72,25.95,1.73,28.24,3.05,2.85,1.4,5.37.1,6.77-1.25,1.34-4.46,3.04-10.59-2-6.13-5.04-10.34-41.01-10.5-42.28l19.26,9.28Z"/>
  <path class="cls-6" d="m173.32,157.1c-2.45,15.81-.72,25.95,1.73,28.24,3.05,2.85,1.41,5.37.1,6.77-1.24,1.34-4.46,3.04-10.59-2-6.13-5.04-10.34-41.01-10.5-42.28l19.26,9.28Z"/>
  <path class="cls-2" d="m119.01,131.3c.54-13.63,3.26-31.15,8.64-37.28,4.55-5.19,10.62-7.42,23.71-7.42h.01c7.65,0,12.88.78,16.83,2.45-16.57.65-25.54,2.76-32.62,6.69-10.5,5.83-15.7,22.76-16.57,35.57Z"/>
  <path class="cls-7" d="m118.9,136.62c-.06-1.65-.03-3.44.1-5.32-.07,1.86-.11,3.65-.1,5.32Z"/>
  <path class="cls-7" d="m124.85,147.79c2.08.02,3.97-2.2,4.34-5.31.37-3.1-1.83-5.65-4.86-5.21-8.13,1.21-15.52,4.99-21.15,10.59-2.08,2.06-2.46,4.93-1.19,6.06,1.27,1.14,3.69.68,5.56-.65,5.24-3.76,11.35-5.58,17.3-5.48Z"/>
  <path class="cls-7" d="m183.01,146.72c-.09.38-.23.76-.4,1.12-.11.23-.27.45-.41.67-.09.13-.15.26-.24.39-.24.33-.53.64-.85.95-.02.02-.03.03-.05.05-1.7,1.62-4.38,2.99-7.84,4.06h.01c-.11.03-.24.06-.36.1-.5.15-1.02.3-1.56.44-.22.06-.45.11-.67.17-.49.12-1.01.24-1.52.35-.24.05-.48.1-.72.15-.58.12-1.17.22-1.77.32-.19.03-.38.07-.57.1-.81.13-1.64.25-2.49.35-.13.02-.26.03-.38.04-.73.09-1.46.16-2.21.23-.29.03-.58.05-.87.07-.62.05-1.25.1-1.88.14-.32.02-.65.04-.98.06-.66.04-1.32.06-2,.09-.3,0-.59.02-.89.03-.97.02-1.96.04-2.97.04h-.01c-10.74,0-19.66-1.44-25.3-3.96-3.54-1.59-5.78-3.59-6.35-5.94-.52-2.17-.79-5.77-.81-10.1,0-1.68.03-3.46.1-5.32.87-12.8,6.07-29.73,16.57-35.57,3.26-1.81,6.94-3.23,11.56-4.3,3.59-1.12,8.01-1.75,13.65-1.95,2.3-.18,4.75-.33,7.42-.43.34.14.69.28,1.01.44,2.34,1.14,4.2,2.64,5.87,4.53,8.01,9.12,10.13,43.52,7.94,52.7Z"/>
  <ellipse class="cls-7" cx="151.48" cy="142.64" rx="32.16" ry="25.34"/>
  <g>
    <path class="cls-6" d="m148.7,191.05c-.68.25-1.56-.26-2.04-1.24-.48-.97-.06-2.07.99-2.27,2.81-.55,5.68-.16,8.18,1.03.92.44,1.38,1.34,1.1,1.85-.29.52-1.13.65-1.9.43-2.16-.63-4.38-.52-6.32.2Z"/>
    <path class="cls-6" d="m147.7,193.76c-.72.05-1.43-.68-1.62-1.76-.19-1.07.52-2,1.58-1.91,2.85.26,5.5,1.42,7.57,3.25.77.67.96,1.67.54,2.08-.42.42-1.27.31-1.95-.11-1.9-1.2-4.06-1.71-6.13-1.56Z"/>
    <path class="cls-6" d="m145.77,194.52c-.67-.28-.96-1.26-.64-2.3.32-1.04,1.38-1.55,2.28-.98,2.42,1.53,4.25,3.77,5.26,6.35.37.95.09,1.92-.47,2.1-.57.18-1.27-.3-1.68-.99-1.15-1.94-2.84-3.37-4.75-4.18Z"/>
  </g>
  <g>
    <path class="cls-6" d="m173.15,188.39c-.68.25-1.56-.26-2.04-1.24-.48-.97-.06-2.07.99-2.28,2.81-.54,5.68-.16,8.18,1.03.92.44,1.38,1.33,1.1,1.85-.29.52-1.13.65-1.9.43-2.16-.63-4.37-.52-6.32.21Z"/>
    <path class="cls-6" d="m172.15,191.1c-.72.05-1.43-.68-1.62-1.76-.19-1.07.52-2.01,1.58-1.91,2.85.26,5.5,1.42,7.57,3.25.77.68.96,1.67.54,2.08-.42.42-1.27.31-1.95-.11-1.9-1.2-4.06-1.71-6.13-1.55Z"/>
    <path class="cls-6" d="m170.22,191.86c-.67-.28-.96-1.26-.64-2.3.32-1.04,1.38-1.55,2.28-.98,2.43,1.53,4.25,3.77,5.26,6.35.37.95.09,1.92-.47,2.1-.57.18-1.27-.3-1.68-.99-1.14-1.94-2.84-3.37-4.75-4.18Z"/>
  </g>
  <path class="cls-6" d="m271.02,88.82c-.85.26-1.78.13-2.11-.44-.33-.57.16-1.57,1.17-2.07,2.73-1.37,5.89-1.85,9.01-1.31,1.16.21,1.65,1.41,1.15,2.49-.51,1.09-1.47,1.68-2.23,1.41-2.17-.76-4.62-.83-6.99-.09Z"/>
  <path class="cls-6" d="m273.57,93.37c-.63.62-1.52.93-2.07.57-.55-.35-.57-1.46.1-2.38,1.81-2.47,4.4-4.34,7.43-5.27,1.12-.35,2.11.5,2.15,1.7.05,1.2-.55,2.16-1.34,2.27-2.27.32-4.48,1.37-6.26,3.1Z"/>
  <g>
    <g>
      <path class="cls-1" d="m268.33,71.43l-61.44,4.78c-1.88.15-3.29,1.79-3.15,3.68l2.66,34.13c.15,1.88,1.79,3.29,3.68,3.15l61.44-4.78c1.89-.15,3.29-1.79,3.15-3.68l-2.66-34.13c-.15-1.88-1.8-3.29-3.68-3.15Z"/>
      <path class="cls-2" d="m211.39,111.91l-.53-6.82c3.77-.29,7.06,2.52,7.36,6.29l-6.82.53Z"/>
      <path class="cls-2" d="m209.53,88.02l-.53-6.83,6.82-.53c.29,3.77-2.52,7.07-6.29,7.36Z"/>
      <path class="cls-2" d="m269.41,107.4l-6.83.53c-.29-3.77,2.52-7.06,6.3-7.36l.53,6.82Z"/>
      <path class="cls-2" d="m267.55,83.51c-3.77.29-7.07-2.52-7.36-6.29l6.83-.53.53,6.83Z"/>
      <path class="cls-2" d="m240.13,106.24c-13.37,1.04-24.63-3.46-25.15-10.06-.51-6.6,9.91-12.79,23.29-13.83,13.38-1.04,24.64,3.46,25.15,10.06.51,6.6-9.92,12.79-23.29,13.83Z"/>
    </g>
    <rect class="cls-8" x="214.79" y="88.99" width="48.81" height="12.4" transform="translate(-6.67 18.85) rotate(-4.45)"/>
    <g class="cls-3">
      <path class="cls-1" d="m229.57,100.37l-.08-.96c-.81-.03-1.49-.26-2.04-.69-.54-.44-.86-1.05-.93-1.85l1.68-.13c.04.33.17.61.37.85.21.23.48.38.81.45l-.21-2.63c-.08-.02-.16-.04-.24-.06-.08-.02-.16-.04-.25-.06-.69-.18-1.23-.44-1.61-.78-.38-.34-.6-.81-.64-1.42-.06-.71.12-1.31.57-1.78.44-.47,1.04-.77,1.79-.9l-.08-1.01.84-.06.08,1.02c.75.02,1.38.23,1.88.64.5.41.78.96.86,1.66l-1.71.13c-.03-.24-.12-.46-.28-.65-.16-.19-.38-.32-.64-.38l.18,2.32c.07.02.14.04.21.05.07.02.14.03.21.05.44.12.85.26,1.23.43.37.17.68.42.92.73.24.31.38.73.42,1.24.03.43-.04.84-.22,1.24-.18.39-.47.73-.86,1-.39.28-.89.46-1.48.54l.07.95-.84.06Zm-1.46-7.52c.02.27.12.47.29.62.17.15.39.27.67.37l-.16-2.07c-.25.07-.46.2-.6.39-.15.19-.21.42-.19.69Zm3.11,3.98c-.03-.33-.15-.59-.36-.76-.21-.18-.49-.32-.81-.43l.18,2.37c.33-.08.58-.22.76-.42.18-.21.25-.46.23-.76Z"/>
      <path class="cls-1" d="m235.44,98.82l-.54-6.91-1.41.45-.1-1.22,2.04-1.1.99-.08.68,8.74-1.66.13Z"/>
      <path class="cls-1" d="m242.39,98.43c-.81.06-1.51-.07-2.12-.41-.6-.33-1.09-.83-1.45-1.48-.36-.65-.58-1.43-.65-2.33-.07-.89.02-1.69.28-2.4.26-.71.66-1.27,1.21-1.69.54-.42,1.22-.67,2.03-.73.81-.06,1.51.07,2.12.41.6.33,1.09.83,1.45,1.49.36.66.58,1.43.65,2.32.07.9-.02,1.7-.28,2.4-.26.7-.66,1.27-1.21,1.69-.54.42-1.22.67-2.03.73Zm-.11-1.44c.66-.05,1.17-.37,1.55-.95.37-.58.52-1.35.45-2.31-.08-.96-.34-1.69-.8-2.21-.46-.52-1.02-.75-1.67-.7-.67.05-1.18.37-1.55.95-.37.58-.52,1.35-.44,2.31.07.96.34,1.69.79,2.21.46.52,1.01.75,1.68.7Z"/>
      <path class="cls-1" d="m251.25,97.74c-.81.06-1.51-.07-2.12-.41-.6-.33-1.09-.83-1.45-1.48s-.58-1.43-.65-2.33c-.07-.89.02-1.69.28-2.4.26-.71.66-1.27,1.21-1.69.54-.42,1.22-.67,2.03-.73s1.51.07,2.12.41c.6.33,1.09.83,1.45,1.49s.58,1.43.65,2.32c.07.9-.02,1.7-.28,2.4-.26.7-.66,1.27-1.21,1.69-.54.42-1.22.67-2.03.73Zm-.11-1.44c.66-.05,1.17-.37,1.55-.95.37-.58.52-1.35.45-2.31-.07-.96-.34-1.69-.8-2.21-.46-.52-1.02-.75-1.67-.7-.67.05-1.18.37-1.55.95-.37.58-.52,1.35-.44,2.31.07.96.34,1.69.79,2.21.46.52,1.01.75,1.68.7Z"/>
    </g>
  </g>
  <path class="cls-6" d="m202.31,106.17c-.41.61-1.44.72-2.42.21-.98-.51-1.29-1.66-.55-2.46,1.98-2.14,4.56-3.54,7.32-4.07,1.02-.19,1.94.27,2.01.86.07.6-.54,1.21-1.3,1.5-2.15.78-3.9,2.21-5.06,3.96Z"/>
  <path class="cls-6" d="m271.02,83.69c-.89.02-1.75-.36-1.91-1-.16-.63.59-1.46,1.7-1.66,3.01-.56,6.18-.15,9.02,1.24,1.06.52,1.2,1.81.41,2.71-.79.91-1.88,1.2-2.53.74-1.87-1.32-4.2-2.08-6.68-2.02Z"/>
  <g>
    <path class="cls-5" d="m102.01,55.3l10.36,7.09c1.31.89,1.65,2.7.75,4.01l-4.17,5.99-.09-.07c-2.43-1.66-5.65-1.06-7.31,1.37-.83,1.21-1.15,2.57-.88,3.99.25,1.34,1.05,2.57,2.26,3.4l.08-.02-4.17,5.99c-.45.65-1.1,1.1-1.8,1.23-.71.13-1.55-.04-2.13-.5l-10.36-7.09c-3.38-2.38-5.72-5.77-6.49-9.85-.77-4.09.1-8.16,2.48-11.53,4.87-7.01,14.46-8.81,21.47-4.02Z"/>
    <path class="cls-9" d="m156.56,115.38c-.81,1.78-1.45,3.53-1.67,5.44l-.33,2.58c-.02.33-.05.58,0,.89.13.71.58,1.36,1.23,1.8l8.96,6.14c1.31.9,3.12.56,4.01-.75l10.43-15.14c.9-1.31.55-3.11-.75-4.01l-8.96-6.13c-.85-.65-2-.68-2.96-.18l-2.21,1.23c-1.71.89-3.18,2.14-4.47,3.52l-55.84-38.78c-1.31-.9-3.12-.56-4.01.75-.45.65-.63,1.42-.5,2.13.13.71.58,1.36,1.23,1.8l55.82,38.71Zm10.49-3.11l.74-.38,5.15,3.59-7.16,10.45-5.23-3.58.09-.83c.49-3.92,2.84-7.45,6.41-9.26Z"/>
  </g>
  <g>
    <path class="cls-7" d="m186.56,61.41c-.25,7.89,2.05,14.37,5.15,14.46,3.09.09,5.8-6.22,6.05-14.11.25-7.89-2.05-14.36-5.14-14.46-3.09-.1-5.8,6.22-6.05,14.11Z"/>
    <path class="cls-2" d="m194.48,48.18c-6.52-20.27-27.36-23.15-39.68-23.18h-1.01c-12.32-.02-33.18,2.78-39.77,23.03l40.31,20.9,40.16-20.75"/>
    <path class="cls-7" d="m177.67,40.45c-2.93,0-4.81.03-8.78,1.15-3.39.96-9.37,3.22-14.49,3.21h-.18c-5.12-.01-11.09-2.29-14.48-3.26-3.97-1.14-5.85-1.18-8.78-1.18-11.12-.02-12.6,8.26-12.6,8.26h-.02c-5.61,20.47,3.98,20.28,3.98,20.28l63.84.12s9.58-.37,3.89-20.89c-.03-.09-.06-.18-.09-.27-.74-2.14-3.45-7.39-12.31-7.4Z"/>
    <path class="cls-7" d="m154.05,96.95c-12.79-.02-39.93-10.34-39.88-32.87.04-22.53,29.99-24.26,40.08-24.24,10.09.02,40.06,1.86,40.02,24.39-.04,22.53-27.42,32.75-40.22,32.72Z"/>
    <path class="cls-9" d="m154.13,86.5c-5.22-.01-16.3-4.87-16.28-15.49.02-10.62,12.25-11.44,16.37-11.44,4.12,0,16.36.87,16.34,11.5-.02,10.63-11.21,15.44-16.43,15.43Z"/>
    <path class="cls-6" d="m154.47,62.36c2.27,0,5.62,2.38,6.01,5.15.39,2.76-6.18,2.65-6.18,2.65h-.19s-6.57.09-6.16-2.68c.4-2.76,3.76-5.13,6.03-5.12h.49Z"/>
    <path class="cls-9" d="m132.51,53.36c-.1,0-.21-.02-.31-.06-.4-.17-.59-.63-.42-1.04.31-.74.76-1.41,1.34-1.98.58-.57,1.24-1.02,1.98-1.33.76-.32,1.55-.48,2.43-.49.84,0,1.66.17,2.43.5.4.17.59.64.42,1.04-.17.4-.64.59-1.04.42-.58-.25-1.19-.37-1.82-.37-.63,0-1.23.12-1.8.36-.55.23-1.05.57-1.48.99-.43.43-.76.92-1,1.48-.13.3-.42.48-.73.48Z"/>
    <path class="cls-9" d="m175.97,53.67c-.31,0-.6-.18-.73-.48-.24-.56-.57-1.06-.99-1.48-.42-.42-.93-.77-1.48-1-1.15-.49-2.49-.48-3.62,0-.4.17-.86-.02-1.03-.42-.17-.4.02-.86.42-1.03.76-.32,1.58-.48,2.42-.48.84,0,1.66.17,2.43.49.73.31,1.42.78,1.98,1.34.57.57,1.01,1.23,1.33,1.98.17.4-.02.87-.42,1.03-.1.04-.2.06-.31.06Z"/>
    <circle class="cls-6" cx="137.48" cy="54.27" r="2.01"/>
    <circle class="cls-6" cx="170.99" cy="54.33" r="2.01"/>
    <path class="cls-7" d="m121.89,61.29c.22,7.89-2.11,14.36-5.2,14.44-3.09.09-5.78-6.24-6-14.13-.22-7.89,2.11-14.36,5.2-14.44,3.1-.09,5.78,6.24,6.01,14.13Z"/>
    <path class="cls-6" d="m118.29,52.57c-2.55.09-4.63,4.89-5.43,11.67-.09-.85-.15-1.74-.17-2.66-.14-6.2,1.38-11.28,3.39-11.35.86-.03,1.67.86,2.32,2.36-.04,0-.08-.01-.12-.01Z"/>
    <path class="cls-2" d="m154.17,45.12c-5.78-.01-12.52-2.29-16.33-3.26-4.48-1.14-6.6-1.18-9.9-1.18-9.99-.02-13.08,5.22-13.92,7.35,6.59-20.25,27.45-23.05,39.77-23.03h1.02c12.32.02,33.16,2.9,39.68,23.18-.84-2.14-3.9-7.39-13.89-7.41-3.3,0-5.43.02-9.91,1.15-3.82.96-10.57,3.21-16.35,3.2h-.17Z"/>
    <path class="cls-6" d="m154.2,81.67h-.02c-1.27,0-2.51-.25-3.66-.75-1.13-.48-2.13-1.16-2.99-2.02-.87-.87-1.54-1.88-2.01-3-.15-.36.02-.78.38-.94.36-.15.78.02.94.38.4.95.97,1.8,1.71,2.54.73.73,1.58,1.31,2.54,1.71.98.42,2.02.63,3.11.63,1.08-.03,2.12-.21,3.11-.62.96-.4,1.81-.98,2.54-1.71.74-.73,1.31-1.59,1.72-2.54.15-.36.58-.53.94-.38.36.15.53.57.38.94-.48,1.12-1.16,2.13-2.02,2.99-.86.86-1.87,1.54-3,2.01-1.16.49-2.39.73-3.65.73Z"/>
    <path class="cls-6" d="m190.19,52.7c2.55.1,4.61,4.91,5.38,11.69.09-.85.15-1.74.18-2.66.17-6.2-1.34-11.29-3.35-11.36-.86-.03-1.67.85-2.33,2.35.04,0,.08-.01.12-.01Z"/>
  </g>
  <g>
    <path class="cls-6" d="m21.86,182.08c-4.75,0-6.69-3.37-4.32-7.48l16.3-28.23c2.38-4.11,6.26-4.11,8.64,0l16.3,28.23c2.38,4.11.43,7.48-4.32,7.48H21.86Z"/>
    <path class="cls-6" d="m44.85,182.08c-3.33,0-4.69-2.35-3.02-5.24l11.41-19.76c1.66-2.88,4.38-2.88,6.05,0l11.41,19.76c1.66,2.88.3,5.24-3.02,5.24h-22.82Z"/>
  </g>
  <ellipse class="cls-6" cx="62.75" cy="193.71" rx="41.04" ry="6.62"/>
  <g>
    <path class="cls-6" d="m160.21,113.48c2.82-.13,5.35,1.71,5.55,4.8.21,3.06-2.94,6.48-6.86,6.69-11.18.6-21.26-4.22-27.83-13.28-2.31-3.18-1.63-7.78.88-9.54,2.52-1.79,5.54-.97,7.21,1.3,4.97,6.86,12.6,10.5,21.05,10.05Z"/>
    <g>
      <path class="cls-6" d="m163.24,118.85c-.5.47-1.46.35-2.25-.32-.78-.68-.82-1.79.02-2.36,2.26-1.53,4.91-2.26,7.54-2.16.97.04,1.71.65,1.65,1.21-.06.56-.75.99-1.51,1.09-2.12.26-4.02,1.18-5.46,2.54Z"/>
      <path class="cls-6" d="m163.37,121.6c-.61.31-1.5-.07-2.07-.93-.57-.87-.29-1.95.67-2.27,2.59-.84,5.35-.81,7.85.02.92.3,1.46,1.1,1.25,1.62-.21.52-.99.74-1.75.63-2.11-.34-4.2.02-5.95.93Z"/>
      <path class="cls-6" d="m161.97,122.99c-.69,0-1.31-.74-1.42-1.78-.11-1.03.63-1.87,1.63-1.71,2.69.43,5.13,1.71,6.98,3.59.68.69.8,1.65.37,2.02-.43.37-1.23.21-1.84-.24-1.73-1.27-3.75-1.89-5.72-1.89Z"/>
    </g>
  </g>
  <path class="cls-5" d="m126.31,43.88c-.08-.27-.47-.29-.56,0-.45,1.5-1.4,1.91-1.4,2.97,0,.94.75,1.7,1.68,1.7s1.68-.76,1.68-1.7c0-1.07-.95-1.46-1.4-2.97h0Z"/>
  <path class="cls-5" d="m183.14,43.96c-.07-.27-.47-.29-.56,0-.45,1.5-1.4,1.91-1.4,2.97,0,.94.75,1.7,1.68,1.7s1.68-.76,1.68-1.7c0-1.07-.95-1.46-1.4-2.97h0Z"/>
  <path class="cls-5" d="m122.73,50.21c-.08-.27-.47-.29-.56,0-.45,1.5-1.4,1.91-1.4,2.97,0,.94.75,1.7,1.68,1.7s1.68-.76,1.68-1.7c0-1.07-.95-1.46-1.4-2.97h0Z"/>
  <path class="cls-6" d="m300,67.86c-4.6,6.9-11.83,11.09-20.26,11.64-3.06.23-5.55,2.54-5.37,5.89.17,3.33,4.01,6.62,8.28,6.34,6.44-.42,12.34-2.46,17.35-5.85v-18.02h0Z"/>
</svg>