<?xml version="1.0" encoding="UTF-8"?>
<svg id="Layer_1" data-name="Layer 1" xmlns="http://www.w3.org/2000/svg" viewBox="0 0 300 225">
  <defs>
    <style>
      .cls-1 {
        fill: #84cd29;
      }

      .cls-2 {
        fill: #fff;
      }

      .cls-3, .cls-4 {
        isolation: isolate;
      }

      .cls-4 {
        opacity: .35;
      }

      .cls-5 {
        fill: #232323;
      }

      .cls-6 {
        fill: #21ce99;
      }

      .cls-7 {
        fill: #444;
      }

      .cls-8 {
        fill: none;
      }

      .cls-9 {
        fill: #7f7f7f;
      }
    </style>
  </defs>
  <g class="cls-4">
    <ellipse class="cls-5" cx="151.37" cy="192.81" rx="44.54" ry="7.19"/>
  </g>
  <g>
    <g>
      <path class="cls-5" d="m152.8,146.96c.16,1.28,4.33,37.48,10.49,42.57,6.16,5.08,9.4,3.38,10.65,2.04,1.32-1.41,2.98-3.95-.09-6.81-2.46-2.31-4.18-12.51-1.69-28.42l-19.37-9.38Z"/>
      <g>
        <path class="cls-5" d="m178.29,187.63c.77.22,1.62.09,1.92-.43.29-.52-.17-1.43-1.1-1.87-2.51-1.2-5.4-1.59-8.23-1.05-1.06.21-1.48,1.31-1,2.29.48.99,1.37,1.5,2.05,1.25,1.96-.72,4.19-.83,6.36-.19Z"/>
        <path class="cls-5" d="m177.08,192.13c.68.43,1.54.54,1.96.12.42-.42.23-1.42-.54-2.1-2.08-1.85-4.74-3.03-7.61-3.29-1.07-.09-1.79.85-1.6,1.92.19,1.08.9,1.82,1.62,1.77,2.08-.15,4.25.36,6.16,1.58Z"/>
        <path class="cls-5" d="m173.75,195.53c.41.69,1.12,1.18,1.69,1,.57-.18.85-1.15.48-2.11-1.01-2.6-2.84-4.85-5.28-6.4-.91-.57-1.98-.06-2.3.98-.32,1.05-.03,2.03.64,2.32,1.92.82,3.62,2.27,4.77,4.21Z"/>
      </g>
    </g>
    <g>
      <path class="cls-5" d="m149.02,146.62c-.16,1.28-4.47,37.47-10.65,42.53-6.18,5.06-9.41,3.35-10.66,2-1.31-1.42-2.96-3.96.11-6.81,2.47-2.3,4.23-12.49,1.79-28.41l19.4-9.3Z"/>
      <g>
        <path class="cls-5" d="m124.44,187.62c-.77.22-1.62.09-1.91-.44-.29-.52.17-1.43,1.1-1.86,2.52-1.2,5.4-1.57,8.23-1.02,1.05.21,1.48,1.31,1,2.29-.49.98-1.37,1.5-2.06,1.25-1.96-.73-4.19-.84-6.36-.22Z"/>
        <path class="cls-5" d="m125.64,192.12c-.68.43-1.54.54-1.96.11-.42-.42-.23-1.42.54-2.1,2.09-1.84,4.75-3.01,7.62-3.26,1.07-.09,1.79.85,1.59,1.93-.2,1.08-.9,1.82-1.63,1.77-2.08-.16-4.25.35-6.17,1.55Z"/>
        <path class="cls-5" d="m128.96,195.54c-.41.69-1.12,1.18-1.69.99-.57-.18-.85-1.16-.47-2.11,1.02-2.59,2.86-4.84,5.3-6.38.91-.57,1.98-.06,2.29.99.32,1.05.03,2.03-.65,2.31-1.92.81-3.63,2.25-4.79,4.2Z"/>
      </g>
    </g>
  </g>
  <path class="cls-7" d="m183.82,127.79c-1.33-12.49-6.52-27.72-16.38-33.23-4.23-2.36-9.15-4.06-15.94-5.21-1.61.27-3.11.57-4.53.9-.25.06-.48.12-.73.18-.42.1-.84.21-1.24.32-.26.07-.51.14-.76.21-.41.12-.81.24-1.2.36-.2.06-.41.13-.62.19-.57.19-1.12.38-1.65.58-.16.06-.31.12-.46.18-.4.16-.8.32-1.19.48-.18.08-.36.16-.54.24-.37.16-.74.33-1.1.51-.15.07-.31.15-.46.22-.5.25-.99.5-1.47.77-10.58,5.85-15.84,22.88-16.74,35.76-.08,1.87-.12,3.67-.11,5.36,0,4.36.27,7.98.79,10.17.02.1.07.2.1.3,2.63,11.98,15.87,21.12,31.83,21.15,17.88.03,32.38-11.35,32.41-25.44,0-.13,0-.26-.01-.39.28-3.64.29-8.43,0-13.62Z"/>
  <path class="cls-2" d="m175.35,92.86c-4.09-4.67-9.4-6.96-19.86-7.42-.16,0-.33-.01-.5-.02-.52-.02-1.06-.04-1.61-.05-.55-.01-1.1-.02-1.68-.02-.06,0-.12,0-.19,0h-.12s-.07,0-.11,0c-.6,0-1.2,0-1.77.02-.66.01-1.29.03-1.91.05-.06,0-.12,0-.18,0-10.47.42-15.79,2.69-19.89,7.35-5.43,6.15-8.2,23.78-8.77,37.5.9-12.88,6.16-29.91,16.74-35.76,4.23-2.34,9.16-4.03,15.95-5.15,6.78,1.15,11.7,2.85,15.93,5.21,10.56,5.89,15.76,22.94,16.61,35.82-.52-13.72-3.22-31.36-8.63-37.53Z"/>
  <path class="cls-5" d="m131.26,97.89c1.8-2.19,4.88-2.85,7.32-.92,2.43,1.91,2.87,6.56.37,9.64-7.08,8.75-17.48,13.05-28.68,11.85-3.94-.42-6.91-4.02-6.54-7.09.37-3.09,3.01-4.8,5.83-4.52,8.47.91,16.34-2.34,21.69-8.97Z"/>
  <path class="cls-5" d="m99.51,110.69c-.82-.06-1.58-.48-1.67-1.08-.09-.6.67-1.3,1.71-1.39,2.82-.26,5.7.39,8.21,1.9.93.57.95,1.77.15,2.53-.81.77-1.83.95-2.4.47-1.61-1.38-3.7-2.27-5.99-2.43Z"/>
  <path class="cls-5" d="m100.18,115.48c-.75.32-1.63.29-1.98-.2-.36-.49,0-1.46.88-2.02,2.39-1.51,5.25-2.25,8.18-2.04,1.09.08,1.65,1.14,1.28,2.19-.37,1.05-1.2,1.68-1.92,1.51-2.06-.49-4.33-.33-6.44.57Z"/>
  <path class="cls-5" d="m171.61,97.89c-1.8-2.19-4.88-2.85-7.32-.92-2.43,1.91-2.87,6.56-.37,9.64,7.08,8.75,17.48,13.05,28.68,11.85,3.94-.42,6.91-4.02,6.54-7.09-.37-3.09-3.01-4.8-5.83-4.52-8.47.91-16.34-2.34-21.7-8.97Z"/>
  <path class="cls-5" d="m202.71,114.09c.81-.14,1.65.09,1.89.65.23.56-.33,1.42-1.32,1.76-2.67.94-5.62,1.01-8.43.15-1.04-.32-1.36-1.48-.76-2.42.6-.94,1.55-1.36,2.21-1.04,1.89.94,4.14,1.3,6.4.9Z"/>
  <path class="cls-5" d="m201.99,109.41c.74-.36,1.61-.38,1.99.1.38.47.08,1.45-.77,2.06-2.31,1.64-5.13,2.53-8.05,2.48-1.09-.02-1.71-1.05-1.4-2.12.31-1.07,1.11-1.74,1.84-1.61,2.08.38,4.34.1,6.4-.91Z"/>
  <path class="cls-2" d="m151.31,44.12c-5.78-.01-12.52-2.29-16.33-3.26-4.48-1.14-6.6-1.18-9.9-1.19-10-.02-13.07,5.22-13.92,7.35,6.59-20.25,27.45-23.05,39.77-23.03h1.02c12.32.02,33.16,2.91,39.69,23.18-.84-2.14-3.9-7.39-13.89-7.41-3.3,0-5.43.02-9.91,1.15-3.82.96-10.57,3.21-16.35,3.2h-.17Z"/>
  <path class="cls-7" d="m191.6,47.2l.03-.02c-.83-2.14-3.9-7.39-13.89-7.41-3.3,0-5.43.02-9.91,1.15-3.82.96-10.57,3.21-16.35,3.2h-.17c-5.78-.01-12.52-2.29-16.33-3.26-4.48-1.14-6.6-1.18-9.9-1.18-10-.02-13.07,5.22-13.92,7.35l.03.02c-2.12,2.02-3.53,7.34-3.36,13.56.22,7.88,2.91,14.21,6,14.13.06,0,.11-.02.17-.03,7.16,14.47,26.85,21.21,37.19,21.23,10.34.02,30.2-6.65,37.46-21.1.06,0,.13.03.19.03,3.09.09,5.8-6.22,6.05-14.11.2-6.22-1.19-11.54-3.3-13.57Z"/>
  <path class="cls-9" d="m151.28,85.5c-5.22-.01-16.31-4.87-16.28-15.5.02-10.62,12.25-11.44,16.37-11.44,4.12,0,16.36.87,16.34,11.5-.02,10.63-11.2,15.45-16.43,15.44Z"/>
  <path class="cls-5" d="m151.61,61.36c2.27,0,5.62,2.38,6.01,5.15.39,2.76-6.18,2.65-6.18,2.65h-.19s-6.57.09-6.17-2.68c.4-2.76,3.76-5.12,6.03-5.12h.49Z"/>
  <g>
    <circle class="cls-5" cx="134.63" cy="53.27" r="2.01"/>
    <path class="cls-5" d="m170.14,53.34c0,1.11-.9,2.01-2.01,2-1.1,0-2-.9-2-2.01,0-1.11.9-2.01,2.01-2,1.11,0,2.01.9,2,2.01Z"/>
  </g>
  <path class="cls-5" d="m187.33,51.7c2.55.1,4.6,4.9,5.38,11.69.09-.85.15-1.74.18-2.66.17-6.2-1.34-11.28-3.35-11.36-.86-.03-1.67.85-2.33,2.35.04,0,.08-.01.12-.01Z"/>
  <path class="cls-5" d="m115.44,51.57c-2.55.09-4.63,4.89-5.43,11.67-.09-.85-.15-1.74-.17-2.66-.14-6.2,1.38-11.28,3.39-11.35.86-.03,1.67.86,2.32,2.36-.04,0-.08-.02-.12-.02Z"/>
  <path class="cls-9" d="m138.5,48.44c-.21,0-.43-.09-.58-.26-.42-.46-.92-.82-1.5-1.08-.58-.26-1.18-.4-1.8-.41-.61-.01-1.19.08-1.75.3-.57.21-1.08.53-1.52.94-.32.3-.82.28-1.12-.04-.3-.32-.28-.82.04-1.12.59-.55,1.28-.97,2.03-1.26.75-.28,1.54-.42,2.35-.4.83.02,1.64.21,2.41.55.77.35,1.45.84,2.01,1.45.29.32.27.82-.05,1.12-.15.14-.34.21-.53.21Z"/>
  <path class="cls-9" d="m172.08,48.44c-.21,0-.42-.09-.58-.25-.42-.46-.93-.82-1.5-1.08-.57-.26-1.18-.4-1.8-.41-.61-.01-1.2.08-1.76.3-.56.21-1.08.53-1.52.94-.32.3-.82.28-1.12-.04-.3-.32-.28-.82.04-1.12.59-.55,1.28-.97,2.03-1.25.75-.29,1.54-.42,2.36-.4.83.02,1.64.21,2.41.55.77.35,1.44.84,2.01,1.45.3.32.28.82-.04,1.12-.15.14-.34.21-.54.21Z"/>
  <path class="cls-5" d="m151.23,80.88c-1.29-.03-2.51-.25-3.68-.75-1.13-.48-2.14-1.16-2.99-2.03-.86-.87-1.54-1.88-2.01-3-.15-.36.02-.78.38-.94.36-.15.78.02.94.38.4.95.97,1.8,1.71,2.54.72.73,1.58,1.31,2.54,1.72.99.42,2.01.64,3.12.63,1.08,0,2.12-.21,3.1-.62.95-.4,1.81-.97,2.54-1.71.73-.73,1.31-1.58,1.72-2.54.15-.36.58-.53.94-.38.36.15.53.57.38.94-.48,1.12-1.16,2.13-2.02,2.99-.87.86-1.88,1.54-3,2.01-1.15.49-2.38.73-3.65.73Z"/>
  <path class="cls-2" d="m91.45,50.85l-9.88-4.12c-.61-.25-1.29-.25-1.9,0l-9.88,4.12c-.92.38-1.52,1.28-1.52,2.28,0,10.22,5.89,17.28,11.4,19.58.61.25,1.29.25,1.9,0,4.41-1.84,11.41-8.18,11.41-19.58,0-1-.6-1.9-1.52-2.28Zm-2.43,5.88l-9.47,9.47c-.32.32-.84.32-1.16,0l-5.35-5.35c-.32-.32-.32-.84,0-1.16l1.16-1.16c.32-.32.84-.32,1.16,0l3.61,3.61,7.73-7.73c.32-.32.84-.32,1.16,0l1.16,1.16c.32.32.32.84,0,1.16h0Z"/>
  <path class="cls-2" d="m233.85,50.85l-9.88-4.12c-.61-.25-1.29-.25-1.9,0l-9.88,4.12c-.92.38-1.52,1.28-1.52,2.28,0,10.22,5.89,17.28,11.4,19.58.61.25,1.29.25,1.9,0,4.41-1.84,11.41-8.18,11.41-19.58,0-1-.6-1.9-1.52-2.28Zm-2.43,5.88l-9.47,9.47c-.32.32-.84.32-1.16,0l-5.35-5.35c-.32-.32-.32-.84,0-1.16l1.16-1.16c.32-.32.84-.32,1.16,0l3.61,3.61,7.73-7.73c.32-.32.84-.32,1.16,0l1.16,1.16c.33.32.33.84,0,1.16h0Z"/>
  <g>
    <path class="cls-6" d="m237.72,81.2c.69.51,1.1,1.19,1.23,2.04l3.47,22.54c.13.86-.06,1.62-.56,2.32-.51.69-1.19,1.1-2.04,1.23l-37.08,5.71c-.85.13-1.63-.06-2.32-.56-.69-.51-1.1-1.18-1.23-2.04l-3.47-22.54c-.13-.85.05-1.62.56-2.32.51-.69,1.19-1.1,2.04-1.23l37.08-5.71c.86-.13,1.63.06,2.32.56Z"/>
    <rect class="cls-5" x="199.68" y="89.61" width="37.51" height="8.29" transform="translate(-11.73 34.36) rotate(-8.76)"/>
    <g>
      <path class="cls-2" d="m207.12,104.11c-.18-.12-.37-.17-.58-.14l-4.61.71c-.21.03-.38.14-.51.31-.12.17-.17.37-.14.58l.4,2.56c.03.22.14.39.31.51.18.12.37.17.58.14l4.61-.71c.21-.03.38-.13.51-.31.12-.17.17-.36.14-.58l-.4-2.56c-.03-.21-.14-.38-.3-.51Z"/>
      <path class="cls-2" d="m219.42,102.22c-.18-.13-.37-.18-.58-.14l-8.71,1.34c-.21.03-.38.14-.51.31-.12.17-.17.37-.14.58l.39,2.56c.03.22.14.39.31.51.17.13.37.17.58.14l8.71-1.34c.21-.03.38-.13.51-.31.12-.17.17-.36.14-.58l-.4-2.56c-.04-.21-.14-.38-.31-.51Z"/>
    </g>
  </g>
  <path class="cls-5" d="m202.23,107.27c.79-.19,1.48-.74,1.46-1.35-.01-.6-.87-1.17-1.91-1.08-2.82.22-5.55,1.34-7.77,3.27-.82.71-.64,1.9.28,2.52.93.62,1.97.62,2.44.06,1.36-1.63,3.27-2.86,5.5-3.41Z"/>
  <g>
    <path class="cls-1" d="m104.92,87.23l-40.29-7.86c-1.24-.24-2.44.57-2.68,1.8l-4.37,22.39c-.24,1.24.57,2.43,1.8,2.68l40.29,7.86c1.24.24,2.43-.57,2.68-1.8l4.37-22.39c.24-1.24-.56-2.43-1.8-2.68Z"/>
    <path class="cls-2" d="m61.16,103.09l.87-4.48c2.47.48,4.09,2.88,3.6,5.35l-4.48-.87Z"/>
    <path class="cls-2" d="m64.21,87.42l.87-4.48,4.48.87c-.48,2.47-2.88,4.09-5.35,3.6Z"/>
    <path class="cls-2" d="m99.21,110.51l-4.48-.87c.48-2.47,2.88-4.09,5.35-3.6l-.87,4.48Z"/>
    <path class="cls-2" d="m102.27,94.84c-2.47-.48-4.09-2.88-3.6-5.35l4.48.87-.88,4.48Z"/>
    <path class="cls-2" d="m80.62,104.56c-3.71-.72-6.03-4.82-5.19-9.15.85-4.33,4.54-7.25,8.24-6.52,3.71.72,6.03,4.82,5.19,9.15-.85,4.33-4.54,7.25-8.24,6.52Z"/>
    <rect class="cls-8" x="76.6" y="80.31" width="10.41" height="33.36" transform="translate(-29.14 158.57) rotate(-78.89)"/>
    <g class="cls-3">
      <path class="cls-1" d="m80.79,101.86l.18-.91c-.74-.24-1.31-.62-1.7-1.17-.39-.54-.52-1.19-.39-1.95l1.59.31c-.05.32,0,.61.13.88.13.27.34.48.63.62l.49-2.48c-.07-.04-.13-.08-.2-.11-.07-.04-.14-.08-.22-.12-.59-.34-1.02-.72-1.29-1.13-.27-.41-.34-.9-.23-1.48.12-.68.45-1.18.98-1.5s1.16-.45,1.88-.37l.19-.95.79.15-.19.97c.69.21,1.22.57,1.57,1.07.35.51.48,1.09.37,1.75l-1.61-.32c.04-.23,0-.45-.09-.67-.1-.22-.26-.39-.49-.52l-.43,2.19c.06.04.12.07.18.1s.12.07.18.1c.38.22.72.46,1.02.71.3.25.52.56.67.91.14.35.17.77.07,1.25-.08.41-.25.77-.52,1.08-.27.31-.62.55-1.06.7-.43.16-.94.19-1.51.11l-.18.9-.79-.15Zm.58-7.32c-.05.25-.01.47.1.65.12.18.29.35.52.51l.38-1.96c-.25,0-.47.07-.66.2-.19.13-.3.33-.36.59Zm1.85,4.47c.06-.31.02-.58-.14-.8-.15-.22-.37-.42-.64-.6l-.44,2.24c.32.01.59-.05.81-.2.22-.14.35-.36.41-.64Z"/>
    </g>
  </g>
  <path class="cls-5" d="m101.23,106.28c-.77-.29-1.39-.9-1.31-1.51.08-.6,1-1.06,2.02-.86,2.78.53,5.37,1.95,7.36,4.1.74.81.43,1.96-.56,2.48-.99.52-2.03.4-2.43-.21-1.16-1.77-2.92-3.2-5.08-3.99Z"/>
</svg>