<?xml version="1.0" encoding="UTF-8"?>
<svg id="Layer_1" data-name="Layer 1" xmlns="http://www.w3.org/2000/svg" viewBox="0 0 300 225">
  <defs>
    <style>
      .cls-1 {
        fill: #fff;
      }

      .cls-2 {
        opacity: .2;
      }

      .cls-3 {
        fill: #d0dae3;
      }

      .cls-4 {
        isolation: isolate;
        opacity: .35;
      }

      .cls-5 {
        fill: #232323;
      }

      .cls-6 {
        fill: #444;
      }

      .cls-7 {
        fill: #7f7f7f;
      }

      .cls-8 {
        fill: #e7ecf0;
      }

      .cls-9 {
        fill: #ffcf15;
      }
    </style>
  </defs>
  <g class="cls-4">
    <ellipse class="cls-5" cx="113.6" cy="196.64" rx="39.95" ry="6.45"/>
  </g>
  <g class="cls-4">
    <ellipse class="cls-5" cx="185.89" cy="199.44" rx="22.59" ry="3.65"/>
  </g>
  <g class="cls-4">
    <ellipse class="cls-5" cx="227.79" cy="194.98" rx="17.26" ry="2.77"/>
  </g>
  <path class="cls-5" d="m84.65,150.92c.16,1.31,4.49,38.2,10.77,43.37,6.28,5.17,9.58,3.43,10.86,2.06,1.34-1.44,3.02-4.03-.1-6.95-2.52-2.35-4.28-12.74-1.77-28.96l-19.75-9.52Z"/>
  <path class="cls-5" d="m108.65,148.62c.17,1.3,4.49,38.2,10.77,43.37,6.29,5.17,9.59,3.43,10.86,2.05,1.34-1.44,3.03-4.03-.1-6.94-2.52-2.35-4.29-12.74-1.77-28.96l-19.75-9.52Z"/>
  <path class="cls-5" d="m124.08,99.13c-2.88-.31-5.58,1.41-5.98,4.55-.4,3.12,2.59,6.82,6.6,7.29,11.4,1.32,22.03-2.97,29.33-11.83,2.57-3.11,2.16-7.86-.29-9.83-2.47-1.99-5.62-1.35-7.47.87-5.52,6.7-13.56,9.95-22.19,8.95Z"/>
  <path class="cls-1" d="m89.68,95.2c7.26-4.03,16.47-6.19,33.46-6.86-4.05-1.71-9.41-2.51-17.26-2.51h-.01c-13.43,0-19.64,2.29-24.32,7.61-5.52,6.28-8.31,24.25-8.87,38.24.89-13.13,6.22-30.49,16.99-36.48Z"/>
  <path class="cls-6" d="m72.69,131.68c-.13,1.93-.16,3.76-.11,5.46,0-1.72.03-3.55.11-5.46Z"/>
  <path class="cls-6" d="m60.94,154.22c-1.92,1.36-4.4,1.83-5.7.67-1.3-1.15-.91-4.1,1.22-6.21,5.77-5.75,13.35-9.62,21.69-10.86,3.11-.45,5.36,2.17,4.98,5.34-.38,3.19-2.32,5.47-4.45,5.44-6.1-.1-12.36,1.77-17.74,5.62Z"/>
  <g>
    <path class="cls-1" d="m83.54,65.59c-.26-12.13,9.13-17.71,29.86-15.68,6.58.64,13.82-6.05,18.75-6.71,14.18-1.88,16,7.46,16,7.46h.03c-4.25-16.31-21.86-28.26-42.64-27.73-23.58.6-42.29,17.05-41.79,36.74.5,19.69,20.02,35.17,43.6,34.57,2.05-.05,4.07-.23,6.04-.52v-.02c-20.73,1.97-29.51-12-29.85-28.1Z"/>
    <path class="cls-6" d="m149.14,57.5c-.06-2.34-.4-4.62-.97-6.83h-.03s-1.82-9.34-16-7.46c-4.93.65-12.17,7.35-18.75,6.71-20.73-2.03-30.11,3.55-29.86,15.68.35,16.1,9.12,30.07,29.85,28.1v.02c20.65-2.98,36.21-18.25,35.75-36.22Z"/>
    <path class="cls-7" d="m122.56,87.21c-4.52.29-13.45-3.38-11.99-12.81,1.46-9.43,12.16-10.86,15.72-11.08,3.57-.23,14.04-.16,12.58,9.26-1.46,9.43-11.79,14.34-16.32,14.64Z"/>
    <path class="cls-5" d="m126.12,65.77c1.96-.13,4.54,1.79,4.51,4.22-.04,2.43-5.71,2.71-5.71,2.71h-.16s-5.7.46-4.98-2.01c.72-2.48,3.95-4.76,5.91-4.89l.43-.03Z"/>
    <path class="cls-5" d="m122.87,82.92c-.91,0-1.78-.16-2.57-.48-.94-.38-1.74-.94-2.38-1.67-.64-.73-1.1-1.61-1.37-2.6-.09-.33.11-.67.44-.76.33-.09.67.11.76.44.21.81.58,1.51,1.1,2.1.51.58,1.15,1.03,1.9,1.33.77.31,1.64.43,2.56.37.94-.06,1.88-.31,2.8-.74.9-.42,1.73-.99,2.49-1.7.75-.71,1.38-1.52,1.87-2.41.17-.3.55-.41.85-.25.3.17.41.55.25.85-.55,1-1.26,1.91-2.11,2.71-.85.8-1.8,1.44-2.81,1.92-1.06.5-2.16.78-3.25.85-.18.01-.35.02-.53.02Z"/>
    <circle class="cls-5" cx="107.81" cy="61.23" r="1.75"/>
    <circle class="cls-5" cx="136" cy="56.02" r="1.75"/>
    <path class="cls-6" d="m89.51,68.62c.27,6.88-1.71,12.54-4.4,12.64-2.69.1-5.09-5.39-5.36-12.26-.26-6.88,1.71-12.54,4.4-12.64,2.7-.11,5.1,5.39,5.36,12.26Z"/>
    <path class="cls-5" d="m86.3,61.05c-2.22.1-3.99,4.3-4.63,10.22-.08-.74-.14-1.52-.17-2.32-.18-5.4,1.1-9.84,2.86-9.92.75-.04,1.46.73,2.05,2.03-.04,0-.07-.01-.11-.01Z"/>
    <path class="cls-7" d="m102.33,62.16s-.03,0-.05,0c-.38-.03-.67-.36-.64-.73.05-.7.23-1.38.54-2.01.31-.63.73-1.19,1.26-1.66.54-.48,1.16-.85,1.86-1.09.7-.24,1.42-.34,2.14-.28.38.03.67.36.64.73-.03.38-.35.67-.73.64-.54-.04-1.08.03-1.6.21-.52.18-.99.45-1.39.81-.39.35-.71.77-.94,1.24-.23.47-.37.98-.4,1.5-.03.36-.33.64-.69.64Z"/>
    <path class="cls-7" d="m140.8,55.07c-.28,0-.54-.17-.65-.45-.19-.51-.47-.97-.84-1.37-.38-.41-.82-.72-1.31-.93-.48-.22-.99-.33-1.52-.35-.52-.01-1.05.07-1.54.25-.36.13-.75-.05-.88-.41-.13-.36.05-.75.41-.88.65-.24,1.36-.35,2.05-.33.71.02,1.39.18,2.03.47.65.29,1.25.71,1.75,1.25.5.53.88,1.15,1.13,1.84.13.36-.05.75-.41.88-.08.03-.16.04-.24.04Z"/>
  </g>
  <path class="cls-6" d="m130.2,93.45c-1.7-1.94-3.62-3.48-6.02-4.65-.33-.16-.69-.3-1.04-.45-2.74.11-5.25.26-7.61.44-5.78.2-10.32.85-13.99,2.01-4.74,1.1-8.51,2.55-11.85,4.41-10.77,5.98-16.1,23.35-16.99,36.48-.07,1.91-.11,3.74-.11,5.46.02,4.44.3,8.13.83,10.36.58,2.41,2.88,4.47,6.51,6.1,5.78,2.59,14.93,4.07,25.95,4.07h.01c1.03,0,2.04-.02,3.04-.04.31,0,.61-.02.91-.03.69-.03,1.38-.05,2.05-.09.34-.02.67-.04,1-.06.65-.04,1.3-.09,1.93-.14.3-.03.6-.05.9-.08.77-.07,1.53-.15,2.27-.24.13-.02.26-.03.39-.04.88-.11,1.72-.23,2.55-.36.2-.03.39-.07.59-.1.62-.1,1.23-.21,1.82-.33.25-.05.49-.1.74-.15.53-.12,1.05-.23,1.56-.35.23-.06.46-.11.69-.17.55-.15,1.08-.29,1.6-.45.12-.03.25-.07.37-.1h-.02c3.55-1.1,6.3-2.5,8.04-4.16.02-.02.03-.04.05-.05.33-.31.62-.64.88-.97.1-.13.16-.27.25-.4.15-.23.31-.45.42-.69.18-.37.32-.75.42-1.14,2.25-9.42.08-44.7-8.14-54.06Z"/>
  <ellipse class="cls-6" cx="106" cy="143.31" rx="32.98" ry="25.99"/>
  <g>
    <path class="cls-5" d="m93.52,102.49c-1.85-2.22-4.99-2.86-7.46-.88-2.46,1.96-2.88,6.71-.31,9.83,7.28,8.87,17.9,13.18,29.31,11.88,4.01-.46,7.02-4.15,6.62-7.27-.4-3.14-3.1-4.87-5.98-4.57-8.63.99-16.66-2.27-22.17-8.99Z"/>
    <path class="cls-5" d="m124.56,113.85c.77-.15,1.45-.63,1.48-1.21.02-.58-.77-1.16-1.77-1.14-2.7.05-5.37.97-7.59,2.67-.82.64-.72,1.78.13,2.42.85.65,1.84.7,2.32.19,1.39-1.48,3.27-2.55,5.43-2.94Z"/>
    <path class="cls-5" d="m125.46,118.28c.78.07,1.57-.2,1.75-.75.19-.55-.42-1.33-1.38-1.59-2.61-.7-5.43-.56-8.04.46-.97.38-1.18,1.51-.55,2.36.63.85,1.57,1.19,2.18.83,1.73-1.03,3.85-1.53,6.03-1.31Z"/>
    <path class="cls-5" d="m124.06,122.68c.66.42,1.48.54,1.9.13.41-.4.23-1.37-.51-2.04-2-1.81-4.58-2.97-7.36-3.24-1.04-.1-1.74.8-1.57,1.85.18,1.05.86,1.77,1.57,1.73,2.02-.13,4.13.39,5.97,1.58Z"/>
  </g>
  <path class="cls-5" d="m109.63,192.76c.79.22,1.66.09,1.95-.44.29-.53-.18-1.45-1.12-1.9-2.56-1.22-5.5-1.62-8.38-1.06-1.07.21-1.51,1.34-1.02,2.33.49,1.01,1.4,1.53,2.09,1.27,2-.74,4.27-.86,6.48-.21Z"/>
  <path class="cls-5" d="m108.4,197.34c.7.43,1.56.55,1.99.12.43-.43.23-1.44-.55-2.14-2.12-1.88-4.84-3.08-7.76-3.34-1.09-.09-1.82.87-1.62,1.96.2,1.1.92,1.86,1.66,1.8,2.12-.16,4.34.36,6.29,1.6Z"/>
  <path class="cls-5" d="m105.01,200.81c.42.7,1.14,1.2,1.73,1.02.58-.18.86-1.18.48-2.15-1.03-2.64-2.91-4.94-5.4-6.5-.93-.58-2.02-.07-2.34,1-.33,1.07-.03,2.07.66,2.36,1.96.83,3.7,2.3,4.87,4.28Z"/>
  <path class="cls-5" d="m134.71,190.03c.79.22,1.66.09,1.95-.44.29-.53-.18-1.45-1.12-1.9-2.56-1.22-5.5-1.61-8.38-1.05-1.07.21-1.51,1.34-1.02,2.33.49,1.01,1.4,1.52,2.09,1.27,2-.74,4.27-.86,6.48-.21Z"/>
  <path class="cls-5" d="m133.48,194.61c.69.44,1.56.55,1.99.12.43-.43.24-1.44-.55-2.13-2.12-1.88-4.84-3.08-7.77-3.34-1.09-.1-1.82.86-1.62,1.96.19,1.1.92,1.86,1.66,1.8,2.12-.16,4.34.36,6.29,1.6Z"/>
  <path class="cls-5" d="m130.09,198.09c.42.7,1.14,1.2,1.73,1.01.58-.19.87-1.18.48-2.15-1.03-2.64-2.91-4.94-5.4-6.51-.93-.58-2.01-.06-2.34,1.01-.33,1.07-.03,2.07.65,2.36,1.96.83,3.7,2.3,4.87,4.28Z"/>
  <path class="cls-5" d="m158.2,88.63c.67-.5,1.09-1.29.83-1.86-.25-.57-1.29-.74-2.23-.24-2.55,1.34-4.66,3.49-5.97,6.18-.48,1,.17,2.04,1.28,2.25,1.12.21,2.09-.21,2.31-.93.61-2.07,1.91-3.99,3.78-5.4Z"/>
  <path class="cls-5" d="m160.28,93.1c.82-.14,1.55-.65,1.58-1.27.03-.62-.81-1.24-1.87-1.23-2.88.03-5.74.98-8.12,2.78-.88.67-.78,1.89.12,2.58.9.7,1.96.77,2.48.23,1.49-1.57,3.51-2.68,5.82-3.09Z"/>
  <g>
    <g>
      <path class="cls-9" d="m156.98,79.27l7.67,1.2c.21.03.45.05.7.05.9,0,1.91-.2,2.58-.51l12.25-5.64c.77-.36.89-.78.84-1.07-.04-.29-.27-.66-1.11-.78l-4.81-.69c-.95-.13-2.43.02-3.29.33l-14.99,5.34c-.65.23-.97.56-.93.98.04.41.41.68,1.09.78Z"/>
      <path class="cls-9" d="m163.83,81.68l-10.62-1.66c-1.11-.17-2.28.54-2.65,1.57l-1.61,4.53c-.19.53-.15,1.09.1,1.58.25.49.68.86,1.21,1.02l14.19,4.33c.19.06.38.09.57.09.43,0,.81-.16,1.08-.45.29-.32.44-.77.4-1.27l-.56-7.46c-.08-1.11-1.01-2.11-2.11-2.28Z"/>
      <path class="cls-9" d="m186.71,77.71l-.83-2.15c-.4-1.05-1.66-1.57-2.69-1.09l-14.22,6.54c-.98.45-1.69,1.65-1.61,2.73l.54,7.18c.07.95.68,1.37,1.25,1.37.31,0,.64-.12.96-.34l15.7-11.25c.9-.64,1.29-1.96.89-2.99Z"/>
    </g>
    <path class="cls-1" d="m180.75,71.55l1.42.56.59,1.35c.05.09.16.13.26.08.04-.02.07-.05.09-.08l.59-1.35,1.42-.56c.09-.04.13-.15.08-.24-.02-.04-.05-.06-.08-.08l-1.42-.56-.59-1.35c-.05-.09-.16-.13-.25-.08-.04.02-.07.05-.09.08l-.59,1.35-1.42.56c-.1.04-.13.15-.09.24.02.04.05.06.09.08h0Z"/>
  </g>
  <path class="cls-5" d="m154.28,85.81c.5-.67.69-1.54.29-2.01-.4-.47-1.44-.35-2.21.38-2.08,2-3.51,4.65-4.02,7.59-.19,1.1.73,1.92,1.85,1.8,1.13-.1,1.95-.77,1.96-1.53.01-2.16.72-4.36,2.13-6.23Z"/>
  <g>
    <path class="cls-3" d="m205.71,183.61c-.52-.55-1.22-1.01-2.13-1.4-.15-.07-.31-.12-.46-.18-.13-.05-.27-.1-.4-.15l-.42-.18c-.15-.06-.3-.13-.45-.19-.15-.06-.28-.14-.42-.21-.11-.06-.22-.12-.34-.17l-.12-.08s-.06-.04-.09-.05c-.27-.13-.59-.4-.84-.63-.03-.02-.06-.05-.09-.07l-.2-.13c-.12-.09-.23-.16-.32-.22l-.12-.08s-.1-.07-.16-.12l-.2-.12c-.18-.15-.38-.27-.57-.37l-.05-.03c-.07-.05-.14-.1-.22-.14l-.55-.35s-.06-.04-.09-.05c-.19-.09-.38-.2-.57-.3-.23-.13-.47-.27-.73-.39l-.36-.16c-.25-.12-.5-.23-.75-.34-.47-.2-.96-.38-1.43-.54l-.34-.12c-.11-.04-.23-.07-.35-.1-.06-.02-.12-.03-.18-.05-.33-.12-.66-.19-.96-.26l-.2-.04c-.32-.07-.66-.15-.99-.21-.33-.07-.66-.1-.98-.13-.14-.01-.28-.03-.41-.05-.35-.04-.68-.05-1.01-.05-.2,0-.4,0-.6-.02-.2-.01-.38.01-.52.03-.08,0-.16.02-.24.02-.6-.02-1.25.1-1.91.21l-1.68.3s-.1.02-.15.04c0,0,0,0-.01,0-.08.01-.15.03-.21.06-.02,0-.05.02-.07.02-.08.02-.17.05-.25.09-.16.07-.35.12-.54.18-.22.07-.45.14-.71.24-.1.02-.19.05-.29.09-.36.16-.69.33-1.01.5l-.29.15c-.51.27-.99.52-1.47.82-.54.35-1.05.72-1.5,1.1-.03.02-.05.04-.08.06-.07.05-.15.1-.22.16l-.24.21c-.24.2-.48.4-.71.62-.22.21-.43.43-.64.64l-.33.33c-.18.18-.35.37-.52.57-.13.15-.26.3-.4.45-.07.08-.14.16-.2.24-.02.03-.04.06-.07.09s-.05.06-.07.08l-.98,1.33c-.07.08-.15.19-.22.32h0l-.17.23s-.04.06-.06.09c-.22.4-.48.77-.7,1.07l-.11.15c-.08.11-.15.21-.22.28l-.05.05c-.27.27-.54.55-.81.81-.12.12-.25.23-.38.34-.15.13-.3.26-.44.4-.08.07-.15.15-.22.24-.04.05-.08.09-.13.14-.6.6-1.26,1.33-1.51,2.38-.08.34-.16,1.29.12,1.92.22.5.45.85.73,1.15.17.18.34.32.5.45l.17.15c.07.06.15.11.24.17.18.15.48.38.74.5l.18.08c.38.18.77.36,1.18.52l.4.15c.32.12.65.23.96.37.37.16.73.34,1.1.53.28.14.57.29.85.42.02.01.04.03.06.04.08.05.16.11.25.15.09.04.18.09.27.14.11.06.22.11.33.17.04.02.08.05.11.07.11.07.22.15.33.2.1.05.2.1.29.15.12.06.24.12.37.18.11.05.21.11.31.18.15.09.31.19.47.26.32.15.64.31.96.46.53.26,1.08.52,1.64.77.54.23,1.1.42,1.65.6.27.09.54.18.81.27.14.05.28.08.42.11l.11.02c.14.03.28.07.43.1.18.04.36.08.53.12.13.03.26.05.39.06.08.01.15.02.24.03.53.1,1.09.13,1.62.15.18,0,.35.02.53.03.03,0,.06,0,.09,0l.29-.02c.15,0,.31,0,.47-.02.12,0,.24-.02.36-.01.05,0,.1,0,.15-.01l2.06-.36c.09-.02.18-.04.25-.06l.3-.06s.09-.02.13-.04c.2-.08.4-.15.6-.21.3-.1.61-.2.92-.34l.17-.08c.22-.1.44-.2.64-.31.03-.02.05-.02.08-.04.1-.04.19-.08.28-.14.16-.1.33-.2.49-.29.27-.16.54-.32.79-.48,1.36-.88,2.46-1.93,3.52-2.96l.23-.22c.13-.13.26-.27.38-.4.09-.1.18-.19.27-.29.09-.09.17-.19.25-.29.04-.05.09-.11.13-.16.21-.21.4-.42.59-.64.16-.19.33-.37.5-.55.09-.1.18-.2.26-.31.04-.06.09-.12.13-.17.27-.28.53-.57.77-.85.27-.31.53-.61.8-.88.48-.47,1.06-1.03,1.67-1.55.23-.2.46-.4.67-.61.1-.09.18-.2.27-.31.05-.06.09-.11.14-.16.82-.83,1.27-1.8,1.36-2.95.02-.23-.02-.43-.06-.64-.13-.68-.4-1.23-.86-1.72Z"/>
    <path class="cls-5" d="m205.08,185.85c-.01.15-.04.29-.07.42-.08-.04-.17-.07-.27-.08-1.01-.11-1.99.24-2.69.9-.61-.74-1.53-1.22-2.54-1.24-1.01-.02-1.95.4-2.59,1.12-.66-.69-1.62-1.09-2.62-1.03-1.01.06-1.91.56-2.49,1.32-.72-.64-1.7-.95-2.69-.81s-1.85.71-2.37,1.52c-.77-.58-1.77-.81-2.75-.59-.98.22-1.79.85-2.24,1.7-.81-.51-1.83-.67-2.79-.37-.96.3-1.72,1-2.1,1.88-.85-.45-1.88-.52-2.82-.14-.94.38-1.64,1.14-1.95,2.05-.89-.38-1.92-.36-2.83.09-.09.05-.16.1-.23.17-.07-.11-.14-.25-.22-.42-.05-.12-.07-.46-.06-.71.16.09.34.12.52.09.07-.01.14-.04.21-.07.91-.44,1.56-1.2,1.86-2.1.88.38,1.89.42,2.83.05.94-.37,1.65-1.07,2.02-1.95.84.45,1.84.56,2.8.27.96-.29,1.73-.94,2.16-1.78.8.52,1.79.7,2.76.49.98-.22,1.79-.8,2.3-1.6.75.58,1.72.84,2.71.7.99-.14,1.85-.66,2.42-1.42.7.63,1.65.97,2.65.91,1-.06,1.9-.52,2.53-1.23.65.69,1.56,1.1,2.57,1.12,1.01.02,1.94-.36,2.63-1.03.59.74,1.47,1.22,2.48,1.32.27.03.52-.09.68-.28.07.14.13.32.17.55.01.07.03.16.03.18Z"/>
    <path class="cls-8" d="m171.92,187.78c.16-.16.28-.33.38-.48l.09-.12c.25-.34.54-.75.79-1.21l.16-.23s.04-.06.06-.09c.03-.06.07-.1.11-.15l.98-1.33c.06-.06.1-.13.15-.19.02-.03.04-.06.07-.09.16-.17.32-.35.47-.52.14-.16.28-.33.43-.48l.34-.34c.2-.2.4-.41.61-.61.2-.19.41-.37.62-.54l.26-.22s.05-.04.08-.06c.07-.05.14-.1.21-.15.4-.34.85-.67,1.34-.98.42-.27.87-.51,1.35-.75l.29-.15c.31-.16.6-.31.94-.46.09-.02.19-.05.28-.09.16-.07.34-.12.52-.18.23-.07.46-.14.7-.24.03-.01.06-.02.09-.03.05-.02.1-.03.15-.05.02,0,.04,0,.04,0,.07-.01.13-.03.19-.05l1.61-.29c.55-.1,1.12-.2,1.54-.18.19,0,.35-.01.49-.03.09-.01.18-.02.23-.02.22.01.45.02.67.02.3,0,.58,0,.84.04.15.02.29.03.44.05.3.03.58.06.85.11.32.06.64.13.96.2l.2.04c.26.06.54.12.77.2.11.04.23.07.35.1.06.01.12.03.18.05l.34.12c.47.17.91.32,1.34.51.24.1.48.21.71.32l.37.17c.21.1.41.21.61.32.2.12.41.23.62.33l.54.35s.05.03.08.05c.02.01.03.02.05.04.09.06.18.12.27.16.1.05.2.12.28.18.03.03.07.05.1.07l.26.17s.1.08.15.11l.13.08c.06.03.11.07.16.11.03.02.06.04.08.06l.2.13c.29.26.68.59,1.1.8l.13.08s.06.04.09.05c.11.05.22.11.33.17.04.02.07.03.11.05-.4.51-1.02.82-1.7.81-.86-.02-1.6-.54-1.88-1.33-.11-.32-.41-.53-.75-.52-.34,0-.63.22-.74.54-.27.81-1,1.37-1.86,1.42-.85.05-1.63-.41-1.98-1.18-.14-.31-.46-.49-.79-.46-.34.03-.61.27-.69.6-.2.83-.87,1.44-1.73,1.56-.85.12-1.67-.28-2.08-1.02-.16-.29-.49-.45-.83-.39h0c-.33.06-.59.32-.64.65-.13.83-.75,1.49-1.59,1.68-.84.18-1.69-.15-2.16-.86-.19-.28-.53-.41-.85-.32-.32.09-.56.37-.58.71-.06.84-.63,1.54-1.45,1.79-.83.25-1.71-.02-2.24-.68-.21-.26-.56-.36-.88-.25-.32.11-.53.42-.52.75.01.84-.5,1.58-1.3,1.9-.62.24-1.3.18-1.85-.15.05-.05.09-.09.14-.14l.04-.05Z"/>
    <path class="cls-8" d="m203.9,188.13c-.05.06-.09.12-.15.17-.19.19-.39.36-.59.54-.64.55-1.23,1.13-1.73,1.62-.32.31-.61.65-.89.97-.23.26-.46.53-.71.78-.1.1-.18.2-.26.31-.04.06-.09.11-.14.17-.19.2-.37.4-.55.6-.17.2-.35.39-.53.58-.09.09-.16.18-.24.28-.04.06-.09.11-.14.16-.11.11-.21.22-.32.34-.1.11-.21.23-.32.33l-.23.22c-1.01.97-2.05,1.98-3.28,2.77-.24.15-.49.3-.74.45-.17.1-.35.2-.52.31-.02.02-.05.02-.07.03-.07.03-.13.06-.2.09-.18.1-.38.19-.57.28l-.17.08c-.22.1-.47.18-.74.27-.21.07-.43.14-.64.22l-.28.06s-.07.02-.11.03c-.02,0-.03,0-.05.01l-.23.04-.82.15-.92.16c-.14,0-.27,0-.41.02-.12,0-.24.02-.36.01-.02,0-.05,0-.07,0l-.28.02c-.17-.01-.34-.02-.51-.02-.5-.02-.97-.04-1.4-.12-.12-.02-.23-.04-.35-.05-.08-.01-.17-.02-.25-.04-.16-.04-.33-.08-.5-.11-.15-.04-.31-.07-.45-.11l-.14-.03c-.07-.02-.14-.02-.2-.05-.28-.1-.56-.19-.84-.29-.54-.18-1.04-.35-1.52-.55-.53-.23-1.06-.48-1.57-.74-.33-.16-.65-.32-.98-.47-.11-.05-.21-.12-.31-.18-.15-.1-.31-.19-.47-.27-.11-.05-.21-.1-.32-.16-.11-.06-.22-.11-.34-.17-.04-.02-.07-.05-.11-.07-.11-.08-.22-.15-.33-.2-.09-.04-.18-.09-.27-.14-.11-.06-.22-.12-.33-.17-.02-.01-.04-.02-.06-.04-.08-.05-.17-.11-.26-.15-.27-.13-.54-.26-.81-.4-.38-.19-.78-.39-1.19-.57-.34-.15-.69-.28-1.04-.41l-.39-.14c-.36-.14-.7-.3-1.07-.47l-.19-.09c-.05-.02-.13-.08-.21-.14.68-.21,1.41-.02,1.89.52.23.25.59.33.9.19.31-.14.49-.46.45-.8-.1-.82.37-1.58,1.15-1.89.78-.31,1.63-.08,2.12.58.2.27.56.38.88.27.32-.11.53-.42.52-.76-.03-.82.49-1.54,1.29-1.79.79-.25,1.62.06,2.07.76.18.29.52.42.85.34s.56-.38.57-.71c.04-.82.61-1.5,1.42-1.68.81-.18,1.61.19,1.99.92.16.3.49.46.82.4.33-.06.59-.33.63-.67.1-.82.73-1.44,1.55-1.56.82-.12,1.59.32,1.91,1.08.13.31.45.5.79.47.34-.03.61-.28.68-.61.17-.81.84-1.38,1.67-1.43.83-.05,1.57.45,1.83,1.23.11.32.41.54.75.53.34,0,.63-.23.73-.55.23-.79.95-1.31,1.79-1.29.84.02,1.53.57,1.73,1.37.08.33.37.57.7.59.06,0,.13,0,.19-.01.26-.05.49-.23.58-.48.26-.67.87-1.1,1.58-1.15-.04.04-.07.08-.1.12-.09.09-.17.18-.25.28Z"/>
  </g>
  <path class="cls-3" d="m245.48,174.39c-3.22-5.22-20.99-9.7-29.93-5.53-8.93,4.17-5.64,15.42-2.42,20.65,3.22,5.22,13.07,6.07,22,1.89,8.93-4.17,13.56-11.79,10.34-17.01Z"/>
  <g class="cls-2">
    <path class="cls-5" d="m245.48,174.39c-.26-.42-.62-.84-1.06-1.24.75,4.92-3.72,10.92-11.28,14.45-8.68,4.06-18.21,3.36-21.7-1.48.52,1.28,1.11,2.43,1.7,3.39,3.22,5.22,13.07,6.07,22,1.9,8.93-4.17,13.56-11.79,10.34-17.01Z"/>
  </g>
  <g class="cls-4">
    <ellipse class="cls-5" cx="220.15" cy="170.55" rx="1.5" ry="1.3"/>
  </g>
  <g class="cls-4">
    <ellipse class="cls-5" cx="225.86" cy="172.54" rx="1.5" ry="1.3"/>
  </g>
  <g class="cls-4">
    <ellipse class="cls-5" cx="219.15" cy="175.95" rx="2.53" ry="2.19"/>
  </g>
  <g class="cls-4">
    <ellipse class="cls-5" cx="234.6" cy="174.65" rx="2.18" ry="1.89"/>
  </g>
  <g class="cls-4">
    <ellipse class="cls-5" cx="227.03" cy="179.75" rx="1.61" ry="1.39"/>
  </g>
  <g class="cls-4">
    <ellipse class="cls-5" cx="241.25" cy="176.65" rx="1.61" ry="1.39"/>
  </g>
  <g class="cls-4">
    <ellipse class="cls-5" cx="218.25" cy="183.05" rx="1.41" ry="1.22"/>
  </g>
  <g class="cls-4">
    <ellipse class="cls-5" cx="232.45" cy="181.65" rx="1.41" ry="1.22"/>
  </g>
  <g class="cls-4">
    <ellipse class="cls-5" cx="228.45" cy="186.25" rx="1.05" ry=".92"/>
  </g>
  <g class="cls-4">
    <ellipse class="cls-5" cx="222.45" cy="183.45" rx="1.05" ry=".92"/>
  </g>
  <g class="cls-4">
    <ellipse class="cls-5" cx="213.05" cy="178.85" rx="1.05" ry=".92"/>
  </g>
  <g class="cls-4">
    <ellipse class="cls-5" cx="221.25" cy="187.44" rx=".73" ry=".63"/>
  </g>
  <g class="cls-4">
    <ellipse class="cls-5" cx="231.43" cy="170.55" rx=".73" ry=".63"/>
  </g>
  <g class="cls-4">
    <ellipse class="cls-5" cx="213.34" cy="173.63" rx=".73" ry=".63"/>
  </g>
  <g class="cls-4">
    <ellipse class="cls-5" cx="215.08" cy="176.59" rx=".73" ry=".63"/>
  </g>
  <g class="cls-4">
    <ellipse class="cls-5" cx="234.11" cy="171.22" rx=".73" ry=".63"/>
  </g>
</svg>