<?xml version="1.0" encoding="UTF-8"?>
<svg id="Layer_1" data-name="Layer 1" xmlns="http://www.w3.org/2000/svg" viewBox="0 0 300 225">
  <defs>
    <style>
      .cls-1 {
        fill: #84cd29;
      }

      .cls-2 {
        fill: #fff;
      }

      .cls-3 {
        isolation: isolate;
      }

      .cls-4 {
        fill: #d0dae3;
      }

      .cls-5 {
        fill: #232323;
      }

      .cls-6 {
        fill: #21ce99;
      }

      .cls-7 {
        fill: none;
      }
    </style>
  </defs>
  <path class="cls-5" d="m58.16,109.6c1.46-1.11,2.4-2.84,1.84-4.09-.56-1.24-2.83-1.64-4.92-.55-5.64,2.94-10.3,7.68-13.18,13.6-1.07,2.21.36,4.5,2.81,4.97,2.46.46,4.61-.44,5.1-2.04,1.36-4.56,4.22-8.79,8.35-11.88Z"/>
  <path class="cls-5" d="m62.73,119.46c1.81-.32,3.43-1.44,3.49-2.8.08-1.36-1.77-2.75-4.12-2.73-6.36.05-12.67,2.15-17.93,6.1-1.96,1.48-1.73,4.17.24,5.7,1.97,1.54,4.31,1.71,5.46.51,3.29-3.44,7.76-5.9,12.86-6.78Z"/>
  <g>
    <path class="cls-5" d="m254.3,131.03l-4.18-29.25c-.56-3.87-3.87-6.76-7.79-6.76h-37.8v-5.25h15.75c1.44,0,2.62-1.18,2.62-2.62v-15.75c0-1.44-1.18-2.62-2.62-2.62h-42c-1.45,0-2.62,1.18-2.62,2.62v15.75c0,1.45,1.18,2.62,2.62,2.62h15.75v5.25h-11.55c-3.92,0-7.24,2.89-7.79,6.76l-4.18,29.25c-.07.49-.1.98-.1,1.49v12.37c0,4.35,3.53,7.88,7.88,7.88h68.25c4.35,0,7.88-3.53,7.88-7.88v-12.39c0-.49-.03-.98-.1-1.48Z"/>
    <polygon class="cls-4" points="182.47 102.9 242.31 102.9 246.07 129.15 178.73 129.15 182.47 102.9"/>
    <rect class="cls-4" x="178.27" y="137.02" width="68.25" height="7.88"/>
    <path class="cls-5" d="m197.96,117.33h-2.62c-1.45,0-2.62,1.18-2.62,2.62v2.62c0,1.45,1.18,2.62,2.62,2.62h2.62c1.44,0,2.62-1.18,2.62-2.62v-2.62c0-1.44-1.18-2.62-2.62-2.62Z"/>
    <path class="cls-5" d="m192.71,109.46c0-1.44-1.18-2.62-2.62-2.62h-2.62c-1.45,0-2.62,1.18-2.62,2.62v2.62c0,1.44,1.18,2.62,2.62,2.62h2.62c1.44,0,2.62-1.18,2.62-2.62v-2.62Z"/>
    <path class="cls-5" d="m208.46,109.46c0-1.44-1.18-2.62-2.62-2.62h-2.62c-1.44,0-2.62,1.18-2.62,2.62v2.62c0,1.44,1.18,2.62,2.62,2.62h2.62c1.44,0,2.62-1.18,2.62-2.62v-2.62Z"/>
    <path class="cls-5" d="m229.46,117.33h-2.62c-1.44,0-2.62,1.18-2.62,2.62v2.62c0,1.45,1.18,2.62,2.62,2.62h2.62c1.44,0,2.62-1.18,2.62-2.62v-2.62c0-1.44-1.18-2.62-2.62-2.62Z"/>
    <path class="cls-5" d="m237.34,106.83h-2.62c-1.45,0-2.62,1.18-2.62,2.62v2.62c0,1.45,1.18,2.62,2.62,2.62h2.62c1.44,0,2.62-1.18,2.62-2.62v-2.62c0-1.44-1.18-2.62-2.62-2.62Z"/>
    <rect class="cls-6" x="183.52" y="76.65" width="31.5" height="5.25"/>
    <path class="cls-5" d="m224.21,109.46c0-1.44-1.18-2.62-2.62-2.62h-2.62c-1.45,0-2.62,1.18-2.62,2.62v2.62c0,1.44,1.18,2.62,2.62,2.62h2.62c1.44,0,2.62-1.18,2.62-2.62v-2.62Z"/>
    <path class="cls-5" d="m213.71,117.33h-2.62c-1.44,0-2.62,1.18-2.62,2.62v2.62c0,1.45,1.18,2.62,2.62,2.62h2.62c1.44,0,2.62-1.18,2.62-2.62v-2.62c0-1.44-1.18-2.62-2.62-2.62Z"/>
  </g>
  <path class="cls-5" d="m48.31,111.1c-5.43-4.39-12.37-3-16.47,1.88C23.41,123.18,12.32,129.73,0,132.07v26.88c19.01-1.74,36.24-10.83,48.92-26.18,5.67-6.85,4.8-17.32-.61-21.67Z"/>
  <g>
    <g>
      <path class="cls-1" d="m115.83,67.07l-68.39,5.33c-2.1.16-3.67,2-3.5,4.1l2.96,37.99c.16,2.1,2,3.67,4.1,3.5l68.39-5.32c2.1-.16,3.67-2,3.5-4.1l-2.96-37.99c-.16-2.1-2-3.67-4.1-3.51Z"/>
      <path class="cls-2" d="m52.44,112.14l-.59-7.6c4.2-.33,7.86,2.81,8.19,7.01l-7.6.59Z"/>
      <path class="cls-2" d="m50.37,85.54l-.59-7.6,7.6-.59c.33,4.2-2.81,7.86-7.01,8.19Z"/>
      <path class="cls-2" d="m117.04,107.11l-7.6.59c-.33-4.2,2.81-7.86,7.01-8.19l.59,7.6Z"/>
      <path class="cls-2" d="m114.97,80.51c-4.2.33-7.87-2.81-8.19-7.01l7.6-.59.59,7.6Z"/>
      <path class="cls-2" d="m84.44,105.83c-14.89,1.16-27.42-3.85-27.99-11.2-.57-7.34,11.04-14.24,25.92-15.4,14.89-1.16,27.43,3.85,28,11.2.57,7.34-11.04,14.24-25.93,15.4Z"/>
    </g>
    <rect class="cls-7" x="56.23" y="86.61" width="54.34" height="13.81" transform="translate(-7.01 6.75) rotate(-4.45)"/>
    <g class="cls-3">
      <path class="cls-1" d="m75.89,99.04l-.08-1.07c-.91-.03-1.66-.29-2.27-.77-.61-.48-.95-1.17-1.04-2.06l1.88-.15c.05.37.19.69.42.95.23.26.53.43.9.5l-.23-2.93c-.08-.02-.17-.04-.26-.06-.09-.02-.18-.04-.28-.06-.77-.2-1.37-.49-1.79-.87-.43-.38-.66-.9-.72-1.58-.07-.8.14-1.46.63-1.98.49-.53,1.15-.86,1.99-1l-.09-1.13.93-.07.09,1.14c.84.02,1.54.26,2.09.71s.87,1.07.96,1.85l-1.9.15c-.03-.27-.14-.51-.32-.72-.18-.21-.42-.36-.71-.43l.2,2.58c.08.02.15.04.23.06.08.02.15.04.23.06.49.13.95.29,1.37.48.42.19.76.46,1.03.81.27.35.43.81.47,1.38.04.48-.04.94-.25,1.37-.2.44-.52.81-.96,1.12-.44.31-.99.51-1.65.6l.08,1.06-.93.07Zm-1.63-8.37c.02.3.13.53.32.69.19.17.44.3.75.41l-.18-2.31c-.28.08-.51.22-.67.43s-.24.47-.21.77Zm3.46,4.43c-.03-.37-.16-.65-.4-.85-.24-.19-.54-.35-.9-.47l.21,2.64c.37-.08.65-.24.84-.47.2-.23.28-.51.25-.85Z"/>
      <path class="cls-1" d="m81.13,97.41l-.1-1.29c.55-.54,1.09-1.07,1.62-1.59.52-.53.99-1.04,1.39-1.55.4-.51.72-.99.95-1.46.23-.47.33-.92.29-1.34-.03-.4-.17-.74-.41-1.03-.24-.29-.61-.41-1.11-.38-.51.04-.88.24-1.11.59-.23.35-.33.77-.29,1.24l-1.72.13c-.04-.71.07-1.32.33-1.82.26-.5.62-.89,1.1-1.16.47-.28,1.01-.44,1.63-.48.99-.08,1.78.13,2.38.63.59.5.92,1.18.99,2.04.04.54-.04,1.07-.25,1.6-.21.53-.49,1.04-.85,1.55-.36.5-.76.98-1.19,1.43-.43.45-.85.87-1.26,1.25l4.21-.33.11,1.46-6.7.52Z"/>
      <path class="cls-1" d="m93.23,96.64c-.9.07-1.68-.08-2.35-.45-.67-.37-1.21-.92-1.62-1.65-.41-.73-.65-1.59-.73-2.59-.08-.99.03-1.88.32-2.67.29-.79.74-1.41,1.34-1.89.61-.47,1.36-.74,2.26-.81.9-.07,1.68.08,2.36.45s1.21.92,1.62,1.66c.41.73.65,1.59.72,2.59.08,1-.03,1.89-.32,2.67-.29.78-.74,1.41-1.34,1.88-.61.47-1.36.74-2.26.81Zm-.12-1.6c.73-.06,1.31-.41,1.72-1.06.42-.65.58-1.5.5-2.57-.08-1.06-.38-1.89-.89-2.46-.51-.58-1.13-.83-1.86-.78-.74.06-1.32.41-1.73,1.06s-.58,1.5-.49,2.57c.08,1.07.38,1.89.88,2.46.51.57,1.13.83,1.87.78Z"/>
    </g>
  </g>
  <path class="cls-5" d="m49.53,103.37c1.1-1.48,1.52-3.4.63-4.44-.87-1.04-3.18-.79-4.87.84-4.6,4.39-7.77,10.23-8.9,16.72-.41,2.42,1.59,4.23,4.08,3.99,2.5-.23,4.31-1.7,4.33-3.37.04-4.76,1.61-9.61,4.73-13.74Z"/>
</svg>