<?xml version="1.0" encoding="UTF-8"?>
<svg id="Layer_1" data-name="Layer 1" xmlns="http://www.w3.org/2000/svg" viewBox="0 0 300 225">
  <defs>
    <style>
      .cls-1 {
        fill: #84cd29;
      }

      .cls-2 {
        fill: #fff;
      }

      .cls-3, .cls-4 {
        isolation: isolate;
      }

      .cls-5 {
        fill: #d0dae3;
      }

      .cls-4 {
        opacity: .35;
      }

      .cls-6 {
        fill: #232323;
      }

      .cls-7 {
        fill: #444;
      }

      .cls-8 {
        fill: none;
      }

      .cls-9 {
        fill: #33b6e4;
      }

      .cls-10 {
        fill: #7f7f7f;
      }

      .cls-11 {
        fill: #cb1c5c;
      }

      .cls-12 {
        fill: #ffcf15;
      }
    </style>
  </defs>
  <g class="cls-4">
    <ellipse class="cls-6" cx="150.4" cy="195" rx="44.5" ry="7.2"/>
  </g>
  <g>
    <g>
      <path class="cls-6" d="m151.8,149.1c.2,1.3,4.3,37.5,10.5,42.6,6.2,5.1,9.4,3.4,10.7,2,1.3-1.4,3-3.9-.1-6.8-2.5-2.3-4.2-12.5-1.7-28.4l-19.4-9.4Z"/>
      <g>
        <path class="cls-6" d="m177.3,189.8c.8.2,1.6.1,1.9-.4.3-.5-.2-1.4-1.1-1.9-2.5-1.2-5.4-1.6-8.2-1.1-1.1.2-1.5,1.3-1,2.3s1.4,1.5,2.1,1.3c1.9-.7,4.1-.8,6.3-.2Z"/>
        <path class="cls-6" d="m176.1,194.3c.7.4,1.5.5,2,.1.4-.4.2-1.4-.5-2.1-2.1-1.9-4.7-3-7.6-3.3-1.1-.1-1.8.8-1.6,1.9.2,1.1.9,1.8,1.6,1.8,2-.1,4.2.4,6.1,1.6Z"/>
        <path class="cls-6" d="m172.7,197.7c.4.7,1.1,1.2,1.7,1,.6-.2.9-1.2.5-2.1-1-2.6-2.8-4.9-5.3-6.4-.9-.6-2-.1-2.3,1-.3,1,0,2,.6,2.3,2,.8,3.7,2.3,4.8,4.2Z"/>
      </g>
    </g>
    <g>
      <path class="cls-6" d="m148,148.8c-.2,1.3-4.5,37.5-10.6,42.5-6.2,5.1-9.4,3.3-10.7,2-1.3-1.4-3-4,.1-6.8,2.5-2.3,4.2-12.5,1.8-28.4l19.4-9.3Z"/>
      <g>
        <path class="cls-6" d="m123.4,189.8c-.8.2-1.6.1-1.9-.4s.2-1.4,1.1-1.9c2.5-1.2,5.4-1.6,8.2-1,1.1.2,1.5,1.3,1,2.3s-1.4,1.5-2.1,1.2c-1.9-.7-4.1-.8-6.3-.2Z"/>
        <path class="cls-6" d="m124.6,194.3c-.7.4-1.5.5-2,.1-.4-.4-.2-1.4.5-2.1,2.1-1.8,4.8-3,7.6-3.3,1.1-.1,1.8.9,1.6,1.9-.2,1.1-.9,1.8-1.6,1.8-2-.1-4.2.4-6.1,1.6Z"/>
        <path class="cls-6" d="m128,197.7c-.4.7-1.1,1.2-1.7,1s-.8-1.2-.5-2.1c1-2.6,2.9-4.8,5.3-6.4.9-.6,2-.1,2.3,1,.3,1,0,2-.6,2.3-2,.8-3.7,2.3-4.8,4.2Z"/>
      </g>
    </g>
  </g>
  <path class="cls-7" d="m182.8,130c-1.3-12.5-6.5-27.7-16.4-33.2-4.2-2.4-9.1-4.1-15.9-5.2-1.6.3-3.1.6-4.5.9-.2.1-.5.1-.7.2-.4.1-.8.2-1.2.3-.3.1-.5.1-.8.2-.4.1-.8.2-1.2.4-.2.1-.4.1-.6.2-.6.2-1.1.4-1.7.6-.2.1-.3.1-.5.2-.4.2-.8.3-1.2.5-.2.1-.4.2-.5.2-.4.2-.7.3-1.1.5-.2.1-.3.1-.5.2-.5.2-1,.5-1.5.8-10.6,5.9-15.8,22.9-16.7,35.8-.1,1.9-.1,3.7-.1,5.4,0,4.4.3,8,.8,10.2,0,.1.1.2.1.3,2.6,12,15.9,21.1,31.8,21.1,17.9,0,32.4-11.4,32.4-25.4v-.4c.3-3.8.3-8.6,0-13.8Z"/>
  <path class="cls-2" d="m174.4,95c-4.1-4.7-9.4-7-19.9-7.4h-6c-.7,0-1.3,0-1.9.1h-.2c-10.5.4-15.8,2.7-19.9,7.3-5.4,6.2-8.2,23.8-8.8,37.5.9-12.9,6.2-29.9,16.7-35.8,4.2-2.3,9.2-4,15.9-5.1,6.8,1.1,11.7,2.9,15.9,5.2,10.6,5.9,15.8,22.9,16.6,35.8-.3-13.8-3-31.4-8.4-37.6Z"/>
  <path class="cls-6" d="m130.3,100.1c1.8-2.2,4.9-2.8,7.3-.9,2.4,1.9,2.9,6.6.4,9.6-7.1,8.8-17.5,13.1-28.7,11.9-3.9-.4-6.9-4-6.5-7.1s3-4.8,5.8-4.5c8.4.8,16.3-2.4,21.7-9Z"/>
  <path class="cls-6" d="m98.5,112.9c-.8-.1-1.6-.5-1.7-1.1s.7-1.3,1.7-1.4c2.8-.3,5.7.4,8.2,1.9.9.6,1,1.8.1,2.5-.8.8-1.8.9-2.4.5-1.5-1.4-3.6-2.3-5.9-2.4Z"/>
  <path class="cls-6" d="m99.2,117.7c-.8.3-1.6.3-2-.2s0-1.5.9-2c2.4-1.5,5.3-2.3,8.2-2,1.1.1,1.7,1.1,1.3,2.2-.4,1.1-1.2,1.7-1.9,1.5-2.1-.6-4.4-.4-6.5.5Z"/>
  <path class="cls-6" d="m170.6,100.1c-1.8-2.2-4.9-2.8-7.3-.9-2.4,1.9-2.9,6.6-.4,9.6,7.1,8.8,17.5,13.1,28.7,11.9,3.9-.4,6.9-4,6.5-7.1-.4-3.1-3-4.8-5.8-4.5-8.5.8-16.3-2.4-21.7-9Z"/>
  <path class="cls-6" d="m201.7,116.3c.8-.1,1.7.1,1.9.6.2.6-.3,1.4-1.3,1.8-2.7.9-5.6,1-8.4.1-1-.3-1.4-1.5-.8-2.4.6-.9,1.5-1.4,2.2-1,1.9.9,4.1,1.3,6.4.9Z"/>
  <path class="cls-6" d="m201,111.6c.7-.4,1.6-.4,2,.1s.1,1.5-.8,2.1c-2.3,1.6-5.1,2.5-8.1,2.5-1.1,0-1.7-1.1-1.4-2.1.3-1.1,1.1-1.7,1.8-1.6,2.2.3,4.4,0,6.5-1Z"/>
  <path class="cls-2" d="m150.3,46.3c-5.8,0-12.5-2.3-16.3-3.3-4.5-1.1-6.6-1.2-9.9-1.2-10,0-13.1,5.2-13.9,7.4,6.6-20.2,27.4-23.1,39.8-23h1c12.3,0,33.2,2.9,39.7,23.2-.8-2.1-3.9-7.4-13.9-7.4-3.3,0-5.4,0-9.9,1.1-3.8,1-10.6,3.2-16.3,3.2h-.3Z"/>
  <path class="cls-7" d="m190.6,49.4h0c-.8-2.2-3.9-7.4-13.9-7.4-3.3,0-5.4,0-9.9,1.1-3.8,1-10.6,3.2-16.3,3.2h-.2c-5.8,0-12.5-2.3-16.3-3.3-4.5-1.1-6.6-1.2-9.9-1.2-10,0-13.1,5.2-13.9,7.4h0c-2.1,2-3.5,7.3-3.4,13.6.2,7.9,2.9,14.2,6,14.1h.2c7.2,14.5,26.9,21.2,37.2,21.2s30.2-6.6,37.5-21.1h.2c3.1.1,5.8-6.2,6.1-14.1.1-6.2-1.3-11.5-3.4-13.5Z"/>
  <path class="cls-10" d="m150.3,87.7c-5.2,0-16.3-4.9-16.3-15.5s12.3-11.4,16.4-11.4,16.4.9,16.3,11.5c0,10.6-11.2,15.4-16.4,15.4Z"/>
  <path class="cls-6" d="m150.6,63.5c2.3,0,5.6,2.4,6,5.1.4,2.8-6.2,2.7-6.2,2.7h-.2s-6.6.1-6.2-2.7c.4-2.8,3.8-5.1,6-5.1h.6Z"/>
  <g>
    <circle class="cls-6" cx="133.6" cy="55.4" r="2"/>
    <path class="cls-6" d="m169.1,55.5c0,1.1-.9,2-2,2s-2-.9-2-2,.9-2,2-2,2,.9,2,2Z"/>
  </g>
  <path class="cls-6" d="m186.3,53.9c2.5.1,4.6,4.9,5.4,11.7.1-.9.2-1.7.2-2.7.2-6.2-1.3-11.3-3.4-11.4-.9,0-1.7.9-2.3,2.3,0,.1.1.1.1.1Z"/>
  <path class="cls-6" d="m114.4,53.7c-2.5.1-4.6,4.9-5.4,11.7-.1-.9-.1-1.7-.2-2.7-.1-6.2,1.4-11.3,3.4-11.4.9,0,1.7.9,2.3,2.4,0,.1,0,0-.1,0Z"/>
  <path class="cls-10" d="m137.6,50.69c-.23,0-.45-.1-.61-.28-.38-.46-.86-.8-1.5-1.08-.68-.29-1.27-.44-1.79-.44-.68-.08-1.14.06-1.73.22l-.16.04c-.58.25-1.07.51-1.46.9-.31.31-.81.31-1.12,0-.31-.31-.31-.81,0-1.12.63-.63,1.39-.98,2.05-1.27l.25-.08c.67-.19,1.36-.39,2.26-.28.63,0,1.43.18,2.31.56.87.37,1.55.87,2.1,1.52.28.34.23.83-.1,1.11-.15.12-.33.18-.51.18Z"/>
  <path class="cls-10" d="m171.2,50.69c-.23,0-.45-.1-.61-.28-.38-.46-.86-.8-1.5-1.08-.68-.29-1.27-.44-1.79-.44h-.11c-.53-.08-1.13.09-1.77.27-.58.25-1.07.51-1.46.9-.31.31-.81.31-1.12,0-.31-.31-.31-.81,0-1.12.63-.63,1.39-.98,2.05-1.27.81-.24,1.62-.47,2.47-.36.72,0,1.49.19,2.36.56.87.37,1.55.87,2.1,1.52.28.34.23.83-.1,1.11-.15.12-.33.18-.51.18Z"/>
  <path class="cls-6" d="m150.3,83.12c-1.48,0-2.81-.41-3.67-.75-1.24-.56-2.19-1.21-3.04-2.06-.91-.91-1.64-1.98-2.06-3.04-.15-.37.03-.78.4-.93.37-.15.78.03.93.4.35.87.98,1.8,1.74,2.56.72.72,1.54,1.28,2.59,1.75.71.28,1.85.64,3.1.64,1.16,0,2.15-.2,3.1-.64.9-.36,1.83-.99,2.59-1.75.72-.72,1.28-1.54,1.75-2.59.16-.36.59-.52.95-.36.36.16.52.59.36.95-.55,1.21-1.2,2.16-2.05,3.01-.91.91-1.99,1.64-3.04,2.06-1.12.51-2.29.75-3.67.75Z"/>
  <path class="cls-2" d="m96.8,76l-40.9,4c-1.3.1-2.2,1.2-2.1,2.5l5.3,55.5c.1,1.3,1.2,2.2,2.5,2.1l40.9-4c1.3-.1,2.2-1.2,2.1-2.5l-5.3-55.6c-.2-1.2-1.3-2.1-2.5-2Z"/>
  <g>
    <path class="cls-5" d="m90.75,83.22l-27.32,2.44c-.6.09-1.01.59-.91,1.09l.09,1.4c.09.6.59,1.01,1.09.91l27.32-2.44c.6-.09,1.01-.59.91-1.09l-.09-1.4c-.09-.6-.59-1.01-1.09-.91Z"/>
    <path class="cls-5" d="m91.48,90.92l-27.32,2.34c-.6.09-1.01.59-.91,1.09l.09,1.4c.09.6.59,1.01,1.09.91l27.32-2.44c.6-.09,1.01-.59.91-1.09l-.09-1.4c-.1-.5-.49-.9-1.09-.81Z"/>
    <path class="cls-5" d="m92.2,98.33l-27.32,2.44c-.6.09-1.01.59-.91,1.09l.09,1.4c.09.6.59,1.01,1.09.91l27.32-2.44c.6-.09,1.01-.59.91-1.09l-.09-1.4c0-.6-.49-1-1.09-.91Z"/>
  </g>
  <path class="cls-6" d="m100.2,108.5c-.8-.3-1.4-.9-1.3-1.5s1-1.1,2-.9c2.8.5,5.4,1.9,7.4,4.1.7.8.4,2-.6,2.5s-2,.4-2.4-.2c-1.2-1.8-2.9-3.3-5.1-4Z"/>
  <g>
    <g>
      <g>
        <path class="cls-12" d="m203,113.1c-1.2-.4-2.6.2-3,1.5l-7.6,22.5c-.4,1.2.2,2.6,1.5,3l26.6,9,9.2-27-26.7-9Z"/>
        <g>
          <rect class="cls-2" x="215.89" y="131.95" width="28.5" height="10.8" transform="translate(25.98 310.98) rotate(-71.21)"/>
          <path class="cls-12" d="m237.3,152.4l7.6-22.5c.4-1.2-.2-2.6-1.5-3l-3.6-1.2-9.2,27,3.6,1.2c1.3.4,2.7-.3,3.1-1.5Z"/>
        </g>
      </g>
      <rect class="cls-8" x="201.71" y="118.69" width="17.2" height="27.4" transform="translate(17.24 288.85) rotate(-71.21)"/>
      <g class="cls-3">
        <path class="cls-2" d="m205.28,134.22l-1.25-.42.63-1.85,1.25.42,2.95-8.7,7.27,2.47-.69,2.03-4.84-1.65-.97,2.85,4.05,1.38-.69,2.03-4.05-1.38-.61,1.78,2.06.7-.63,1.85-2.06-.7-.51,1.49-2.42-.82.51-1.49Z"/>
      </g>
    </g>
    <g>
      <g>
        <path class="cls-9" d="m234.6,67.2l-40.5,13.6c-1.2.4-1.9,1.8-1.5,3l7.6,22.5c.4,1.2,1.8,1.9,3,1.5l40.5-13.6c1.2-.4,1.9-1.8,1.5-3l-7.6-22.5c-.4-1.2-1.8-1.9-3-1.5Z"/>
        <path class="cls-2" d="m203.2,104.1l-1.5-4.5c2.5-.8,5.2.5,6,3l-4.5,1.5Z"/>
        <path class="cls-2" d="m197.9,88.4l-1.5-4.5,4.5-1.5c.8,2.4-.6,5.1-3,6Z"/>
        <path class="cls-2" d="m241.4,91.2l-4.5,1.5c-.8-2.5.5-5.2,3-6l1.5,4.5Z"/>
        <path class="cls-2" d="m236.1,75.5c-2.5.8-5.2-.5-6-3l4.5-1.5,1.5,4.5Z"/>
      </g>
      <circle class="cls-2" cx="218.4" cy="87.5" r="8.4"/>
      <rect class="cls-8" x="201.9" y="82.3" width="33.8" height="10.7" transform="translate(-16.53 74.3) rotate(-18.58)"/>
      <g class="cls-3">
        <path class="cls-9" d="m219.76,82.33l-.58,4.16,1.5-.5.42,1.25-2.12.71,1.17,3.47-1.59.53-1.17-3.47-2.09.71-.42-1.25,1.47-.5-2.95-2.97,1.74-.58,1.94,2.03c.25.26.44.49.57.69-.01-.29,0-.59.04-.9l.34-2.79,1.74-.58Z"/>
      </g>
    </g>
    <g>
      <g>
        <path class="cls-1" d="m244.7,94l-42.7-.4c-1.3,0-2.4,1-2.4,2.4l-.2,23.7c0,1.3,1,2.4,2.4,2.4l42.7.4c1.3,0,2.4-1,2.4-2.4l.2-23.7c0-1.3-1.1-2.4-2.4-2.4Z"/>
        <path class="cls-2" d="m202.9,118.5v-4.7c2.6,0,4.7,2.2,4.7,4.8l-4.7-.1Z"/>
        <path class="cls-2" d="m203.1,101.9v-4.7h4.7c.1,2.7-2.1,4.8-4.7,4.7Z"/>
        <path class="cls-2" d="m243.3,118.9h-4.7c0-2.6,2.2-4.7,4.8-4.7l-.1,4.7Z"/>
        <path class="cls-2" d="m243.5,102.3c-2.6,0-4.7-2.2-4.7-4.8h4.8l-.1,4.8Z"/>
        <path class="cls-2" d="m223.1,116.4c-9.3-.1-16.8-3.9-16.8-8.5s7.6-8.2,16.9-8.1c9.3.1,16.8,3.9,16.8,8.5s-7.6,8.2-16.9,8.1Z"/>
      </g>
      <rect class="cls-8" x="217.85" y="91.19" width="10.7" height="33.9" transform="translate(112.9 330.28) rotate(-89.44)"/>
      <g class="cls-3">
        <path class="cls-1" d="m222.68,110.82l.02-2.5c-.78-.23-1.34-.57-1.7-1.03-.36-.45-.54-1-.53-1.65,0-.65.22-1.2.63-1.63.42-.44.97-.69,1.65-.75v-.59s.87,0,.87,0v.59c.62.08,1.12.3,1.5.66.37.36.6.84.7,1.43l-1.51.18c-.09-.47-.32-.79-.71-.96l-.02,2.33c.95.27,1.6.61,1.94,1.02.34.41.51.94.5,1.59,0,.72-.23,1.32-.67,1.81-.44.49-1.05.78-1.82.89v1.11s-.88,0-.88,0v-1.08c-.68-.09-1.23-.35-1.66-.79s-.69-1.04-.81-1.83l1.56-.15c.06.32.18.59.35.83.17.23.37.4.58.51Zm.06-6.26c-.24.08-.42.21-.56.4-.14.19-.21.4-.21.63,0,.21.06.41.18.59.13.18.32.33.57.44l.02-2.06Zm.8,6.35c.3-.05.54-.19.73-.41s.28-.48.29-.78c0-.27-.07-.5-.23-.69-.16-.19-.41-.35-.77-.45l-.02,2.32Z"/>
      </g>
    </g>
  </g>
  <path class="cls-6" d="m201.2,109.4c.8-.2,1.5-.7,1.5-1.4,0-.6-.9-1.2-1.9-1.1-2.8.2-5.6,1.3-7.8,3.3-.8.7-.6,1.9.3,2.5.9.6,2,.6,2.4.1,1.4-1.6,3.3-2.8,5.5-3.4Z"/>
  <g>
    <path class="cls-2" d="m91.31,118.12c.51-1,.42-2.2-.17-3.1-.79-1.11-.69-1.01-.78-2.31-.09-1.1-.68-2.11-1.67-2.62-1.19-.61-1.1-.51-1.78-1.62-.59-.91-1.69-1.52-2.79-1.43-1.3.09-1.2.09-2.4-.52-1-.51-2.2-.42-3.1.17-1.11.69-.91.69-2.31.78-1.1.09-2.11.68-2.62,1.67-.61,1.19-.51,1.1-1.62,1.78-.91.59-1.42,1.69-1.43,2.79.09,1.4.09,1.2-.52,2.4-.51,1-.42,2.2.17,3.1.79,1.11.69,1.01.78,2.31.09,1.1.68,2.11,1.67,2.62,1.19.61,1.1.51,1.78,1.62.2.4.59.61.89.91l-.57,6.89c0,.6.59,1.11,1.19.91,0,0-.2.1,2.71-.97l2.59,1.43c.2.1.5.1.7.11.3-.1.6-.39.61-.79l.57-7.59c.2-.2.5-.3.8-.29l4.94,5.85c.2.3.6.41.9.31.2-.1.4-.2.5-.5l1.23-2.59c3.01-.87,2.81-.77,2.81-.77.6-.19.81-.89.41-1.4l-4.45-5.34c.1-.4.21-.8.21-1.2.21-1.5.11-1.3.73-2.59h0Z"/>
    <path class="cls-11" d="m81.27,132.63c-1.59-.92-1.19-.61-2.09-1.12-.9.39-.5.2-2.21.78l.35-5.2h.1c1.2-.09,1.1-.09,1.9.32.7.41,1.5.41,2.2.22l-.25,5Z"/>
    <path class="cls-11" d="m92.92,127.24c-1.7.48-1.3.39-2.21.58-.41.9-.2.5-1.02,2.09l-3.16-3.83c.7-.29,1.21-.79,1.61-1.48.41-.8.31-.7,1.41-1.39l.1-.1,3.26,4.13h0Z"/>
    <path class="cls-11" d="m89.09,120.6c0,.5-.21,1-.61,1.19-1.11.69-1.41.79-2.02,2.08-.31.6-.91.89-1.51.69-1.1-.31-2.4.08-3.11.97-.4.5-1.11.59-1.6.28-1.19-.61-1.49-.61-2.8-.53-.5,0-.9-.21-1.19-.61-.89-1.51-.89-1.41-2.48-2.22-.4-.2-.69-.71-.79-1.21q-.08-1.7-1.07-3.21c-.3-.4-.29-.9-.09-1.4.82-1.59.81-1.49.63-3.29,0-.5.21-1,.61-1.19,1.51-.99,1.41-.89,2.22-2.48.2-.4.61-.69,1.11-.69q1.7-.08,3.11-.97c.4-.3.9-.29,1.3-.09,1.59.82,1.49.81,3.19.73.5,0,.9.21,1.19.61.89,1.51.89,1.41,2.48,2.22.4.2.69.71.79,1.21q.08,1.7,1.07,3.21c.3.4.29.9.09,1.4q-.62,1.59-.53,3.29h0Z"/>
    <path class="cls-2" d="m79.17,111.9c-2.81.87-4.34,3.86-3.36,6.67.87,2.81,3.86,4.34,6.67,3.36,2.81-.87,4.34-3.86,3.36-6.67-.87-2.71-3.86-4.24-6.67-3.36Zm2.72,8.33c-1.81.58-3.8-.44-4.38-2.24-.58-1.81.44-3.8,2.24-4.38,1.81-.58,3.8.44,4.38,2.24.58,1.81-.44,3.8-2.24,4.38Z"/>
  </g>
  <g>
    <path class="cls-1" d="m153.2,31.8c1.8-7.1,8.6-3.2,8.6-3.2,0,0-1.5,5-8.6,3.2Z"/>
    <path class="cls-1" d="m170.4,30.3h0c-.1.2-2.1,5.2-7.7,3.8,0,0,.1-5.1,5.6-4.3-2-.8-5-2.4-5.7-6.1,10.6-1,7.8,6.6,7.8,6.6Z"/>
    <path class="cls-1" d="m178.8,34.4c-.1.1-3.4,4.7-8.9,1.6,0,0,1.5-5.1,6.7-3.2-1.6-1.4-3.5-3.9-3.2-7.3,10.4,2.3,5.5,8.8,5.4,8.9Z"/>
    <path class="cls-1" d="m175.8,40.1s3.2-4.3,7.5-.6c-.9-2.1-1.6-5.4.4-8.6,8.6,7.2.8,10.8.8,10.8h0c-1.5.8-5.4,2.3-8.7-1.6Z"/>
  </g>
  <g>
    <path class="cls-1" d="m139.2,28.6s6.8-3.8,8.6,3.2c-7.1,1.8-8.6-3.2-8.6-3.2Z"/>
    <path class="cls-1" d="m138.4,23.6c-.8,3.7-3.7,5.3-5.7,6.1,5.5-.7,5.6,4.3,5.6,4.3-5.6,1.4-7.6-3.6-7.7-3.8h0c0,.1-2.8-7.5,7.8-6.6Z"/>
    <path class="cls-1" d="m127.6,25.5c.3,3.5-1.6,5.9-3.2,7.3,5.3-1.9,6.7,3.2,6.7,3.2-5.6,3.1-8.9-1.5-9-1.6,0-.1-4.9-6.6,5.5-8.9Z"/>
    <path class="cls-1" d="m116.5,41.8h0s-7.8-3.7.8-10.8c2,3.2,1.3,6.5.4,8.6,4.3-3.7,7.5.6,7.5.6-3.3,3.8-7.2,2.3-8.7,1.6Z"/>
  </g>
</svg>