<?xml version="1.0" encoding="UTF-8"?>
<svg id="Layer_1" data-name="Layer 1" xmlns="http://www.w3.org/2000/svg" viewBox="0 0 300 225">
  <defs>
    <style>
      .cls-1 {
        fill: #84cd29;
      }

      .cls-2 {
        fill: #fff;
      }

      .cls-3 {
        isolation: isolate;
      }

      .cls-4 {
        fill: #232323;
      }

      .cls-5 {
        fill: #444;
      }

      .cls-6 {
        fill: none;
      }

      .cls-7 {
        fill: #7f7f7f;
      }
    </style>
  </defs>
  <g>
    <path class="cls-2" d="m149.54,20.12c-5.78-.01-12.52-2.29-16.33-3.26-4.48-1.14-6.6-1.18-9.9-1.18-9.99-.02-13.07,5.22-13.92,7.35C115.98,2.78,136.84-.02,149.16,0h1.02c12.32.02,33.16,2.9,39.69,23.18-.84-2.14-3.9-7.39-13.89-7.41-3.3,0-5.43.02-9.91,1.15-3.82.96-10.57,3.21-16.35,3.2h-.17Z"/>
    <path class="cls-5" d="m189.82,23.2l.04-.02c-.84-2.14-3.9-7.39-13.89-7.41-3.3,0-5.43.02-9.91,1.15-3.82.96-10.57,3.21-16.35,3.2h-.17c-5.78-.01-12.52-2.29-16.33-3.26-4.48-1.14-6.6-1.18-9.9-1.18-9.99-.02-13.07,5.22-13.92,7.35l.03.02c-2.12,2.02-3.53,7.35-3.36,13.56.22,7.89,2.91,14.21,6,14.13.06,0,.11-.02.17-.03,7.16,14.47,26.85,21.21,37.19,21.23,10.34.02,30.19-6.65,37.46-21.1.06,0,.13.03.19.03,3.09.09,5.8-6.22,6.05-14.11.2-6.22-1.19-11.54-3.31-13.57Z"/>
    <path class="cls-7" d="m149.51,61.5c-5.22,0-16.31-4.87-16.28-15.5.02-10.62,12.25-11.44,16.37-11.44,4.12,0,16.36.87,16.34,11.5-.02,10.63-11.21,15.44-16.43,15.44Z"/>
    <path class="cls-4" d="m149.84,37.36c2.27,0,5.62,2.38,6.01,5.15.39,2.76-6.18,2.65-6.18,2.65h-.19s-6.57.09-6.17-2.68c.4-2.76,3.76-5.12,6.03-5.12h.49Z"/>
    <g>
      <circle class="cls-4" cx="132.86" cy="29.27" r="2.01"/>
      <path class="cls-4" d="m168.37,29.34c0,1.11-.9,2-2.01,2-1.1,0-2-.9-2-2.01,0-1.11.9-2.01,2.01-2,1.11,0,2.01.9,2,2.01Z"/>
    </g>
    <path class="cls-4" d="m185.56,27.7c2.55.1,4.61,4.9,5.38,11.69.09-.85.15-1.74.18-2.66.17-6.2-1.34-11.29-3.35-11.36-.86-.03-1.67.85-2.33,2.35.04,0,.08-.01.12-.01Z"/>
    <path class="cls-4" d="m113.67,27.57c-2.55.09-4.63,4.89-5.43,11.67-.09-.85-.15-1.74-.17-2.66-.14-6.2,1.38-11.28,3.4-11.35.85-.03,1.67.86,2.32,2.36-.04,0-.08-.01-.12-.01Z"/>
    <path class="cls-7" d="m136.73,24.44c-.21,0-.43-.09-.58-.26-.42-.46-.92-.82-1.5-1.08-.57-.26-1.18-.4-1.8-.41-.6-.01-1.19.08-1.76.3-.57.21-1.08.53-1.52.94-.32.3-.82.28-1.12-.04-.3-.32-.28-.82.04-1.12.59-.55,1.27-.97,2.03-1.26.75-.29,1.55-.42,2.35-.4.83.02,1.64.21,2.41.55.77.35,1.45.84,2.01,1.45.3.32.27.82-.05,1.12-.15.14-.34.21-.53.21Z"/>
    <path class="cls-7" d="m170.31,24.44c-.21,0-.43-.09-.58-.25-.42-.46-.93-.82-1.5-1.08-.57-.26-1.18-.4-1.8-.41-.61-.01-1.2.08-1.76.3-.57.22-1.08.53-1.52.94-.32.3-.82.28-1.12-.04-.3-.32-.28-.82.04-1.12.59-.55,1.27-.97,2.03-1.26.75-.29,1.55-.42,2.36-.4.83.02,1.64.21,2.41.55.77.35,1.44.84,2.01,1.45.3.32.28.82-.05,1.12-.15.14-.34.21-.54.21Z"/>
  </g>
  <rect class="cls-1" y="41" width="300" height="184"/>
  <g>
    <g>
      <path class="cls-1" d="m146.1,41l-42.73.04c-1.31,0-2.37,1.07-2.37,2.37l.02,23.7c0,1.31,1.07,2.37,2.38,2.37l42.73-.04c1.31,0,2.37-1.06,2.37-2.37l-.02-23.7c0-1.31-1.07-2.37-2.38-2.37Z"/>
      <path class="cls-2" d="m104.58,65.93v-4.74c2.62,0,4.75,2.12,4.75,4.74h-4.75Z"/>
      <path class="cls-2" d="m104.57,49.34v-4.74s4.74,0,4.74,0c0,2.62-2.12,4.74-4.74,4.75Z"/>
      <path class="cls-2" d="m144.94,65.89h-4.75c0-2.61,2.12-4.74,4.74-4.74v4.74Z"/>
      <path class="cls-2" d="m144.92,49.3c-2.62,0-4.75-2.12-4.76-4.74h4.75s0,4.74,0,4.74Z"/>
      <path class="cls-2" d="m124.76,63.54c-9.3,0-16.85-3.7-16.85-8.28,0-4.58,7.53-8.3,16.83-8.31,9.3-.01,16.85,3.7,16.86,8.28,0,4.58-7.53,8.3-16.84,8.31Z"/>
    </g>
    <rect class="cls-6" x="107.74" y="50.03" width="33.85" height="10.66" transform="translate(-.06 .14) rotate(-.06)"/>
    <g class="cls-3">
      <path class="cls-1" d="m124.6,60.37v-.94c-.79-.09-1.43-.36-1.93-.83-.5-.46-.75-1.08-.77-1.86h1.65c.02.32.12.61.3.85.18.24.43.41.75.5v-2.57c-.08-.02-.15-.05-.23-.07-.08-.02-.16-.05-.24-.07-.66-.23-1.16-.52-1.51-.88-.35-.36-.52-.83-.52-1.43,0-.7.22-1.26.68-1.69.46-.43,1.07-.67,1.81-.74v-.99s.82,0,.82,0v1c.73.07,1.33.33,1.78.76s.69.99.72,1.67h-1.67c0-.23-.08-.45-.23-.65s-.34-.34-.59-.42v2.27c.07.02.13.05.2.07.06.02.13.04.2.07.42.15.81.32,1.16.51.35.19.63.45.84.77.21.32.32.73.32,1.24,0,.42-.1.82-.31,1.18-.21.37-.51.67-.91.91-.4.24-.9.38-1.48.41v.93s-.82,0-.82,0Zm-.86-7.41c0,.26.08.47.23.63.15.16.36.29.62.41v-2.02c-.25.05-.46.16-.62.33-.16.17-.24.39-.24.66Zm2.73,4.09c0-.32-.1-.58-.29-.77-.2-.19-.45-.34-.76-.47v2.31c.33-.05.58-.17.77-.35.19-.19.28-.43.28-.72Z"/>
    </g>
  </g>
  <g>
    <g>
      <path class="cls-1" d="m196.6,41l-42.73.04c-1.31,0-2.37,1.07-2.37,2.37l.03,23.7c0,1.31,1.07,2.37,2.38,2.37l42.73-.04c1.31,0,2.37-1.06,2.37-2.37l-.02-23.7c0-1.31-1.07-2.37-2.38-2.37Z"/>
      <path class="cls-2" d="m155.08,65.93v-4.74c2.62,0,4.74,2.12,4.75,4.74h-4.75Z"/>
      <path class="cls-2" d="m155.07,49.34v-4.74s4.74,0,4.74,0c0,2.62-2.12,4.74-4.74,4.75Z"/>
      <path class="cls-2" d="m195.44,65.89h-4.75c0-2.61,2.12-4.74,4.74-4.74v4.74Z"/>
      <path class="cls-2" d="m195.42,49.3c-2.62,0-4.75-2.12-4.76-4.74h4.75s0,4.74,0,4.74Z"/>
      <path class="cls-2" d="m175.26,63.54c-9.3,0-16.85-3.7-16.85-8.28,0-4.58,7.53-8.3,16.83-8.31,9.31-.01,16.85,3.7,16.86,8.28,0,4.58-7.53,8.3-16.84,8.31Z"/>
    </g>
    <rect class="cls-6" x="158.24" y="50.02" width="33.85" height="10.66" transform="translate(-.06 .19) rotate(-.06)"/>
    <g class="cls-3">
      <path class="cls-1" d="m175.1,60.37v-.94c-.79-.09-1.43-.36-1.93-.83-.5-.46-.75-1.08-.77-1.86h1.65c.02.32.12.61.3.85.18.24.43.41.75.5v-2.57c-.08-.02-.15-.05-.23-.07s-.16-.05-.24-.07c-.66-.23-1.16-.52-1.51-.88-.35-.36-.52-.83-.52-1.43,0-.7.22-1.26.68-1.69.46-.43,1.07-.67,1.81-.74v-.99s.82,0,.82,0v1c.73.07,1.33.33,1.78.76s.69.99.72,1.67h-1.67c0-.23-.08-.45-.23-.65-.14-.2-.34-.34-.59-.42v2.27c.07.02.13.05.2.07.06.02.13.04.2.07.42.15.81.32,1.16.51.35.19.63.45.84.77.21.32.32.73.32,1.24,0,.42-.1.82-.31,1.18-.21.37-.51.67-.91.91-.4.24-.9.38-1.48.41v.93s-.82,0-.82,0Zm-.86-7.41c0,.26.08.47.23.63.15.16.36.29.62.41v-2.02c-.25.05-.46.16-.62.33-.16.17-.24.39-.24.66Zm2.73,4.09c0-.32-.1-.58-.29-.77-.2-.19-.45-.34-.76-.47v2.31c.33-.05.58-.17.77-.35.19-.19.28-.43.28-.72Z"/>
    </g>
  </g>
  <g>
    <g>
      <path class="cls-1" d="m247.1,41l-42.73.04c-1.31,0-2.37,1.07-2.37,2.37l.02,23.7c0,1.31,1.07,2.37,2.38,2.37l42.73-.04c1.31,0,2.37-1.06,2.37-2.37l-.02-23.7c0-1.31-1.07-2.37-2.38-2.37Z"/>
      <path class="cls-2" d="m205.58,65.93v-4.74c2.62,0,4.74,2.12,4.75,4.74h-4.75Z"/>
      <path class="cls-2" d="m205.56,49.34v-4.74s4.74,0,4.74,0c0,2.62-2.12,4.74-4.74,4.75Z"/>
      <path class="cls-2" d="m245.94,65.89h-4.75c0-2.61,2.12-4.74,4.75-4.74v4.74Z"/>
      <path class="cls-2" d="m245.92,49.3c-2.62,0-4.75-2.12-4.76-4.74h4.75s0,4.74,0,4.74Z"/>
      <path class="cls-2" d="m225.76,63.54c-9.3,0-16.85-3.7-16.85-8.28,0-4.58,7.53-8.3,16.83-8.31,9.31-.01,16.85,3.7,16.86,8.28,0,4.58-7.54,8.3-16.84,8.31Z"/>
    </g>
    <rect class="cls-6" x="208.74" y="50.02" width="33.85" height="10.66" transform="translate(-.06 .25) rotate(-.06)"/>
    <g class="cls-3">
      <path class="cls-1" d="m225.6,60.37v-.94c-.79-.09-1.43-.36-1.93-.83-.5-.46-.75-1.08-.77-1.86h1.65c.02.32.12.61.3.85.18.24.43.41.75.5v-2.57c-.08-.02-.15-.05-.23-.07-.08-.02-.16-.05-.24-.07-.66-.23-1.16-.52-1.51-.88s-.52-.83-.52-1.43c0-.7.22-1.26.68-1.69.46-.43,1.07-.67,1.81-.74v-.99s.82,0,.82,0v1c.73.07,1.33.33,1.78.76.45.43.69.99.72,1.67h-1.67c0-.23-.08-.45-.23-.65-.14-.2-.34-.34-.59-.42v2.27c.07.02.13.05.2.07.06.02.13.04.2.07.42.15.81.32,1.16.51.35.19.63.45.84.77.21.32.32.73.32,1.24,0,.42-.1.82-.31,1.18-.21.37-.51.67-.91.91-.4.24-.9.38-1.48.41v.93s-.82,0-.82,0Zm-.86-7.41c0,.26.08.47.23.63.15.16.36.29.62.41v-2.02c-.25.05-.46.16-.62.33-.16.17-.24.39-.24.66Zm2.73,4.09c0-.32-.1-.58-.29-.77-.2-.19-.45-.34-.76-.47v2.31c.33-.05.58-.17.77-.35.19-.19.28-.43.28-.72Z"/>
    </g>
  </g>
  <g>
    <path class="cls-1" d="m297.6,41l-42.73.04c-1.31,0-2.37,1.07-2.37,2.37l.03,23.7c0,1.31,1.07,2.37,2.38,2.37l42.73-.04c1.31,0,2.37-1.06,2.37-2.37l-.02-23.7c0-1.31-1.07-2.37-2.38-2.37Z"/>
    <path class="cls-2" d="m256.08,65.93v-4.74c2.62,0,4.74,2.12,4.75,4.74h-4.75Z"/>
    <path class="cls-2" d="m256.06,49.34v-4.74s4.74,0,4.74,0c0,2.62-2.12,4.74-4.74,4.75Z"/>
    <path class="cls-2" d="m296.44,65.89h-4.75c0-2.61,2.12-4.74,4.74-4.74v4.74Z"/>
    <path class="cls-2" d="m296.42,49.3c-2.62,0-4.75-2.12-4.76-4.74h4.75s0,4.74,0,4.74Z"/>
    <path class="cls-2" d="m276.26,63.54c-9.3,0-16.85-3.7-16.85-8.28,0-4.58,7.53-8.3,16.83-8.31,9.3-.01,16.85,3.7,16.86,8.28,0,4.58-7.53,8.3-16.84,8.31Z"/>
  </g>
  <rect class="cls-6" x="259.23" y="50.03" width="33.85" height="10.66" transform="translate(-.06 .3) rotate(-.06)"/>
  <g class="cls-3">
    <path class="cls-1" d="m276.09,60.37v-.94c-.79-.09-1.43-.36-1.93-.83-.5-.46-.75-1.08-.77-1.86h1.65c.02.32.12.61.3.85.18.24.43.41.75.5v-2.57c-.08-.02-.15-.05-.23-.07-.08-.02-.16-.05-.24-.07-.66-.23-1.16-.52-1.51-.88-.35-.36-.52-.83-.52-1.43,0-.7.22-1.26.68-1.69.46-.43,1.06-.67,1.8-.74v-.99s.82,0,.82,0v1c.73.07,1.32.33,1.78.76.45.43.69.99.72,1.67h-1.67c0-.23-.08-.45-.23-.65-.14-.2-.34-.34-.59-.42v2.27c.07.02.13.05.2.07.07.02.13.04.2.07.42.15.81.32,1.16.51.35.19.63.45.84.77.21.32.32.73.32,1.24,0,.42-.1.82-.31,1.18-.21.37-.51.67-.91.91-.4.24-.9.38-1.48.41v.93s-.82,0-.82,0Zm-.86-7.41c0,.26.08.47.23.63s.36.29.62.41v-2.02c-.25.05-.46.16-.62.33-.16.17-.24.39-.24.66Zm2.73,4.09c0-.32-.1-.58-.29-.77-.2-.19-.45-.34-.76-.47v2.31c.33-.05.58-.17.77-.35.19-.19.28-.43.28-.72Z"/>
  </g>
  <g>
    <g>
      <path class="cls-1" d="m95.6,72.1l-42.73.05c-1.31,0-2.37,1.07-2.37,2.37l.03,23.7c0,1.31,1.07,2.37,2.38,2.37l42.73-.04c1.31,0,2.37-1.06,2.37-2.37l-.02-23.7c0-1.31-1.06-2.37-2.37-2.37Z"/>
      <path class="cls-2" d="m54.08,97.03v-4.74c2.62,0,4.75,2.12,4.75,4.73h-4.75Z"/>
      <path class="cls-2" d="m54.07,80.44v-4.74s4.74,0,4.74,0c0,2.62-2.12,4.74-4.74,4.75Z"/>
      <path class="cls-2" d="m94.44,96.99h-4.75c0-2.61,2.12-4.74,4.74-4.74v4.74Z"/>
      <path class="cls-2" d="m94.43,80.4c-2.62,0-4.75-2.12-4.75-4.74h4.75s0,4.74,0,4.74Z"/>
      <path class="cls-2" d="m74.26,94.64c-9.3,0-16.85-3.7-16.85-8.28,0-4.58,7.53-8.3,16.83-8.31,9.31-.01,16.85,3.7,16.86,8.28,0,4.58-7.54,8.3-16.84,8.31Z"/>
    </g>
    <rect class="cls-6" x="57.24" y="81.13" width="33.85" height="10.66" transform="translate(-.1 .08) rotate(-.06)"/>
    <g class="cls-3">
      <path class="cls-1" d="m74.1,91.47v-.94c-.79-.09-1.43-.36-1.93-.83-.5-.46-.75-1.08-.77-1.86h1.65c.02.32.12.61.3.85.18.24.43.41.75.5v-2.57c-.08-.02-.15-.05-.23-.07-.08-.02-.16-.05-.24-.07-.66-.23-1.16-.52-1.51-.88-.35-.36-.52-.83-.52-1.43,0-.7.22-1.26.68-1.69.46-.43,1.07-.67,1.81-.74v-.99s.82,0,.82,0v1c.73.07,1.33.33,1.78.76s.69.99.72,1.67h-1.67c0-.23-.08-.45-.23-.65-.14-.2-.34-.34-.59-.42v2.27c.07.02.13.05.2.07.06.02.13.04.2.07.42.15.81.32,1.16.51.35.2.63.45.84.77.21.32.32.73.32,1.24,0,.42-.1.82-.31,1.18-.21.37-.51.67-.91.91-.4.24-.9.38-1.48.41v.93s-.82,0-.82,0Zm-.86-7.41c0,.26.08.47.23.63.15.16.36.29.62.41v-2.02c-.25.05-.46.16-.62.33-.16.17-.24.39-.24.66Zm2.73,4.09c0-.32-.1-.58-.29-.77-.2-.19-.45-.34-.76-.47v2.31c.33-.05.58-.17.77-.35.19-.19.28-.43.28-.72Z"/>
    </g>
  </g>
  <g>
    <g>
      <path class="cls-1" d="m146.1,72.1l-42.73.05c-1.31,0-2.37,1.07-2.37,2.37l.02,23.7c0,1.31,1.07,2.37,2.38,2.37l42.73-.04c1.31,0,2.37-1.06,2.37-2.37l-.02-23.7c0-1.31-1.07-2.37-2.38-2.37Z"/>
      <path class="cls-2" d="m104.58,97.03v-4.74c2.62,0,4.75,2.12,4.75,4.73h-4.75Z"/>
      <path class="cls-2" d="m104.57,80.44v-4.74s4.74,0,4.74,0c0,2.62-2.12,4.74-4.74,4.75Z"/>
      <path class="cls-2" d="m144.94,96.99h-4.75c0-2.61,2.12-4.74,4.74-4.74v4.74Z"/>
      <path class="cls-2" d="m144.92,80.4c-2.62,0-4.75-2.12-4.76-4.74h4.75s0,4.74,0,4.74Z"/>
      <path class="cls-2" d="m124.76,94.64c-9.3,0-16.85-3.7-16.85-8.28,0-4.58,7.53-8.3,16.83-8.31,9.3-.01,16.85,3.7,16.86,8.28,0,4.58-7.53,8.3-16.84,8.31Z"/>
    </g>
    <rect class="cls-6" x="107.74" y="81.13" width="33.85" height="10.66" transform="translate(-.1 .14) rotate(-.06)"/>
    <g class="cls-3">
      <path class="cls-1" d="m124.6,91.47v-.94c-.79-.09-1.43-.36-1.93-.83-.5-.46-.75-1.08-.77-1.86h1.65c.02.32.12.61.3.85.18.24.43.41.75.5v-2.57c-.08-.02-.15-.05-.23-.07-.08-.02-.16-.05-.24-.07-.66-.23-1.16-.52-1.51-.88-.35-.36-.52-.83-.52-1.42,0-.7.22-1.26.68-1.69.46-.43,1.07-.67,1.81-.74v-.99s.82,0,.82,0v1c.73.07,1.33.33,1.78.76s.69.99.72,1.67h-1.67c0-.23-.08-.45-.23-.65s-.34-.34-.59-.42v2.27c.07.02.13.05.2.07.06.02.13.04.2.07.42.15.81.32,1.16.51.35.19.63.45.84.77.21.32.32.73.32,1.24,0,.42-.1.82-.31,1.18-.21.37-.51.67-.91.91-.4.24-.9.38-1.48.41v.93s-.82,0-.82,0Zm-.86-7.41c0,.26.08.47.23.63.15.16.36.29.62.41v-2.02c-.25.05-.46.16-.62.33-.16.17-.24.39-.24.66Zm2.73,4.09c0-.32-.1-.58-.29-.77-.2-.19-.45-.34-.76-.47v2.31c.33-.05.58-.17.77-.35.19-.19.28-.43.28-.72Z"/>
    </g>
  </g>
  <g>
    <g>
      <path class="cls-1" d="m196.6,72.1l-42.73.05c-1.31,0-2.37,1.07-2.37,2.37l.03,23.7c0,1.31,1.07,2.37,2.38,2.37l42.73-.04c1.31,0,2.37-1.06,2.37-2.37l-.02-23.7c0-1.31-1.07-2.37-2.38-2.37Z"/>
      <path class="cls-2" d="m155.08,97.03v-4.74c2.62,0,4.74,2.12,4.75,4.73h-4.75Z"/>
      <path class="cls-2" d="m155.07,80.44v-4.74s4.74,0,4.74,0c0,2.62-2.12,4.74-4.74,4.75Z"/>
      <path class="cls-2" d="m195.44,96.99h-4.75c0-2.61,2.12-4.74,4.74-4.74v4.74Z"/>
      <path class="cls-2" d="m195.42,80.4c-2.62,0-4.75-2.12-4.76-4.74h4.75s0,4.74,0,4.74Z"/>
      <path class="cls-2" d="m175.26,94.64c-9.3,0-16.85-3.7-16.85-8.28,0-4.58,7.53-8.3,16.83-8.31,9.31-.01,16.85,3.7,16.86,8.28,0,4.58-7.53,8.3-16.84,8.31Z"/>
    </g>
    <rect class="cls-6" x="158.24" y="81.13" width="33.85" height="10.66" transform="translate(-.1 .19) rotate(-.06)"/>
    <g class="cls-3">
      <path class="cls-1" d="m175.1,91.47v-.94c-.79-.09-1.43-.36-1.93-.83-.5-.46-.75-1.08-.77-1.86h1.65c.02.32.12.61.3.85.18.24.43.41.75.5v-2.57c-.08-.02-.15-.05-.23-.07-.08-.02-.16-.05-.24-.07-.66-.23-1.16-.52-1.51-.88-.35-.36-.52-.83-.52-1.43,0-.7.22-1.26.68-1.69.46-.43,1.07-.67,1.81-.74v-.99s.82,0,.82,0v1c.73.07,1.33.33,1.78.76s.69.99.72,1.67h-1.67c0-.23-.08-.45-.23-.65-.14-.2-.34-.34-.59-.42v2.27c.07.02.13.05.2.07.06.02.13.04.2.07.42.15.81.32,1.16.51.35.19.63.45.84.77.21.32.32.73.32,1.24,0,.42-.1.82-.31,1.18s-.51.67-.91.91c-.4.24-.9.38-1.48.41v.93s-.82,0-.82,0Zm-.86-7.41c0,.26.08.47.23.63.15.16.36.29.62.41v-2.02c-.25.05-.46.16-.62.33-.16.17-.24.39-.24.66Zm2.73,4.09c0-.32-.1-.58-.29-.77-.2-.19-.45-.34-.76-.47v2.31c.33-.05.58-.17.77-.35.19-.19.28-.43.28-.72Z"/>
    </g>
  </g>
  <g>
    <g>
      <path class="cls-1" d="m247.1,72.1l-42.73.05c-1.31,0-2.37,1.07-2.37,2.37l.02,23.7c0,1.31,1.07,2.37,2.38,2.37l42.73-.04c1.31,0,2.37-1.06,2.37-2.37l-.02-23.7c0-1.31-1.07-2.37-2.38-2.37Z"/>
      <path class="cls-2" d="m205.58,97.03v-4.74c2.62,0,4.74,2.12,4.75,4.73h-4.75Z"/>
      <path class="cls-2" d="m205.56,80.44v-4.74s4.74,0,4.74,0c0,2.62-2.12,4.74-4.74,4.75Z"/>
      <path class="cls-2" d="m245.94,96.99h-4.75c0-2.61,2.12-4.74,4.75-4.74v4.74Z"/>
      <path class="cls-2" d="m245.92,80.4c-2.62,0-4.75-2.12-4.76-4.74h4.75s0,4.74,0,4.74Z"/>
      <path class="cls-2" d="m225.76,94.64c-9.3,0-16.85-3.7-16.85-8.28,0-4.58,7.53-8.3,16.83-8.31,9.31-.01,16.85,3.7,16.86,8.28,0,4.58-7.54,8.3-16.84,8.31Z"/>
    </g>
    <rect class="cls-6" x="208.73" y="81.13" width="33.85" height="10.66" transform="translate(-.09 .25) rotate(-.06)"/>
    <g class="cls-3">
      <path class="cls-1" d="m225.59,91.47v-.94c-.79-.09-1.43-.36-1.93-.83-.5-.46-.75-1.08-.77-1.86h1.65c.02.32.12.61.3.85.18.24.43.41.75.5v-2.57c-.08-.02-.15-.05-.23-.07-.08-.02-.16-.05-.24-.07-.66-.23-1.16-.52-1.51-.88s-.52-.83-.52-1.43c0-.7.22-1.26.68-1.69.46-.43,1.07-.67,1.81-.74v-.99s.82,0,.82,0v1c.73.07,1.33.33,1.78.76s.69.99.72,1.67h-1.67c0-.23-.08-.45-.23-.65-.14-.2-.34-.34-.59-.42v2.27c.07.02.13.05.2.07.06.02.13.04.2.07.42.15.81.32,1.16.51.35.19.63.45.84.77.21.32.32.73.32,1.24,0,.42-.1.82-.31,1.18-.21.37-.51.67-.91.91-.4.24-.9.38-1.48.41v.93s-.82,0-.82,0Zm-.86-7.41c0,.26.08.47.23.63.15.16.36.29.62.41v-2.02c-.25.05-.46.16-.62.33-.16.17-.24.39-.24.66Zm2.73,4.09c0-.32-.1-.58-.29-.77-.2-.19-.45-.34-.76-.47v2.31c.33-.05.58-.17.77-.35.19-.19.28-.43.28-.72Z"/>
    </g>
  </g>
  <g>
    <g>
      <path class="cls-1" d="m297.6,72.1l-42.73.05c-1.31,0-2.37,1.07-2.37,2.37l.03,23.7c0,1.31,1.07,2.37,2.38,2.37l42.73-.04c1.31,0,2.37-1.06,2.37-2.37l-.02-23.7c0-1.31-1.07-2.37-2.38-2.37Z"/>
      <path class="cls-2" d="m256.08,97.03v-4.74c2.62,0,4.74,2.12,4.75,4.73h-4.75Z"/>
      <path class="cls-2" d="m256.06,80.44v-4.74s4.74,0,4.74,0c0,2.62-2.12,4.74-4.74,4.75Z"/>
      <path class="cls-2" d="m296.44,96.99h-4.75c0-2.61,2.12-4.74,4.74-4.74v4.74Z"/>
      <path class="cls-2" d="m296.42,80.4c-2.62,0-4.75-2.12-4.76-4.74h4.75s0,4.74,0,4.74Z"/>
      <path class="cls-2" d="m276.26,94.64c-9.3,0-16.85-3.7-16.85-8.28,0-4.58,7.53-8.3,16.83-8.31,9.3-.01,16.85,3.7,16.86,8.28,0,4.58-7.53,8.3-16.84,8.31Z"/>
    </g>
    <rect class="cls-6" x="259.23" y="81.13" width="33.85" height="10.66" transform="translate(-.09 .3) rotate(-.06)"/>
    <g class="cls-3">
      <path class="cls-1" d="m276.09,91.47v-.94c-.79-.09-1.43-.36-1.93-.83-.5-.46-.75-1.08-.77-1.86h1.65c.02.32.12.61.3.85.18.24.43.41.75.5v-2.57c-.08-.02-.15-.05-.23-.07-.08-.02-.16-.05-.24-.07-.66-.23-1.16-.52-1.51-.88-.35-.36-.52-.83-.52-1.43,0-.7.22-1.26.68-1.69.46-.43,1.06-.67,1.8-.74v-.99s.82,0,.82,0v1c.73.07,1.32.33,1.78.76.45.43.69.99.72,1.67h-1.67c0-.23-.08-.45-.23-.65-.14-.2-.34-.34-.59-.42v2.27c.07.02.13.05.2.07.07.02.13.04.2.07.42.15.81.32,1.16.51.35.2.63.45.84.77.21.32.32.73.32,1.24,0,.42-.1.82-.31,1.18-.21.37-.51.67-.91.91-.4.24-.9.38-1.48.41v.93s-.82,0-.82,0Zm-.86-7.41c0,.26.08.47.23.63s.36.29.62.41v-2.02c-.25.05-.46.16-.62.33-.16.17-.24.39-.24.66Zm2.73,4.09c0-.32-.1-.58-.29-.77-.2-.19-.45-.34-.76-.47v2.31c.33-.05.58-.17.77-.35.19-.19.28-.43.28-.72Z"/>
    </g>
  </g>
  <g>
    <g>
      <path class="cls-1" d="m95.6,103.2l-42.73.05c-1.31,0-2.37,1.06-2.37,2.37l.03,23.7c0,1.31,1.07,2.37,2.38,2.37l42.73-.05c1.31,0,2.37-1.06,2.37-2.37l-.02-23.7c0-1.31-1.06-2.37-2.37-2.37Z"/>
      <path class="cls-2" d="m54.08,128.13v-4.74c2.62,0,4.75,2.12,4.75,4.73h-4.75Z"/>
      <path class="cls-2" d="m54.07,111.54v-4.74s4.74,0,4.74,0c0,2.62-2.12,4.74-4.74,4.75Z"/>
      <path class="cls-2" d="m94.44,128.09h-4.75c0-2.61,2.12-4.74,4.74-4.74v4.74Z"/>
      <path class="cls-2" d="m94.43,111.5c-2.62,0-4.75-2.12-4.75-4.74h4.75s0,4.74,0,4.74Z"/>
      <path class="cls-2" d="m74.26,125.74c-9.3,0-16.85-3.7-16.85-8.28,0-4.58,7.53-8.3,16.83-8.31,9.31,0,16.85,3.7,16.86,8.28,0,4.58-7.54,8.3-16.84,8.31Z"/>
    </g>
    <rect class="cls-6" x="57.24" y="112.24" width="33.85" height="10.66" transform="translate(-.13 .08) rotate(-.06)"/>
    <g class="cls-3">
      <path class="cls-1" d="m74.1,122.57v-.94c-.79-.09-1.43-.36-1.93-.83-.5-.46-.75-1.08-.77-1.86h1.65c.02.32.12.61.3.85.18.24.43.41.75.5v-2.57c-.08-.02-.15-.05-.23-.07-.08-.02-.16-.05-.24-.07-.66-.23-1.16-.52-1.51-.88-.35-.36-.52-.83-.52-1.43,0-.7.22-1.26.68-1.69.46-.43,1.07-.67,1.81-.74v-.99s.82,0,.82,0v1c.73.07,1.33.33,1.78.76s.69.99.72,1.67h-1.67c0-.23-.08-.45-.23-.65s-.34-.34-.59-.42v2.27c.07.02.13.05.2.07.06.02.13.04.2.07.42.15.81.32,1.16.51.35.2.63.45.84.77.21.32.32.73.32,1.24,0,.42-.1.82-.31,1.18-.21.37-.51.67-.91.91-.4.24-.9.38-1.48.41v.93s-.82,0-.82,0Zm-.86-7.41c0,.26.08.47.23.63.15.16.36.29.62.41v-2.02c-.25.05-.46.16-.62.33-.16.17-.24.39-.24.66Zm2.73,4.09c0-.32-.1-.58-.29-.77-.2-.19-.45-.34-.76-.47v2.31c.33-.05.58-.17.77-.35.19-.19.28-.43.28-.72Z"/>
    </g>
  </g>
  <g>
    <g>
      <path class="cls-1" d="m146.1,103.2l-42.73.05c-1.31,0-2.37,1.06-2.37,2.37l.02,23.7c0,1.31,1.07,2.37,2.38,2.37l42.73-.05c1.31,0,2.37-1.06,2.37-2.37l-.02-23.7c0-1.31-1.07-2.37-2.38-2.37Z"/>
      <path class="cls-2" d="m104.58,128.13v-4.74c2.62,0,4.75,2.12,4.75,4.73h-4.75Z"/>
      <path class="cls-2" d="m104.57,111.54v-4.74s4.74,0,4.74,0c0,2.62-2.12,4.74-4.74,4.75Z"/>
      <path class="cls-2" d="m144.94,128.09h-4.75c0-2.61,2.12-4.74,4.74-4.74v4.74Z"/>
      <path class="cls-2" d="m144.92,111.5c-2.62,0-4.75-2.12-4.76-4.74h4.75s0,4.74,0,4.74Z"/>
      <path class="cls-2" d="m124.76,125.74c-9.3,0-16.85-3.7-16.85-8.28,0-4.58,7.53-8.3,16.83-8.31,9.3,0,16.85,3.7,16.86,8.28,0,4.58-7.53,8.3-16.84,8.31Z"/>
    </g>
    <rect class="cls-6" x="107.74" y="112.24" width="33.85" height="10.66" transform="translate(-.13 .14) rotate(-.06)"/>
    <g class="cls-3">
      <path class="cls-1" d="m124.6,122.57v-.94c-.79-.09-1.43-.36-1.93-.83-.5-.46-.75-1.08-.77-1.86h1.65c.02.32.12.61.3.85.18.24.43.41.75.5v-2.57c-.08-.02-.15-.05-.23-.07-.08-.02-.16-.05-.24-.07-.66-.23-1.16-.52-1.51-.88-.35-.36-.52-.83-.52-1.42,0-.7.22-1.26.68-1.69.46-.43,1.07-.67,1.81-.74v-.99s.82,0,.82,0v1c.73.07,1.33.33,1.78.76s.69.99.72,1.67h-1.67c0-.23-.08-.45-.23-.65s-.34-.34-.59-.42v2.27c.07.02.13.05.2.07.06.02.13.04.2.07.42.15.81.32,1.16.51.35.19.63.45.84.77.21.32.32.73.32,1.24,0,.42-.1.82-.31,1.18-.21.37-.51.67-.91.91-.4.24-.9.38-1.48.41v.93s-.82,0-.82,0Zm-.86-7.41c0,.26.08.47.23.63.15.16.36.29.62.41v-2.02c-.25.05-.46.16-.62.33-.16.17-.24.39-.24.66Zm2.73,4.09c0-.32-.1-.58-.29-.77-.2-.19-.45-.34-.76-.47v2.31c.33-.05.58-.17.77-.35.19-.19.28-.43.28-.72Z"/>
    </g>
  </g>
  <g>
    <g>
      <path class="cls-1" d="m196.6,103.2l-42.73.05c-1.31,0-2.37,1.06-2.37,2.37l.03,23.7c0,1.31,1.07,2.37,2.38,2.37l42.73-.05c1.31,0,2.37-1.06,2.37-2.37l-.02-23.7c0-1.31-1.07-2.37-2.38-2.37Z"/>
      <path class="cls-2" d="m155.08,128.13v-4.74c2.62,0,4.74,2.12,4.75,4.73h-4.75Z"/>
      <path class="cls-2" d="m155.07,111.54v-4.74s4.74,0,4.74,0c0,2.62-2.12,4.74-4.74,4.75Z"/>
      <path class="cls-2" d="m195.44,128.09h-4.75c0-2.61,2.12-4.74,4.74-4.74v4.74Z"/>
      <path class="cls-2" d="m195.42,111.5c-2.62,0-4.75-2.12-4.76-4.74h4.75s0,4.74,0,4.74Z"/>
      <path class="cls-2" d="m175.26,125.74c-9.3,0-16.85-3.7-16.85-8.28,0-4.58,7.53-8.3,16.83-8.31,9.31,0,16.85,3.7,16.86,8.28,0,4.58-7.53,8.3-16.84,8.31Z"/>
    </g>
    <rect class="cls-6" x="158.23" y="112.24" width="33.85" height="10.66" transform="translate(-.13 .19) rotate(-.06)"/>
    <g class="cls-3">
      <path class="cls-1" d="m175.1,122.57v-.94c-.79-.09-1.43-.36-1.93-.83-.5-.46-.75-1.08-.77-1.86h1.65c.02.32.12.61.3.85.18.24.43.41.75.5v-2.57c-.08-.02-.15-.05-.23-.07-.08-.02-.16-.05-.24-.07-.66-.23-1.16-.52-1.51-.88-.35-.36-.52-.83-.52-1.43,0-.7.22-1.26.68-1.69.46-.43,1.07-.67,1.81-.74v-.99s.82,0,.82,0v1c.73.07,1.33.33,1.78.76.45.43.69.99.72,1.67h-1.67c0-.23-.08-.45-.23-.65-.14-.2-.34-.34-.59-.42v2.27c.07.02.13.05.2.07.06.02.13.04.2.07.42.15.81.32,1.16.51.35.19.63.45.84.77.21.32.32.73.32,1.24,0,.42-.1.82-.31,1.18-.21.37-.51.67-.91.91-.4.24-.9.38-1.48.41v.93s-.82,0-.82,0Zm-.86-7.41c0,.26.08.47.23.63.15.16.36.29.62.41v-2.02c-.25.05-.46.16-.62.33-.16.17-.24.39-.24.66Zm2.73,4.09c0-.32-.1-.58-.29-.77-.2-.19-.45-.34-.76-.47v2.31c.33-.05.58-.17.77-.35.19-.19.28-.43.28-.72Z"/>
    </g>
  </g>
  <g>
    <g>
      <path class="cls-1" d="m247.1,103.2l-42.73.05c-1.31,0-2.37,1.06-2.37,2.37l.02,23.7c0,1.31,1.07,2.37,2.38,2.37l42.73-.05c1.31,0,2.37-1.06,2.37-2.37l-.02-23.7c0-1.31-1.07-2.37-2.38-2.37Z"/>
      <path class="cls-2" d="m205.58,128.13v-4.74c2.62,0,4.74,2.12,4.75,4.73h-4.75Z"/>
      <path class="cls-2" d="m205.56,111.54v-4.74s4.74,0,4.74,0c0,2.62-2.12,4.74-4.74,4.75Z"/>
      <path class="cls-2" d="m245.94,128.09h-4.75c0-2.61,2.12-4.74,4.75-4.74v4.74Z"/>
      <path class="cls-2" d="m245.92,111.5c-2.62,0-4.75-2.12-4.76-4.74h4.75s0,4.74,0,4.74Z"/>
      <path class="cls-2" d="m225.76,125.74c-9.3,0-16.85-3.7-16.85-8.28,0-4.58,7.53-8.3,16.83-8.31,9.31,0,16.85,3.7,16.86,8.28,0,4.58-7.54,8.3-16.84,8.31Z"/>
    </g>
    <rect class="cls-6" x="208.74" y="112.22" width="33.85" height="10.66" transform="translate(-.13 .25) rotate(-.06)"/>
    <g class="cls-3">
      <path class="cls-1" d="m225.59,122.57v-.94c-.79-.09-1.43-.36-1.93-.83-.5-.46-.75-1.08-.77-1.86h1.65c.02.32.12.61.3.85.18.24.43.41.75.5v-2.57c-.08-.02-.15-.05-.23-.07-.08-.02-.16-.05-.24-.07-.66-.23-1.16-.52-1.51-.88-.35-.36-.52-.83-.52-1.43,0-.7.22-1.26.68-1.69.46-.43,1.06-.67,1.81-.74v-.99s.82,0,.82,0v1c.73.07,1.33.33,1.78.76s.69.99.72,1.67h-1.67c0-.23-.08-.45-.23-.65-.14-.2-.34-.34-.59-.42v2.27c.07.02.13.05.2.07.06.02.13.04.2.07.42.15.81.32,1.16.51.35.19.63.45.84.77.21.32.32.73.32,1.24,0,.42-.1.82-.31,1.18-.21.37-.51.67-.91.91-.4.24-.9.38-1.48.41v.93s-.82,0-.82,0Zm-.86-7.41c0,.26.08.47.23.63.15.16.36.29.62.41v-2.02c-.25.05-.46.16-.62.33-.16.17-.24.39-.24.66Zm2.73,4.09c0-.32-.1-.58-.29-.77-.2-.19-.45-.34-.76-.47v2.31c.33-.05.58-.17.77-.35.19-.19.28-.43.28-.72Z"/>
    </g>
  </g>
  <g>
    <g>
      <path class="cls-1" d="m297.6,103.2l-42.73.05c-1.31,0-2.37,1.06-2.37,2.37l.03,23.7c0,1.31,1.07,2.37,2.38,2.37l42.73-.05c1.31,0,2.37-1.06,2.37-2.37l-.02-23.7c0-1.31-1.07-2.37-2.38-2.37Z"/>
      <path class="cls-2" d="m256.08,128.13v-4.74c2.62,0,4.74,2.12,4.75,4.73h-4.75Z"/>
      <path class="cls-2" d="m256.06,111.54v-4.74s4.74,0,4.74,0c0,2.62-2.12,4.74-4.74,4.75Z"/>
      <path class="cls-2" d="m296.44,128.09h-4.75c0-2.61,2.12-4.74,4.74-4.74v4.74Z"/>
      <path class="cls-2" d="m296.42,111.5c-2.62,0-4.75-2.12-4.76-4.74h4.75s0,4.74,0,4.74Z"/>
      <path class="cls-2" d="m276.26,125.74c-9.3,0-16.85-3.7-16.85-8.28,0-4.58,7.53-8.3,16.83-8.31,9.3,0,16.85,3.7,16.86,8.28,0,4.58-7.53,8.3-16.84,8.31Z"/>
    </g>
    <rect class="cls-6" x="259.24" y="112.23" width="33.85" height="10.66" transform="translate(-.13 .3) rotate(-.06)"/>
    <g class="cls-3">
      <path class="cls-1" d="m276.09,122.57v-.94c-.79-.09-1.43-.36-1.93-.83-.5-.46-.75-1.08-.77-1.86h1.65c.02.32.12.61.3.85.18.24.43.41.75.5v-2.57c-.08-.02-.15-.05-.23-.07-.08-.02-.16-.05-.24-.07-.66-.23-1.16-.52-1.51-.88-.35-.36-.52-.83-.52-1.43,0-.7.22-1.26.68-1.69.46-.43,1.06-.67,1.8-.74v-.99s.82,0,.82,0v1c.73.07,1.32.33,1.78.76.45.43.69.99.72,1.67h-1.67c0-.23-.08-.45-.23-.65-.14-.2-.34-.34-.59-.42v2.27c.07.02.13.05.2.07.07.02.13.04.2.07.42.15.81.32,1.16.51.35.2.63.45.84.77.21.32.32.73.32,1.24,0,.42-.1.82-.31,1.18-.21.37-.51.67-.91.91-.4.24-.9.38-1.48.41v.93s-.82,0-.82,0Zm-.86-7.41c0,.26.08.47.23.63s.36.29.62.41v-2.02c-.25.05-.46.16-.62.33-.16.17-.24.39-.24.66Zm2.73,4.09c0-.32-.1-.58-.29-.77-.2-.19-.45-.34-.76-.47v2.31c.33-.05.58-.17.77-.35.19-.19.28-.43.28-.72Z"/>
    </g>
  </g>
  <g>
    <g>
      <path class="cls-1" d="m95.6,134.31l-42.73.04c-1.31,0-2.37,1.06-2.37,2.37l.03,23.7c0,1.31,1.07,2.37,2.38,2.37l42.73-.04c1.31,0,2.37-1.06,2.37-2.37l-.02-23.7c0-1.31-1.06-2.37-2.37-2.37Z"/>
      <path class="cls-2" d="m54.08,159.24v-4.74c2.62,0,4.75,2.12,4.75,4.73h-4.75Z"/>
      <path class="cls-2" d="m54.07,142.65v-4.74s4.74,0,4.74,0c0,2.62-2.12,4.74-4.74,4.75Z"/>
      <path class="cls-2" d="m94.44,159.19h-4.75c0-2.61,2.12-4.74,4.74-4.74v4.74Z"/>
      <path class="cls-2" d="m94.43,142.6c-2.62,0-4.75-2.12-4.75-4.74h4.75s0,4.74,0,4.74Z"/>
      <path class="cls-2" d="m74.26,156.85c-9.3,0-16.85-3.7-16.85-8.28,0-4.58,7.53-8.3,16.83-8.31,9.31-.01,16.85,3.7,16.86,8.28,0,4.58-7.54,8.3-16.84,8.31Z"/>
    </g>
    <rect class="cls-6" x="57.24" y="143.34" width="33.85" height="10.66" transform="translate(-.16 .08) rotate(-.06)"/>
    <g class="cls-3">
      <path class="cls-1" d="m74.1,153.67v-.94c-.79-.09-1.43-.36-1.93-.83-.5-.46-.75-1.08-.77-1.86h1.65c.02.32.12.61.3.85.18.24.43.41.75.5v-2.57c-.08-.02-.15-.05-.23-.07-.08-.02-.16-.05-.24-.07-.66-.23-1.16-.52-1.51-.88-.35-.36-.52-.83-.52-1.43,0-.7.22-1.26.68-1.69.46-.43,1.07-.67,1.81-.74v-.99s.82,0,.82,0v1c.73.07,1.33.33,1.78.76s.69.99.72,1.67h-1.67c0-.23-.08-.45-.23-.65s-.34-.34-.59-.42v2.27c.07.02.13.05.2.07.06.02.13.04.2.07.42.15.81.32,1.16.51.35.19.63.45.84.77.21.32.32.73.32,1.24,0,.42-.1.82-.31,1.18-.21.37-.51.67-.91.91-.4.24-.9.38-1.48.41v.93s-.82,0-.82,0Zm-.86-7.41c0,.26.08.47.23.63.15.16.36.29.62.41v-2.02c-.25.05-.46.16-.62.33-.16.17-.24.39-.24.66Zm2.73,4.09c0-.32-.1-.58-.29-.77-.2-.19-.45-.34-.76-.47v2.31c.33-.05.58-.17.77-.35.19-.19.28-.43.28-.72Z"/>
    </g>
  </g>
  <g>
    <g>
      <path class="cls-1" d="m146.1,134.31l-42.73.04c-1.31,0-2.37,1.06-2.37,2.37l.02,23.7c0,1.31,1.07,2.37,2.38,2.37l42.73-.04c1.31,0,2.37-1.06,2.37-2.37l-.02-23.7c0-1.31-1.07-2.37-2.38-2.37Z"/>
      <path class="cls-2" d="m104.58,159.24v-4.74c2.62,0,4.75,2.12,4.75,4.73h-4.75Z"/>
      <path class="cls-2" d="m104.57,142.65v-4.74s4.74,0,4.74,0c0,2.62-2.12,4.74-4.74,4.75Z"/>
      <path class="cls-2" d="m144.94,159.19h-4.75c0-2.61,2.12-4.74,4.74-4.74v4.74Z"/>
      <path class="cls-2" d="m144.92,142.6c-2.62,0-4.75-2.12-4.76-4.74h4.75s0,4.74,0,4.74Z"/>
      <path class="cls-2" d="m124.76,156.85c-9.3,0-16.85-3.7-16.85-8.28,0-4.58,7.53-8.3,16.83-8.31,9.3-.01,16.85,3.7,16.86,8.28,0,4.58-7.53,8.3-16.84,8.31Z"/>
    </g>
    <rect class="cls-6" x="107.74" y="143.34" width="33.85" height="10.66" transform="translate(-.16 .14) rotate(-.06)"/>
    <g class="cls-3">
      <path class="cls-1" d="m124.6,153.67v-.94c-.79-.09-1.43-.36-1.93-.83-.5-.46-.75-1.08-.77-1.86h1.65c.02.32.12.61.3.85.18.24.43.41.75.5v-2.57c-.08-.02-.15-.05-.23-.07-.08-.02-.16-.05-.24-.07-.66-.23-1.16-.52-1.51-.88-.35-.36-.52-.83-.52-1.43,0-.7.22-1.26.68-1.69.46-.43,1.07-.67,1.81-.74v-.99s.82,0,.82,0v1c.73.07,1.33.33,1.78.76s.69.99.72,1.67h-1.67c0-.23-.08-.45-.23-.65-.14-.2-.34-.34-.59-.42v2.27c.07.02.13.05.2.07.06.02.13.04.2.07.42.15.81.32,1.16.51.35.19.63.45.84.77.21.32.32.73.32,1.24,0,.42-.1.82-.31,1.18s-.51.67-.91.91c-.4.24-.9.38-1.48.41v.93s-.82,0-.82,0Zm-.86-7.41c0,.26.08.47.23.63.15.16.36.29.62.41v-2.02c-.25.05-.46.16-.62.33-.16.17-.24.39-.24.66Zm2.73,4.09c0-.32-.1-.58-.29-.77-.2-.19-.45-.34-.76-.47v2.31c.33-.05.58-.17.77-.35.19-.19.28-.43.28-.72Z"/>
    </g>
  </g>
  <g>
    <g>
      <path class="cls-1" d="m196.6,134.31l-42.73.04c-1.31,0-2.37,1.06-2.37,2.37l.03,23.7c0,1.31,1.07,2.37,2.38,2.37l42.73-.04c1.31,0,2.37-1.06,2.37-2.37l-.02-23.7c0-1.31-1.07-2.37-2.38-2.37Z"/>
      <path class="cls-2" d="m155.08,159.24v-4.74c2.62,0,4.74,2.12,4.75,4.73h-4.75Z"/>
      <path class="cls-2" d="m155.07,142.65v-4.74s4.74,0,4.74,0c0,2.62-2.12,4.74-4.74,4.75Z"/>
      <path class="cls-2" d="m195.44,159.19h-4.75c0-2.61,2.12-4.74,4.74-4.74v4.74Z"/>
      <path class="cls-2" d="m195.42,142.6c-2.62,0-4.75-2.12-4.76-4.74h4.75s0,4.74,0,4.74Z"/>
      <path class="cls-2" d="m175.26,156.85c-9.3,0-16.85-3.7-16.85-8.28,0-4.58,7.53-8.3,16.83-8.31,9.31-.01,16.85,3.7,16.86,8.28,0,4.58-7.53,8.3-16.84,8.31Z"/>
    </g>
    <rect class="cls-6" x="158.23" y="143.34" width="33.85" height="10.66" transform="translate(-.16 .19) rotate(-.06)"/>
    <g class="cls-3">
      <path class="cls-1" d="m175.1,153.67v-.94c-.79-.09-1.43-.36-1.93-.83-.5-.46-.75-1.08-.77-1.86h1.65c.02.32.12.61.3.85.18.24.43.41.75.5v-2.57c-.08-.02-.15-.05-.23-.07-.08-.02-.16-.05-.24-.07-.66-.23-1.16-.52-1.51-.88s-.52-.83-.52-1.43c0-.7.22-1.26.68-1.69.46-.43,1.07-.67,1.81-.74v-.99s.82,0,.82,0v1c.73.07,1.33.33,1.78.76s.69.99.72,1.67h-1.67c0-.23-.08-.45-.23-.65-.14-.2-.34-.34-.59-.42v2.27c.07.02.13.05.2.07.06.02.13.04.2.07.42.15.81.32,1.16.51.35.19.63.45.84.77.21.32.32.73.32,1.24,0,.42-.1.82-.31,1.18-.21.37-.51.67-.91.91-.4.24-.9.38-1.48.41v.93s-.82,0-.82,0Zm-.86-7.41c0,.26.08.47.23.63.15.16.36.29.62.41v-2.02c-.25.05-.46.16-.62.33-.16.17-.24.39-.24.66Zm2.73,4.09c0-.32-.1-.58-.29-.77-.2-.19-.45-.34-.76-.47v2.31c.33-.05.58-.17.77-.35.19-.19.28-.43.28-.72Z"/>
    </g>
  </g>
  <g>
    <g>
      <path class="cls-1" d="m247.1,134.31l-42.73.04c-1.31,0-2.37,1.06-2.37,2.37l.02,23.7c0,1.31,1.07,2.37,2.38,2.37l42.73-.04c1.31,0,2.37-1.06,2.37-2.37l-.02-23.7c0-1.31-1.07-2.37-2.38-2.37Z"/>
      <path class="cls-2" d="m205.58,159.24v-4.74c2.62,0,4.74,2.12,4.75,4.73h-4.75Z"/>
      <path class="cls-2" d="m205.56,142.65v-4.74s4.74,0,4.74,0c0,2.62-2.12,4.74-4.74,4.75Z"/>
      <path class="cls-2" d="m245.94,159.19h-4.75c0-2.61,2.12-4.74,4.75-4.74v4.74Z"/>
      <path class="cls-2" d="m245.92,142.6c-2.62,0-4.75-2.12-4.76-4.74h4.75s0,4.74,0,4.74Z"/>
      <path class="cls-2" d="m225.76,156.85c-9.3,0-16.85-3.7-16.85-8.28,0-4.58,7.53-8.3,16.83-8.31,9.31-.01,16.85,3.7,16.86,8.28,0,4.58-7.54,8.3-16.84,8.31Z"/>
    </g>
    <rect class="cls-6" x="208.74" y="143.33" width="33.85" height="10.66" transform="translate(-.16 .25) rotate(-.06)"/>
    <g class="cls-3">
      <path class="cls-1" d="m225.59,153.67v-.94c-.79-.09-1.43-.36-1.93-.83-.5-.46-.75-1.08-.77-1.86h1.65c.02.32.12.61.3.85.18.24.43.41.75.5v-2.57c-.08-.02-.15-.05-.23-.07-.08-.02-.16-.05-.24-.07-.66-.23-1.16-.52-1.51-.88-.35-.36-.52-.83-.52-1.43,0-.7.22-1.26.68-1.69.46-.43,1.06-.67,1.81-.74v-.99s.82,0,.82,0v1c.73.07,1.33.33,1.78.76s.69.99.72,1.67h-1.67c0-.23-.08-.45-.23-.65-.14-.2-.34-.34-.59-.42v2.27c.07.02.13.05.2.07.06.02.13.04.2.07.42.15.81.32,1.16.51.35.19.63.45.84.77.21.32.32.73.32,1.24,0,.42-.1.82-.31,1.18-.21.37-.51.67-.91.91-.4.24-.9.38-1.48.41v.93s-.82,0-.82,0Zm-.86-7.41c0,.26.08.47.23.63.15.16.36.29.62.41v-2.02c-.25.05-.46.16-.62.33-.16.17-.24.39-.24.66Zm2.73,4.09c0-.32-.1-.58-.29-.77-.2-.19-.45-.34-.76-.47v2.31c.33-.05.58-.17.77-.35.19-.19.28-.43.28-.72Z"/>
    </g>
  </g>
  <g>
    <g>
      <path class="cls-1" d="m297.6,134.31l-42.73.04c-1.31,0-2.37,1.06-2.37,2.37l.03,23.7c0,1.31,1.07,2.37,2.38,2.37l42.73-.04c1.31,0,2.37-1.06,2.37-2.37l-.02-23.7c0-1.31-1.07-2.37-2.38-2.37Z"/>
      <path class="cls-2" d="m256.08,159.24v-4.74c2.62,0,4.74,2.12,4.75,4.73h-4.75Z"/>
      <path class="cls-2" d="m256.06,142.65v-4.74s4.74,0,4.74,0c0,2.62-2.12,4.74-4.74,4.75Z"/>
      <path class="cls-2" d="m296.44,159.19h-4.75c0-2.61,2.12-4.74,4.74-4.74v4.74Z"/>
      <path class="cls-2" d="m296.42,142.6c-2.62,0-4.75-2.12-4.76-4.74h4.75s0,4.74,0,4.74Z"/>
      <path class="cls-2" d="m276.26,156.85c-9.3,0-16.85-3.7-16.85-8.28,0-4.58,7.53-8.3,16.83-8.31,9.3-.01,16.85,3.7,16.86,8.28,0,4.58-7.53,8.3-16.84,8.31Z"/>
    </g>
    <rect class="cls-6" x="259.24" y="143.33" width="33.85" height="10.66" transform="translate(-.16 .3) rotate(-.06)"/>
    <g class="cls-3">
      <path class="cls-1" d="m276.09,153.67v-.94c-.79-.09-1.43-.36-1.93-.83-.5-.46-.75-1.08-.77-1.86h1.65c.02.32.12.61.3.85.18.24.43.41.75.5v-2.57c-.08-.02-.15-.05-.23-.07-.08-.02-.16-.05-.24-.07-.66-.23-1.16-.52-1.51-.88-.35-.36-.52-.83-.52-1.43,0-.7.22-1.26.68-1.69.46-.43,1.06-.67,1.8-.74v-.99s.82,0,.82,0v1c.73.07,1.32.33,1.78.76.45.43.69.99.72,1.67h-1.67c0-.23-.08-.45-.23-.65-.14-.2-.34-.34-.59-.42v2.27c.07.02.13.05.2.07.07.02.13.04.2.07.42.15.81.32,1.16.51.35.2.63.45.84.77.21.32.32.73.32,1.24,0,.42-.1.82-.31,1.18-.21.37-.51.67-.91.91-.4.24-.9.38-1.48.41v.93s-.82,0-.82,0Zm-.86-7.41c0,.26.08.47.23.63.16.16.36.29.62.41v-2.02c-.25.05-.46.16-.62.33-.16.17-.24.39-.24.66Zm2.73,4.09c0-.32-.1-.58-.29-.77-.2-.19-.45-.34-.76-.47v2.31c.33-.05.58-.17.77-.35.19-.19.28-.43.28-.72Z"/>
    </g>
  </g>
  <g>
    <g>
      <path class="cls-1" d="m95.6,165.41l-42.73.05c-1.31,0-2.37,1.06-2.37,2.37l.03,23.7c0,1.31,1.07,2.37,2.38,2.37l42.73-.05c1.31,0,2.37-1.06,2.37-2.37l-.02-23.7c0-1.31-1.06-2.37-2.37-2.37Z"/>
      <path class="cls-2" d="m54.08,190.34v-4.74c2.62,0,4.75,2.12,4.75,4.73h-4.75Z"/>
      <path class="cls-2" d="m54.07,173.75v-4.74s4.74,0,4.74,0c0,2.62-2.12,4.74-4.74,4.75Z"/>
      <path class="cls-2" d="m94.44,190.3h-4.75c0-2.61,2.12-4.74,4.74-4.74v4.74Z"/>
      <path class="cls-2" d="m94.43,173.71c-2.62,0-4.75-2.12-4.75-4.74h4.75s0,4.74,0,4.74Z"/>
      <path class="cls-2" d="m74.26,187.95c-9.3.01-16.85-3.7-16.85-8.28,0-4.58,7.53-8.3,16.83-8.31,9.31,0,16.85,3.7,16.86,8.28,0,4.58-7.54,8.3-16.84,8.31Z"/>
    </g>
    <rect class="cls-6" x="57.23" y="174.45" width="33.85" height="10.66" transform="translate(-.2 .08) rotate(-.06)"/>
    <g class="cls-3">
      <path class="cls-1" d="m74.1,184.78v-.94c-.79-.09-1.43-.36-1.93-.83-.5-.46-.75-1.08-.77-1.86h1.65c.02.32.12.61.3.85.18.24.43.41.75.5v-2.57c-.08-.02-.15-.05-.23-.07-.08-.02-.16-.05-.24-.07-.66-.23-1.16-.52-1.51-.88-.35-.36-.52-.83-.52-1.42,0-.7.22-1.26.68-1.69.46-.43,1.07-.67,1.81-.74v-.99s.82,0,.82,0v1c.73.07,1.33.33,1.78.76s.69.99.72,1.67h-1.67c0-.23-.08-.45-.23-.65s-.34-.34-.59-.42v2.27c.07.02.13.05.2.07.06.02.13.04.2.07.42.15.81.32,1.16.51.35.19.63.45.84.77.21.32.32.73.32,1.24,0,.42-.1.82-.31,1.18-.21.37-.51.67-.91.91-.4.24-.9.38-1.48.41v.93s-.82,0-.82,0Zm-.86-7.41c0,.26.08.47.23.63.15.16.36.29.62.41v-2.02c-.25.05-.46.16-.62.33-.16.17-.24.39-.24.66Zm2.73,4.09c0-.32-.1-.58-.29-.77-.2-.19-.45-.34-.76-.47v2.31c.33-.05.58-.17.77-.35.19-.19.28-.43.28-.72Z"/>
    </g>
  </g>
  <g>
    <g>
      <path class="cls-1" d="m146.1,165.41l-42.73.05c-1.31,0-2.37,1.06-2.37,2.37l.02,23.7c0,1.31,1.07,2.37,2.38,2.37l42.73-.05c1.31,0,2.37-1.06,2.37-2.37l-.02-23.7c0-1.31-1.07-2.37-2.38-2.37Z"/>
      <path class="cls-2" d="m104.58,190.34v-4.74c2.62,0,4.75,2.12,4.75,4.73h-4.75Z"/>
      <path class="cls-2" d="m104.57,173.75v-4.74s4.74,0,4.74,0c0,2.62-2.12,4.74-4.74,4.75Z"/>
      <path class="cls-2" d="m144.94,190.3h-4.75c0-2.61,2.12-4.74,4.74-4.74v4.74Z"/>
      <path class="cls-2" d="m144.92,173.71c-2.62,0-4.75-2.12-4.76-4.74h4.75s0,4.74,0,4.74Z"/>
      <path class="cls-2" d="m124.76,187.95c-9.3.01-16.85-3.7-16.85-8.28,0-4.58,7.53-8.3,16.83-8.31,9.3,0,16.85,3.7,16.86,8.28,0,4.58-7.53,8.3-16.84,8.31Z"/>
    </g>
    <rect class="cls-6" x="107.74" y="174.44" width="33.85" height="10.66" transform="translate(-.2 .14) rotate(-.06)"/>
    <g class="cls-3">
      <path class="cls-1" d="m124.6,184.78v-.94c-.79-.09-1.43-.36-1.93-.83-.5-.46-.75-1.08-.77-1.86h1.65c.02.32.12.61.3.85.18.24.43.41.75.5v-2.57c-.08-.02-.15-.05-.23-.07s-.16-.05-.24-.07c-.66-.23-1.16-.52-1.51-.88-.35-.36-.52-.83-.52-1.43,0-.7.22-1.26.68-1.69.46-.43,1.07-.67,1.81-.74v-.99s.82,0,.82,0v1c.73.07,1.33.33,1.78.76.45.43.69.99.72,1.67h-1.67c0-.23-.08-.45-.23-.65-.14-.2-.34-.34-.59-.42v2.27c.07.02.13.05.2.07.06.02.13.04.2.07.42.15.81.32,1.16.51.35.19.63.45.84.77.21.32.32.73.32,1.24,0,.42-.1.82-.31,1.18s-.51.67-.91.91c-.4.24-.9.38-1.48.41v.93s-.82,0-.82,0Zm-.86-7.41c0,.26.08.47.23.63.15.16.36.29.62.41v-2.02c-.25.05-.46.16-.62.33-.16.17-.24.39-.24.66Zm2.73,4.09c0-.32-.1-.58-.29-.77-.2-.19-.45-.34-.76-.47v2.31c.33-.05.58-.17.77-.35.19-.19.28-.43.28-.72Z"/>
    </g>
  </g>
  <g>
    <g>
      <path class="cls-1" d="m196.6,165.41l-42.73.05c-1.31,0-2.37,1.06-2.37,2.37l.03,23.7c0,1.31,1.07,2.37,2.38,2.37l42.73-.05c1.31,0,2.37-1.06,2.37-2.37l-.02-23.7c0-1.31-1.07-2.37-2.38-2.37Z"/>
      <path class="cls-2" d="m155.08,190.34v-4.74c2.62,0,4.74,2.12,4.75,4.73h-4.75Z"/>
      <path class="cls-2" d="m155.07,173.75v-4.74s4.74,0,4.74,0c0,2.62-2.12,4.74-4.74,4.75Z"/>
      <path class="cls-2" d="m195.44,190.3h-4.75c0-2.61,2.12-4.74,4.74-4.74v4.74Z"/>
      <path class="cls-2" d="m195.42,173.71c-2.62,0-4.75-2.12-4.76-4.74h4.75s0,4.74,0,4.74Z"/>
      <path class="cls-2" d="m175.26,187.95c-9.3.01-16.85-3.7-16.85-8.28,0-4.58,7.53-8.3,16.83-8.31,9.31,0,16.85,3.7,16.86,8.28,0,4.58-7.53,8.3-16.84,8.31Z"/>
    </g>
    <rect class="cls-6" x="158.24" y="174.44" width="33.85" height="10.66" transform="translate(-.2 .19) rotate(-.06)"/>
    <g class="cls-3">
      <path class="cls-1" d="m175.1,184.78v-.94c-.79-.09-1.43-.36-1.93-.83-.5-.46-.75-1.08-.77-1.86h1.65c.02.32.12.61.3.85.18.24.43.41.75.5v-2.57c-.08-.02-.15-.05-.23-.07-.08-.02-.16-.05-.24-.07-.66-.23-1.16-.52-1.51-.88-.35-.36-.52-.83-.52-1.43,0-.7.22-1.26.68-1.69.46-.43,1.06-.67,1.81-.74v-.99s.82,0,.82,0v1c.73.07,1.33.33,1.78.76s.69.99.72,1.67h-1.67c0-.23-.08-.45-.23-.65-.14-.2-.34-.34-.59-.42v2.27c.07.02.13.05.2.07.06.02.13.04.2.07.42.15.81.32,1.16.51.35.19.63.45.84.77.21.32.32.73.32,1.24,0,.42-.1.82-.31,1.18-.21.37-.51.67-.91.91-.4.24-.9.38-1.48.41v.93s-.82,0-.82,0Zm-.86-7.41c0,.26.08.47.23.63.15.16.36.29.62.41v-2.02c-.25.05-.46.16-.62.33-.16.17-.24.39-.24.66Zm2.73,4.09c0-.32-.1-.58-.29-.77-.2-.19-.45-.34-.76-.47v2.31c.33-.05.58-.17.77-.35.19-.19.28-.43.28-.72Z"/>
    </g>
  </g>
  <g>
    <g>
      <path class="cls-1" d="m247.1,165.41l-42.73.05c-1.31,0-2.37,1.06-2.37,2.37l.02,23.7c0,1.31,1.07,2.37,2.38,2.37l42.73-.05c1.31,0,2.37-1.06,2.37-2.37l-.02-23.7c0-1.31-1.07-2.37-2.38-2.37Z"/>
      <path class="cls-2" d="m205.58,190.34v-4.74c2.62,0,4.74,2.12,4.75,4.73h-4.75Z"/>
      <path class="cls-2" d="m205.56,173.75v-4.74s4.74,0,4.74,0c0,2.62-2.12,4.74-4.74,4.75Z"/>
      <path class="cls-2" d="m245.94,190.3h-4.75c0-2.61,2.12-4.74,4.75-4.74v4.74Z"/>
      <path class="cls-2" d="m245.92,173.71c-2.62,0-4.75-2.12-4.76-4.74h4.75s0,4.74,0,4.74Z"/>
      <path class="cls-2" d="m225.76,187.95c-9.3.01-16.85-3.7-16.85-8.28,0-4.58,7.53-8.3,16.83-8.31,9.31,0,16.85,3.7,16.86,8.28,0,4.58-7.54,8.3-16.84,8.31Z"/>
    </g>
    <rect class="cls-6" x="208.73" y="174.45" width="33.85" height="10.66" transform="translate(-.2 .25) rotate(-.06)"/>
    <g class="cls-3">
      <path class="cls-1" d="m225.59,184.78v-.94c-.79-.09-1.43-.36-1.93-.83-.5-.46-.75-1.08-.77-1.86h1.65c.02.32.12.61.3.85.18.24.43.41.75.5v-2.57c-.08-.02-.15-.05-.23-.07-.08-.02-.16-.05-.24-.07-.66-.23-1.16-.52-1.51-.88-.35-.36-.52-.83-.52-1.43,0-.7.22-1.26.68-1.69.46-.43,1.06-.67,1.81-.74v-.99s.82,0,.82,0v1c.73.07,1.33.33,1.78.76s.69.99.72,1.67h-1.67c0-.23-.08-.45-.23-.65-.14-.2-.34-.34-.59-.42v2.27c.07.02.13.05.2.07.06.02.13.04.2.07.42.15.81.32,1.16.51.35.19.63.45.84.77.21.32.32.73.32,1.24,0,.42-.1.82-.31,1.18-.21.37-.51.67-.91.91-.4.24-.9.38-1.48.41v.93s-.82,0-.82,0Zm-.86-7.41c0,.26.08.47.23.63.15.16.36.29.62.41v-2.02c-.25.05-.46.16-.62.33-.16.17-.24.39-.24.66Zm2.73,4.09c0-.32-.1-.58-.29-.77-.2-.19-.45-.34-.76-.47v2.31c.33-.05.58-.17.77-.35.19-.19.28-.43.28-.72Z"/>
    </g>
  </g>
  <g>
    <g>
      <path class="cls-1" d="m297.6,165.41l-42.73.05c-1.31,0-2.37,1.06-2.37,2.37l.03,23.7c0,1.31,1.07,2.37,2.38,2.37l42.73-.05c1.31,0,2.37-1.06,2.37-2.37l-.02-23.7c0-1.31-1.07-2.37-2.38-2.37Z"/>
      <path class="cls-2" d="m256.08,190.34v-4.74c2.62,0,4.74,2.12,4.75,4.73h-4.75Z"/>
      <path class="cls-2" d="m256.06,173.75v-4.74s4.74,0,4.74,0c0,2.62-2.12,4.74-4.74,4.75Z"/>
      <path class="cls-2" d="m296.44,190.3h-4.75c0-2.61,2.12-4.74,4.74-4.74v4.74Z"/>
      <path class="cls-2" d="m296.42,173.71c-2.62,0-4.75-2.12-4.76-4.74h4.75s0,4.74,0,4.74Z"/>
      <path class="cls-2" d="m276.26,187.95c-9.3.01-16.85-3.7-16.85-8.28,0-4.58,7.53-8.3,16.83-8.31,9.3,0,16.85,3.7,16.86,8.28,0,4.58-7.53,8.3-16.84,8.31Z"/>
    </g>
    <rect class="cls-6" x="259.23" y="174.45" width="33.85" height="10.66" transform="translate(-.2 .3) rotate(-.06)"/>
    <g class="cls-3">
      <path class="cls-1" d="m276.09,184.78v-.94c-.79-.09-1.43-.36-1.93-.83-.5-.46-.75-1.08-.77-1.86h1.65c.02.32.12.61.3.85.18.24.43.41.75.5v-2.57c-.08-.02-.15-.05-.23-.07-.08-.02-.16-.05-.24-.07-.66-.23-1.16-.52-1.51-.88-.35-.36-.52-.83-.52-1.43,0-.7.22-1.26.68-1.69.46-.43,1.06-.67,1.8-.74v-.99s.82,0,.82,0v1c.73.07,1.32.33,1.78.76.45.43.69.99.72,1.67h-1.67c0-.23-.08-.45-.23-.65-.14-.2-.34-.34-.59-.42v2.27c.07.02.13.05.2.07.07.02.13.04.2.07.42.15.81.32,1.16.51.35.19.63.45.84.77.21.32.32.73.32,1.24,0,.42-.1.82-.31,1.18-.21.37-.51.67-.91.91-.4.24-.9.38-1.48.41v.93s-.82,0-.82,0Zm-.86-7.41c0,.26.08.47.23.63.16.16.36.29.62.41v-2.02c-.25.05-.46.16-.62.33-.16.17-.24.39-.24.66Zm2.73,4.09c0-.32-.1-.58-.29-.77-.2-.19-.45-.34-.76-.47v2.31c.33-.05.58-.17.77-.35.19-.19.28-.43.28-.72Z"/>
    </g>
  </g>
  <g>
    <g>
      <g>
        <path class="cls-1" d="m95.6,41l-42.73.04c-1.31,0-2.37,1.07-2.37,2.37l.03,23.7c0,1.31,1.07,2.37,2.38,2.37l42.73-.04c1.31,0,2.37-1.06,2.37-2.37l-.02-23.7c0-1.31-1.06-2.37-2.37-2.37Z"/>
        <path class="cls-2" d="m54.08,65.93v-4.74c2.62,0,4.75,2.12,4.75,4.74h-4.75Z"/>
        <path class="cls-2" d="m54.07,49.34v-4.74s4.74,0,4.74,0c0,2.62-2.12,4.74-4.74,4.75Z"/>
        <path class="cls-2" d="m94.44,65.89h-4.75c0-2.61,2.12-4.74,4.74-4.74v4.74Z"/>
        <path class="cls-2" d="m94.43,49.3c-2.62,0-4.75-2.12-4.75-4.74h4.75s0,4.74,0,4.74Z"/>
        <path class="cls-2" d="m74.26,63.54c-9.3,0-16.85-3.7-16.85-8.28,0-4.58,7.53-8.3,16.83-8.31,9.31-.01,16.85,3.7,16.86,8.28,0,4.58-7.54,8.3-16.84,8.31Z"/>
      </g>
      <rect class="cls-6" x="57.24" y="50.03" width="33.85" height="10.66" transform="translate(-.06 .08) rotate(-.06)"/>
      <g class="cls-3">
        <path class="cls-1" d="m74.1,60.37v-.94c-.79-.09-1.43-.36-1.93-.83-.5-.46-.75-1.08-.77-1.86h1.65c.02.32.12.61.3.85.18.24.43.41.75.5v-2.57c-.08-.02-.15-.05-.23-.07-.08-.02-.16-.05-.24-.07-.66-.23-1.16-.52-1.51-.88-.35-.36-.52-.83-.52-1.43,0-.7.22-1.26.68-1.69.46-.43,1.07-.67,1.81-.74v-.99s.82,0,.82,0v1c.73.07,1.33.33,1.78.76s.69.99.72,1.67h-1.67c0-.23-.08-.45-.23-.65-.14-.2-.34-.34-.59-.42v2.27c.07.02.13.05.2.07.06.02.13.04.2.07.42.15.81.32,1.16.51.35.19.63.45.84.77.21.32.32.73.32,1.24,0,.42-.1.82-.31,1.18-.21.37-.51.67-.91.91-.4.24-.9.38-1.48.41v.93s-.82,0-.82,0Zm-.86-7.41c0,.26.08.47.23.63.15.16.36.29.62.41v-2.02c-.25.05-.46.16-.62.33-.16.17-.24.39-.24.66Zm2.73,4.09c0-.32-.1-.58-.29-.77-.2-.19-.45-.34-.76-.47v2.31c.33-.05.58-.17.77-.35s.28-.43.28-.72Z"/>
      </g>
    </g>
    <g>
      <g>
        <path class="cls-1" d="m45.1,41l-42.73.04c-1.31,0-2.37,1.07-2.37,2.37l.03,23.7c0,1.31,1.07,2.37,2.38,2.37l42.73-.04c1.31,0,2.37-1.06,2.37-2.37l-.03-23.7c0-1.31-1.06-2.37-2.38-2.37Z"/>
        <path class="cls-2" d="m3.58,65.93v-4.74c2.62,0,4.74,2.12,4.75,4.74H3.58Z"/>
        <path class="cls-2" d="m3.57,49.34v-4.74s4.74,0,4.74,0c0,2.62-2.12,4.74-4.74,4.75Z"/>
        <path class="cls-2" d="m43.94,65.89h-4.75c0-2.61,2.12-4.74,4.75-4.74v4.74Z"/>
        <path class="cls-2" d="m43.93,49.3c-2.62,0-4.75-2.12-4.75-4.74h4.75s0,4.74,0,4.74Z"/>
        <path class="cls-2" d="m23.76,63.54c-9.3,0-16.85-3.7-16.85-8.28,0-4.58,7.53-8.3,16.83-8.31,9.31-.01,16.85,3.7,16.86,8.28,0,4.58-7.54,8.3-16.84,8.31Z"/>
      </g>
      <rect class="cls-6" x="6.74" y="50.03" width="33.85" height="10.66" transform="translate(-.06 .03) rotate(-.06)"/>
      <g class="cls-3">
        <path class="cls-1" d="m23.6,60.37v-.94c-.79-.09-1.43-.36-1.93-.83-.5-.46-.75-1.08-.77-1.86h1.65c.02.32.12.61.3.85.18.24.43.41.75.5v-2.57c-.08-.02-.15-.05-.23-.07-.08-.02-.16-.05-.24-.07-.66-.23-1.16-.52-1.51-.88-.35-.36-.52-.83-.52-1.43,0-.7.22-1.26.68-1.69.46-.43,1.06-.67,1.81-.74v-.99s.82,0,.82,0v1c.73.07,1.33.33,1.78.76s.69.99.72,1.67h-1.67c0-.23-.08-.45-.23-.65-.14-.2-.34-.34-.59-.42v2.27c.07.02.13.05.2.07.06.02.13.04.2.07.42.15.81.32,1.16.51.35.19.63.45.84.77.21.32.32.73.32,1.24,0,.42-.1.82-.31,1.18-.21.37-.51.67-.91.91-.4.24-.9.38-1.48.41v.93s-.82,0-.82,0Zm-.86-7.41c0,.26.08.47.23.63.15.16.36.29.62.41v-2.02c-.25.05-.46.16-.62.33s-.24.39-.24.66Zm2.73,4.09c0-.32-.1-.58-.29-.77s-.45-.34-.76-.47v2.31c.33-.05.58-.17.77-.35.19-.19.28-.43.28-.72Z"/>
      </g>
      <g>
        <g>
          <path class="cls-1" d="m45.1,72.1l-42.73.05c-1.31,0-2.37,1.07-2.37,2.37l.03,23.7c0,1.31,1.07,2.37,2.38,2.37l42.73-.04c1.31,0,2.37-1.06,2.37-2.37l-.03-23.7c0-1.31-1.06-2.37-2.38-2.37Z"/>
          <path class="cls-2" d="m3.58,97.03v-4.74c2.62,0,4.74,2.12,4.75,4.73H3.58Z"/>
          <path class="cls-2" d="m3.57,80.44v-4.74s4.74,0,4.74,0c0,2.62-2.12,4.74-4.74,4.75Z"/>
          <path class="cls-2" d="m43.94,96.99h-4.75c0-2.61,2.12-4.74,4.75-4.74v4.74Z"/>
          <path class="cls-2" d="m43.93,80.4c-2.62,0-4.75-2.12-4.75-4.74h4.75s0,4.74,0,4.74Z"/>
          <path class="cls-2" d="m23.76,94.64c-9.3,0-16.85-3.7-16.85-8.28,0-4.58,7.53-8.3,16.83-8.31,9.31-.01,16.85,3.7,16.86,8.28,0,4.58-7.54,8.3-16.84,8.31Z"/>
        </g>
        <rect class="cls-6" x="6.74" y="81.14" width="33.85" height="10.66" transform="translate(-.1 .03) rotate(-.06)"/>
        <g class="cls-3">
          <path class="cls-1" d="m23.6,91.47v-.94c-.79-.09-1.43-.36-1.93-.83-.5-.46-.75-1.08-.77-1.86h1.65c.02.32.12.61.3.85.18.24.43.41.75.5v-2.57c-.08-.02-.15-.05-.23-.07-.08-.02-.16-.05-.24-.07-.66-.23-1.16-.52-1.51-.88-.35-.36-.52-.83-.52-1.43,0-.7.22-1.26.68-1.69.46-.43,1.06-.67,1.81-.74v-.99s.82,0,.82,0v1c.73.07,1.33.33,1.78.76s.69.99.72,1.67h-1.67c0-.23-.08-.45-.23-.65-.14-.2-.34-.34-.59-.42v2.27c.07.02.13.05.2.07.06.02.13.04.2.07.42.15.81.32,1.16.51.35.19.63.45.84.77.21.32.32.73.32,1.24,0,.42-.1.82-.31,1.18-.21.37-.51.67-.91.91-.4.24-.9.38-1.48.41v.93s-.82,0-.82,0Zm-.86-7.41c0,.26.08.47.23.63.15.16.36.29.62.41v-2.02c-.25.05-.46.16-.62.33s-.24.39-.24.66Zm2.73,4.09c0-.32-.1-.58-.29-.77s-.45-.34-.76-.47v2.31c.33-.05.58-.17.77-.35.19-.19.28-.43.28-.72Z"/>
        </g>
      </g>
      <g>
        <g>
          <path class="cls-1" d="m45.1,103.2l-42.73.05c-1.31,0-2.37,1.06-2.37,2.37l.03,23.7c0,1.31,1.07,2.37,2.38,2.37l42.73-.05c1.31,0,2.37-1.06,2.37-2.37l-.03-23.7c0-1.31-1.06-2.37-2.38-2.37Z"/>
          <path class="cls-2" d="m3.58,128.13v-4.74c2.62,0,4.74,2.12,4.75,4.73H3.58Z"/>
          <path class="cls-2" d="m3.57,111.54v-4.74s4.74,0,4.74,0c0,2.62-2.12,4.74-4.74,4.75Z"/>
          <path class="cls-2" d="m43.94,128.09h-4.75c0-2.61,2.12-4.74,4.75-4.74v4.74Z"/>
          <path class="cls-2" d="m43.93,111.5c-2.62,0-4.75-2.12-4.75-4.74h4.75s0,4.74,0,4.74Z"/>
          <path class="cls-2" d="m23.76,125.74c-9.3,0-16.85-3.7-16.85-8.28,0-4.58,7.53-8.3,16.83-8.31,9.31,0,16.85,3.7,16.86,8.28,0,4.58-7.54,8.3-16.84,8.31Z"/>
        </g>
        <rect class="cls-6" x="6.74" y="112.24" width="33.85" height="10.66" transform="translate(-.13 .03) rotate(-.06)"/>
        <g class="cls-3">
          <path class="cls-1" d="m23.6,122.57v-.94c-.79-.09-1.43-.36-1.93-.83-.5-.46-.75-1.08-.77-1.86h1.65c.02.32.12.61.3.85.18.24.43.41.75.5v-2.57c-.08-.02-.15-.05-.23-.07-.08-.02-.16-.05-.24-.07-.66-.23-1.16-.52-1.51-.88-.35-.36-.52-.83-.52-1.43,0-.7.22-1.26.68-1.69.46-.43,1.07-.67,1.81-.74v-.99s.82,0,.82,0v1c.73.07,1.33.33,1.78.76s.69.99.72,1.67h-1.67c0-.23-.08-.45-.23-.65-.14-.2-.34-.34-.59-.42v2.27c.07.02.13.05.2.07.06.02.13.04.2.07.42.15.81.32,1.16.51.35.19.63.45.84.77.21.32.32.73.32,1.24,0,.42-.1.82-.31,1.18-.21.37-.51.67-.91.91-.4.24-.9.38-1.48.41v.93s-.82,0-.82,0Zm-.86-7.41c0,.26.08.47.23.63.15.16.36.29.62.41v-2.02c-.25.05-.46.16-.62.33-.16.17-.24.39-.24.66Zm2.73,4.09c0-.32-.1-.58-.29-.77-.2-.19-.45-.34-.76-.47v2.31c.33-.05.58-.17.77-.35s.28-.43.28-.72Z"/>
        </g>
      </g>
      <g>
        <g>
          <path class="cls-1" d="m45.1,134.31l-42.73.04c-1.31,0-2.37,1.06-2.37,2.37l.03,23.7c0,1.31,1.07,2.37,2.38,2.37l42.73-.04c1.31,0,2.37-1.06,2.37-2.37l-.03-23.7c0-1.31-1.06-2.37-2.38-2.37Z"/>
          <path class="cls-2" d="m3.58,159.24v-4.74c2.62,0,4.74,2.12,4.75,4.73H3.58Z"/>
          <path class="cls-2" d="m3.57,142.65v-4.74s4.74,0,4.74,0c0,2.62-2.12,4.74-4.74,4.75Z"/>
          <path class="cls-2" d="m43.94,159.19h-4.75c0-2.61,2.12-4.74,4.75-4.74v4.74Z"/>
          <path class="cls-2" d="m43.93,142.6c-2.62,0-4.75-2.12-4.75-4.74h4.75s0,4.74,0,4.74Z"/>
          <path class="cls-2" d="m23.76,156.85c-9.3,0-16.85-3.7-16.85-8.28,0-4.58,7.53-8.3,16.83-8.31,9.31-.01,16.85,3.7,16.86,8.28,0,4.58-7.54,8.3-16.84,8.31Z"/>
        </g>
        <rect class="cls-6" x="6.75" y="143.34" width="33.85" height="10.66" transform="translate(-.16 .03) rotate(-.06)"/>
        <g class="cls-3">
          <path class="cls-1" d="m23.6,153.67v-.94c-.79-.09-1.43-.36-1.93-.83-.5-.46-.75-1.08-.77-1.86h1.65c.02.32.12.61.3.85.18.24.43.41.75.5v-2.57c-.08-.02-.15-.05-.23-.07-.08-.02-.16-.05-.24-.07-.66-.23-1.16-.52-1.51-.88-.35-.36-.52-.83-.52-1.43,0-.7.22-1.26.68-1.69.46-.43,1.07-.67,1.81-.74v-.99s.82,0,.82,0v1c.73.07,1.33.33,1.78.76s.69.99.72,1.67h-1.67c0-.23-.08-.45-.23-.65-.14-.2-.34-.34-.59-.42v2.27c.07.02.13.05.2.07.06.02.13.04.2.07.42.15.81.32,1.16.51.35.19.63.45.84.77.21.32.32.73.32,1.24,0,.42-.1.82-.31,1.18-.21.37-.51.67-.91.91-.4.24-.9.38-1.48.41v.93s-.82,0-.82,0Zm-.86-7.41c0,.26.08.47.23.63.15.16.36.29.62.41v-2.02c-.25.05-.46.16-.62.33-.16.17-.24.39-.24.66Zm2.73,4.09c0-.32-.1-.58-.29-.77-.2-.19-.45-.34-.76-.47v2.31c.33-.05.58-.17.77-.35.19-.19.28-.43.28-.72Z"/>
        </g>
      </g>
      <g>
        <g>
          <path class="cls-1" d="m45.1,165.41l-42.73.05c-1.31,0-2.37,1.06-2.37,2.37l.03,23.7c0,1.31,1.07,2.37,2.38,2.37l42.73-.05c1.31,0,2.37-1.06,2.37-2.37l-.03-23.7c0-1.31-1.06-2.37-2.38-2.37Z"/>
          <path class="cls-2" d="m3.58,190.34v-4.74c2.62,0,4.74,2.12,4.75,4.73H3.58Z"/>
          <path class="cls-2" d="m3.57,173.75v-4.74s4.74,0,4.74,0c0,2.62-2.12,4.74-4.74,4.75Z"/>
          <path class="cls-2" d="m43.94,190.3h-4.75c0-2.61,2.12-4.74,4.75-4.74v4.74Z"/>
          <path class="cls-2" d="m43.93,173.71c-2.62,0-4.75-2.12-4.75-4.74h4.75s0,4.74,0,4.74Z"/>
          <path class="cls-2" d="m23.76,187.95c-9.3.01-16.85-3.7-16.85-8.28,0-4.58,7.53-8.3,16.83-8.31,9.31,0,16.85,3.7,16.86,8.28,0,4.58-7.54,8.3-16.84,8.31Z"/>
        </g>
        <rect class="cls-6" x="6.72" y="174.45" width="33.85" height="10.66" transform="translate(-.2 .03) rotate(-.06)"/>
        <g class="cls-3">
          <path class="cls-1" d="m23.6,184.78v-.94c-.79-.09-1.43-.36-1.93-.83-.5-.46-.75-1.08-.77-1.86h1.65c.02.32.12.61.3.85.18.24.43.41.75.5v-2.57c-.08-.02-.15-.05-.23-.07-.08-.02-.16-.05-.24-.07-.66-.23-1.16-.52-1.51-.88-.35-.36-.52-.83-.52-1.43,0-.7.22-1.26.68-1.69.46-.43,1.07-.67,1.81-.74v-.99s.82,0,.82,0v1c.73.07,1.33.33,1.78.76s.69.99.72,1.67h-1.67c0-.23-.08-.45-.23-.65-.14-.2-.34-.34-.59-.42v2.27c.07.02.13.05.2.07.06.02.13.04.2.07.42.15.81.32,1.16.51.35.2.63.45.84.77.21.32.32.73.32,1.24,0,.42-.1.82-.31,1.18-.21.37-.51.67-.91.91-.4.24-.9.38-1.48.41v.93s-.82,0-.82,0Zm-.86-7.41c0,.26.08.47.23.63s.36.29.62.41v-2.02c-.25.05-.46.16-.62.33-.16.17-.24.39-.24.66Zm2.73,4.09c0-.32-.1-.58-.29-.77-.2-.19-.45-.34-.76-.47v2.31c.33-.05.58-.17.77-.35.19-.19.28-.43.28-.72Z"/>
        </g>
      </g>
      <g>
        <g>
          <path class="cls-1" d="m45.1,196.51l-42.73.05c-1.31,0-2.37,1.06-2.37,2.37l.03,23.7c0,1.31,1.07,2.37,2.38,2.37l42.73-.05c1.31,0,2.37-1.06,2.37-2.37l-.03-23.7c0-1.31-1.06-2.37-2.38-2.37Z"/>
          <path class="cls-2" d="m3.58,221.44v-4.74c2.62,0,4.74,2.12,4.75,4.73H3.58Z"/>
          <path class="cls-2" d="m3.57,204.85v-4.74s4.74,0,4.74,0c0,2.62-2.12,4.74-4.74,4.75Z"/>
          <path class="cls-2" d="m43.94,221.4h-4.75c0-2.61,2.12-4.74,4.75-4.74v4.74Z"/>
          <path class="cls-2" d="m43.93,204.81c-2.62,0-4.75-2.12-4.75-4.73h4.75s0,4.73,0,4.73Z"/>
          <path class="cls-2" d="m23.76,219.05c-9.3.01-16.85-3.7-16.85-8.28,0-4.58,7.53-8.3,16.83-8.31,9.31-.01,16.85,3.7,16.86,8.28,0,4.58-7.54,8.3-16.84,8.31Z"/>
        </g>
        <rect class="cls-6" x="6.75" y="205.55" width="33.85" height="10.66" transform="translate(-.23 .03) rotate(-.06)"/>
        <g class="cls-3">
          <path class="cls-1" d="m23.6,215.88v-.94c-.79-.09-1.43-.36-1.93-.83-.5-.46-.75-1.08-.77-1.86h1.65c.02.32.12.61.3.85.18.24.43.41.75.5v-2.57c-.08-.02-.15-.05-.23-.07-.08-.02-.16-.05-.24-.07-.66-.23-1.16-.52-1.51-.88-.35-.36-.52-.83-.52-1.43,0-.7.22-1.26.68-1.69.46-.43,1.07-.67,1.81-.74v-.99s.82,0,.82,0v1c.73.07,1.33.33,1.78.76s.69.99.72,1.67h-1.67c0-.23-.08-.45-.23-.65s-.34-.34-.59-.42v2.27c.07.02.13.05.2.07.06.02.13.04.2.07.42.15.81.32,1.16.51.35.2.63.45.84.77.21.32.32.73.32,1.24,0,.42-.1.82-.31,1.18-.21.37-.51.67-.91.91-.4.24-.9.38-1.48.41v.93s-.82,0-.82,0Zm-.86-7.41c0,.26.08.47.23.63.15.16.36.29.62.41v-2.02c-.25.05-.46.16-.62.33-.16.17-.24.39-.24.66Zm2.73,4.09c0-.32-.1-.58-.29-.77-.2-.19-.45-.34-.76-.47v2.31c.33-.05.58-.17.77-.35.19-.19.28-.43.28-.72Z"/>
        </g>
      </g>
    </g>
  </g>
  <g>
    <g>
      <path class="cls-1" d="m95.6,196.51l-42.73.05c-1.31,0-2.37,1.06-2.37,2.37l.03,23.7c0,1.31,1.07,2.37,2.38,2.37l42.73-.05c1.31,0,2.37-1.06,2.37-2.37l-.02-23.7c0-1.31-1.06-2.37-2.37-2.37Z"/>
      <path class="cls-2" d="m54.08,221.44v-4.74c2.62,0,4.75,2.12,4.75,4.73h-4.75Z"/>
      <path class="cls-2" d="m54.07,204.85v-4.74s4.74,0,4.74,0c0,2.62-2.12,4.74-4.74,4.75Z"/>
      <path class="cls-2" d="m94.44,221.4h-4.75c0-2.61,2.12-4.74,4.74-4.74v4.74Z"/>
      <path class="cls-2" d="m94.43,204.81c-2.62,0-4.75-2.12-4.75-4.73h4.75s0,4.73,0,4.73Z"/>
      <path class="cls-2" d="m74.26,219.05c-9.3.01-16.85-3.7-16.85-8.28,0-4.58,7.53-8.3,16.83-8.31,9.31-.01,16.85,3.7,16.86,8.28,0,4.58-7.54,8.3-16.84,8.31Z"/>
    </g>
    <rect class="cls-6" x="57.24" y="205.55" width="33.85" height="10.66" transform="translate(-.23 .08) rotate(-.06)"/>
    <g class="cls-3">
      <path class="cls-1" d="m74.1,215.88v-.94c-.79-.09-1.43-.36-1.93-.83-.5-.46-.75-1.08-.77-1.86h1.65c.02.32.12.61.3.85.18.24.43.41.75.5v-2.57c-.08-.02-.15-.05-.23-.07-.08-.02-.16-.05-.24-.07-.66-.23-1.16-.52-1.51-.88-.35-.36-.52-.83-.52-1.42,0-.7.22-1.26.68-1.69.46-.43,1.07-.67,1.81-.74v-.99s.82,0,.82,0v1c.73.07,1.33.33,1.78.76s.69.99.72,1.67h-1.67c0-.23-.08-.45-.23-.65s-.34-.34-.59-.42v2.27c.07.02.13.05.2.07.06.02.13.04.2.07.42.15.81.32,1.16.51.35.19.63.45.84.77.21.32.32.73.32,1.24,0,.42-.1.82-.31,1.18s-.51.67-.91.91c-.4.24-.9.38-1.48.41v.93s-.82,0-.82,0Zm-.86-7.41c0,.26.08.47.23.63.15.16.36.29.62.41v-2.02c-.25.05-.46.16-.62.33-.16.17-.24.39-.24.66Zm2.73,4.09c0-.32-.1-.58-.29-.77-.2-.19-.45-.34-.76-.47v2.31c.33-.05.58-.17.77-.35.19-.19.28-.43.28-.72Z"/>
    </g>
  </g>
  <g>
    <g>
      <path class="cls-1" d="m146.1,196.51l-42.73.05c-1.31,0-2.37,1.06-2.37,2.37l.02,23.7c0,1.31,1.07,2.37,2.38,2.37l42.73-.05c1.31,0,2.37-1.06,2.37-2.37l-.02-23.7c0-1.31-1.07-2.37-2.38-2.37Z"/>
      <path class="cls-2" d="m104.58,221.44v-4.74c2.62,0,4.75,2.12,4.75,4.73h-4.75Z"/>
      <path class="cls-2" d="m104.57,204.85v-4.74s4.74,0,4.74,0c0,2.62-2.12,4.74-4.74,4.75Z"/>
      <path class="cls-2" d="m144.94,221.4h-4.75c0-2.61,2.12-4.74,4.74-4.74v4.74Z"/>
      <path class="cls-2" d="m144.92,204.81c-2.62,0-4.75-2.12-4.76-4.73h4.75s0,4.73,0,4.73Z"/>
      <path class="cls-2" d="m124.76,219.05c-9.3.01-16.85-3.7-16.85-8.28,0-4.58,7.53-8.3,16.83-8.31,9.3-.01,16.85,3.7,16.86,8.28,0,4.58-7.53,8.3-16.84,8.31Z"/>
    </g>
    <rect class="cls-6" x="107.75" y="205.54" width="33.85" height="10.66" transform="translate(-.23 .14) rotate(-.06)"/>
    <g class="cls-3">
      <path class="cls-1" d="m124.6,215.88v-.94c-.79-.09-1.43-.36-1.93-.83-.5-.46-.75-1.08-.77-1.86h1.65c.02.32.12.61.3.85.18.24.43.41.75.5v-2.57c-.08-.02-.15-.05-.23-.07-.08-.02-.16-.05-.24-.07-.66-.23-1.16-.52-1.51-.88-.35-.36-.52-.83-.52-1.43,0-.7.22-1.26.68-1.69.46-.43,1.07-.67,1.81-.74v-.99s.82,0,.82,0v1c.73.07,1.33.33,1.78.76s.69.99.72,1.67h-1.67c0-.23-.08-.45-.23-.65-.14-.2-.34-.34-.59-.42v2.27c.07.02.13.05.2.07.06.02.13.04.2.07.42.15.81.32,1.16.51.35.19.63.45.84.77s.32.73.32,1.24c0,.42-.1.82-.31,1.18-.21.37-.51.67-.91.91-.4.24-.9.38-1.48.41v.93s-.82,0-.82,0Zm-.86-7.41c0,.26.08.47.23.63.15.16.36.29.62.41v-2.02c-.25.05-.46.16-.62.33-.16.17-.24.39-.24.66Zm2.73,4.09c0-.32-.1-.58-.29-.77-.2-.19-.45-.34-.76-.47v2.31c.33-.05.58-.17.77-.35.19-.19.28-.43.28-.72Z"/>
    </g>
  </g>
  <g>
    <g>
      <path class="cls-1" d="m196.6,196.51l-42.73.05c-1.31,0-2.37,1.06-2.37,2.37l.03,23.7c0,1.31,1.07,2.37,2.38,2.37l42.73-.05c1.31,0,2.37-1.06,2.37-2.37l-.02-23.7c0-1.31-1.07-2.37-2.38-2.37Z"/>
      <path class="cls-2" d="m155.08,221.44v-4.74c2.62,0,4.74,2.12,4.75,4.73h-4.75Z"/>
      <path class="cls-2" d="m155.07,204.85v-4.74s4.74,0,4.74,0c0,2.62-2.12,4.74-4.74,4.75Z"/>
      <path class="cls-2" d="m195.44,221.4h-4.75c0-2.61,2.12-4.74,4.74-4.74v4.74Z"/>
      <path class="cls-2" d="m195.42,204.81c-2.62,0-4.75-2.12-4.76-4.73h4.75s0,4.73,0,4.73Z"/>
      <path class="cls-2" d="m175.26,219.05c-9.3.01-16.85-3.7-16.85-8.28,0-4.58,7.53-8.3,16.83-8.31,9.31-.01,16.85,3.7,16.86,8.28,0,4.58-7.53,8.3-16.84,8.31Z"/>
    </g>
    <rect class="cls-6" x="158.24" y="205.54" width="33.85" height="10.66" transform="translate(-.23 .19) rotate(-.06)"/>
    <g class="cls-3">
      <path class="cls-1" d="m175.1,215.88v-.94c-.79-.09-1.43-.36-1.93-.83-.5-.46-.75-1.08-.77-1.86h1.65c.02.32.12.61.3.85.18.24.43.41.75.5v-2.57c-.08-.02-.15-.05-.23-.07-.08-.02-.16-.05-.24-.07-.66-.23-1.16-.52-1.51-.88-.35-.36-.52-.83-.52-1.43,0-.7.22-1.26.68-1.69.46-.43,1.06-.67,1.81-.74v-.99s.82,0,.82,0v1c.73.07,1.33.33,1.78.76s.69.99.72,1.67h-1.67c0-.23-.08-.45-.23-.65-.14-.2-.34-.34-.59-.42v2.27c.07.02.13.05.2.07.06.02.13.04.2.07.42.15.81.32,1.16.51.35.19.63.45.84.77.21.32.32.73.32,1.24,0,.42-.1.82-.31,1.18-.21.37-.51.67-.91.91-.4.24-.9.38-1.48.41v.93s-.82,0-.82,0Zm-.86-7.41c0,.26.08.47.23.63.15.16.36.29.62.41v-2.02c-.25.05-.46.16-.62.33-.16.17-.24.39-.24.66Zm2.73,4.09c0-.32-.1-.58-.29-.77-.2-.19-.45-.34-.76-.47v2.31c.33-.05.58-.17.77-.35.19-.19.28-.43.28-.72Z"/>
    </g>
  </g>
  <g>
    <g>
      <path class="cls-1" d="m247.1,196.51l-42.73.05c-1.31,0-2.37,1.06-2.37,2.37l.02,23.7c0,1.31,1.07,2.37,2.38,2.37l42.73-.05c1.31,0,2.37-1.06,2.37-2.37l-.02-23.7c0-1.31-1.07-2.37-2.38-2.37Z"/>
      <path class="cls-2" d="m205.58,221.44v-4.74c2.62,0,4.74,2.12,4.75,4.73h-4.75Z"/>
      <path class="cls-2" d="m205.56,204.85v-4.74s4.74,0,4.74,0c0,2.62-2.12,4.74-4.74,4.75Z"/>
      <path class="cls-2" d="m245.94,221.4h-4.75c0-2.61,2.12-4.74,4.75-4.74v4.74Z"/>
      <path class="cls-2" d="m245.92,204.81c-2.62,0-4.75-2.12-4.76-4.73h4.75s0,4.73,0,4.73Z"/>
      <path class="cls-2" d="m225.76,219.05c-9.3.01-16.85-3.7-16.85-8.28,0-4.58,7.53-8.3,16.83-8.31,9.31-.01,16.85,3.7,16.86,8.28,0,4.58-7.54,8.3-16.84,8.31Z"/>
    </g>
    <rect class="cls-6" x="208.74" y="205.54" width="33.85" height="10.66" transform="translate(-.23 .25) rotate(-.06)"/>
    <g class="cls-3">
      <path class="cls-1" d="m225.59,215.88v-.94c-.79-.09-1.43-.36-1.93-.83-.5-.46-.75-1.08-.77-1.86h1.65c.02.32.12.61.3.85.18.24.43.41.75.5v-2.57c-.08-.02-.15-.05-.23-.07-.08-.02-.16-.05-.24-.07-.66-.23-1.16-.52-1.51-.88-.35-.36-.52-.83-.52-1.43,0-.7.22-1.26.68-1.69.46-.43,1.06-.67,1.81-.74v-.99s.82,0,.82,0v1c.73.07,1.33.33,1.78.76s.69.99.72,1.67h-1.67c0-.23-.08-.45-.23-.65-.14-.2-.34-.34-.59-.42v2.27c.07.02.13.05.2.07.06.02.13.04.2.07.42.15.81.32,1.16.51.35.2.63.45.84.77.21.32.32.73.32,1.24,0,.42-.1.82-.31,1.18-.21.37-.51.67-.91.91-.4.24-.9.38-1.48.41v.93s-.82,0-.82,0Zm-.86-7.41c0,.26.08.47.23.63.15.16.36.29.62.41v-2.02c-.25.05-.46.16-.62.33-.16.17-.24.39-.24.66Zm2.73,4.09c0-.32-.1-.58-.29-.77-.2-.19-.45-.34-.76-.47v2.31c.33-.05.58-.17.77-.35.19-.19.28-.43.28-.72Z"/>
    </g>
  </g>
  <g>
    <g>
      <path class="cls-1" d="m297.6,196.51l-42.73.05c-1.31,0-2.37,1.06-2.37,2.37l.03,23.7c0,1.31,1.07,2.37,2.38,2.37l42.73-.05c1.31,0,2.37-1.06,2.37-2.37l-.02-23.7c0-1.31-1.07-2.37-2.38-2.37Z"/>
      <path class="cls-2" d="m256.08,221.44v-4.74c2.62,0,4.74,2.12,4.75,4.73h-4.75Z"/>
      <path class="cls-2" d="m256.06,204.85v-4.74s4.74,0,4.74,0c0,2.62-2.12,4.74-4.74,4.75Z"/>
      <path class="cls-2" d="m296.44,221.4h-4.75c0-2.61,2.12-4.74,4.74-4.74v4.74Z"/>
      <path class="cls-2" d="m296.42,204.81c-2.62,0-4.75-2.12-4.76-4.73h4.75s0,4.73,0,4.73Z"/>
      <path class="cls-2" d="m276.26,219.05c-9.3.01-16.85-3.7-16.85-8.28,0-4.58,7.53-8.3,16.83-8.31,9.3-.01,16.85,3.7,16.86,8.28,0,4.58-7.53,8.3-16.84,8.31Z"/>
    </g>
    <rect class="cls-6" x="259.24" y="205.54" width="33.85" height="10.66" transform="translate(-.23 .3) rotate(-.06)"/>
    <g class="cls-3">
      <path class="cls-1" d="m276.09,215.88v-.94c-.79-.09-1.43-.36-1.93-.83-.5-.46-.75-1.08-.77-1.86h1.65c.02.32.12.61.3.85.18.24.43.41.75.5v-2.57c-.08-.02-.15-.05-.23-.07-.08-.02-.16-.05-.24-.07-.66-.23-1.16-.52-1.51-.88-.35-.36-.52-.83-.52-1.42,0-.7.22-1.26.68-1.69.46-.43,1.06-.67,1.8-.74v-.99s.82,0,.82,0v1c.73.07,1.32.33,1.78.76.45.43.69.99.72,1.67h-1.67c0-.23-.08-.45-.23-.65-.14-.2-.34-.34-.59-.42v2.27c.07.02.13.05.2.07.07.02.13.04.2.07.42.15.81.32,1.16.51.35.19.63.45.84.77.21.32.32.73.32,1.24,0,.42-.1.82-.31,1.18s-.51.67-.91.91c-.4.24-.9.38-1.48.41v.93s-.82,0-.82,0Zm-.86-7.41c0,.26.08.47.23.63.16.16.36.29.62.41v-2.02c-.25.05-.46.16-.62.33-.16.17-.24.39-.24.66Zm2.73,4.09c0-.32-.1-.58-.29-.77-.2-.19-.45-.34-.76-.47v2.31c.33-.05.58-.17.77-.35.19-.19.28-.43.28-.72Z"/>
    </g>
  </g>
</svg>