<?xml version="1.0" encoding="UTF-8"?>
<svg id="Layer_1" data-name="Layer 1" xmlns="http://www.w3.org/2000/svg" viewBox="0 0 300 225">
  <defs>
    <style>
      .cls-1 {
        fill: #fff;
      }

      .cls-2 {
        fill: #d0dae3;
      }

      .cls-3 {
        isolation: isolate;
        opacity: .35;
      }

      .cls-4 {
        fill: #232323;
      }

      .cls-5 {
        fill: #444;
      }

      .cls-6 {
        fill: #ff2402;
      }

      .cls-7 {
        fill: #7f7f7f;
      }
    </style>
  </defs>
  <path class="cls-2" d="m34.09,62.98l.05,1c0,.61-.12,1.2-.35,1.76s-.57,1.07-1.01,1.51h5.61l.14-1.69h2.61v4.31h-11.68v-2.62h.12c.37-.09.64-.46.83-1.11.18-.64.28-1.31.28-2.01l-.05-1.15h-1.91v-2.64h1.82l-.09-2.51c0-1.64.47-2.93,1.41-3.87.94-.94,2.2-1.41,3.78-1.41,1.68,0,2.98.44,3.91,1.31.93.87,1.37,2.02,1.34,3.45l-.02.07h-3.34c0-.75-.18-1.3-.54-1.66-.36-.35-.81-.53-1.36-.53s-.99.23-1.3.69c-.31.46-.47,1.11-.47,1.95l.12,2.51h4.17v2.64h-4.05Z"/>
  <path class="cls-2" d="m142.12,88.94H53.15V29.93c0-.76-.61-1.37-1.37-1.37h-2.75c-.76,0-1.37.61-1.37,1.37v61.75c0,1.52,1.23,2.74,2.75,2.74h91.71c.76,0,1.37-.61,1.37-1.37v-2.74c0-.76-.61-1.37-1.37-1.37Z"/>
  <path class="cls-6" d="m86.96,66.11c1.07,1.06,2.8,1.06,3.87,0l14.52-14.52,22.1,22.1-4.47,4.47c-2.62,2.62-.76,7.11,2.95,7.11h14.1c1.53,0,2.78-1.24,2.78-2.78v-14.09c0-2.51-2.05-4.18-4.2-4.18-1.02,0-2.07.38-2.92,1.23l-4.35,4.35-24.04-24.04c-1.07-1.07-2.81-1.07-3.88,0l-14.53,14.53-28.47-28.35c-.54-.54-1.4-.54-1.94,0l-1.94,1.94c-.54.54-.54,1.41,0,1.94l30.43,30.29h0Zm50.35,5.48v8.19h-8.19l8.19-8.19Z"/>
  <g class="cls-3">
    <ellipse class="cls-4" cx="218.28" cy="195.64" rx="39.96" ry="6.45"/>
  </g>
  <path class="cls-4" d="m247.22,149.92c-.16,1.31-4.48,38.2-10.77,43.37-6.28,5.17-9.58,3.43-10.86,2.06-1.34-1.44-3.03-4.03.1-6.95,2.52-2.35,4.28-12.74,1.77-28.96l19.75-9.52Z"/>
  <path class="cls-4" d="m223.23,147.62c-.17,1.3-4.49,38.2-10.77,43.37-6.29,5.17-9.59,3.43-10.86,2.05-1.34-1.44-3.03-4.03.1-6.94,2.52-2.35,4.28-12.74,1.77-28.96l19.75-9.52Z"/>
  <path class="cls-4" d="m206.45,98.4c2.63-1.2,5.74-.41,7.1,2.45,1.36,2.84-.32,7.29-3.99,8.99-10.41,4.83-21.85,4.09-31.56-2.04-3.41-2.15-4.52-6.79-2.8-9.42,1.72-2.66,4.91-3.04,7.37-1.51,7.34,4.63,15.99,5.2,23.88,1.54Z"/>
  <path class="cls-1" d="m242.2,94.2c-7.26-4.03-16.47-6.19-33.46-6.86,4.05-1.71,9.41-2.51,17.26-2.51h.01c13.43,0,19.64,2.29,24.32,7.61,5.52,6.28,8.31,24.25,8.86,38.24-.89-13.13-6.22-30.49-16.99-36.48Z"/>
  <path class="cls-5" d="m259.19,130.68c.13,1.93.16,3.76.11,5.46,0-1.72-.03-3.55-.11-5.46Z"/>
  <path class="cls-5" d="m270.94,153.22c1.92,1.36,4.4,1.83,5.7.67,1.3-1.15.91-4.1-1.23-6.21-5.77-5.75-13.35-9.62-21.69-10.87-3.11-.45-5.36,2.17-4.98,5.34.37,3.19,2.32,5.47,4.45,5.44,6.1-.1,12.37,1.77,17.74,5.62Z"/>
  <g>
    <path class="cls-1" d="m248.34,64.59c.26-12.13-9.13-17.71-29.86-15.68-6.58.64-13.82-6.05-18.75-6.71-14.18-1.88-16,7.46-16,7.46h-.03c4.25-16.31,21.86-28.26,42.64-27.73,23.58.6,42.29,17.05,41.79,36.74-.5,19.69-20.02,35.17-43.6,34.57-2.05-.05-4.07-.23-6.04-.52v-.02c20.73,1.97,29.51-12,29.85-28.1Z"/>
    <path class="cls-5" d="m182.74,56.5c.06-2.34.4-4.62.97-6.83h.03s1.82-9.34,16-7.46c4.93.65,12.17,7.35,18.75,6.71,20.73-2.03,30.11,3.55,29.86,15.68-.35,16.1-9.12,30.07-29.85,28.1v.02c-20.65-2.98-36.2-18.25-35.75-36.22Z"/>
    <path class="cls-7" d="m209.32,86.21c4.52.29,13.45-3.38,11.99-12.81-1.46-9.43-12.16-10.86-15.72-11.08-3.57-.23-14.04-.16-12.58,9.26,1.46,9.43,11.79,14.34,16.32,14.64Z"/>
    <path class="cls-4" d="m205.75,64.77c-1.96-.13-4.54,1.79-4.51,4.22.04,2.43,5.71,2.71,5.71,2.71h.16s5.7.46,4.97-2.01c-.72-2.48-3.95-4.76-5.91-4.89l-.42-.03Z"/>
    <path class="cls-4" d="m209.01,81.92c-.18,0-.35,0-.53-.02-1.09-.07-2.19-.35-3.25-.85-1.02-.48-1.96-1.12-2.81-1.92-.85-.8-1.56-1.71-2.11-2.71-.17-.3-.06-.68.25-.85.3-.17.68-.06.85.25.49.89,1.12,1.7,1.87,2.41.75.7,1.59,1.28,2.49,1.7.92.43,1.86.68,2.8.74.92.06,1.79-.06,2.56-.37.75-.3,1.39-.75,1.9-1.33.51-.58.88-1.29,1.1-2.1.09-.33.43-.53.76-.44.33.09.53.43.44.76-.27,1-.73,1.87-1.37,2.6-.65.74-1.45,1.3-2.38,1.67-.8.32-1.66.48-2.57.48Z"/>
    <circle class="cls-4" cx="224.07" cy="60.23" r="1.75"/>
    <circle class="cls-4" cx="195.87" cy="55.02" r="1.75"/>
    <path class="cls-5" d="m242.37,67.62c-.27,6.88,1.71,12.54,4.4,12.64,2.69.1,5.09-5.39,5.36-12.26.26-6.88-1.71-12.54-4.4-12.64-2.7-.11-5.1,5.39-5.36,12.26Z"/>
    <path class="cls-4" d="m245.58,60.05c2.22.1,3.99,4.3,4.63,10.22.08-.74.14-1.52.17-2.32.18-5.4-1.1-9.84-2.86-9.92-.75-.04-1.46.73-2.05,2.04.04,0,.07-.01.11-.01Z"/>
    <path class="cls-7" d="m229.54,61.16c-.36,0-.66-.28-.69-.64-.04-.52-.17-1.03-.4-1.5-.23-.47-.55-.89-.94-1.24-.4-.36-.87-.64-1.39-.81-.51-.18-1.06-.25-1.6-.21-.39.03-.71-.26-.73-.64s.26-.71.64-.73c.73-.05,1.45.04,2.14.28.7.24,1.32.61,1.86,1.09.53.47.95,1.03,1.26,1.66.31.63.49,1.31.54,2.01.03.38-.26.71-.64.73-.02,0-.03,0-.05,0Z"/>
    <path class="cls-7" d="m191.07,54.07c-.08,0-.16-.01-.24-.04-.36-.13-.54-.53-.41-.88.25-.69.63-1.31,1.13-1.84.51-.54,1.1-.96,1.76-1.25.64-.29,1.32-.44,2.03-.47.69-.02,1.4.09,2.05.33.36.13.54.53.41.88-.13.36-.53.54-.88.41-.49-.18-1.02-.26-1.54-.25-.53.02-1.04.13-1.51.35-.49.22-.93.53-1.31.93-.37.4-.66.86-.84,1.37-.1.28-.37.45-.65.45Z"/>
  </g>
  <path class="cls-5" d="m201.68,92.45c1.7-1.94,3.62-3.48,6.02-4.65.33-.16.69-.3,1.04-.45,2.74.11,5.25.26,7.61.45,5.78.21,10.31.85,13.99,2.01,4.74,1.1,8.51,2.55,11.85,4.41,10.77,5.98,16.1,23.35,16.99,36.48.08,1.91.11,3.74.11,5.46-.02,4.44-.3,8.13-.83,10.36-.58,2.41-2.88,4.47-6.51,6.1-5.78,2.59-14.93,4.07-25.95,4.07h-.01c-1.03,0-2.04-.02-3.04-.04-.31,0-.61-.02-.92-.03-.69-.03-1.38-.05-2.05-.09-.34-.02-.67-.04-1-.06-.65-.04-1.3-.09-1.93-.14-.3-.03-.6-.05-.9-.08-.77-.07-1.53-.15-2.27-.24-.13-.02-.26-.03-.39-.04-.88-.11-1.72-.23-2.55-.36-.2-.03-.39-.07-.59-.1-.62-.11-1.23-.21-1.82-.33-.25-.05-.49-.1-.74-.15-.53-.12-1.05-.23-1.56-.35-.23-.06-.46-.12-.69-.17-.55-.15-1.08-.29-1.6-.45-.12-.03-.25-.07-.37-.1h.02c-3.55-1.1-6.3-2.5-8.04-4.16-.02-.02-.03-.04-.05-.05-.33-.31-.62-.64-.88-.97-.1-.13-.16-.27-.25-.4-.15-.23-.31-.46-.42-.69-.18-.37-.32-.75-.42-1.15-2.25-9.42-.07-44.7,8.15-54.06Z"/>
  <ellipse class="cls-5" cx="225.88" cy="142.31" rx="32.98" ry="25.99"/>
  <g>
    <path class="cls-4" d="m238.35,101.49c1.85-2.22,4.99-2.86,7.46-.88,2.46,1.96,2.88,6.71.31,9.83-7.28,8.87-17.9,13.18-29.31,11.88-4.01-.46-7.02-4.15-6.62-7.27.4-3.14,3.1-4.87,5.98-4.57,8.63.99,16.66-2.27,22.17-8.98Z"/>
    <path class="cls-4" d="m207.32,112.85c-.77-.14-1.45-.63-1.48-1.21-.02-.58.77-1.16,1.76-1.14,2.7.05,5.37.97,7.59,2.67.82.64.72,1.78-.13,2.42-.85.65-1.84.7-2.32.19-1.39-1.48-3.27-2.55-5.43-2.94Z"/>
    <path class="cls-4" d="m206.41,117.28c-.78.07-1.57-.2-1.75-.75-.19-.55.42-1.33,1.38-1.58,2.61-.7,5.43-.56,8.04.46.97.38,1.18,1.51.55,2.36-.63.86-1.57,1.19-2.18.83-1.73-1.03-3.85-1.53-6.03-1.31Z"/>
    <path class="cls-4" d="m207.82,121.68c-.66.42-1.48.54-1.9.13-.41-.4-.23-1.37.51-2.04,2-1.81,4.58-2.97,7.36-3.25,1.04-.1,1.74.8,1.57,1.85-.18,1.05-.86,1.77-1.56,1.73-2.02-.13-4.13.39-5.97,1.58Z"/>
  </g>
  <path class="cls-4" d="m222.25,191.76c-.79.22-1.66.09-1.95-.44s.18-1.45,1.12-1.9c2.56-1.22,5.5-1.62,8.38-1.05,1.07.21,1.51,1.34,1.02,2.33-.49,1.01-1.4,1.53-2.09,1.27-2-.74-4.27-.86-6.48-.21Z"/>
  <path class="cls-4" d="m223.48,196.35c-.7.43-1.56.55-1.99.12-.43-.43-.23-1.44.55-2.14,2.12-1.88,4.84-3.08,7.77-3.34,1.09-.09,1.82.87,1.62,1.96-.19,1.1-.92,1.86-1.66,1.8-2.12-.16-4.34.36-6.29,1.6Z"/>
  <path class="cls-4" d="m226.86,199.82c-.42.7-1.14,1.2-1.73,1.02-.58-.19-.86-1.18-.48-2.15,1.03-2.64,2.91-4.94,5.39-6.51.93-.59,2.02-.07,2.34,1,.33,1.07.03,2.07-.66,2.36-1.96.82-3.7,2.3-4.87,4.28Z"/>
  <path class="cls-4" d="m197.17,189.03c-.79.23-1.66.09-1.95-.44-.29-.53.18-1.45,1.12-1.9,2.56-1.22,5.5-1.61,8.38-1.05,1.07.21,1.51,1.33,1.02,2.33-.49,1.01-1.4,1.52-2.09,1.27-2-.74-4.27-.86-6.48-.21Z"/>
  <path class="cls-4" d="m198.4,193.62c-.69.43-1.56.55-1.99.11-.43-.43-.24-1.44.55-2.13,2.12-1.88,4.84-3.08,7.77-3.34,1.09-.1,1.82.86,1.62,1.96-.19,1.1-.92,1.86-1.66,1.8-2.12-.16-4.34.36-6.29,1.6Z"/>
  <path class="cls-4" d="m201.79,197.09c-.42.7-1.14,1.2-1.72,1.01-.58-.18-.87-1.18-.48-2.15,1.03-2.64,2.91-4.94,5.39-6.51.93-.58,2.02-.06,2.34,1.01.33,1.07.03,2.07-.65,2.36-1.96.83-3.7,2.3-4.87,4.28Z"/>
  <path class="cls-4" d="m170.76,99.12c-.79-.27-1.44-.88-1.37-1.5.06-.62.99-1.1,2.04-.93,2.85.47,5.52,1.85,7.6,3.99.77.8.48,1.99-.51,2.54-.99.55-2.05.46-2.48-.16-1.23-1.77-3.06-3.19-5.28-3.94Z"/>
  <path class="cls-4" d="m170.18,104.02c-.82.12-1.68-.13-1.9-.71-.23-.57.38-1.44,1.39-1.76,2.75-.88,5.76-.87,8.59.1,1.05.36,1.33,1.55.7,2.49-.63.95-1.62,1.35-2.28.99-1.91-1.02-4.18-1.45-6.5-1.11Z"/>
  <path class="cls-4" d="m173.6,95.21c-.68-.48-1.13-1.25-.9-1.82.23-.57,1.26-.79,2.22-.33,2.6,1.24,4.79,3.31,6.2,5.95.52.98-.09,2.05-1.2,2.29-1.11.25-2.1-.12-2.34-.84-.69-2.04-2.05-3.91-3.98-5.25Z"/>
  <path class="cls-4" d="m175.43,99.78c-.31,0-.63-.09-.91-.28l-34.67-24c-.73-.5-.91-1.5-.4-2.23.5-.73,1.5-.91,2.23-.4l34.67,24c.73.5.91,1.5.4,2.23-.31.45-.81.69-1.32.69Z"/>
</svg>