<?xml version="1.0" encoding="UTF-8"?>
<svg id="Layer_1" data-name="Layer 1" xmlns="http://www.w3.org/2000/svg" viewBox="0 0 300 225">
  <defs>
    <style>
      .cls-1 {
        fill: #fff;
      }

      .cls-2 {
        fill: #716558;
      }

      .cls-3 {
        fill: #d0dae3;
      }

      .cls-4 {
        fill: #232323;
      }

      .cls-5 {
        fill: #b58b6b;
      }

      .cls-6 {
        fill: #495057;
      }

      .cls-7 {
        fill: #444;
      }

      .cls-8 {
        fill: #7f7f7f;
      }

      .cls-9 {
        fill: #e7ecf0;
      }
    </style>
  </defs>
  <path class="cls-7" d="m181.12,117.92c-1.33-12.49-6.52-27.72-16.38-33.23-4.23-2.36-9.15-4.07-15.93-5.21-1.61.27-3.11.57-4.53.9-.25.06-.48.12-.73.18-.42.1-.84.21-1.24.32-.26.07-.51.14-.76.21-.41.12-.81.24-1.2.36-.21.07-.41.13-.62.2-.57.19-1.12.38-1.65.58-.16.06-.31.12-.46.18-.4.16-.8.32-1.19.48-.18.08-.36.16-.54.24-.37.16-.74.33-1.1.51-.15.07-.31.15-.46.22-.5.25-.99.5-1.47.77-10.58,5.85-15.84,22.88-16.74,35.76-.08,1.87-.12,3.67-.11,5.36,0,4.36.27,7.98.79,10.17.02.1.07.2.1.3,2.63,11.98,15.87,21.12,31.83,21.15,17.87.04,32.38-11.35,32.41-25.44,0-.13,0-.26-.01-.39.28-3.64.29-8.43,0-13.62Z"/>
  <path class="cls-1" d="m172.66,82.98c-4.09-4.67-9.39-6.96-19.85-7.42-.16,0-.34-.01-.5-.02-.53-.02-1.06-.04-1.62-.05-.55-.01-1.1-.02-1.68-.02-.07,0-.13,0-.19,0h-.12s-.07,0-.11,0c-.6,0-1.19,0-1.77.02-.66,0-1.29.03-1.91.05-.06,0-.12,0-.18,0-10.47.42-15.79,2.7-19.89,7.35-5.43,6.16-8.2,23.78-8.77,37.5.9-12.88,6.16-29.91,16.74-35.76,4.24-2.34,9.16-4.03,15.95-5.15,6.78,1.15,11.7,2.85,15.93,5.21,10.56,5.89,15.76,22.94,16.61,35.82-.52-13.72-3.22-31.36-8.63-37.54Z"/>
  <path class="cls-4" d="m128.56,88.02c1.8-2.19,4.88-2.85,7.32-.92,2.43,1.91,2.87,6.56.37,9.64-7.08,8.75-17.48,13.05-28.68,11.85-3.94-.42-6.91-4.02-6.54-7.09.37-3.09,3.01-4.8,5.83-4.52,8.47.9,16.33-2.34,21.7-8.97Z"/>
  <path class="cls-4" d="m96.82,100.82c-.82-.06-1.58-.48-1.67-1.08-.09-.6.66-1.3,1.7-1.39,2.82-.26,5.7.39,8.21,1.9.93.57.96,1.77.15,2.54-.81.77-1.83.95-2.4.47-1.61-1.38-3.7-2.27-5.99-2.43Z"/>
  <path class="cls-4" d="m97.49,105.61c-.75.32-1.63.29-1.98-.2-.35-.49,0-1.46.88-2.01,2.39-1.51,5.25-2.25,8.18-2.04,1.09.08,1.65,1.14,1.28,2.19-.37,1.05-1.2,1.68-1.92,1.51-2.06-.49-4.32-.33-6.44.57Z"/>
  <path class="cls-4" d="m168.91,88.02c-1.8-2.19-4.88-2.85-7.32-.92-2.43,1.91-2.87,6.56-.37,9.64,7.08,8.75,17.48,13.05,28.68,11.85,3.94-.42,6.91-4.02,6.54-7.09-.37-3.09-3.01-4.8-5.83-4.52-8.47.9-16.34-2.34-21.7-8.97Z"/>
  <path class="cls-4" d="m200.02,104.22c.81-.14,1.65.09,1.89.65.23.55-.33,1.42-1.32,1.76-2.67.94-5.62,1.01-8.43.15-1.04-.32-1.35-1.48-.76-2.42.6-.94,1.55-1.37,2.21-1.04,1.89.95,4.14,1.3,6.4.9Z"/>
  <path class="cls-4" d="m199.29,99.54c.74-.36,1.61-.38,1.99.1.38.47.08,1.45-.77,2.06-2.3,1.64-5.13,2.53-8.05,2.48-1.09-.02-1.71-1.05-1.4-2.12.31-1.07,1.11-1.74,1.84-1.61,2.08.38,4.34.1,6.4-.91Z"/>
  <path class="cls-1" d="m148.62,34.25c-5.78-.01-12.52-2.29-16.33-3.26-4.48-1.14-6.6-1.18-9.9-1.18-9.99-.02-13.07,5.22-13.92,7.35,6.59-20.25,27.45-23.05,39.77-23.03h1.02c12.32.02,33.16,2.9,39.68,23.18-.83-2.14-3.9-7.39-13.89-7.41-3.3,0-5.43.02-9.91,1.15-3.82.96-10.57,3.21-16.35,3.2h-.17Z"/>
  <path class="cls-7" d="m188.9,37.32l.03-.02c-.84-2.14-3.9-7.39-13.89-7.41-3.3,0-5.43.02-9.91,1.15-3.82.96-10.57,3.21-16.35,3.2h-.17c-5.78-.01-12.52-2.29-16.33-3.26-4.48-1.14-6.6-1.18-9.9-1.18-9.99-.02-13.07,5.22-13.92,7.35l.03.02c-2.12,2.02-3.53,7.34-3.36,13.56.22,7.89,2.91,14.21,6,14.13.06,0,.11-.02.17-.03,7.16,14.47,26.85,21.21,37.19,21.23,10.34.02,30.2-6.65,37.46-21.1.07,0,.13.03.19.03,3.09.1,5.8-6.22,6.05-14.11.2-6.22-1.19-11.54-3.31-13.57Z"/>
  <path class="cls-8" d="m148.58,75.63c-5.22,0-16.31-4.87-16.28-15.49.02-10.62,12.25-11.44,16.37-11.44,4.12,0,16.36.87,16.34,11.5-.02,10.63-11.2,15.45-16.43,15.44Z"/>
  <path class="cls-4" d="m148.92,51.48c2.27,0,5.62,2.38,6.01,5.14.39,2.76-6.18,2.65-6.18,2.65h-.19s-6.56.09-6.17-2.68c.4-2.76,3.76-5.12,6.03-5.12h.49Z"/>
  <g>
    <circle class="cls-4" cx="131.93" cy="43.4" r="2.01"/>
    <path class="cls-4" d="m167.45,43.46c0,1.11-.9,2-2.01,2-1.1,0-2-.9-2-2.01,0-1.11.9-2.01,2.01-2,1.11,0,2.01.9,2.01,2.01Z"/>
  </g>
  <path class="cls-4" d="m184.64,41.83c2.55.1,4.61,4.9,5.38,11.69.09-.85.16-1.74.18-2.66.17-6.2-1.34-11.29-3.35-11.36-.86-.03-1.67.85-2.33,2.35.04,0,.08-.02.12-.02Z"/>
  <path class="cls-4" d="m112.74,41.7c-2.55.09-4.63,4.89-5.43,11.67-.09-.85-.15-1.74-.17-2.66-.14-6.2,1.38-11.28,3.4-11.35.85-.03,1.67.86,2.32,2.36-.04,0-.08-.02-.12-.02Z"/>
  <path class="cls-8" d="m135.8,38.57c-.21,0-.43-.09-.58-.26-.42-.46-.93-.82-1.5-1.08-.57-.26-1.18-.4-1.8-.41-.6-.02-1.19.08-1.75.3-.57.22-1.08.53-1.52.94-.32.3-.82.28-1.12-.04-.3-.32-.28-.82.04-1.12.59-.55,1.27-.97,2.03-1.26.75-.29,1.55-.42,2.35-.4.83.02,1.64.21,2.41.55.77.35,1.44.83,2.01,1.45.3.32.27.82-.05,1.12-.15.14-.34.21-.53.21Z"/>
  <path class="cls-8" d="m169.39,38.57c-.21,0-.43-.09-.58-.25-.42-.46-.92-.82-1.5-1.08-.57-.26-1.18-.4-1.8-.41-.6-.02-1.19.08-1.76.3-.57.21-1.08.53-1.52.94-.32.3-.82.28-1.12-.04-.3-.32-.28-.82.04-1.12.59-.55,1.27-.97,2.03-1.25.76-.29,1.55-.42,2.36-.4.83.02,1.64.21,2.41.55.77.35,1.44.84,2.01,1.45.3.32.28.82-.05,1.12-.15.14-.34.21-.53.21Z"/>
  <path class="cls-4" d="m148.54,71.01h-.02c-1.27,0-2.51-.25-3.66-.75-1.13-.48-2.14-1.17-2.99-2.02-.87-.87-1.54-1.88-2.01-3-.15-.36.02-.78.38-.94.36-.15.78.02.94.38.4.95.97,1.8,1.71,2.54.72.73,1.58,1.31,2.54,1.72.98.42,2.02.63,3.1.63,1.1,0,2.12-.21,3.11-.62.95-.4,1.81-.97,2.54-1.71.74-.73,1.31-1.59,1.72-2.54.15-.36.57-.53.94-.38.36.15.53.57.38.94-.48,1.12-1.16,2.13-2.02,2.99-.87.86-1.87,1.54-3,2.01-1.16.49-2.39.73-3.65.73Z"/>
  <g>
    <path class="cls-3" d="m53.12,184.04l1.32-.16v-6.39l-1.34.02v-.72l2.5-.54v7.63l1.31.16v.74h-3.79v-.74h0Z"/>
    <path class="cls-3" d="m60.35,184c.56,0,.99-.21,1.32-.64.32-.42.49-1.11.5-2.05l-.02-.03c-.16.26-.38.46-.66.6s-.6.21-.95.21c-.83,0-1.49-.26-1.97-.77-.48-.51-.72-1.24-.72-2.16s.26-1.62.77-2.19c.51-.57,1.14-.85,1.87-.85.89,0,1.59.28,2.11.83.51.56.77,1.38.77,2.47v1.54c0,1.33-.27,2.32-.82,2.97-.55.64-1.28.97-2.19.97-.3,0-.6-.03-.91-.08-.31-.06-.59-.14-.83-.26l.18-.87c.24.11.48.19.73.24.25.05.53.07.84.07Zm.19-2.81c.43,0,.78-.09,1.06-.28.28-.18.49-.42.61-.7v-.9c0-.75-.14-1.32-.43-1.71-.29-.38-.71-.57-1.26-.57-.43,0-.79.2-1.08.6-.29.4-.44.91-.44,1.54s.14,1.1.41,1.48c.27.37.65.55,1.12.55Z"/>
    <path class="cls-3" d="m64.68,184.78v-.79l2.79-3.11c.5-.56.84-1,1.02-1.33.18-.33.27-.66.27-1.01,0-.43-.12-.79-.38-1.08s-.58-.44-.99-.44c-.59,0-1.02.15-1.3.45-.28.3-.42.73-.42,1.28h-1.11v-.04c-.03-.73.21-1.35.72-1.85.51-.5,1.21-.75,2.11-.75.77,0,1.38.22,1.84.67.45.45.68,1.02.68,1.71,0,.46-.14.93-.41,1.4-.28.46-.66.97-1.16,1.51l-2.24,2.44v.03h3.04l.09-.98h.98v1.88h-5.53Z"/>
    <path class="cls-3" d="m76.88,181.53c0,1.09-.24,1.92-.73,2.51-.48.58-1.15.87-1.99.87s-1.5-.29-1.99-.87-.73-1.42-.73-2.5v-2.02c0-1.09.24-1.92.73-2.51.48-.58,1.14-.88,1.98-.88s1.5.29,1.99.88.73,1.42.73,2.51v2.02Zm-1.15-2.27c0-.74-.13-1.29-.4-1.67-.27-.37-.66-.56-1.17-.56s-.89.19-1.15.56c-.27.37-.4.93-.4,1.67v2.5c0,.74.13,1.3.4,1.67s.66.57,1.16.57.9-.19,1.16-.56c.26-.38.4-.93.4-1.68v-2.5h0Z"/>
  </g>
  <g>
    <path class="cls-3" d="m220.05,184.78v-.79l2.8-3.11c.5-.56.84-1,1.02-1.33.18-.33.27-.66.27-1.01,0-.43-.12-.79-.38-1.08s-.58-.44-.99-.44c-.59,0-1.02.15-1.3.45-.28.3-.42.73-.42,1.28h-1.11v-.04c-.03-.73.21-1.35.72-1.85s1.21-.75,2.11-.75c.77,0,1.38.22,1.84.67.45.45.68,1.02.68,1.71,0,.46-.14.93-.41,1.4-.28.46-.66.97-1.16,1.51l-2.24,2.44v.03h3.04l.09-.98h.98v1.88h-5.53Z"/>
    <path class="cls-3" d="m232.24,181.53c0,1.09-.24,1.92-.73,2.51-.48.58-1.15.87-1.99.87s-1.5-.29-1.99-.87c-.49-.58-.73-1.42-.73-2.5v-2.02c0-1.09.24-1.92.73-2.51s1.14-.88,1.98-.88,1.51.29,1.99.88.73,1.42.73,2.51v2.02h0Zm-1.15-2.27c0-.74-.14-1.29-.4-1.67-.27-.37-.66-.56-1.17-.56s-.89.19-1.15.56c-.27.37-.4.93-.4,1.67v2.5c0,.74.14,1.3.4,1.67s.66.57,1.16.57.9-.19,1.16-.56c.27-.38.4-.93.4-1.68v-2.5h0Z"/>
    <path class="cls-3" d="m233.52,184.78v-.79l2.8-3.11c.5-.56.84-1,1.02-1.33.18-.33.27-.66.27-1.01,0-.43-.12-.79-.38-1.08s-.58-.44-.99-.44c-.59,0-1.02.15-1.3.45-.28.3-.42.73-.42,1.28h-1.11v-.04c-.03-.73.21-1.35.72-1.85.51-.5,1.21-.75,2.11-.75.77,0,1.38.22,1.84.67.45.45.68,1.02.68,1.71,0,.46-.14.93-.41,1.4-.27.46-.66.97-1.16,1.51l-2.24,2.44v.03h3.04l.09-.98h.98v1.88h-5.53Z"/>
    <path class="cls-3" d="m245.71,181.53c0,1.09-.24,1.92-.73,2.51-.48.58-1.15.87-1.99.87s-1.5-.29-1.98-.87-.73-1.42-.73-2.5v-2.02c0-1.09.24-1.92.73-2.51.48-.58,1.15-.88,1.98-.88s1.5.29,1.99.88.73,1.42.73,2.51v2.02h0Zm-1.15-2.27c0-.74-.13-1.29-.4-1.67-.27-.37-.66-.56-1.17-.56s-.89.19-1.15.56c-.27.37-.4.93-.4,1.67v2.5c0,.74.13,1.3.4,1.67s.66.57,1.16.57.9-.19,1.16-.56c.26-.38.39-.93.39-1.68v-2.5h0Z"/>
  </g>
  <g>
    <path class="cls-3" d="m137,184.04l1.32-.16v-6.39l-1.34.02v-.72l2.5-.54v7.63l1.31.16v.74h-3.78v-.74Z"/>
    <path class="cls-3" d="m144.23,184c.55,0,.99-.21,1.32-.64s.49-1.11.5-2.05l-.02-.03c-.16.26-.38.46-.66.6s-.6.21-.95.21c-.83,0-1.49-.26-1.97-.77-.48-.51-.72-1.24-.72-2.16s.26-1.62.77-2.19c.51-.57,1.14-.85,1.87-.85.89,0,1.59.28,2.11.83.51.56.77,1.38.77,2.47v1.54c0,1.33-.27,2.32-.82,2.97s-1.28.97-2.19.97c-.3,0-.6-.03-.91-.08-.31-.06-.59-.14-.83-.26l.18-.87c.24.11.48.19.73.24.25.05.53.07.84.07Zm.19-2.81c.43,0,.78-.09,1.06-.28.28-.18.49-.42.61-.7v-.9c0-.75-.14-1.32-.43-1.71-.29-.38-.71-.57-1.26-.57-.43,0-.79.2-1.08.6-.29.4-.44.91-.44,1.54s.14,1.1.41,1.48c.27.37.65.55,1.13.55Z"/>
    <path class="cls-3" d="m150.99,184c.55,0,.99-.21,1.32-.64.32-.42.49-1.11.5-2.05l-.02-.03c-.16.26-.38.46-.66.6-.28.14-.6.21-.95.21-.83,0-1.49-.26-1.97-.77-.48-.51-.72-1.24-.72-2.16s.26-1.62.77-2.19c.51-.57,1.14-.85,1.87-.85.89,0,1.59.28,2.11.83.51.56.77,1.38.77,2.47v1.54c0,1.33-.27,2.32-.82,2.97-.55.64-1.28.97-2.19.97-.3,0-.6-.03-.91-.08-.31-.06-.59-.14-.84-.26l.18-.87c.24.11.48.19.73.24.24.05.53.07.84.07Zm.19-2.81c.43,0,.78-.09,1.06-.28.28-.18.49-.42.61-.7v-.9c0-.75-.15-1.32-.43-1.71-.29-.38-.71-.57-1.26-.57-.43,0-.79.2-1.08.6s-.44.91-.44,1.54.14,1.1.41,1.48c.27.37.65.55,1.13.55Z"/>
    <path class="cls-3" d="m160.9,181.53c0,1.09-.24,1.92-.73,2.51s-1.15.87-1.99.87-1.5-.29-1.99-.87-.73-1.42-.73-2.5v-2.02c0-1.09.24-1.92.73-2.51.48-.58,1.15-.88,1.98-.88s1.5.29,1.99.88c.49.58.73,1.42.73,2.51v2.02h0Zm-1.15-2.27c0-.74-.13-1.29-.4-1.67-.27-.37-.66-.56-1.17-.56s-.89.19-1.15.56c-.27.37-.4.93-.4,1.67v2.5c0,.74.13,1.3.4,1.67.27.38.65.57,1.16.57s.9-.19,1.16-.56c.26-.38.4-.93.4-1.68v-2.5h0Z"/>
  </g>
  <g>
    <path class="cls-3" d="m48.2,204.28c0-.51-.15-.92-.44-1.24-.29-.32-.79-.62-1.5-.89-1.39-.51-2.42-1.07-3.08-1.69s-1-1.5-1-2.63c0-1.05.34-1.91,1.01-2.58.67-.67,1.58-1.07,2.71-1.19v-2.02h1.49v2.04c1.09.16,1.95.62,2.58,1.37s.94,1.73.92,2.94l-.03.05h-2.66c0-.74-.15-1.31-.46-1.71-.31-.4-.72-.6-1.24-.6s-.94.15-1.21.46c-.27.31-.4.72-.4,1.23s.14.88.42,1.19c.28.3.79.6,1.53.9,1.38.54,2.41,1.12,3.07,1.74.67.62,1,1.48,1,2.6s-.34,1.95-1.01,2.6-1.58,1.04-2.72,1.16v1.86h-1.49v-1.85c-1.17-.12-2.13-.53-2.9-1.24-.76-.71-1.13-1.75-1.11-3.13l.02-.05h2.66c0,.84.19,1.44.58,1.8.39.36.88.54,1.46.54s1-.15,1.31-.45c.3-.3.45-.71.45-1.22Z"/>
    <path class="cls-3" d="m61.7,202.55c0,1.81-.41,3.18-1.24,4.11-.83.93-1.95,1.4-3.36,1.4s-2.55-.47-3.38-1.4c-.83-.93-1.25-2.31-1.25-4.11v-3.01c0-1.8.42-3.17,1.24-4.11.83-.94,1.95-1.41,3.37-1.41s2.54.47,3.37,1.41,1.25,2.31,1.25,4.11v3.01Zm-2.73-3.29c0-1.08-.16-1.87-.49-2.38s-.79-.75-1.41-.75-1.09.25-1.41.75c-.32.5-.48,1.29-.48,2.38v3.55c0,1.1.16,1.9.48,2.4.32.5.79.75,1.42.75s1.08-.25,1.4-.75c.32-.5.48-1.3.48-2.4v-3.55h0Z"/>
    <path class="cls-3" d="m66.46,207.87h-2.73v-2.4h2.73v2.4Z"/>
    <path class="cls-3" d="m70.99,199.88h1.54c.65,0,1.13-.17,1.44-.51.31-.34.47-.82.47-1.42,0-.55-.16-.99-.47-1.32-.31-.33-.77-.5-1.36-.5-.51,0-.94.15-1.29.45-.35.3-.52.69-.52,1.18h-2.65l-.02-.06c-.04-1.07.37-1.95,1.23-2.64.86-.69,1.92-1.04,3.19-1.04,1.41,0,2.54.34,3.38,1.01.84.67,1.26,1.64,1.26,2.89,0,.59-.19,1.16-.56,1.69s-.89.95-1.55,1.25c.76.27,1.33.68,1.73,1.24s.6,1.2.6,1.94c0,1.25-.45,2.23-1.36,2.95s-2.07,1.07-3.49,1.07c-1.27,0-2.36-.34-3.27-1.01s-1.35-1.62-1.32-2.85l.02-.06h2.65c0,.52.19.96.56,1.3s.85.51,1.43.51c.63,0,1.13-.17,1.5-.52.37-.35.55-.83.55-1.43,0-.72-.18-1.24-.54-1.58-.36-.33-.89-.5-1.59-.5h-1.54v-2.05h0Z"/>
    <path class="cls-3" d="m87.99,202.55c0,1.81-.41,3.18-1.24,4.11-.83.93-1.95,1.4-3.36,1.4s-2.55-.47-3.38-1.4c-.83-.93-1.25-2.31-1.25-4.11v-3.01c0-1.8.42-3.17,1.24-4.11s1.95-1.41,3.37-1.41,2.54.47,3.37,1.41c.83.94,1.25,2.31,1.25,4.11v3.01h0Zm-2.73-3.29c0-1.08-.16-1.87-.49-2.38-.32-.5-.79-.75-1.41-.75s-1.09.25-1.41.75c-.32.5-.48,1.29-.48,2.38v3.55c0,1.1.16,1.9.48,2.4s.79.75,1.42.75,1.08-.25,1.4-.75c.32-.5.48-1.3.48-2.4,0,0,0-3.55,0-3.55Z"/>
  </g>
  <g>
    <path class="cls-3" d="m225.42,204.28c0-.51-.15-.92-.44-1.24-.29-.32-.79-.62-1.49-.89-1.39-.51-2.42-1.07-3.08-1.69-.67-.62-1-1.5-1-2.63,0-1.05.34-1.91,1.01-2.58.67-.67,1.58-1.07,2.71-1.19v-2.02h1.49v2.04c1.09.16,1.95.62,2.58,1.37.63.75.94,1.73.92,2.94l-.03.05h-2.66c0-.74-.15-1.31-.46-1.71-.31-.4-.72-.6-1.24-.6s-.94.15-1.2.46c-.27.31-.4.72-.4,1.23s.14.88.42,1.19c.28.3.79.6,1.53.9,1.38.54,2.41,1.12,3.08,1.74.67.62,1,1.48,1,2.6s-.34,1.95-1.01,2.6-1.58,1.04-2.72,1.16v1.86h-1.49v-1.85c-1.17-.12-2.13-.53-2.9-1.24s-1.13-1.75-1.11-3.13l.02-.05h2.66c0,.84.19,1.44.58,1.8.39.36.88.54,1.46.54s1-.15,1.31-.45c.3-.3.45-.71.45-1.22Z"/>
    <path class="cls-3" d="m229.39,206.23l2.31-.28v-9.24h-2.33v-1.57l5.06-.92v11.73l2.31.28v1.64h-7.34v-1.64Z"/>
    <path class="cls-3" d="m245.08,197.33l-.24-.92h-3.68l-.38,3.15c.26-.19.56-.34.92-.46s.75-.19,1.18-.19c1.31-.02,2.33.38,3.05,1.19.72.81,1.08,1.94,1.08,3.39,0,1.31-.4,2.4-1.19,3.27-.79.87-1.93,1.3-3.42,1.3-1.25,0-2.32-.34-3.22-1.03-.89-.68-1.32-1.63-1.29-2.83l.02-.05,2.62-.13c0,.61.17,1.08.52,1.42.35.34.79.51,1.35.51.64,0,1.11-.23,1.42-.68.31-.45.46-1.05.46-1.77,0-.79-.16-1.42-.49-1.89-.33-.48-.81-.71-1.45-.71-.52,0-.92.1-1.2.29-.28.19-.48.46-.6.79l-2.42-.16.79-7.6h7.86v3.11h-1.69Z"/>
  </g>
  <g>
    <path class="cls-3" d="m145.57,204.28c0-.51-.15-.92-.44-1.24s-.79-.62-1.49-.89c-1.39-.51-2.42-1.07-3.08-1.69s-1-1.5-1-2.63c0-1.05.34-1.91,1.01-2.58.67-.67,1.58-1.07,2.71-1.19v-2.02h1.49v2.04c1.09.16,1.96.62,2.58,1.37.63.75.94,1.73.92,2.94l-.03.05h-2.66c0-.74-.15-1.31-.46-1.71-.31-.4-.72-.6-1.24-.6s-.94.15-1.21.46c-.27.31-.4.72-.4,1.23s.14.88.42,1.19c.28.3.79.6,1.53.9,1.38.54,2.41,1.12,3.07,1.74.67.62,1,1.48,1,2.6s-.34,1.95-1.01,2.6-1.58,1.04-2.72,1.16v1.86h-1.49v-1.85c-1.17-.12-2.13-.53-2.9-1.24-.76-.71-1.13-1.75-1.11-3.13l.02-.05h2.66c0,.84.19,1.44.58,1.8s.88.54,1.46.54,1-.15,1.31-.45c.3-.3.45-.71.45-1.22Z"/>
    <path class="cls-3" d="m152.49,199.88h1.54c.65,0,1.13-.17,1.44-.51s.47-.82.47-1.42c0-.55-.15-.99-.47-1.32-.31-.33-.77-.5-1.36-.5-.51,0-.94.15-1.29.45-.35.3-.52.69-.52,1.18h-2.65l-.02-.06c-.04-1.07.37-1.95,1.23-2.64.86-.69,1.92-1.04,3.19-1.04,1.41,0,2.54.34,3.38,1.01.84.67,1.26,1.64,1.26,2.89,0,.59-.19,1.16-.56,1.69s-.89.95-1.55,1.25c.76.27,1.33.68,1.73,1.24s.6,1.2.6,1.94c0,1.25-.46,2.23-1.36,2.95s-2.07,1.07-3.49,1.07c-1.27,0-2.36-.34-3.27-1.01s-1.35-1.62-1.32-2.85l.02-.06h2.65c0,.52.19.96.56,1.3s.85.51,1.43.51c.63,0,1.13-.17,1.49-.52.37-.35.55-.83.55-1.43,0-.72-.18-1.24-.54-1.58-.36-.33-.89-.5-1.59-.5h-1.54v-2.05h0Z"/>
  </g>
  <path class="cls-3" d="m247.3,158.64c1.13,2.09.11,3.8-2.27,3.8H52.06c-2.37,0-3.39-1.71-2.27-3.8l19.63-36.4c1.13-2.09,3.99-3.8,6.37-3.8h145.5c2.38,0,5.24,1.71,6.37,3.8l19.63,36.4Z"/>
  <ellipse class="cls-3" cx="148.55" cy="142.99" rx="37.02" ry="14.85"/>
  <ellipse class="cls-1" cx="148.55" cy="139.39" rx="37.02" ry="14.85"/>
  <path class="cls-2" d="m167.23,128.9c-3.87-2.37-8.12-3.4-12.03-3.4-5.81,0-10.86,2.27-12.74,5.74-4.04,6.2-17.52,3.68-17.63,9.85-.1,5.39,11.47,7.3,21.08,7.09,7.23-.15,15.43-1.65,22.27-5.85,5.79-3.55,5.36-9.57-.95-13.44Z"/>
  <path class="cls-6" d="m164.23,136.19c-6.27,3.85-13.53,4.78-18.51,4.88-3.1.06-10.83-.29-14.1-2.07-.21-.11-4.9-2.74,3.13-4.62,5.9-1.38,10.89-3.16,12.78-6.63,1.22-2.24,4.23-3.69,7.68-3.69,2.68,0,5.47.84,8.07,2.43,4.54,2.78,4.98,7.22.95,9.69h0Z"/>
  <path class="cls-5" d="m167.23,124.62c-3.87-2.37-8.12-3.4-12.03-3.4-5.81,0-10.86,2.27-12.74,5.74-4.04,6.2-17.52,3.68-17.63,9.85-.1,5.39,11.47,7.3,21.08,7.09,7.23-.15,15.43-1.65,22.27-5.85,5.79-3.55,5.36-9.57-.95-13.44Z"/>
  <path class="cls-2" d="m163.27,126.49c-2.6-1.59-5.39-2.43-8.07-2.43-3.45,0-6.46,1.45-7.68,3.7-1.89,3.47-6.88,5.25-12.78,6.63-8.02,1.88-3.33,4.51-3.13,4.62,3.27,1.78,11,2.13,14.1,2.07,4.98-.1,12.24-1.03,18.51-4.88,4.03-2.47,3.59-6.91-.95-9.7h0Z"/>
  <ellipse class="cls-1" cx="156.45" cy="131.15" rx="2.63" ry="1.42"/>
  <path class="cls-9" d="m99.23,67.96c.09.28,1.88,5.64,2.21,7.74.5,3.21-.85,5.76-3.23,7.06l5.49,30.28c.17.81-.35,1.6-1.16,1.77-.02,0-.05,0-.07.01l-3.92.61c-.81.12-1.58-.43-1.7-1.25,0-.02,0-.05,0-.07l-3.91-30.53c-2.67-.53-4.72-2.56-5.21-5.76-.33-2.11-.24-7.75-.24-8.05,0-1.27,2.58-1.69,2.95-.39l1.34,8.65c.11.2.96.05.98-.15-.15-1.56-.84-8.61-.85-8.77,0-1.31,2.54-1.7,2.94-.45.04.16,1.51,7.08,1.83,8.62.09.19.94.07.98-.15l-1.34-8.65c-.05-1.35,2.54-1.74,2.93-.52Z"/>
  <path class="cls-9" d="m207.4,70.09l-7.57,44.13c-.14.81-.9,1.35-1.71,1.22,0,0,0,0,0,0l-3.42-.59c-.81-.14-1.35-.91-1.21-1.72,0-.04.02-.08.02-.12l4.21-19.04c-8.28-9.12,3.43-26.46,8.47-25.6.81.14,1.36.91,1.22,1.72Z"/>
  <path class="cls-4" d="m199.54,97.4c.79-.2,1.48-.74,1.46-1.35,0-.6-.87-1.17-1.91-1.08-2.82.22-5.56,1.34-7.77,3.27-.82.71-.64,1.9.28,2.52.92.62,1.96.62,2.44.06,1.36-1.63,3.27-2.86,5.5-3.41Z"/>
  <path class="cls-4" d="m98.54,96.41c-.77-.29-1.39-.9-1.31-1.51.08-.6,1-1.06,2.02-.86,2.78.53,5.37,1.95,7.36,4.1.74.8.43,1.96-.56,2.48-.99.52-2.02.4-2.43-.21-1.16-1.77-2.92-3.21-5.08-4Z"/>
</svg>