<?xml version="1.0" encoding="UTF-8"?>
<svg id="Layer_1" data-name="Layer 1" xmlns="http://www.w3.org/2000/svg" viewBox="0 0 300 225">
  <defs>
    <style>
      .cls-1 {
        fill: #fff;
      }

      .cls-2 {
        fill: #d0dae3;
      }

      .cls-3 {
        isolation: isolate;
        opacity: .35;
      }

      .cls-4 {
        fill: #232323;
      }

      .cls-5 {
        fill: #ff7e1c;
      }

      .cls-6 {
        fill: #3ed033;
      }
    </style>
  </defs>
  <g>
    <circle class="cls-6" cx="246.26" cy="190.07" r="8"/>
    <path class="cls-1" d="m250.56,186.44c.07,0,.13.03.18.09l.27.24c.04.06.07.13.07.2s-.02.14-.07.18l-6.66,6.66c-.06.06-.12.09-.19.09s-.13-.03-.19-.09l-2.64-2.64s-.07-.1-.07-.18.02-.14.07-.2l.27-.25c.05-.06.1-.09.18-.09s.13.03.18.09l2.2,2.2,6.24-6.22c.04-.06.1-.09.17-.09Z"/>
  </g>
  <g class="cls-3">
    <path class="cls-4" d="m254.26,172.65c0,1.77-1.43,3.2-3.2,3.2H47.94c-1.77,0-3.2-1.43-3.2-3.2v-28.91c0-1.77,1.43-3.2,3.2-3.2h203.11c1.77,0,3.2,1.43,3.2,3.2v28.91h0Z"/>
  </g>
  <path class="cls-1" d="m254.26,167.43c0,1.77-1.43,3.2-3.2,3.2H47.94c-1.77,0-3.2-1.43-3.2-3.2v-28.91c0-1.77,1.43-3.2,3.2-3.2h203.11c1.77,0,3.2,1.43,3.2,3.2v28.91h0Z"/>
  <g>
    <path class="cls-4" d="m86.63,153.31l-2.24-.66.42-1.31,2.2.91-.13-2.58h1.4l-.15,2.62,2.16-.89.42,1.34-2.27.66,1.48,1.97-1.12.82-1.3-2.15-1.28,2.08-1.13-.79,1.54-2.02Z"/>
    <path class="cls-4" d="m99.87,153.31l-2.24-.66.42-1.31,2.2.91-.13-2.58h1.4l-.15,2.62,2.16-.89.42,1.34-2.27.66,1.48,1.97-1.12.82-1.3-2.15-1.28,2.08-1.13-.79,1.54-2.02Z"/>
    <path class="cls-4" d="m113.12,153.31l-2.24-.66.42-1.31,2.21.91-.13-2.58h1.4l-.15,2.62,2.16-.89.42,1.34-2.27.66,1.48,1.97-1.12.82-1.3-2.15-1.28,2.08-1.13-.79,1.54-2.02Z"/>
    <path class="cls-4" d="m126.37,153.31l-2.24-.66.42-1.31,2.21.91-.13-2.58h1.4l-.15,2.62,2.16-.89.42,1.34-2.27.66,1.48,1.97-1.12.82-1.3-2.15-1.28,2.08-1.13-.79,1.54-2.02Z"/>
    <path class="cls-4" d="m139.61,153.31l-2.24-.66.42-1.31,2.21.91-.13-2.58h1.4l-.15,2.62,2.16-.89.42,1.34-2.27.66,1.48,1.97-1.12.82-1.3-2.15-1.28,2.08-1.13-.79,1.54-2.02Z"/>
    <path class="cls-4" d="m152.85,153.31l-2.24-.66.42-1.31,2.2.91-.13-2.58h1.4l-.15,2.62,2.16-.89.42,1.34-2.27.66,1.48,1.97-1.12.82-1.3-2.15-1.28,2.08-1.13-.79,1.55-2.02Z"/>
    <path class="cls-4" d="m166.1,153.31l-2.24-.66.42-1.31,2.2.91-.13-2.58h1.4l-.15,2.62,2.16-.89.42,1.34-2.27.66,1.48,1.97-1.12.82-1.3-2.15-1.28,2.08-1.13-.79,1.54-2.02Z"/>
    <path class="cls-4" d="m179.35,153.31l-2.24-.66.42-1.31,2.2.91-.13-2.58h1.4l-.15,2.62,2.16-.89.42,1.34-2.27.66,1.48,1.97-1.12.82-1.3-2.15-1.28,2.08-1.13-.79,1.54-2.02Z"/>
    <path class="cls-4" d="m192.59,153.31l-2.24-.66.42-1.31,2.2.91-.13-2.58h1.39l-.15,2.62,2.16-.89.42,1.34-2.27.66,1.48,1.97-1.12.82-1.3-2.15-1.28,2.08-1.13-.79,1.54-2.02Z"/>
    <path class="cls-4" d="m205.84,153.31l-2.24-.66.42-1.31,2.2.91-.13-2.58h1.4l-.15,2.62,2.16-.89.42,1.34-2.27.66,1.48,1.97-1.12.82-1.3-2.15-1.28,2.08-1.13-.79,1.54-2.02Z"/>
    <path class="cls-4" d="m219.08,153.31l-2.24-.66.42-1.31,2.2.91-.13-2.58h1.4l-.15,2.62,2.16-.89.42,1.34-2.27.66,1.48,1.97-1.12.82-1.3-2.15-1.28,2.08-1.13-.79,1.55-2.02Z"/>
    <path class="cls-4" d="m232.33,153.31l-2.24-.66.42-1.31,2.2.91-.13-2.58h1.39l-.15,2.62,2.16-.89.42,1.34-2.27.66,1.48,1.97-1.12.82-1.3-2.15-1.28,2.08-1.13-.79,1.54-2.02Z"/>
  </g>
  <g>
    <path class="cls-2" d="m196.94,189.29h-.94l-.16-.86c-.11-.07-.27-.13-.48-.18-.21-.05-.43-.08-.67-.08-.35,0-.61.07-.8.22-.19.14-.28.33-.28.56,0,.21.1.39.29.52s.53.28,1.02.43c.69.19,1.21.45,1.57.76.36.31.54.73.54,1.24s-.21.96-.64,1.27c-.43.31-.98.46-1.68.46-.5,0-.95-.08-1.34-.24-.4-.16-.73-.38-1-.65v-1.31h.97l.13.89c.12.1.3.19.51.26.22.07.46.1.72.1.34,0,.6-.07.78-.21.18-.14.27-.33.27-.56s-.08-.43-.25-.58c-.17-.15-.47-.28-.9-.41-.74-.21-1.3-.47-1.68-.77-.38-.29-.57-.7-.57-1.21s.22-.92.65-1.24c.43-.32.97-.49,1.62-.5.48,0,.92.07,1.31.22.4.15.73.34,1,.58v1.28h0Z"/>
    <path class="cls-2" d="m203.82,187.29v1.67h-.96l-.05-.7h-1.15v4.41l.67.13v.75h-2.6v-.75l.67-.13v-4.41h-1.15l-.05.7h-.96v-1.67h5.57Z"/>
    <path class="cls-2" d="m207.84,187.29c.71,0,1.27.16,1.67.49.4.32.61.77.61,1.35,0,.31-.08.59-.25.82-.17.23-.42.42-.74.56.37.11.63.29.8.55.16.25.24.57.24.94v.32c0,.14.03.24.08.32.06.07.15.12.27.14l.15.02v.76h-.65c-.41,0-.7-.11-.86-.33-.17-.22-.25-.5-.25-.85v-.36c0-.3-.08-.54-.24-.72-.16-.17-.39-.27-.68-.27h-1.03v1.65l.67.13v.75h-2.59v-.75l.67-.13v-4.49l-.67-.13v-.76h2.81Zm-.89,2.76h.87c.35,0,.61-.08.79-.22.17-.15.26-.36.26-.65s-.09-.51-.26-.67c-.17-.17-.43-.25-.77-.25h-.89v1.79h0Z"/>
    <path class="cls-2" d="m217.59,190.47c0,.92-.26,1.67-.79,2.27-.52.6-1.21.9-2.06.9s-1.53-.3-2.05-.9c-.52-.6-.78-1.36-.78-2.27v-.1c0-.91.26-1.67.78-2.27.52-.6,1.2-.9,2.05-.9s1.54.3,2.06.9.79,1.36.79,2.27v.1h0Zm-1.25-.1c0-.65-.13-1.17-.4-1.58-.27-.4-.67-.6-1.2-.6s-.92.2-1.18.6c-.26.4-.39.93-.39,1.58v.1c0,.66.13,1.19.39,1.59.26.4.65.6,1.18.6s.93-.2,1.19-.6c.27-.4.4-.93.4-1.59v-.1h0Z"/>
    <path class="cls-2" d="m225.27,187.29v.76l-.67.13v5.37h-1.25l-2.52-4.21h-.02v3.33l.67.13v.75h-2.59v-.75l.67-.13v-4.49l-.67-.13v-.76h1.92l2.53,4.21h.02v-3.33l-.67-.13v-.76h2.59Z"/>
    <path class="cls-2" d="m231.66,192.85c-.2.2-.5.38-.89.54-.39.16-.88.24-1.48.24-.84,0-1.53-.28-2.06-.85-.53-.57-.8-1.3-.8-2.21v-.22c0-.94.26-1.7.78-2.29.52-.59,1.21-.88,2.05-.88.49,0,.94.08,1.34.23.41.15.74.37,1.01.63v1.26h-.93l-.18-.84c-.11-.1-.27-.17-.45-.23-.19-.06-.4-.09-.65-.09-.55,0-.97.2-1.28.61-.3.41-.45.93-.45,1.58v.22c0,.64.15,1.14.45,1.52s.73.57,1.29.57c.25,0,.46-.02.61-.06s.28-.09.37-.15v-1.06l-.89-.07v-.88h2.15v2.4h0Z"/>
  </g>
  <g class="cls-3">
    <ellipse class="cls-4" cx="149.47" cy="107.94" rx="54.89" ry="8.86"/>
  </g>
  <path class="cls-6" d="m186.34,190.39c0,1.76-1.44,3.2-3.2,3.2H47.94c-1.76,0-3.2-1.44-3.2-3.2h0c0-1.76,1.44-3.2,3.2-3.2h135.2c1.76,0,3.2,1.44,3.2,3.2h0Z"/>
  <path class="cls-4" d="m72.63,152.4v8.88c0,.53-.19.98-.56,1.35-.37.37-.82.55-1.35.55h-13.96c-.53,0-.98-.18-1.35-.55-.37-.37-.55-.82-.55-1.35v-8.88c0-.53.19-.98.55-1.35.37-.37.82-.56,1.35-.56h1.27v-1.9c0-1.03.26-1.98.77-2.85.52-.87,1.21-1.57,2.08-2.08.87-.52,1.82-.77,2.86-.77s1.98.26,2.85.77c.87.52,1.57,1.22,2.08,2.1.52.88.77,1.84.77,2.87v1.86h1.27c.53,0,.98.19,1.35.56.37.37.56.82.56,1.35Zm-1.91,0h-13.96v8.88h13.96v-8.88Zm-10.78-1.9h7.61v-1.9c0-1.06-.37-1.95-1.11-2.7-.74-.74-1.64-1.11-2.69-1.11s-1.96.37-2.7,1.11c-.74.74-1.11,1.64-1.11,2.7v1.9Zm3.81,8.72c-.32,0-.58-.1-.79-.32-.21-.21-.32-.48-.32-.79v-2.54c0-.32.1-.58.32-.79.21-.21.48-.32.79-.32s.58.11.79.32.32.48.32.79v2.54c0,.32-.11.58-.32.79-.21.21-.47.32-.79.32Z"/>
  <g>
    <path class="cls-4" d="m185.85,42.93h-2.75v-2.75c0-4.56-3.69-8.25-8.25-8.25h-52.25c-9.11,0-16.5,7.39-16.5,16.5v44c0,9.11,7.39,16.5,16.5,16.5h60.5c6.07,0,11-4.92,11-11v-46.75c0-4.55-3.69-8.25-8.25-8.25Z"/>
    <path class="cls-5" d="m188.6,97.93c0,3.03-2.47,5.5-5.5,5.5h-60.5c-6.06,0-11-4.93-11-11v-44c0-6.06,4.94-11,11-11h52.25c1.51,0,2.75,1.23,2.75,2.75v2.75h-52.25c-1.52,0-2.75,1.23-2.75,2.75s1.23,2.75,2.75,2.75h60.5c1.52,0,2.75,1.23,2.75,2.75v46.75h0Z"/>
    <circle class="cls-4" cx="172.1" cy="75.93" r="5.5"/>
  </g>
</svg>