<?xml version="1.0" encoding="UTF-8"?>
<svg id="Layer_1" data-name="Layer 1" xmlns="http://www.w3.org/2000/svg" viewBox="0 0 300 225">
  <defs>
    <style>
      .cls-1 {
        fill: #fff;
      }

      .cls-2 {
        isolation: isolate;
        opacity: .35;
      }

      .cls-3 {
        fill: #232323;
      }

      .cls-4 {
        fill: #ff7e1c;
      }

      .cls-5 {
        fill: #ea651b;
      }

      .cls-6 {
        fill: #ff2402;
      }

      .cls-7 {
        fill: #e7ecf0;
      }
    </style>
  </defs>
  <g>
    <path class="cls-6" d="m95.66,172.18c-.49,0-.99-.19-1.36-.56-.75-.75-.75-1.97,0-2.72l23.12-23.12c.75-.75,1.97-.75,2.72,0s.75,1.97,0,2.72l-23.12,23.12c-.38.38-.87.56-1.36.56Z"/>
    <path class="cls-6" d="m118.78,172.18c-.49,0-.99-.19-1.36-.56l-23.12-23.12c-.75-.75-.75-1.97,0-2.72.75-.75,1.97-.75,2.72,0l23.12,23.12c.75.75.75,1.97,0,2.72-.38.38-.87.56-1.36.56Z"/>
  </g>
  <g>
    <path class="cls-5" d="m230.97,51.36c.89.85,1.92,1.58,3.09,2.14,5.93,2.85,13.06.36,15.92-5.58,1.52-3.17,1.52-6.67.29-9.68-.04,1.99-.5,4-1.41,5.91-3.23,6.72-11.03,9.76-17.88,7.21Z"/>
    <path class="cls-4" d="m228.48,37.58c-2.29,4.77-1.14,10.3,2.48,13.77,6.85,2.56,14.65-.49,17.88-7.21.92-1.91,1.37-3.92,1.41-5.91-1.08-2.64-3.1-4.9-5.86-6.23-5.93-2.85-13.06-.36-15.92,5.58Z"/>
  </g>
  <g>
    <path class="cls-5" d="m180.71,86.3c.89.85,1.92,1.58,3.09,2.14,5.93,2.85,13.06.36,15.91-5.58,1.52-3.16,1.52-6.67.29-9.68-.04,1.99-.5,4-1.41,5.91-3.23,6.72-11.03,9.76-17.88,7.21Z"/>
    <path class="cls-4" d="m178.22,72.52c-2.29,4.77-1.13,10.3,2.49,13.77,6.85,2.56,14.65-.49,17.88-7.21.92-1.91,1.38-3.92,1.41-5.91-1.08-2.63-3.1-4.9-5.87-6.23-5.94-2.85-13.06-.36-15.91,5.58Z"/>
  </g>
  <g>
    <path class="cls-5" d="m156.14,20.53c.89.85,1.92,1.58,3.09,2.14,5.93,2.85,13.06.36,15.91-5.58,1.52-3.17,1.52-6.67.29-9.68-.04,1.99-.49,4-1.41,5.91-3.23,6.72-11.03,9.76-17.88,7.21Z"/>
    <path class="cls-4" d="m153.65,6.76c-2.29,4.77-1.13,10.3,2.49,13.77,6.85,2.56,14.65-.49,17.88-7.21.92-1.91,1.38-3.92,1.41-5.91-1.08-2.64-3.1-4.9-5.86-6.23-5.94-2.85-13.06-.36-15.91,5.58Z"/>
  </g>
  <g>
    <path class="cls-5" d="m123.86,70.88c.89.85,1.92,1.58,3.09,2.14,5.93,2.85,13.06.36,15.91-5.58,1.52-3.16,1.52-6.67.29-9.68-.04,1.99-.5,4-1.41,5.91-3.23,6.72-11.03,9.76-17.88,7.21Z"/>
    <path class="cls-4" d="m121.38,57.11c-2.29,4.77-1.13,10.3,2.48,13.77,6.85,2.56,14.65-.49,17.88-7.21.92-1.91,1.38-3.92,1.41-5.91-1.08-2.64-3.1-4.9-5.87-6.23-5.94-2.85-13.06-.36-15.91,5.57Z"/>
  </g>
  <g>
    <path class="cls-5" d="m51.51,96.83c.89.85,1.92,1.58,3.09,2.14,5.93,2.85,13.06.36,15.92-5.58,1.52-3.17,1.52-6.67.29-9.69-.04,1.99-.5,4-1.41,5.91-3.23,6.72-11.03,9.77-17.88,7.21Z"/>
    <path class="cls-4" d="m49.03,82.67c-2.29,4.77-1.13,10.3,2.48,13.77,6.85,2.56,14.65-.49,17.88-7.21.92-1.91,1.38-3.92,1.41-5.91-1.08-2.64-3.1-4.9-5.87-6.23-5.93-2.85-13.06-.36-15.91,5.58Z"/>
  </g>
  <g>
    <path class="cls-5" d="m85.42,39.54c.89.85,1.92,1.58,3.09,2.14,5.93,2.86,13.06.36,15.92-5.58,1.52-3.17,1.52-6.67.29-9.68-.04,1.99-.5,4-1.41,5.91-3.23,6.72-11.03,9.77-17.88,7.21Z"/>
    <path class="cls-4" d="m82.93,25.77c-2.29,4.76-1.13,10.3,2.48,13.77,6.85,2.56,14.65-.49,17.88-7.21.92-1.91,1.38-3.92,1.41-5.91-1.08-2.64-3.1-4.9-5.87-6.23-5.93-2.85-13.06-.36-15.91,5.58Z"/>
  </g>
  <path class="cls-1" d="m223.49,36.91c-.11,0-.22-.02-.32-.07l-2.8-1.29c-.39-.18-.56-.64-.38-1.02.18-.39.64-.56,1.02-.38l2.8,1.29c.39.18.56.64.38,1.02-.13.28-.41.45-.7.45Zm-7.7-3.54c-.11,0-.22-.02-.32-.07l-2.8-1.29c-.39-.18-.56-.64-.38-1.02.18-.39.64-.56,1.02-.38l2.8,1.29c.39.18.56.64.38,1.02-.13.28-.41.45-.7.45Zm-7.7-3.54c-.11,0-.22-.02-.32-.07l-2.8-1.29c-.39-.18-.56-.64-.38-1.02.18-.39.64-.56,1.02-.38l2.8,1.29c.39.18.56.64.38,1.02-.13.28-.41.45-.7.45Zm-7.7-3.54c-.11,0-.22-.02-.32-.07l-2.8-1.29c-.39-.18-.56-.64-.38-1.02.18-.39.64-.56,1.02-.38l2.8,1.29c.39.18.56.64.38,1.02-.13.28-.41.45-.7.45Zm-7.7-3.54c-.11,0-.22-.02-.32-.07l-2.8-1.29c-.39-.18-.56-.64-.38-1.02.18-.39.64-.56,1.02-.38l2.8,1.29c.39.18.56.64.38,1.02-.13.28-.41.45-.7.45Zm-7.7-3.54c-.11,0-.22-.02-.32-.07l-2.8-1.29c-.39-.18-.56-.64-.38-1.02.18-.39.64-.56,1.02-.38l2.8,1.29c.39.18.56.64.38,1.02-.13.28-.41.45-.7.45Z"/>
  <path class="cls-1" d="m172.88,74.42c-.07,0-.15-.01-.23-.03l-2.95-.9c-.41-.12-.64-.56-.51-.96.12-.41.56-.64.96-.51l2.95.9c.41.12.64.56.51.96-.1.33-.41.55-.74.55Zm-8.11-2.48c-.07,0-.15-.01-.23-.03l-2.95-.9c-.41-.12-.64-.56-.51-.96.12-.41.56-.64.96-.51l2.95.9c.41.12.64.56.51.96-.1.33-.41.55-.74.55Zm-8.11-2.48c-.07,0-.15-.01-.23-.03l-2.95-.9c-.41-.12-.64-.56-.51-.96.12-.41.56-.64.96-.51l2.95.9c.41.12.64.56.51.96-.1.33-.41.55-.74.55Zm-8.11-2.48c-.07,0-.15-.01-.23-.03l-.86-.26c-.41-.12-.64-.56-.51-.96.12-.41.56-.64.96-.51l.86.26c.41.12.64.56.51.96-.1.33-.41.55-.74.55Z"/>
  <path class="cls-1" d="m183.19,61.42c-.33,0-.63-.21-.74-.54l-.92-2.94c-.13-.41.1-.84.51-.96.41-.13.84.1.96.51l.92,2.94c.13.41-.1.84-.51.96-.08.02-.15.03-.23.03Zm-2.52-8.1c-.33,0-.63-.21-.74-.54l-.92-2.94c-.13-.41.1-.84.51-.96.41-.13.84.1.96.51l.92,2.94c.13.41-.1.84-.51.96-.08.02-.15.03-.23.03Zm-2.52-8.1c-.33,0-.63-.21-.74-.54l-.92-2.94c-.13-.41.1-.84.51-.96.41-.12.84.1.96.51l.92,2.94c.13.41-.1.84-.51.96-.08.02-.15.03-.23.03Zm-2.52-8.1c-.33,0-.63-.21-.74-.54l-.91-2.94c-.13-.41.1-.84.51-.96.41-.13.84.1.96.51l.91,2.94c.13.41-.1.84-.51.96-.08.02-.15.03-.23.03Zm-2.52-8.1c-.33,0-.63-.21-.74-.54l-.92-2.94c-.13-.41.1-.84.51-.96.41-.12.84.1.96.51l.92,2.94c.13.41-.1.84-.51.96-.08.02-.15.03-.23.03Z"/>
  <path class="cls-1" d="m205.2,67.95c-.27,0-.53-.14-.67-.4-.21-.37-.07-.84.3-1.05l2.69-1.5c.37-.21.84-.07,1.05.3.21.37.07.84-.3,1.05l-2.69,1.5c-.12.07-.25.1-.37.1Zm7.41-4.12c-.27,0-.53-.14-.67-.4-.21-.37-.07-.84.3-1.05l2.69-1.5c.37-.21.84-.07,1.05.3.21.37.07.84-.3,1.05l-2.69,1.5c-.12.07-.25.1-.37.1Zm7.41-4.12c-.27,0-.53-.14-.67-.4-.21-.37-.07-.84.3-1.05l2.69-1.5c.37-.21.84-.07,1.05.3.21.37.07.84-.3,1.05l-2.69,1.5c-.12.07-.25.1-.37.1Zm7.41-4.12c-.27,0-.53-.14-.67-.4-.21-.37-.07-.84.3-1.05l2.69-1.5c.37-.21.84-.07,1.05.3.21.37.07.84-.3,1.05l-2.69,1.5c-.12.07-.25.1-.37.1Z"/>
  <path class="cls-1" d="m141.34,49.29c-.14,0-.28-.04-.41-.12-.36-.23-.47-.7-.25-1.06l1.63-2.62c.23-.36.7-.47,1.06-.25.36.23.47.7.25,1.06l-1.63,2.62c-.15.23-.4.36-.65.36Zm4.49-7.19c-.14,0-.28-.04-.41-.12-.36-.23-.47-.7-.25-1.06l1.63-2.62c.23-.36.7-.47,1.06-.25.36.23.47.7.25,1.06l-1.63,2.62c-.15.23-.4.36-.65.36Zm4.49-7.19c-.14,0-.28-.04-.41-.12-.36-.23-.47-.7-.25-1.06l1.63-2.62c.23-.36.7-.47,1.06-.25.36.23.47.7.25,1.06l-1.63,2.62c-.15.23-.4.36-.65.36Zm4.49-7.19c-.14,0-.28-.04-.41-.12-.36-.23-.47-.7-.25-1.06l1.63-2.62c.23-.36.7-.47,1.06-.25.36.23.47.7.25,1.06l-1.63,2.62c-.15.23-.4.36-.65.36Z"/>
  <path class="cls-1" d="m74.31,82.03c-.32,0-.61-.2-.72-.51-.14-.4.06-.84.46-.99l2.9-1.05c.4-.15.84.06.99.46.14.4-.06.84-.46.99l-2.9,1.05c-.09.03-.18.05-.26.05Zm7.97-2.88c-.32,0-.61-.2-.72-.51-.14-.4.06-.84.46-.99l2.9-1.05c.4-.15.84.06.99.46.14.4-.06.84-.46.99l-2.9,1.05c-.09.03-.18.05-.26.05Zm7.97-2.88c-.32,0-.61-.2-.72-.51-.14-.4.06-.84.46-.99l2.9-1.05c.4-.14.84.06.99.46.14.4-.06.84-.46.99l-2.9,1.05c-.09.03-.18.05-.26.05Zm7.97-2.88c-.32,0-.61-.2-.72-.51-.14-.4.06-.84.46-.99l2.9-1.05c.4-.15.84.06.99.46.14.4-.06.84-.46.99l-2.9,1.05c-.09.03-.18.05-.26.05Zm7.97-2.88c-.32,0-.61-.2-.72-.51-.14-.4.06-.84.46-.99l2.9-1.05c.4-.14.84.06.99.46.14.4-.06.84-.46.99l-2.9,1.05c-.09.03-.18.05-.26.05Zm7.97-2.88c-.32,0-.61-.2-.72-.51-.14-.4.06-.84.46-.99l2.9-1.05c.4-.14.84.06.99.46.14.4-.06.84-.46.99l-2.9,1.05c-.09.03-.18.05-.26.05Z"/>
  <path class="cls-1" d="m64.94,74.09c-.13,0-.27-.03-.39-.11-.37-.22-.49-.69-.27-1.06l1.57-2.65c.22-.37.69-.49,1.06-.27.37.22.49.69.27,1.06l-1.57,2.65c-.14.24-.4.38-.66.38Zm4.33-7.29c-.13,0-.27-.03-.39-.11-.37-.22-.49-.69-.27-1.06l1.57-2.65c.22-.37.69-.49,1.06-.27.37.22.49.69.27,1.06l-1.57,2.65c-.14.24-.4.38-.66.38Zm4.33-7.29c-.13,0-.27-.03-.39-.11-.37-.22-.49-.69-.27-1.06l1.57-2.65c.22-.37.69-.49,1.06-.27.37.22.49.69.27,1.06l-1.57,2.65c-.14.24-.4.38-.66.38Zm4.33-7.29c-.13,0-.27-.03-.39-.11-.37-.22-.49-.69-.27-1.06l1.57-2.65c.22-.37.69-.49,1.06-.27.37.22.49.69.27,1.06l-1.57,2.65c-.14.24-.4.38-.66.38Zm4.33-7.29c-.13,0-.27-.03-.39-.11-.37-.22-.49-.69-.27-1.06l1.57-2.65c.22-.37.69-.49,1.06-.27.37.22.49.69.27,1.06l-1.57,2.65c-.14.24-.4.38-.66.38Z"/>
  <path class="cls-1" d="m112.04,26.05c-.34,0-.65-.22-.74-.57-.11-.41.13-.83.54-.95l2.97-.82c.41-.11.83.13.95.54.11.41-.13.83-.54.95l-2.97.82c-.07.02-.14.03-.21.03Zm8.17-2.25c-.34,0-.65-.22-.74-.57-.11-.41.13-.83.54-.95l2.97-.82c.41-.11.83.13.95.54.11.41-.13.83-.54.95l-2.97.82c-.07.02-.14.03-.21.03Zm8.17-2.25c-.34,0-.65-.22-.74-.57-.11-.41.13-.83.54-.95l2.97-.82c.41-.11.83.13.95.54.11.41-.13.83-.54.95l-2.97.82c-.07.02-.14.03-.21.03Zm8.17-2.25c-.34,0-.65-.22-.74-.57-.11-.41.13-.83.54-.95l2.97-.82c.41-.11.83.13.95.54.11.41-.13.83-.54.95l-2.97.82c-.07.02-.14.03-.21.03Zm8.17-2.25c-.34,0-.65-.22-.74-.57-.11-.41.13-.83.54-.95l2.97-.82c.41-.11.83.13.95.54.11.41-.13.83-.54.95l-2.97.82c-.07.02-.14.03-.21.03Z"/>
  <path class="cls-1" d="m119.85,54.21c-.18,0-.35-.06-.5-.18l-2.35-1.99c-.33-.27-.37-.76-.09-1.09.27-.32.76-.37,1.09-.09l2.35,1.99c.33.27.37.76.09,1.09-.15.18-.37.27-.59.27Zm-6.48-5.47c-.18,0-.35-.06-.5-.18l-2.35-1.99c-.33-.27-.37-.76-.09-1.09.27-.32.76-.37,1.09-.09l2.35,1.99c.33.27.37.76.09,1.09-.15.18-.37.27-.59.27Zm-6.48-5.47c-.18,0-.35-.06-.5-.18l-2.35-1.99c-.33-.27-.37-.76-.09-1.09.27-.32.76-.37,1.09-.09l2.35,1.99c.33.27.37.76.09,1.09-.15.18-.37.27-.59.27Z"/>
  <path class="cls-1" d="m92.98,159.82h-3.08c-.43,0-.77-.35-.77-.77s.35-.77.77-.77h3.08c.43,0,.77.35.77.77s-.35.77-.77.77Zm-8.48,0h-3.08c-.43,0-.77-.35-.77-.77s.35-.77.77-.77h3.08c.43,0,.77.35.77.77s-.35.77-.77.77Zm-8.48,0h-3.08c-.43,0-.77-.35-.77-.77s.35-.77.77-.77h3.08c.43,0,.77.35.77.77s-.35.77-.77.77Zm-8.48,0h-3.08c-.43,0-.77-.35-.77-.77s.35-.77.77-.77h3.08c.43,0,.77.35.77.77s-.35.77-.77.77Zm-8.48,0c-.43,0-.77-.35-.77-.77v-3.08c0-.43.35-.77.77-.77s.77.35.77.77v3.08c0,.43-.35.77-.77.77Zm0-8.48c-.43,0-.77-.35-.77-.77v-3.08c0-.43.35-.77.77-.77s.77.35.77.77v3.08c0,.43-.35.77-.77.77Zm0-8.48c-.43,0-.77-.35-.77-.77v-3.08c0-.43.35-.77.77-.77s.77.35.77.77v3.08c0,.43-.35.77-.77.77Zm0-8.48c-.43,0-.77-.35-.77-.77v-3.08c0-.43.35-.77.77-.77s.77.35.77.77v3.08c0,.43-.35.77-.77.77Zm0-8.48c-.43,0-.77-.35-.77-.77v-3.08c0-.43.35-.77.77-.77s.77.35.77.77v3.08c0,.43-.35.77-.77.77Zm0-8.48c-.43,0-.77-.35-.77-.77v-3.08c0-.43.35-.77.77-.77s.77.35.77.77v3.08c0,.43-.35.77-.77.77Zm0-8.48c-.43,0-.77-.35-.77-.77v-3.08c0-.43.35-.77.77-.77s.77.35.77.77v3.08c0,.43-.35.77-.77.77Z"/>
  <path class="cls-1" d="m146.93,159.82h-3.08c-.43,0-.77-.35-.77-.77s.35-.77.77-.77h3.08c.43,0,.77.35.77.77s-.35.77-.77.77Zm-8.48,0h-3.08c-.43,0-.77-.35-.77-.77s.35-.77.77-.77h3.08c.43,0,.77.35.77.77s-.35.77-.77.77Zm-8.48,0h-3.08c-.43,0-.77-.35-.77-.77s.35-.77.77-.77h3.08c.43,0,.77.35.77.77s-.35.77-.77.77Zm-8.48,0h-3.08c-.43,0-.77-.35-.77-.77s.35-.77.77-.77h3.08c.43,0,.77.35.77.77s-.35.77-.77.77Z"/>
  <g>
    <g class="cls-2">
      <ellipse class="cls-3" cx="192.5" cy="176.55" rx="44.73" ry="7.22"/>
    </g>
    <path class="cls-3" d="m226.02,140.15h-11.88v-21.55c0-1.32-1.07-2.39-2.39-2.39h-38.5c-1.32,0-2.4,1.07-2.4,2.39v21.55h-11.87c-2.65,0-4.79,2.14-4.79,4.79v28.73c0,2.65,2.14,4.79,4.79,4.79h11.97v44.15c0,1.32,1.07,2.39,2.39,2.39h38.31c1.33,0,2.4-1.07,2.4-2.39v-44.15h11.97c2.64,0,4.79-2.15,4.79-4.79v-28.73c0-2.65-2.14-4.79-4.79-4.79Z"/>
    <rect class="cls-1" x="175.65" y="120.99" width="33.71" height="19.15"/>
    <rect class="cls-1" x="175.74" y="164.09" width="33.52" height="56.12"/>
    <polygon class="cls-7" points="226.02 173.66 214.05 173.66 214.05 164.09 216.45 164.09 216.45 159.3 168.56 159.3 168.56 164.09 170.96 164.09 170.96 173.66 158.99 173.66 158.99 144.93 226.02 144.93 226.02 173.66"/>
    <rect class="cls-3" x="215.73" y="149.72" width="4.79" height="4.79"/>
    <rect class="cls-3" x="206.16" y="149.72" width="4.79" height="4.79"/>
    <g>
      <g>
        <path class="cls-4" d="m205.55,211.75l-.04-39.2c0-1.2-.98-2.18-2.18-2.18l-21.74.02c-1.2,0-2.17.98-2.17,2.18l.04,39.2c0,1.2.98,2.18,2.18,2.18l21.74-.02c1.2,0,2.17-.98,2.17-2.18Z"/>
        <path class="cls-1" d="m182.68,173.66h4.35c0,2.4-1.94,4.35-4.35,4.35v-4.35Z"/>
        <path class="cls-1" d="m197.9,173.65h4.35s0,4.35,0,4.35c-2.41,0-4.35-1.94-4.36-4.35Z"/>
        <path class="cls-1" d="m182.72,210.69v-4.36c2.39,0,4.35,1.94,4.35,4.35h-4.35Z"/>
        <path class="cls-1" d="m197.94,210.67c0-2.41,1.94-4.36,4.35-4.36v4.36s-4.35,0-4.35,0Z"/>
        <path class="cls-1" d="m184.88,192.17c0-4.2,3.39-7.61,7.59-7.61,4.2,0,7.62,3.4,7.63,7.61,0,4.2-3.39,7.61-7.59,7.62-4.2,0-7.62-3.4-7.63-7.61Z"/>
      </g>
      <path class="cls-4" d="m192.31,195.11c-.28.23-.67.32-1.17.27-.6-.07-1.04-.32-1.3-.75-.23-.37-.36-.93-.41-1.68h-1.15v-.83h1.14v-.64h-1.14v-.83h1.15v-1.64l.98.17v.17c-.01.27,0,.45.02.53.03.11.12.18.25.2h3.68c.18-.03.29-.13.34-.29.03-.1.05-.32.03-.64v-.14h.88l-.02.51c0,.6,0,.98.02,1.14h1.34v.83h-1.32l.02.64h1.3v.83h-1.34c-.05.58-.18,1.01-.37,1.32-.23.37-.56.58-1.02.61-.65.07-1.12-.16-1.39-.69h0c-.09.42-.27.72-.53.91h0Zm.73-3.61v.14c-.01.47.02.84.08,1.1.11.45.36.68.73.68s.62-.22.75-.66c.07-.25.1-.61.08-1.1-.01-.08-.02-.13-.02-.15h-1.62Zm-2.63.15c-.01.58.02,1.01.09,1.3.14.53.41.8.81.8s.68-.26.81-.78c.08-.28.11-.71.08-1.29v-.19h-1.79v.16h0Z"/>
    </g>
  </g>
</svg>