<?xml version="1.0" encoding="UTF-8"?>
<svg id="Layer_1" data-name="Layer 1" xmlns="http://www.w3.org/2000/svg" xmlns:xlink="http://www.w3.org/1999/xlink" viewBox="0 0 300 225">
  <defs>
    <style>
      .cls-1 {
        fill: #fff;
      }

      .cls-2 {
        fill: #d0dae3;
      }

      .cls-3 {
        isolation: isolate;
        opacity: .35;
      }

      .cls-4 {
        fill: #232323;
      }

      .cls-5 {
        fill: #ff7e1c;
      }

      .cls-6 {
        fill: #444;
      }

      .cls-7 {
        clip-path: url(#clippath);
      }

      .cls-8 {
        fill: none;
      }

      .cls-9 {
        fill: #ea651b;
      }

      .cls-10 {
        fill: #7f7f7f;
      }
    </style>
    <clipPath id="clippath">
      <rect class="cls-8" x="47.73" y="43.28" width="38.8" height="10.3"/>
    </clipPath>
  </defs>
  <g>
    <path class="cls-2" d="m53.77,16.23v-1.68l4.14-4.44c.6-.69,1.02-1.26,1.27-1.74.25-.47.38-.91.38-1.31,0-.54-.14-.98-.44-1.32-.29-.34-.7-.51-1.23-.51-.59,0-1.04.2-1.35.6-.31.4-.46.94-.46,1.6h-2.5l-.02-.05c-.03-1.15.35-2.13,1.14-2.93.79-.8,1.85-1.2,3.19-1.2s2.36.34,3.11,1.03c.76.69,1.13,1.6,1.13,2.74,0,.77-.21,1.49-.64,2.14s-1.13,1.51-2.11,2.57l-2.28,2.49.02.04h3.32l.11-1.27h1.95v3.23h-8.73Z"/>
    <path class="cls-2" d="m63.65,14.69l2.16-.26V5.76h-2.19v-1.47l4.75-.86v11l2.16.26v1.54h-6.88v-1.54h0Z"/>
    <path class="cls-2" d="m74.55,15.88c0,.6-.17,1.23-.51,1.9-.34.67-.75,1.22-1.24,1.64l-1.27-.69c.23-.41.4-.83.53-1.27.12-.44.18-.93.18-1.46v-1.92h2.3v1.79Z"/>
    <path class="cls-2" d="m84.96,11.24c0,1.69-.39,2.98-1.17,3.85-.78.88-1.83,1.31-3.15,1.31s-2.39-.44-3.17-1.31c-.78-.88-1.17-2.16-1.17-3.85v-2.82c0-1.69.39-2.97,1.17-3.85.78-.88,1.83-1.32,3.16-1.32s2.38.44,3.16,1.32c.78.88,1.17,2.17,1.17,3.85v2.82Zm-2.56-3.08c0-1.01-.15-1.76-.46-2.23-.31-.47-.74-.71-1.32-.71s-1.02.23-1.32.7c-.3.47-.45,1.21-.45,2.23v3.33c0,1.03.15,1.78.45,2.25.3.47.75.7,1.33.7s1.01-.23,1.31-.7.45-1.22.45-2.25v-3.33h0Z"/>
    <path class="cls-2" d="m95.25,11.24c0,1.69-.39,2.98-1.16,3.85-.78.88-1.83,1.31-3.15,1.31s-2.39-.44-3.17-1.31c-.78-.88-1.17-2.16-1.17-3.85v-2.82c0-1.69.39-2.97,1.17-3.85.78-.88,1.83-1.32,3.16-1.32s2.38.44,3.16,1.32c.78.88,1.17,2.17,1.17,3.85v2.82h0Zm-2.56-3.08c0-1.01-.15-1.76-.46-2.23-.3-.47-.74-.71-1.32-.71s-1.02.23-1.32.7c-.3.47-.45,1.21-.45,2.23v3.33c0,1.03.15,1.78.45,2.25.3.47.75.7,1.33.7s1.01-.23,1.31-.7.45-1.22.45-2.25v-3.33h0Z"/>
    <path class="cls-2" d="m105.53,11.24c0,1.69-.39,2.98-1.16,3.85-.78.88-1.83,1.31-3.15,1.31s-2.39-.44-3.17-1.31c-.78-.88-1.17-2.16-1.17-3.85v-2.82c0-1.69.39-2.97,1.16-3.85.77-.88,1.83-1.32,3.16-1.32s2.38.44,3.16,1.32c.78.88,1.17,2.17,1.17,3.85v2.82Zm-2.56-3.08c0-1.01-.15-1.76-.46-2.23-.3-.47-.74-.71-1.32-.71s-1.02.23-1.32.7c-.3.47-.45,1.21-.45,2.23v3.33c0,1.03.15,1.78.45,2.25.3.47.75.7,1.33.7s1.01-.23,1.31-.7.45-1.22.45-2.25v-3.33h0Z"/>
    <path class="cls-2" d="m109.82,15.88c0,.6-.17,1.23-.51,1.9s-.75,1.22-1.23,1.64l-1.27-.69c.23-.41.4-.83.53-1.27.12-.44.18-.93.18-1.46v-1.92h2.3v1.79Z"/>
    <path class="cls-2" d="m120.24,11.24c0,1.69-.39,2.98-1.16,3.85-.78.88-1.83,1.31-3.15,1.31s-2.39-.44-3.17-1.31c-.78-.88-1.17-2.16-1.17-3.85v-2.82c0-1.69.39-2.97,1.16-3.85.78-.88,1.83-1.32,3.16-1.32s2.38.44,3.16,1.32c.78.88,1.17,2.17,1.17,3.85v2.82h0Zm-2.56-3.08c0-1.01-.15-1.76-.46-2.23-.3-.47-.74-.71-1.32-.71s-1.02.23-1.32.7-.45,1.21-.45,2.23v3.33c0,1.03.15,1.78.45,2.25.3.47.74.7,1.33.7s1.01-.23,1.31-.7.45-1.22.45-2.25v-3.33h0Z"/>
    <path class="cls-2" d="m130.52,11.24c0,1.69-.39,2.98-1.16,3.85-.78.88-1.83,1.31-3.15,1.31s-2.39-.44-3.17-1.31c-.78-.88-1.17-2.16-1.17-3.85v-2.82c0-1.69.39-2.97,1.16-3.85s1.83-1.32,3.16-1.32,2.38.44,3.16,1.32c.78.88,1.17,2.17,1.17,3.85v2.82s0,0,0,0Zm-2.56-3.08c0-1.01-.15-1.76-.46-2.23-.3-.47-.74-.71-1.32-.71s-1.02.23-1.32.7-.45,1.21-.45,2.23v3.33c0,1.03.15,1.78.45,2.25.3.47.74.7,1.33.7s1.01-.23,1.31-.7c.3-.47.45-1.22.45-2.25v-3.33h0Z"/>
    <path class="cls-2" d="m140.8,11.24c0,1.69-.39,2.98-1.16,3.85-.78.88-1.83,1.31-3.15,1.31s-2.39-.44-3.17-1.31c-.78-.88-1.17-2.16-1.17-3.85v-2.82c0-1.69.39-2.97,1.16-3.85.78-.88,1.83-1.32,3.16-1.32s2.38.44,3.16,1.32c.78.88,1.17,2.17,1.17,3.85v2.82h0Zm-2.56-3.08c0-1.01-.15-1.76-.46-2.23-.3-.47-.74-.71-1.32-.71s-1.02.23-1.32.7-.45,1.21-.45,2.23v3.33c0,1.03.15,1.78.45,2.25.3.47.74.7,1.33.7s1.01-.23,1.31-.7.45-1.22.45-2.25v-3.33h0Z"/>
  </g>
  <g class="cls-3">
    <ellipse class="cls-4" cx="200.31" cy="215.22" rx="39.95" ry="6.45"/>
  </g>
  <g class="cls-3">
    <ellipse class="cls-4" cx="124.8" cy="219.15" rx="13.62" ry="2.2"/>
  </g>
  <g class="cls-3">
    <ellipse class="cls-4" cx="96.56" cy="219.15" rx="13.62" ry="2.2"/>
  </g>
  <g class="cls-3">
    <ellipse class="cls-4" cx="68.31" cy="219.15" rx="13.62" ry="2.2"/>
  </g>
  <path class="cls-4" d="m229.25,169.5c-.16,1.31-4.48,38.2-10.77,43.37-6.28,5.17-9.58,3.43-10.86,2.06-1.34-1.44-3.02-4.03.1-6.95,2.52-2.35,4.28-12.74,1.77-28.96l19.75-9.52Z"/>
  <path class="cls-4" d="m205.25,167.2c-.16,1.3-4.49,38.2-10.77,43.37-6.29,5.17-9.59,3.43-10.86,2.05-1.34-1.44-3.03-4.03.1-6.94,2.52-2.35,4.28-12.74,1.77-28.96l19.75-9.52Z"/>
  <path class="cls-4" d="m188.48,117.98c2.63-1.2,5.74-.41,7.1,2.45,1.36,2.84-.32,7.29-3.99,8.99-10.41,4.82-21.85,4.09-31.56-2.04-3.41-2.15-4.52-6.79-2.8-9.43,1.72-2.66,4.91-3.04,7.37-1.51,7.34,4.63,16,5.2,23.88,1.55Z"/>
  <path class="cls-1" d="m224.22,113.78c-7.26-4.03-16.47-6.19-33.46-6.86,4.05-1.71,9.41-2.51,17.26-2.51h.01c13.43,0,19.64,2.29,24.32,7.61,5.52,6.29,8.3,24.25,8.86,38.24-.9-13.13-6.22-30.49-16.99-36.48Z"/>
  <path class="cls-6" d="m241.21,150.26c.13,1.93.16,3.76.11,5.46,0-1.72-.03-3.55-.11-5.46Z"/>
  <path class="cls-6" d="m252.96,172.8c1.92,1.36,4.4,1.84,5.7.67,1.3-1.15.91-4.1-1.22-6.21-5.77-5.75-13.35-9.62-21.69-10.87-3.11-.45-5.36,2.17-4.98,5.34.38,3.19,2.32,5.47,4.45,5.44,6.1-.1,12.36,1.76,17.74,5.62Z"/>
  <g>
    <path class="cls-1" d="m234.46,89.87c2.87-11.79-5.09-19.26-25.77-21.76-6.56-.79-12.18-8.9-16.86-10.6-13.44-4.9-17.23,3.83-17.23,3.83h-.03c7.67-15.01,27.45-22.88,47.62-17.88,22.89,5.68,37.61,25.78,32.87,44.9-4.74,19.12-27.15,30.01-50.04,24.33-2-.5-3.92-1.11-5.79-1.81v-.02c19.82,6.4,31.4-5.34,35.22-20.99Z"/>
    <path class="cls-6" d="m172.16,67.79c.56-2.28,1.38-4.43,2.42-6.46h.03s3.79-8.72,17.23-3.83c4.67,1.7,10.29,9.81,16.86,10.6,20.68,2.49,28.64,9.97,25.77,21.76-3.81,15.65-15.4,27.39-35.22,20.99v.02c-19.52-7.37-31.41-25.64-27.08-43.09Z"/>
    <path class="cls-10" d="m191.7,102.54c4.35,1.26,13.86-.4,14.47-9.92.61-9.52-9.53-13.23-12.96-14.22-3.43-.99-13.68-3.19-14.29,6.32-.61,9.52,8.42,16.55,12.77,17.81Z"/>
    <path class="cls-4" d="m192.85,80.84c-1.89-.55-4.82.76-5.31,3.15-.49,2.38,4.99,3.88,4.99,3.88l.16.04s5.46,1.67,5.29-.9c-.17-2.57-2.83-5.51-4.72-6.05l-.41-.12Z"/>
    <path class="cls-4" d="m193.89,98.47c-.68,0-1.38-.1-2.08-.31-1.05-.3-2.06-.82-2.99-1.54-.89-.68-1.67-1.52-2.33-2.48-.65-.96-1.15-2-1.48-3.11-.1-.33.09-.68.42-.77.33-.1.68.09.77.42.29.98.73,1.9,1.31,2.75.58.85,1.28,1.59,2.06,2.19.81.62,1.67,1.07,2.58,1.33.89.26,1.76.32,2.58.19.8-.13,1.52-.43,2.14-.89.63-.46,1.14-1.07,1.53-1.81.16-.31.54-.42.84-.26.31.16.42.54.26.84-.48.91-1.11,1.67-1.9,2.24-.78.57-1.68.95-2.68,1.12-.35.06-.7.08-1.05.08Z"/>
    <circle class="cls-4" cx="211.71" cy="80.37" r="1.75"/>
    <circle class="cls-4" cx="185.3" cy="69.19" r="1.75"/>
    <path class="cls-6" d="m227.98,91.54c-1.74,6.66-1.04,12.61,1.57,13.29,2.61.68,6.14-4.16,7.88-10.82,1.74-6.66,1.04-12.61-1.57-13.29-2.61-.68-6.14,4.16-7.88,10.81Z"/>
    <path class="cls-4" d="m232.75,84.84c2.15.58,2.96,5.06,2.31,10.98.24-.71.47-1.45.67-2.23,1.34-5.24,1.05-9.85-.65-10.31-.72-.19-1.58.4-2.44,1.54.03,0,.07,0,.1.01Z"/>
    <path class="cls-10" d="m217,82.47s-.07,0-.1,0c-.38-.06-.63-.41-.58-.78.08-.52.05-1.04-.07-1.55-.12-.51-.34-.99-.65-1.41-.31-.44-.71-.81-1.18-1.09-.47-.29-.98-.47-1.51-.55-.38-.06-.64-.41-.58-.78.06-.38.41-.63.78-.58.72.11,1.4.36,2.03.74.63.38,1.16.88,1.58,1.47.41.57.7,1.2.87,1.89.17.69.2,1.39.09,2.08-.05.34-.35.58-.68.58Z"/>
    <path class="cls-10" d="m180.97,67.24c-.13,0-.25-.03-.37-.11-.32-.2-.41-.63-.21-.95.39-.62.9-1.14,1.51-1.55.61-.42,1.28-.7,1.98-.84.68-.14,1.39-.15,2.08-.02.68.13,1.35.39,1.93.76.32.2.42.63.21.95-.2.32-.63.42-.95.21-.44-.28-.94-.48-1.45-.57-.52-.1-1.04-.09-1.55.01-.52.1-1.02.31-1.48.63-.45.31-.83.7-1.12,1.15-.13.21-.35.32-.58.32Z"/>
  </g>
  <path class="cls-6" d="m183.7,112.03c1.71-1.94,3.62-3.48,6.02-4.65.33-.16.69-.3,1.04-.45,2.74.11,5.25.26,7.61.45,5.78.21,10.31.85,13.99,2.01,4.74,1.1,8.51,2.55,11.85,4.41,10.77,5.98,16.1,23.35,16.99,36.48.07,1.91.11,3.74.11,5.46-.02,4.44-.3,8.13-.83,10.36-.58,2.41-2.89,4.47-6.51,6.1-5.78,2.59-14.93,4.07-25.95,4.07h-.01c-1.03,0-2.04-.02-3.04-.04-.31,0-.61-.02-.91-.03-.69-.03-1.38-.05-2.05-.09-.34-.02-.67-.04-1-.06-.65-.04-1.3-.09-1.93-.14-.3-.03-.6-.05-.9-.08-.77-.07-1.53-.15-2.27-.24-.13-.02-.26-.03-.39-.04-.88-.11-1.73-.23-2.55-.36-.2-.03-.39-.07-.59-.1-.62-.1-1.23-.21-1.82-.33-.25-.05-.49-.1-.74-.15-.53-.12-1.05-.23-1.56-.35-.23-.06-.46-.11-.69-.17-.55-.15-1.08-.29-1.6-.45-.12-.04-.25-.07-.37-.1h.02c-3.55-1.1-6.3-2.5-8.04-4.16-.02-.02-.03-.04-.05-.05-.33-.31-.62-.64-.88-.97-.1-.13-.16-.27-.25-.4-.15-.23-.31-.46-.42-.69-.18-.37-.32-.75-.42-1.15-2.25-9.42-.07-44.71,8.14-54.06Z"/>
  <ellipse class="cls-6" cx="207.9" cy="161.89" rx="32.98" ry="25.99"/>
  <g>
    <path class="cls-4" d="m220.38,121.07c1.85-2.22,4.99-2.86,7.46-.88,2.46,1.97,2.88,6.71.31,9.83-7.28,8.87-17.9,13.18-29.31,11.88-4.01-.46-7.02-4.15-6.62-7.27.4-3.14,3.1-4.88,5.98-4.57,8.63.99,16.66-2.27,22.17-8.99Z"/>
    <path class="cls-4" d="m189.34,132.43c-.77-.14-1.45-.63-1.48-1.21-.02-.58.77-1.16,1.77-1.14,2.7.05,5.38.97,7.59,2.67.82.64.72,1.78-.13,2.42-.85.65-1.84.7-2.32.19-1.38-1.48-3.27-2.55-5.43-2.94Z"/>
    <path class="cls-4" d="m188.44,136.86c-.78.07-1.57-.2-1.75-.75-.19-.55.42-1.33,1.38-1.58,2.61-.7,5.43-.56,8.04.46.97.38,1.18,1.51.55,2.36-.63.86-1.57,1.19-2.18.83-1.74-1.04-3.85-1.53-6.03-1.32Z"/>
    <path class="cls-4" d="m189.84,141.26c-.66.42-1.49.54-1.9.13-.41-.4-.23-1.37.51-2.04,2-1.81,4.58-2.97,7.36-3.25,1.04-.1,1.74.8,1.57,1.85-.18,1.05-.86,1.77-1.57,1.73-2.02-.13-4.13.38-5.97,1.58Z"/>
  </g>
  <path class="cls-4" d="m204.27,211.34c-.79.22-1.66.09-1.95-.44-.29-.53.18-1.45,1.12-1.9,2.56-1.22,5.5-1.62,8.38-1.05,1.07.21,1.51,1.34,1.02,2.33-.49,1-1.4,1.53-2.09,1.27-2-.74-4.27-.86-6.48-.21Z"/>
  <path class="cls-4" d="m205.5,215.92c-.69.44-1.56.55-2,.12-.43-.43-.23-1.44.55-2.14,2.12-1.88,4.84-3.08,7.77-3.34,1.09-.09,1.82.87,1.62,1.96-.2,1.1-.92,1.86-1.66,1.8-2.12-.16-4.34.36-6.29,1.6Z"/>
  <path class="cls-4" d="m208.89,219.4c-.42.7-1.15,1.2-1.73,1.02-.58-.19-.86-1.18-.48-2.15,1.03-2.64,2.91-4.94,5.4-6.5.93-.59,2.02-.07,2.34,1,.33,1.07.03,2.07-.66,2.36-1.96.82-3.7,2.3-4.87,4.28Z"/>
  <path class="cls-4" d="m179.19,208.61c-.79.23-1.66.09-1.95-.44-.29-.54.18-1.45,1.12-1.9,2.56-1.22,5.5-1.61,8.38-1.05,1.07.21,1.51,1.34,1.02,2.33-.49,1.01-1.4,1.53-2.09,1.28-2-.74-4.27-.86-6.48-.21Z"/>
  <path class="cls-4" d="m180.42,213.2c-.69.43-1.56.55-1.99.12-.43-.43-.24-1.44.55-2.14,2.12-1.88,4.84-3.08,7.77-3.34,1.09-.09,1.82.87,1.62,1.96-.19,1.1-.92,1.86-1.66,1.8-2.12-.16-4.34.36-6.29,1.6Z"/>
  <path class="cls-4" d="m183.81,216.67c-.42.7-1.15,1.2-1.73,1.01-.58-.19-.87-1.18-.48-2.15,1.03-2.64,2.91-4.94,5.4-6.51.93-.58,2.02-.06,2.34,1.01.33,1.07.03,2.07-.65,2.36-1.97.83-3.7,2.3-4.87,4.28Z"/>
  <path class="cls-4" d="m152.78,118.7c-.79-.27-1.44-.88-1.37-1.5.06-.62.99-1.1,2.04-.93,2.85.47,5.52,1.85,7.6,3.99.77.8.48,1.99-.51,2.54-1,.55-2.05.46-2.48-.16-1.23-1.77-3.06-3.19-5.28-3.94Z"/>
  <path class="cls-4" d="m152.21,123.6c-.82.12-1.68-.13-1.9-.71-.22-.57.38-1.44,1.39-1.76,2.75-.88,5.76-.87,8.59.1,1.05.36,1.33,1.55.7,2.49-.63.95-1.62,1.35-2.28.99-1.9-1.02-4.18-1.45-6.5-1.11Z"/>
  <path class="cls-4" d="m155.62,114.79c-.68-.48-1.13-1.25-.9-1.82.23-.57,1.26-.79,2.22-.33,2.6,1.24,4.79,3.31,6.2,5.95.52.99-.09,2.05-1.19,2.29-1.11.26-2.1-.12-2.34-.84-.69-2.04-2.05-3.91-3.98-5.25Z"/>
  <g>
    <g>
      <path class="cls-9" d="m57.72,214.06c.88,1.09,1.94,2.06,3.18,2.86,6.29,4.06,14.69,2.26,18.75-4.04,2.17-3.36,2.67-7.31,1.7-10.89-.33,2.24-1.12,4.45-2.43,6.47-4.6,7.13-13.83,9.46-21.2,5.6Z"/>
      <path class="cls-5" d="m56.86,198.17c-3.26,5.05-2.74,11.46.86,15.89,7.37,3.86,16.6,1.52,21.2-5.6,1.31-2.02,2.11-4.23,2.43-6.47-.84-3.13-2.8-5.97-5.74-7.86-6.29-4.06-14.69-2.26-18.75,4.04Z"/>
    </g>
    <path class="cls-1" d="m72.38,205.67c.3.38.42.9.36,1.57-.09.8-.43,1.39-1,1.75-.5.3-1.25.48-2.25.55v1.55h-1.11v-1.52h-.87v1.52h-1.11v-1.55h-2.21l.23-1.32h.23c.36.02.6,0,.7-.02.15-.05.24-.16.27-.34v-4.94c-.05-.24-.18-.39-.39-.45-.13-.05-.42-.06-.87-.05h-.18v-1.18l.68.02c.81,0,1.31-.01,1.52-.02v-1.8h1.11v1.77l.86-.02v-1.75h1.11v1.8c.77.07,1.36.24,1.77.5.5.3.78.76.82,1.36.09.88-.22,1.5-.93,1.86h0c.56.12.97.36,1.23.71h0Zm-4.85-.98h.18c.64.02,1.13-.02,1.48-.11.6-.15.91-.48.91-.98s-.29-.83-.89-1c-.33-.09-.83-.13-1.48-.11-.11.02-.18.02-.2.02v2.18h0Zm.2,3.53c.78.02,1.36-.02,1.75-.11.71-.18,1.07-.55,1.07-1.09s-.35-.91-1.04-1.09c-.38-.11-.96-.14-1.73-.11h-.25v2.41h.2Z"/>
  </g>
  <g>
    <g>
      <path class="cls-9" d="m57.72,186.06c.88,1.08,1.94,2.06,3.18,2.86,6.29,4.06,14.69,2.25,18.75-4.04,2.17-3.36,2.67-7.31,1.7-10.89-.33,2.24-1.12,4.45-2.43,6.47-4.6,7.13-13.83,9.46-21.2,5.61Z"/>
      <path class="cls-5" d="m56.86,170.17c-3.26,5.05-2.74,11.46.86,15.9,7.37,3.86,16.6,1.52,21.2-5.6,1.31-2.03,2.11-4.23,2.43-6.47-.84-3.13-2.8-5.97-5.74-7.86-6.29-4.07-14.69-2.26-18.75,4.04Z"/>
    </g>
    <path class="cls-1" d="m72.38,177.67c.3.38.42.9.36,1.57-.09.8-.43,1.39-1,1.75-.5.3-1.25.48-2.25.55v1.55h-1.11v-1.52h-.87v1.52h-1.11v-1.55h-2.21l.23-1.32h.23c.36.02.6,0,.7-.02.15-.04.24-.16.27-.34v-4.94c-.05-.24-.18-.4-.39-.45-.13-.04-.42-.06-.87-.04h-.18v-1.18l.68.02c.81,0,1.31,0,1.52-.02v-1.8h1.11v1.77l.86-.02v-1.75h1.11v1.8c.77.08,1.36.24,1.77.5.5.3.78.76.82,1.37.09.88-.22,1.5-.93,1.87h0c.56.12.97.36,1.23.71h0Zm-4.85-.98h.18c.64.02,1.13-.02,1.48-.11.6-.15.91-.48.91-.98s-.29-.83-.89-1c-.33-.09-.83-.13-1.48-.11-.11.02-.18.02-.2.02v2.18h0Zm.2,3.53c.78.02,1.36-.02,1.75-.11.71-.18,1.07-.55,1.07-1.09s-.35-.91-1.04-1.09c-.38-.11-.96-.14-1.73-.11h-.25v2.41h.2Z"/>
  </g>
  <g>
    <g>
      <path class="cls-9" d="m57.72,158.06c.88,1.09,1.94,2.06,3.18,2.86,6.29,4.06,14.69,2.25,18.75-4.04,2.17-3.36,2.67-7.31,1.7-10.89-.33,2.24-1.12,4.44-2.43,6.47-4.6,7.13-13.83,9.46-21.2,5.6Z"/>
      <path class="cls-5" d="m56.86,142.16c-3.26,5.05-2.74,11.46.86,15.9,7.37,3.86,16.6,1.52,21.2-5.6,1.31-2.03,2.11-4.23,2.43-6.47-.84-3.13-2.8-5.97-5.74-7.86-6.29-4.06-14.69-2.25-18.75,4.04Z"/>
    </g>
    <path class="cls-1" d="m72.38,149.67c.3.38.42.9.36,1.57-.09.8-.43,1.39-1,1.75-.5.3-1.25.48-2.25.55v1.55h-1.11v-1.52h-.87v1.52h-1.11v-1.55h-2.21l.23-1.32h.23c.36.02.6,0,.7-.02.15-.04.24-.16.27-.34v-4.94c-.05-.24-.18-.39-.39-.46-.13-.04-.42-.06-.87-.04h-.18v-1.18l.68.02c.81,0,1.31,0,1.52-.02v-1.8h1.11v1.77l.86-.02v-1.75h1.11v1.8c.77.07,1.36.24,1.77.5.5.3.78.76.82,1.37.09.88-.22,1.5-.93,1.87h0c.56.12.97.36,1.23.7h0Zm-4.85-.98h.18c.64.02,1.13-.02,1.48-.11.6-.15.91-.48.91-.98s-.29-.83-.89-1c-.33-.09-.83-.13-1.48-.11-.11.02-.18.02-.2.02v2.19h0Zm.2,3.52c.78.02,1.36-.02,1.75-.11.71-.18,1.07-.55,1.07-1.09s-.35-.91-1.04-1.09c-.38-.11-.96-.15-1.73-.11h-.25v2.41h.2Z"/>
  </g>
  <g>
    <g>
      <path class="cls-9" d="m57.72,130.06c.88,1.09,1.94,2.06,3.18,2.86,6.29,4.06,14.69,2.25,18.75-4.04,2.17-3.35,2.67-7.31,1.7-10.89-.33,2.24-1.12,4.45-2.43,6.47-4.6,7.13-13.83,9.46-21.2,5.6Z"/>
      <path class="cls-5" d="m56.86,114.16c-3.26,5.05-2.74,11.46.86,15.9,7.37,3.86,16.6,1.52,21.2-5.6,1.31-2.03,2.11-4.23,2.43-6.47-.84-3.13-2.8-5.97-5.74-7.86-6.29-4.06-14.69-2.26-18.75,4.04Z"/>
    </g>
    <path class="cls-1" d="m72.38,121.66c.3.38.42.9.36,1.57-.09.81-.43,1.39-1,1.75-.5.3-1.25.49-2.25.55v1.55h-1.11v-1.52h-.87v1.52h-1.11v-1.55h-2.21l.23-1.32h.23c.36.02.6,0,.7-.02.15-.05.24-.16.27-.34v-4.94c-.05-.24-.18-.4-.39-.45-.13-.05-.42-.06-.87-.05h-.18v-1.18l.68.02c.81,0,1.31,0,1.52-.02v-1.8h1.11v1.78l.86-.02v-1.75h1.11v1.8c.77.07,1.36.24,1.77.5.5.3.78.76.82,1.37.09.88-.22,1.5-.93,1.86h0c.56.12.97.36,1.23.71h0Zm-4.85-.98h.18c.64.02,1.13-.02,1.48-.11.6-.15.91-.48.91-.98s-.29-.83-.89-1c-.33-.09-.83-.13-1.48-.11-.11.01-.18.02-.2.02v2.19h0Zm.2,3.53c.78.02,1.36-.02,1.75-.12.71-.18,1.07-.54,1.07-1.09s-.35-.91-1.04-1.09c-.38-.11-.96-.14-1.73-.11h-.25v2.41h.2Z"/>
  </g>
  <g>
    <g>
      <path class="cls-9" d="m57.72,102.06c.88,1.09,1.94,2.06,3.18,2.86,6.29,4.06,14.69,2.25,18.75-4.04,2.17-3.36,2.67-7.31,1.7-10.89-.33,2.24-1.12,4.45-2.43,6.47-4.6,7.13-13.83,9.46-21.2,5.6Z"/>
      <path class="cls-5" d="m56.86,86.16c-3.26,5.05-2.74,11.46.86,15.9,7.37,3.86,16.6,1.52,21.2-5.6,1.31-2.03,2.11-4.23,2.43-6.47-.84-3.13-2.8-5.97-5.74-7.86-6.29-4.07-14.69-2.26-18.75,4.04Z"/>
    </g>
    <path class="cls-1" d="m72.38,93.66c.3.38.42.9.36,1.57-.09.8-.43,1.39-1,1.75-.5.3-1.25.49-2.25.55v1.55h-1.11v-1.52h-.87v1.52h-1.11v-1.55h-2.21l.23-1.32h.23c.36.02.6,0,.7-.02.15-.04.24-.16.27-.34v-4.94c-.05-.24-.18-.4-.39-.46-.13-.04-.42-.06-.87-.04h-.18v-1.18l.68.02c.81,0,1.31,0,1.52-.02v-1.8h1.11v1.77l.86-.02v-1.75h1.11v1.8c.77.07,1.36.24,1.77.5.5.3.78.76.82,1.37.09.88-.22,1.5-.93,1.87h0c.56.12.97.36,1.23.71h0Zm-4.85-.98h.18c.64.02,1.13-.02,1.48-.11.6-.15.91-.48.91-.98s-.29-.83-.89-1c-.33-.09-.83-.13-1.48-.11-.11.01-.18.02-.2.02v2.19h0Zm.2,3.53c.78.02,1.36-.02,1.75-.12.71-.18,1.07-.55,1.07-1.09s-.35-.91-1.04-1.09c-.38-.11-.96-.14-1.73-.11h-.25v2.41h.2Z"/>
  </g>
  <g>
    <path class="cls-9" d="m57.72,74.05c.88,1.09,1.94,2.06,3.18,2.86,6.29,4.06,14.69,2.25,18.75-4.04,2.17-3.36,2.67-7.31,1.7-10.89-.33,2.24-1.12,4.45-2.43,6.47-4.6,7.13-13.83,9.46-21.2,5.6Z"/>
    <path class="cls-5" d="m56.86,58.16c-3.26,5.05-2.74,11.46.86,15.9,7.37,3.86,16.6,1.52,21.2-5.6,1.31-2.02,2.11-4.23,2.43-6.47-.84-3.13-2.8-5.96-5.74-7.86-6.29-4.07-14.69-2.26-18.75,4.04Z"/>
  </g>
  <path class="cls-1" d="m72.38,65.66c.3.38.42.9.36,1.57-.09.8-.43,1.39-1,1.75-.5.3-1.25.48-2.25.55v1.55h-1.11v-1.52h-.87v1.52h-1.11v-1.55h-2.21l.23-1.32h.23c.36.02.6,0,.7-.02.15-.05.24-.16.27-.34v-4.94c-.05-.24-.18-.4-.39-.46-.13-.04-.42-.06-.87-.04h-.18v-1.18l.68.02c.81,0,1.31,0,1.52-.02v-1.8h1.11v1.77l.86-.02v-1.75h1.11v1.8c.77.07,1.36.24,1.77.5.5.3.78.76.82,1.37.09.88-.22,1.5-.93,1.87h0c.56.12.97.36,1.23.7h0Zm-4.85-.98h.18c.64.02,1.13-.02,1.48-.11.6-.15.91-.48.91-.98s-.29-.83-.89-1c-.33-.09-.83-.13-1.48-.11-.11.02-.18.02-.2.02v2.19h0Zm.2,3.53c.78.02,1.36-.02,1.75-.12.71-.18,1.07-.55,1.07-1.09s-.35-.91-1.04-1.09c-.38-.11-.95-.14-1.73-.11h-.25v2.41h.2Z"/>
  <g>
    <g>
      <path class="cls-9" d="m85.83,214.06c.88,1.09,1.94,2.06,3.18,2.86,6.29,4.06,14.69,2.26,18.75-4.04,2.17-3.36,2.66-7.31,1.7-10.89-.33,2.24-1.12,4.45-2.43,6.47-4.6,7.13-13.83,9.46-21.2,5.6Z"/>
      <path class="cls-5" d="m84.97,198.17c-3.26,5.05-2.74,11.46.86,15.89,7.37,3.86,16.6,1.52,21.2-5.6,1.31-2.02,2.1-4.23,2.43-6.47-.84-3.13-2.8-5.97-5.74-7.86-6.29-4.06-14.69-2.26-18.75,4.04Z"/>
    </g>
    <path class="cls-1" d="m100.49,205.67c.3.38.42.9.36,1.57-.09.8-.43,1.39-1,1.75-.5.3-1.25.48-2.25.55v1.55h-1.11v-1.52h-.87v1.52h-1.11v-1.55h-2.21l.23-1.32h.23c.37.02.6,0,.7-.02.15-.05.24-.16.27-.34v-4.94c-.05-.24-.18-.39-.39-.45-.13-.05-.42-.06-.87-.05h-.18v-1.18l.68.02c.8,0,1.31-.01,1.52-.02v-1.8h1.11v1.77l.86-.02v-1.75h1.11v1.8c.77.07,1.36.24,1.77.5.5.3.77.76.82,1.36.09.88-.22,1.5-.93,1.86h0c.56.12.97.36,1.23.71h0Zm-4.85-.98h.18c.64.02,1.13-.02,1.48-.11.61-.15.91-.48.91-.98s-.29-.83-.88-1c-.33-.09-.83-.13-1.48-.11-.11.02-.18.02-.2.02v2.18h0Zm.2,3.53c.77.02,1.35-.02,1.75-.11.71-.18,1.07-.55,1.07-1.09s-.35-.91-1.05-1.09c-.38-.11-.95-.14-1.73-.11h-.25v2.41h.2Z"/>
  </g>
  <g>
    <g>
      <path class="cls-9" d="m85.83,186.06c.88,1.08,1.94,2.06,3.18,2.86,6.29,4.06,14.69,2.25,18.75-4.04,2.17-3.36,2.66-7.31,1.7-10.89-.33,2.24-1.12,4.45-2.43,6.47-4.6,7.13-13.83,9.46-21.2,5.61Z"/>
      <path class="cls-5" d="m84.97,170.17c-3.26,5.05-2.74,11.46.86,15.9,7.37,3.86,16.6,1.52,21.2-5.6,1.31-2.03,2.1-4.23,2.43-6.47-.84-3.13-2.8-5.97-5.74-7.86-6.29-4.07-14.69-2.26-18.75,4.04Z"/>
    </g>
    <path class="cls-1" d="m100.49,177.67c.3.38.42.9.36,1.57-.09.8-.43,1.39-1,1.75-.5.3-1.25.48-2.25.55v1.55h-1.11v-1.52h-.87v1.52h-1.11v-1.55h-2.21l.23-1.32h.23c.37.02.6,0,.7-.02.15-.04.24-.16.27-.34v-4.94c-.05-.24-.18-.4-.39-.45-.13-.04-.42-.06-.87-.04h-.18v-1.18l.68.02c.8,0,1.31,0,1.52-.02v-1.8h1.11v1.77l.86-.02v-1.75h1.11v1.8c.77.08,1.36.24,1.77.5.5.3.77.76.82,1.37.09.88-.22,1.5-.93,1.87h0c.56.12.97.36,1.23.71h0Zm-4.85-.98h.18c.64.02,1.13-.02,1.48-.11.61-.15.91-.48.91-.98s-.29-.83-.88-1c-.33-.09-.83-.13-1.48-.11-.11.02-.18.02-.2.02v2.18h0Zm.2,3.53c.77.02,1.35-.02,1.75-.11.71-.18,1.07-.55,1.07-1.09s-.35-.91-1.05-1.09c-.38-.11-.95-.14-1.73-.11h-.25v2.41h.2Z"/>
  </g>
  <g>
    <g>
      <path class="cls-9" d="m85.83,158.06c.88,1.09,1.94,2.06,3.18,2.86,6.29,4.06,14.69,2.25,18.75-4.04,2.17-3.36,2.66-7.31,1.7-10.89-.33,2.24-1.12,4.44-2.43,6.47-4.6,7.13-13.83,9.46-21.2,5.6Z"/>
      <path class="cls-5" d="m84.97,142.16c-3.26,5.05-2.74,11.46.86,15.9,7.37,3.86,16.6,1.52,21.2-5.6,1.31-2.03,2.1-4.23,2.43-6.47-.84-3.13-2.8-5.97-5.74-7.86-6.29-4.06-14.69-2.25-18.75,4.04Z"/>
    </g>
    <path class="cls-1" d="m100.49,149.67c.3.38.42.9.36,1.57-.09.8-.43,1.39-1,1.75-.5.3-1.25.48-2.25.55v1.55h-1.11v-1.52h-.87v1.52h-1.11v-1.55h-2.21l.23-1.32h.23c.37.02.6,0,.7-.02.15-.04.24-.16.27-.34v-4.94c-.05-.24-.18-.39-.39-.46-.13-.04-.42-.06-.87-.04h-.18v-1.18l.68.02c.8,0,1.31,0,1.52-.02v-1.8h1.11v1.77l.86-.02v-1.75h1.11v1.8c.77.07,1.36.24,1.77.5.5.3.77.76.82,1.37.09.88-.22,1.5-.93,1.87h0c.56.12.97.36,1.23.7h0Zm-4.85-.98h.18c.64.02,1.13-.02,1.48-.11.61-.15.91-.48.91-.98s-.29-.83-.88-1c-.33-.09-.83-.13-1.48-.11-.11.02-.18.02-.2.02v2.19h0Zm.2,3.52c.77.02,1.35-.02,1.75-.11.71-.18,1.07-.55,1.07-1.09s-.35-.91-1.05-1.09c-.38-.11-.95-.15-1.73-.11h-.25v2.41h.2Z"/>
  </g>
  <g>
    <g>
      <path class="cls-9" d="m85.83,130.06c.88,1.09,1.94,2.06,3.18,2.86,6.29,4.06,14.69,2.25,18.75-4.04,2.17-3.35,2.66-7.31,1.7-10.89-.33,2.24-1.12,4.45-2.43,6.47-4.6,7.13-13.83,9.46-21.2,5.6Z"/>
      <path class="cls-5" d="m84.97,114.16c-3.26,5.05-2.74,11.46.86,15.9,7.37,3.86,16.6,1.52,21.2-5.6,1.31-2.03,2.1-4.23,2.43-6.47-.84-3.13-2.8-5.97-5.74-7.86-6.29-4.06-14.69-2.26-18.75,4.04Z"/>
    </g>
    <path class="cls-1" d="m100.49,121.66c.3.38.42.9.36,1.57-.09.81-.43,1.39-1,1.75-.5.3-1.25.49-2.25.55v1.55h-1.11v-1.52h-.87v1.52h-1.11v-1.55h-2.21l.23-1.32h.23c.37.02.6,0,.7-.02.15-.05.24-.16.27-.34v-4.94c-.05-.24-.18-.4-.39-.45-.13-.05-.42-.06-.87-.05h-.18v-1.18l.68.02c.8,0,1.31,0,1.52-.02v-1.8h1.11v1.78l.86-.02v-1.75h1.11v1.8c.77.07,1.36.24,1.77.5.5.3.77.76.82,1.37.09.88-.22,1.5-.93,1.86h0c.56.12.97.36,1.23.71h0Zm-4.85-.98h.18c.64.02,1.13-.02,1.48-.11.61-.15.91-.48.91-.98s-.29-.83-.88-1c-.33-.09-.83-.13-1.48-.11-.11.01-.18.02-.2.02v2.19h0Zm.2,3.53c.77.02,1.35-.02,1.75-.12.71-.18,1.07-.54,1.07-1.09s-.35-.91-1.05-1.09c-.38-.11-.95-.14-1.73-.11h-.25v2.41h.2Z"/>
  </g>
  <g>
    <g>
      <path class="cls-9" d="m85.83,102.06c.88,1.09,1.94,2.06,3.18,2.86,6.29,4.06,14.69,2.25,18.75-4.04,2.17-3.36,2.66-7.31,1.7-10.89-.33,2.24-1.12,4.45-2.43,6.47-4.6,7.13-13.83,9.46-21.2,5.6Z"/>
      <path class="cls-5" d="m84.97,86.16c-3.26,5.05-2.74,11.46.86,15.9,7.37,3.86,16.6,1.52,21.2-5.6,1.31-2.03,2.1-4.23,2.43-6.47-.84-3.13-2.8-5.97-5.74-7.86-6.29-4.07-14.69-2.26-18.75,4.04Z"/>
    </g>
    <path class="cls-1" d="m100.49,93.66c.3.38.42.9.36,1.57-.09.8-.43,1.39-1,1.75-.5.3-1.25.49-2.25.55v1.55h-1.11v-1.52h-.87v1.52h-1.11v-1.55h-2.21l.23-1.32h.23c.37.02.6,0,.7-.02.15-.04.24-.16.27-.34v-4.94c-.05-.24-.18-.4-.39-.46-.13-.04-.42-.06-.87-.04h-.18v-1.18l.68.02c.8,0,1.31,0,1.52-.02v-1.8h1.11v1.77l.86-.02v-1.75h1.11v1.8c.77.07,1.36.24,1.77.5.5.3.77.76.82,1.37.09.88-.22,1.5-.93,1.87h0c.56.12.97.36,1.23.71h0Zm-4.85-.98h.18c.64.02,1.13-.02,1.48-.11.61-.15.91-.48.91-.98s-.29-.83-.88-1c-.33-.09-.83-.13-1.48-.11-.11.01-.18.02-.2.02v2.19h0Zm.2,3.53c.77.02,1.35-.02,1.75-.12.71-.18,1.07-.55,1.07-1.09s-.35-.91-1.05-1.09c-.38-.11-.95-.14-1.73-.11h-.25v2.41h.2Z"/>
  </g>
  <g>
    <g>
      <path class="cls-9" d="m85.83,74.05c.88,1.09,1.94,2.06,3.18,2.86,6.29,4.06,14.69,2.25,18.75-4.04,2.17-3.36,2.66-7.31,1.7-10.89-.33,2.24-1.12,4.45-2.43,6.47-4.6,7.13-13.83,9.46-21.2,5.6Z"/>
      <path class="cls-5" d="m84.97,58.16c-3.26,5.05-2.74,11.46.86,15.9,7.37,3.86,16.6,1.52,21.2-5.6,1.31-2.02,2.1-4.23,2.43-6.47-.84-3.13-2.8-5.96-5.74-7.86-6.29-4.07-14.69-2.26-18.75,4.04Z"/>
    </g>
    <path class="cls-1" d="m100.49,65.66c.3.38.42.9.36,1.57-.09.8-.43,1.39-1,1.75-.5.3-1.25.48-2.25.55v1.55h-1.11v-1.52h-.87v1.52h-1.11v-1.55h-2.21l.23-1.32h.23c.37.02.6,0,.7-.02.15-.05.24-.16.27-.34v-4.94c-.05-.24-.18-.4-.39-.46-.13-.04-.42-.06-.87-.04h-.18v-1.18l.68.02c.8,0,1.31,0,1.52-.02v-1.8h1.11v1.77l.86-.02v-1.75h1.11v1.8c.77.07,1.36.24,1.77.5.5.3.77.76.82,1.37.09.88-.22,1.5-.93,1.87h0c.56.12.97.36,1.23.7h0Zm-4.85-.98h.18c.64.02,1.13-.02,1.48-.11.61-.15.91-.48.91-.98s-.29-.83-.88-1c-.33-.09-.83-.13-1.48-.11-.11.02-.18.02-.2.02v2.19h0Zm.2,3.53c.77.02,1.35-.02,1.75-.12.71-.18,1.07-.55,1.07-1.09s-.35-.91-1.05-1.09c-.38-.11-.95-.14-1.73-.11h-.25v2.41h.2Z"/>
  </g>
  <g>
    <g>
      <path class="cls-9" d="m114.1,214.06c.88,1.09,1.94,2.06,3.18,2.86,6.29,4.06,14.69,2.26,18.75-4.04,2.17-3.36,2.66-7.31,1.7-10.89-.33,2.24-1.12,4.45-2.43,6.47-4.6,7.13-13.83,9.46-21.2,5.6Z"/>
      <path class="cls-5" d="m113.25,198.17c-3.26,5.05-2.74,11.46.86,15.89,7.37,3.86,16.6,1.52,21.2-5.6,1.31-2.02,2.11-4.23,2.43-6.47-.84-3.13-2.8-5.97-5.74-7.86-6.29-4.06-14.69-2.26-18.75,4.04Z"/>
    </g>
    <path class="cls-1" d="m128.77,205.67c.3.38.42.9.36,1.57-.09.8-.43,1.39-1,1.75-.5.3-1.25.48-2.25.55v1.55h-1.11v-1.52h-.87v1.52h-1.11v-1.55h-2.21l.23-1.32h.23c.37.02.6,0,.7-.02.15-.05.24-.16.27-.34v-4.94c-.05-.24-.18-.39-.39-.45-.13-.05-.42-.06-.87-.05h-.18v-1.18l.68.02c.8,0,1.31-.01,1.52-.02v-1.8h1.11v1.77l.86-.02v-1.75h1.11v1.8c.77.07,1.36.24,1.77.5.5.3.77.76.82,1.36.09.88-.22,1.5-.93,1.86h0c.56.12.97.36,1.23.71h0Zm-4.85-.98h.18c.64.02,1.13-.02,1.48-.11.6-.15.91-.48.91-.98s-.29-.83-.88-1c-.33-.09-.83-.13-1.48-.11-.11.02-.18.02-.2.02v2.18h0Zm.2,3.53c.77.02,1.36-.02,1.75-.11.71-.18,1.07-.55,1.07-1.09s-.35-.91-1.05-1.09c-.38-.11-.95-.14-1.73-.11h-.25v2.41h.2Z"/>
  </g>
  <g>
    <g>
      <path class="cls-9" d="m114.1,186.06c.88,1.08,1.94,2.06,3.18,2.86,6.29,4.06,14.69,2.25,18.75-4.04,2.17-3.36,2.66-7.31,1.7-10.89-.33,2.24-1.12,4.45-2.43,6.47-4.6,7.13-13.83,9.46-21.2,5.61Z"/>
      <path class="cls-5" d="m113.25,170.17c-3.26,5.05-2.74,11.46.86,15.9,7.37,3.86,16.6,1.52,21.2-5.6,1.31-2.03,2.11-4.23,2.43-6.47-.84-3.13-2.8-5.97-5.74-7.86-6.29-4.07-14.69-2.26-18.75,4.04Z"/>
    </g>
    <path class="cls-1" d="m128.77,177.67c.3.38.42.9.36,1.57-.09.8-.43,1.39-1,1.75-.5.3-1.25.48-2.25.55v1.55h-1.11v-1.52h-.87v1.52h-1.11v-1.55h-2.21l.23-1.32h.23c.37.02.6,0,.7-.02.15-.04.24-.16.27-.34v-4.94c-.05-.24-.18-.4-.39-.45-.13-.04-.42-.06-.87-.04h-.18v-1.18l.68.02c.8,0,1.31,0,1.52-.02v-1.8h1.11v1.77l.86-.02v-1.75h1.11v1.8c.77.08,1.36.24,1.77.5.5.3.77.76.82,1.37.09.88-.22,1.5-.93,1.87h0c.56.12.97.36,1.23.71h0Zm-4.85-.98h.18c.64.02,1.13-.02,1.48-.11.6-.15.91-.48.91-.98s-.29-.83-.88-1c-.33-.09-.83-.13-1.48-.11-.11.02-.18.02-.2.02v2.18h0Zm.2,3.53c.77.02,1.36-.02,1.75-.11.71-.18,1.07-.55,1.07-1.09s-.35-.91-1.05-1.09c-.38-.11-.95-.14-1.73-.11h-.25v2.41h.2Z"/>
  </g>
  <g>
    <g>
      <path class="cls-9" d="m114.1,158.06c.88,1.09,1.94,2.06,3.18,2.86,6.29,4.06,14.69,2.25,18.75-4.04,2.17-3.36,2.66-7.31,1.7-10.89-.33,2.24-1.12,4.44-2.43,6.47-4.6,7.13-13.83,9.46-21.2,5.6Z"/>
      <path class="cls-5" d="m113.25,142.16c-3.26,5.05-2.74,11.46.86,15.9,7.37,3.86,16.6,1.52,21.2-5.6,1.31-2.03,2.11-4.23,2.43-6.47-.84-3.13-2.8-5.97-5.74-7.86-6.29-4.06-14.69-2.25-18.75,4.04Z"/>
    </g>
    <path class="cls-1" d="m128.77,149.67c.3.38.42.9.36,1.57-.09.8-.43,1.39-1,1.75-.5.3-1.25.48-2.25.55v1.55h-1.11v-1.52h-.87v1.52h-1.11v-1.55h-2.21l.23-1.32h.23c.37.02.6,0,.7-.02.15-.04.24-.16.27-.34v-4.94c-.05-.24-.18-.39-.39-.46-.13-.04-.42-.06-.87-.04h-.18v-1.18l.68.02c.8,0,1.31,0,1.52-.02v-1.8h1.11v1.77l.86-.02v-1.75h1.11v1.8c.77.07,1.36.24,1.77.5.5.3.77.76.82,1.37.09.88-.22,1.5-.93,1.87h0c.56.12.97.36,1.23.7h0Zm-4.85-.98h.18c.64.02,1.13-.02,1.48-.11.6-.15.91-.48.91-.98s-.29-.83-.88-1c-.33-.09-.83-.13-1.48-.11-.11.02-.18.02-.2.02v2.19h0Zm.2,3.52c.77.02,1.36-.02,1.75-.11.71-.18,1.07-.55,1.07-1.09s-.35-.91-1.05-1.09c-.38-.11-.95-.15-1.73-.11h-.25v2.41h.2Z"/>
  </g>
  <g>
    <g>
      <path class="cls-9" d="m114.1,130.06c.88,1.09,1.94,2.06,3.18,2.86,6.29,4.06,14.69,2.25,18.75-4.04,2.17-3.35,2.66-7.31,1.7-10.89-.33,2.24-1.12,4.45-2.43,6.47-4.6,7.13-13.83,9.46-21.2,5.6Z"/>
      <path class="cls-5" d="m113.25,114.16c-3.26,5.05-2.74,11.46.86,15.9,7.37,3.86,16.6,1.52,21.2-5.6,1.31-2.03,2.11-4.23,2.43-6.47-.84-3.13-2.8-5.97-5.74-7.86-6.29-4.06-14.69-2.26-18.75,4.04Z"/>
    </g>
    <path class="cls-1" d="m128.77,121.66c.3.38.42.9.36,1.57-.09.81-.43,1.39-1,1.75-.5.3-1.25.49-2.25.55v1.55h-1.11v-1.52h-.87v1.52h-1.11v-1.55h-2.21l.23-1.32h.23c.37.02.6,0,.7-.02.15-.05.24-.16.27-.34v-4.94c-.05-.24-.18-.4-.39-.45-.13-.05-.42-.06-.87-.05h-.18v-1.18l.68.02c.8,0,1.31,0,1.52-.02v-1.8h1.11v1.78l.86-.02v-1.75h1.11v1.8c.77.07,1.36.24,1.77.5.5.3.77.76.82,1.37.09.88-.22,1.5-.93,1.86h0c.56.12.97.36,1.23.71h0Zm-4.85-.98h.18c.64.02,1.13-.02,1.48-.11.6-.15.91-.48.91-.98s-.29-.83-.88-1c-.33-.09-.83-.13-1.48-.11-.11.01-.18.02-.2.02v2.19h0Zm.2,3.53c.77.02,1.36-.02,1.75-.12.71-.18,1.07-.54,1.07-1.09s-.35-.91-1.05-1.09c-.38-.11-.95-.14-1.73-.11h-.25v2.41h.2Z"/>
  </g>
  <g>
    <g>
      <path class="cls-9" d="m114.1,102.06c.88,1.09,1.94,2.06,3.18,2.86,6.29,4.06,14.69,2.25,18.75-4.04,2.17-3.36,2.66-7.31,1.7-10.89-.33,2.24-1.12,4.45-2.43,6.47-4.6,7.13-13.83,9.46-21.2,5.6Z"/>
      <path class="cls-5" d="m113.25,86.16c-3.26,5.05-2.74,11.46.86,15.9,7.37,3.86,16.6,1.52,21.2-5.6,1.31-2.03,2.11-4.23,2.43-6.47-.84-3.13-2.8-5.97-5.74-7.86-6.29-4.07-14.69-2.26-18.75,4.04Z"/>
    </g>
    <path class="cls-1" d="m128.77,93.66c.3.38.42.9.36,1.57-.09.8-.43,1.39-1,1.75-.5.3-1.25.49-2.25.55v1.55h-1.11v-1.52h-.87v1.52h-1.11v-1.55h-2.21l.23-1.32h.23c.37.02.6,0,.7-.02.15-.04.24-.16.27-.34v-4.94c-.05-.24-.18-.4-.39-.46-.13-.04-.42-.06-.87-.04h-.18v-1.18l.68.02c.8,0,1.31,0,1.52-.02v-1.8h1.11v1.77l.86-.02v-1.75h1.11v1.8c.77.07,1.36.24,1.77.5.5.3.77.76.82,1.37.09.88-.22,1.5-.93,1.87h0c.56.12.97.36,1.23.71h0Zm-4.85-.98h.18c.64.02,1.13-.02,1.48-.11.6-.15.91-.48.91-.98s-.29-.83-.88-1c-.33-.09-.83-.13-1.48-.11-.11.01-.18.02-.2.02v2.19h0Zm.2,3.53c.77.02,1.36-.02,1.75-.12.71-.18,1.07-.55,1.07-1.09s-.35-.91-1.05-1.09c-.38-.11-.95-.14-1.73-.11h-.25v2.41h.2Z"/>
  </g>
  <g>
    <g>
      <path class="cls-9" d="m114.1,74.05c.88,1.09,1.94,2.06,3.18,2.86,6.29,4.06,14.69,2.25,18.75-4.04,2.17-3.36,2.66-7.31,1.7-10.89-.33,2.24-1.12,4.45-2.43,6.47-4.6,7.13-13.83,9.46-21.2,5.6Z"/>
      <path class="cls-5" d="m113.25,58.16c-3.26,5.05-2.74,11.46.86,15.9,7.37,3.86,16.6,1.52,21.2-5.6,1.31-2.02,2.11-4.23,2.43-6.47-.84-3.13-2.8-5.96-5.74-7.86-6.29-4.07-14.69-2.26-18.75,4.04Z"/>
    </g>
    <path class="cls-1" d="m128.77,65.66c.3.38.42.9.36,1.57-.09.8-.43,1.39-1,1.75-.5.3-1.25.48-2.25.55v1.55h-1.11v-1.52h-.87v1.52h-1.11v-1.55h-2.21l.23-1.32h.23c.37.02.6,0,.7-.02.15-.05.24-.16.27-.34v-4.94c-.05-.24-.18-.4-.39-.46-.13-.04-.42-.06-.87-.04h-.18v-1.18l.68.02c.8,0,1.31,0,1.52-.02v-1.8h1.11v1.77l.86-.02v-1.75h1.11v1.8c.77.07,1.36.24,1.77.5.5.3.77.76.82,1.37.09.88-.22,1.5-.93,1.87h0c.56.12.97.36,1.23.7h0Zm-4.85-.98h.18c.64.02,1.13-.02,1.48-.11.6-.15.91-.48.91-.98s-.29-.83-.88-1c-.33-.09-.83-.13-1.48-.11-.11.02-.18.02-.2.02v2.19h0Zm.2,3.53c.77.02,1.36-.02,1.75-.12.71-.18,1.07-.55,1.07-1.09s-.35-.91-1.05-1.09c-.38-.11-.95-.14-1.73-.11h-.25v2.41h.2Z"/>
  </g>
  <g class="cls-7">
    <g>
      <g>
        <path class="cls-9" d="m57.72,46.17c.88,1.09,1.94,2.06,3.18,2.86,6.29,4.06,14.69,2.25,18.75-4.04,2.17-3.36,2.67-7.31,1.7-10.89-.33,2.24-1.12,4.45-2.43,6.47-4.6,7.13-13.83,9.46-21.2,5.6Z"/>
        <path class="cls-5" d="m56.86,30.28c-3.26,5.05-2.74,11.46.86,15.9,7.37,3.86,16.6,1.52,21.2-5.6,1.31-2.03,2.11-4.23,2.43-6.47-.84-3.13-2.8-5.97-5.74-7.86-6.29-4.06-14.69-2.26-18.75,4.04Z"/>
      </g>
      <path class="cls-1" d="m72.38,37.78c.3.38.42.9.36,1.57-.09.81-.43,1.39-1,1.75-.5.3-1.25.49-2.25.55v1.55h-1.11v-1.53h-.86v1.53h-1.11v-1.55h-2.21l.23-1.32h.23c.37.02.6,0,.7-.02.15-.04.24-.16.27-.34v-4.94c-.05-.24-.18-.39-.39-.46-.13-.04-.42-.06-.87-.04h-.18v-1.18l.68.02c.81,0,1.31,0,1.52-.02v-1.8h1.11v1.78l.86-.02v-1.75h1.11v1.8c.77.08,1.36.24,1.77.5.5.3.78.76.82,1.37.09.88-.22,1.5-.93,1.86h0c.56.12.97.36,1.23.71h0Zm-4.85-.98h.18c.64.02,1.13-.02,1.48-.11.6-.15.91-.48.91-.98s-.29-.83-.89-1c-.33-.09-.83-.13-1.48-.11-.11.01-.18.02-.2.02v2.19h0Zm.2,3.53c.78.02,1.36-.02,1.75-.11.71-.18,1.07-.55,1.07-1.09s-.35-.91-1.04-1.09c-.38-.11-.96-.14-1.73-.11h-.25v2.41h.2Z"/>
    </g>
  </g>
  <path class="cls-5" d="m68.31,24.99c7.04,0,12.76,5.73,12.76,12.76s-5.73,12.76-12.76,12.76-12.76-5.73-12.76-12.76,5.73-12.76,12.76-12.76m0-.8c-7.49,0-13.56,6.07-13.56,13.57s6.07,13.57,13.56,13.57,13.57-6.07,13.57-13.57c0-7.49-6.07-13.57-13.57-13.57h0Z"/>
  <path class="cls-5" d="m96.37,24.99c7.04,0,12.76,5.73,12.76,12.76s-5.73,12.76-12.76,12.76-12.76-5.73-12.76-12.76c0-7.04,5.73-12.76,12.76-12.76m0-.8c-7.49,0-13.57,6.07-13.57,13.57s6.07,13.57,13.57,13.57,13.57-6.07,13.57-13.57-6.07-13.57-13.57-13.57h0Z"/>
  <path class="cls-5" d="m124.65,24.99c7.04,0,12.76,5.73,12.76,12.76s-5.73,12.76-12.76,12.76-12.76-5.73-12.76-12.76c0-7.04,5.73-12.76,12.76-12.76m0-.8c-7.49,0-13.57,6.07-13.57,13.57s6.07,13.57,13.57,13.57,13.56-6.07,13.56-13.57-6.07-13.57-13.56-13.57h0Z"/>
  <path class="cls-1" d="m135.11,221.85h-3.2c-.44,0-.8-.36-.8-.8s.36-.8.8-.8h3.2c.44,0,.8.36.8.8s-.36.8-.8.8Zm-8.8,0h-3.2c-.44,0-.8-.36-.8-.8s.36-.8.8-.8h3.2c.44,0,.8.36.8.8s-.36.8-.8.8Zm-8.8,0h-3.2c-.44,0-.8-.36-.8-.8s.36-.8.8-.8h3.2c.44,0,.8.36.8.8s-.36.8-.8.8Zm-8.8,0h-3.2c-.44,0-.8-.36-.8-.8s.36-.8.8-.8h3.2c.44,0,.8.36.8.8s-.36.8-.8.8Zm-8.8,0h-3.2c-.44,0-.8-.36-.8-.8s.36-.8.8-.8h3.2c.44,0,.8.36.8.8s-.36.8-.8.8Zm-8.8,0h-3.2c-.44,0-.8-.36-.8-.8s.36-.8.8-.8h3.2c.44,0,.8.36.8.8s-.36.8-.8.8Zm-8.8,0h-3.2c-.44,0-.8-.36-.8-.8s.36-.8.8-.8h3.2c.44,0,.8.36.8.8s-.36.8-.8.8Zm-8.8,0h-3.2c-.44,0-.8-.36-.8-.8s.36-.8.8-.8h3.2c.44,0,.8.36.8.8s-.36.8-.8.8Zm-8.8,0h-3.2c-.44,0-.8-.36-.8-.8s.36-.8.8-.8h3.2c.44,0,.8.36.8.8s-.36.8-.8.8Zm-8.8,0h-3.2v-1.6h3.2c.44,0,.8.36.8.8s-.36.8-.8.8Zm84-.8c-.44,0-.8-.36-.8-.8v-3.2c0-.44.36-.8.8-.8s.8.36.8.8v3.2c0,.44-.36.8-.8.8Zm-87.2-4.8c-.44,0-.8-.36-.8-.8v-3.2c0-.44.36-.8.8-.8s.8.36.8.8v3.2c0,.44-.36.8-.8.8Zm87.2-4c-.44,0-.8-.36-.8-.8v-3.2c0-.44.36-.8.8-.8s.8.36.8.8v3.2c0,.44-.36.8-.8.8Zm-87.2-4.8c-.44,0-.8-.36-.8-.8v-3.2c0-.44.36-.8.8-.8s.8.36.8.8v3.2c0,.44-.36.8-.8.8Zm87.2-4c-.44,0-.8-.36-.8-.8v-3.2c0-.44.36-.8.8-.8s.8.36.8.8v3.2c0,.44-.36.8-.8.8Zm-87.2-4.8c-.44,0-.8-.36-.8-.8v-3.2c0-.44.36-.8.8-.8s.8.36.8.8v3.2c0,.44-.36.8-.8.8Zm87.2-4c-.44,0-.8-.36-.8-.8v-3.2c0-.44.36-.8.8-.8s.8.36.8.8v3.2c0,.44-.36.8-.8.8Zm-87.2-4.8c-.44,0-.8-.36-.8-.8v-3.2c0-.44.36-.8.8-.8s.8.36.8.8v3.2c0,.44-.36.8-.8.8Zm87.2-4c-.44,0-.8-.36-.8-.8v-3.2c0-.44.36-.8.8-.8s.8.36.8.8v3.2c0,.44-.36.8-.8.8Zm-87.2-4.8c-.44,0-.8-.36-.8-.8v-3.2c0-.44.36-.8.8-.8s.8.36.8.8v3.2c0,.44-.36.8-.8.8Zm87.2-4c-.44,0-.8-.36-.8-.8v-3.2c0-.44.36-.8.8-.8s.8.36.8.8v3.2c0,.44-.36.8-.8.8Zm-87.2-4.8c-.44,0-.8-.36-.8-.8v-3.2c0-.44.36-.8.8-.8s.8.36.8.8v3.2c0,.44-.36.8-.8.8Zm87.2-4c-.44,0-.8-.36-.8-.8v-3.2c0-.44.36-.8.8-.8s.8.36.8.8v3.2c0,.44-.36.8-.8.8Zm-87.2-4.8c-.44,0-.8-.36-.8-.8v-3.2c0-.44.36-.8.8-.8s.8.36.8.8v3.2c0,.44-.36.8-.8.8Zm87.2-4c-.44,0-.8-.36-.8-.8v-3.2c0-.44.36-.8.8-.8s.8.36.8.8v3.2c0,.44-.36.8-.8.8Zm-87.2-4.8c-.44,0-.8-.36-.8-.8v-3.2c0-.44.36-.8.8-.8s.8.36.8.8v3.2c0,.44-.36.8-.8.8Zm87.2-4c-.44,0-.8-.36-.8-.8v-3.2c0-.44.36-.8.8-.8s.8.36.8.8v3.2c0,.44-.36.8-.8.8Zm-87.2-4.8c-.44,0-.8-.36-.8-.8v-3.2c0-.44.36-.8.8-.8s.8.36.8.8v3.2c0,.44-.36.8-.8.8Zm87.2-4c-.44,0-.8-.36-.8-.8v-3.2c0-.44.36-.8.8-.8s.8.36.8.8v3.2c0,.44-.36.8-.8.8Zm-87.2-4.8c-.44,0-.8-.36-.8-.8v-3.2c0-.44.36-.8.8-.8s.8.36.8.8v3.2c0,.44-.36.8-.8.8Zm87.2-4c-.44,0-.8-.36-.8-.8v-3.2c0-.44.36-.8.8-.8s.8.36.8.8v3.2c0,.44-.36.8-.8.8Zm-87.2-4.8c-.44,0-.8-.36-.8-.8v-3.2c0-.44.36-.8.8-.8s.8.36.8.8v3.2c0,.44-.36.8-.8.8Zm87.2-4c-.44,0-.8-.36-.8-.8v-3.2c0-.44.36-.8.8-.8s.8.36.8.8v3.2c0,.44-.36.8-.8.8Zm-87.2-4.8c-.44,0-.8-.36-.8-.8v-3.2c0-.44.36-.8.8-.8s.8.36.8.8v3.2c0,.44-.36.8-.8.8Zm87.2-4c-.44,0-.8-.36-.8-.8v-3.2c0-.44.36-.8.8-.8s.8.36.8.8v3.2c0,.44-.36.8-.8.8Zm-87.2-4.8c-.44,0-.8-.36-.8-.8v-3.2c0-.44.36-.8.8-.8s.8.36.8.8v3.2c0,.44-.36.8-.8.8Zm87.2-4c-.44,0-.8-.36-.8-.8v-3.2c0-.44.36-.8.8-.8s.8.36.8.8v3.2c0,.44-.36.8-.8.8Zm-87.2-4.8c-.44,0-.8-.36-.8-.8v-3.2c0-.44.36-.8.8-.8s.8.36.8.8v3.2c0,.44-.36.8-.8.8Zm87.2-4c-.44,0-.8-.36-.8-.8v-3.2c0-.44.36-.8.8-.8s.8.36.8.8v3.2c0,.44-.36.8-.8.8Zm-87.2-4.8c-.44,0-.8-.36-.8-.8v-3.2c0-.44.36-.8.8-.8s.8.36.8.8v3.2c0,.44-.36.8-.8.8Zm87.2-4c-.44,0-.8-.36-.8-.8v-3.2c0-.44.36-.8.8-.8s.8.36.8.8v3.2c0,.44-.36.8-.8.8Zm-87.2-4.8c-.44,0-.8-.36-.8-.8v-3.2c0-.44.36-.8.8-.8s.8.36.8.8v3.2c0,.44-.36.8-.8.8Zm87.2-4c-.44,0-.8-.36-.8-.8v-3.2c0-.44.36-.8.8-.8s.8.36.8.8v3.2c0,.44-.36.8-.8.8Zm-87.2-4.8c-.44,0-.8-.36-.8-.8v-3.2c0-.44.36-.8.8-.8s.8.36.8.8v3.2c0,.44-.36.8-.8.8Zm87.2-4c-.44,0-.8-.36-.8-.8v-3.2c0-.44.36-.8.8-.8s.8.36.8.8v3.2c0,.44-.36.8-.8.8Zm-87.2-4.8c-.44,0-.8-.36-.8-.8v-3.2c0-.44.36-.8.8-.8s.8.36.8.8v3.2c0,.44-.36.8-.8.8Zm87.2-4c-.44,0-.8-.36-.8-.8v-3.2c0-.44.36-.8.8-.8s.8.36.8.8v3.2c0,.44-.36.8-.8.8Zm-87.2-4.8c-.44,0-.8-.36-.8-.8v-3.2c0-.44.36-.8.8-.8s.8.36.8.8v3.2c0,.44-.36.8-.8.8Zm87.2-4c-.44,0-.8-.36-.8-.8v-3.2c0-.44.36-.8.8-.8s.8.36.8.8v3.2c0,.44-.36.8-.8.8Zm-87.2-4.8c-.44,0-.8-.36-.8-.8v-3.2c0-.44.36-.8.8-.8s.8.36.8.8v3.2c0,.44-.36.8-.8.8Zm87.2-4c-.44,0-.8-.36-.8-.8v-3.2c0-.44.36-.8.8-.8s.8.36.8.8v3.2c0,.44-.36.8-.8.8Zm-87.2-4.8c-.44,0-.8-.36-.8-.8v-3.2c0-.44.36-.8.8-.8s.8.36.8.8v3.2c0,.44-.36.8-.8.8Zm87.2-4c-.44,0-.8-.36-.8-.8v-3.2c0-.44.36-.8.8-.8s.8.36.8.8v3.2c0,.44-.36.8-.8.8Zm-87.2-4.8c-.44,0-.8-.36-.8-.8v-3.2c0-.44.36-.8.8-.8s.8.36.8.8v3.2c0,.44-.36.8-.8.8Zm87.2-4c-.44,0-.8-.36-.8-.8v-3.2c0-.44.36-.8.8-.8s.8.36.8.8v3.2c0,.44-.36.8-.8.8Zm-4.8-4h-3.2c-.44,0-.8-.36-.8-.8s.36-.8.8-.8h3.2c.44,0,.8.36.8.8s-.36.8-.8.8Zm-8.8,0h-3.2c-.44,0-.8-.36-.8-.8s.36-.8.8-.8h3.2c.44,0,.8.36.8.8s-.36.8-.8.8Zm-8.8,0h-3.2c-.44,0-.8-.36-.8-.8s.36-.8.8-.8h3.2c.44,0,.8.36.8.8s-.36.8-.8.8Zm-8.8,0h-3.2c-.44,0-.8-.36-.8-.8s.36-.8.8-.8h3.2c.44,0,.8.36.8.8s-.36.8-.8.8Zm-8.8,0h-3.2c-.44,0-.8-.36-.8-.8s.36-.8.8-.8h3.2c.44,0,.8.36.8.8s-.36.8-.8.8Zm-8.8,0h-3.2c-.44,0-.8-.36-.8-.8s.36-.8.8-.8h3.2c.44,0,.8.36.8.8s-.36.8-.8.8Zm-8.8,0h-3.2c-.44,0-.8-.36-.8-.8s.36-.8.8-.8h3.2c.44,0,.8.36.8.8s-.36.8-.8.8Zm-8.8,0h-3.2c-.44,0-.8-.36-.8-.8s.36-.8.8-.8h3.2c.44,0,.8.36.8.8s-.36.8-.8.8Zm-8.8,0h-3.2c-.44,0-.8-.36-.8-.8s.36-.8.8-.8h3.2c.44,0,.8.36.8.8s-.36.8-.8.8Zm-8.8,0h-3.2c-.44,0-.8-.36-.8-.8s.36-.8.8-.8h3.2c.44,0,.8.36.8.8s-.36.8-.8.8Z"/>
</svg>